<?xml version="1.0" encoding="utf-8"?>
<!-- Generator: Adobe Illustrator 17.0.0, SVG Export Plug-In . SVG Version: 6.00 Build 0)  -->
<!DOCTYPE svg PUBLIC "-//W3C//DTD SVG 1.1//EN" "http://www.w3.org/Graphics/SVG/1.1/DTD/svg11.dtd">
<svg version="1.1" id="Layer_1" xmlns="http://www.w3.org/2000/svg" xmlns:xlink="http://www.w3.org/1999/xlink" x="0px" y="0px"
	 width="470px" height="280px" viewBox="0 0 470 280" enable-background="new 0 0 470 280" xml:space="preserve">
<g>
	<path fill="#F7CBDD" d="M413.338,123.931c0,0,30.667-1.333,33.333-21.333c2.667-20-56-40-56-40
		c-74.667-23.333-124,29.333-124,29.333c5.333-25.333-24-49.333-72.667-50.667c-48.667-1.333-96,34.667-102.667,50
		c-6.667,15.333,8.667,20.667,8.667,20.667c-25.333-8-47.333,2.667-48.667,22.667s33.333,22,33.333,22
		c-43.333,6-22,31.333-22,31.333c54.508,69.258,133.06,31.807,138.965,28.853c0.234-0.117,0.368-0.187,0.368-0.187
		c1.939,1.281,3.879,2.502,5.82,3.688c0.619,0.378,1.237,0.736,1.856,1.105c1.341,0.799,2.681,1.582,4.022,2.338
		c0.7,0.394,1.399,0.78,2.099,1.162c1.303,0.712,2.606,1.402,3.91,2.074c0.666,0.344,1.332,0.692,1.998,1.025
		c1.523,0.761,3.044,1.49,4.566,2.198c0.421,0.196,0.842,0.406,1.262,0.597c1.937,0.882,3.873,1.72,5.807,2.518
		c0.501,0.207,1.001,0.395,1.502,0.596c1.445,0.58,2.888,1.144,4.331,1.678c0.675,0.25,1.35,0.488,2.025,0.728
		c1.294,0.46,2.586,0.904,3.878,1.328c0.684,0.225,1.368,0.449,2.052,0.664c1.373,0.432,2.745,0.838,4.115,1.23
		c0.56,0.16,1.121,0.331,1.68,0.484c1.923,0.528,3.843,1.025,5.758,1.477c0.185,0.044,0.37,0.079,0.555,0.122
		c1.731,0.402,3.458,0.773,5.182,1.115c0.601,0.119,1.2,0.225,1.799,0.337c1.326,0.248,2.65,0.482,3.97,0.695
		c0.656,0.106,1.311,0.207,1.965,0.305c1.319,0.196,2.635,0.373,3.948,0.536c0.589,0.073,1.179,0.151,1.767,0.218
		c1.662,0.188,3.32,0.349,4.972,0.485c0.214,0.017,0.43,0.043,0.644,0.059c1.895,0.148,3.783,0.258,5.664,0.34
		c0.444,0.019,0.885,0.026,1.328,0.042c1.427,0.051,2.85,0.086,4.267,0.1c0.578,0.005,1.153,0.004,1.729,0.004
		c1.322-0.001,2.64-0.017,3.953-0.049c0.55-0.013,1.1-0.025,1.648-0.044c1.48-0.051,2.953-0.122,4.422-0.211
		c0.343-0.021,0.688-0.034,1.031-0.057c1.863-0.124,3.717-0.275,5.56-0.457c0.099-0.01,0.196-0.023,0.295-0.033
		c1.699-0.171,3.389-0.37,5.071-0.589c0.441-0.057,0.88-0.122,1.32-0.183c1.366-0.189,2.727-0.391,4.08-0.611
		c0.472-0.077,0.944-0.154,1.415-0.234c1.407-0.24,2.806-0.496,4.198-0.767c0.349-0.068,0.699-0.131,1.046-0.201
		c3.554-0.714,7.06-1.527,10.511-2.433c0.218-0.057,0.433-0.119,0.651-0.177c1.485-0.396,2.96-0.808,4.425-1.237
		c0.344-0.101,0.686-0.203,1.029-0.306c1.398-0.418,2.787-0.85,4.165-1.296c0.283-0.091,0.566-0.181,0.848-0.274
		c5.041-1.657,9.945-3.499,14.697-5.495c0.188-0.079,0.374-0.159,0.561-0.239c1.405-0.595,2.796-1.203,4.174-1.824
		c0.2-0.09,0.401-0.18,0.601-0.271c1.499-0.681,2.983-1.374,4.447-2.084c0.013-0.006,0.026-0.012,0.039-0.019
		c3.121-1.512,6.163-3.085,9.123-4.709c0.001,0,0.001,0,0.002-0.001l0,0c29.911-16.415,51.252-37.973,58.216-53.448
		C462.004,128.597,413.338,123.931,413.338,123.931z"/>
	<ellipse fill="#F7CBDD" cx="39.004" cy="42.931" rx="29" ry="19.667"/>
</g>
<g>
	<path fill="#F5F7F8" d="M207.246,209.607c0,0-82.667,43.333-139.333-28.667c0,0-21.333-25.333,22-31.333c0,0-34.667-2-33.333-22
		c1.333-20,23.333-30.667,48.667-22.667c0,0-15.333-5.333-8.667-20.667c6.667-15.333,54-51.333,102.667-50s78,25.333,72.667,50.667
		c0,0,49.333-52.667,124-29.333c0,0,58.667,20,56,40s-33.333,21.333-33.333,21.333s48.667,4.667,30.667,44.667
		S317.246,282.274,207.246,209.607z"/>
	<ellipse fill="#F5F7F8" cx="44.246" cy="35.94" rx="29" ry="19.667"/>
</g>
<ellipse fill="#EDF0F0" cx="44.246" cy="35.94" rx="29" ry="19.667"/>
<path opacity="0.3" fill="#DBDFDF" d="M222.378,154.94c-28.14,21.984-91.077,28.113-152.772,28.083
	c56.605,69.045,137.641,26.584,137.641,26.584c67.443,44.553,136.381,31.462,183.784,5.448
	C310.016,197.497,222.378,154.94,222.378,154.94z"/>
</svg>
