<?xml version="1.0" encoding="utf-8"?>
<!-- Generator: Adobe Illustrator 17.0.0, SVG Export Plug-In . SVG Version: 6.00 Build 0)  -->
<!DOCTYPE svg PUBLIC "-//W3C//DTD SVG 1.1//EN" "http://www.w3.org/Graphics/SVG/1.1/DTD/svg11.dtd">
<svg version="1.1" id="Layer_1" xmlns="http://www.w3.org/2000/svg" xmlns:xlink="http://www.w3.org/1999/xlink" x="0px" y="0px"
	 width="470px" height="280px" viewBox="0 0 470 280" enable-background="new 0 0 470 280" xml:space="preserve">
<path fill="#F7CBDD" d="M418.746,83.848c-17.747-8.873-74.213,23.393-74.213,23.393c11.293-58.08-66.147-65.34-66.147-65.34
	c-70.18-2.42-90.347,66.147-90.347,66.147C143.673,66.102,37.193,79.815,29.126,129.022c-8.067,49.207,57.273,64.533,57.273,64.533
	s-0.027,0.221-0.051,0.626l0,0c0,0.001,0,0.002,0,0.003c-0.008,0.141-0.016,0.302-0.022,0.487c0,0.003,0,0.006,0,0.009
	c-0.006,0.18-0.01,0.38-0.012,0.6c0,0.008,0,0.015,0,0.023c-0.001,0.208,0,0.437,0.005,0.678c0.001,0.033,0.001,0.063,0.002,0.096
	c0.005,0.233,0.014,0.483,0.027,0.744c0.002,0.05,0.005,0.1,0.007,0.151c0.014,0.26,0.032,0.533,0.054,0.818
	c0.005,0.061,0.01,0.122,0.015,0.184c0.025,0.291,0.054,0.592,0.089,0.906c0.007,0.06,0.014,0.121,0.022,0.181
	c0.039,0.327,0.082,0.663,0.134,1.013c0.007,0.046,0.015,0.094,0.022,0.14c0.052,0.341,0.111,0.692,0.177,1.053
	c0.008,0.045,0.015,0.088,0.024,0.133c0.07,0.372,0.151,0.757,0.238,1.148c0.017,0.075,0.032,0.148,0.049,0.224
	c0.087,0.382,0.185,0.773,0.29,1.17c0.024,0.091,0.048,0.181,0.073,0.273c0.108,0.396,0.226,0.798,0.353,1.208
	c0.03,0.097,0.061,0.194,0.092,0.291c0.133,0.416,0.274,0.837,0.428,1.264c0.032,0.09,0.067,0.18,0.1,0.27
	c0.163,0.444,0.336,0.892,0.524,1.346c0.027,0.066,0.057,0.133,0.085,0.2c0.189,0.449,0.389,0.903,0.603,1.362
	c0.023,0.049,0.044,0.098,0.067,0.147c0.224,0.475,0.467,0.954,0.72,1.437c0.045,0.087,0.089,0.173,0.135,0.259
	c0.25,0.467,0.517,0.938,0.796,1.411c0.06,0.101,0.119,0.202,0.18,0.303c0.283,0.47,0.582,0.941,0.895,1.414
	c0.068,0.102,0.137,0.204,0.206,0.307c0.323,0.478,0.66,0.957,1.016,1.436c0.069,0.092,0.14,0.185,0.209,0.277
	c0.373,0.494,0.76,0.989,1.17,1.483c0.053,0.064,0.109,0.128,0.163,0.192c0.42,0.5,0.857,1,1.316,1.499
	c0.03,0.032,0.058,0.065,0.088,0.097c0.473,0.51,0.972,1.018,1.488,1.524c0.074,0.073,0.145,0.145,0.22,0.218
	c0.503,0.486,1.03,0.97,1.574,1.45c0.1,0.088,0.199,0.177,0.301,0.265c0.545,0.473,1.112,0.942,1.7,1.408
	c0.114,0.09,0.228,0.179,0.343,0.269c0.6,0.467,1.221,0.931,1.866,1.389c0.109,0.078,0.222,0.155,0.333,0.232
	c0.672,0.47,1.364,0.935,2.086,1.393c0.081,0.051,0.166,0.102,0.248,0.153c0.755,0.474,1.533,0.942,2.343,1.402
	c0.02,0.011,0.038,0.022,0.058,0.034c0.817,0.462,1.67,0.914,2.546,1.36c0.103,0.052,0.202,0.105,0.305,0.157
	c0.845,0.425,1.723,0.839,2.625,1.247c0.144,0.065,0.287,0.131,0.432,0.196c0.895,0.398,1.82,0.786,2.772,1.166
	c0.164,0.065,0.329,0.13,0.495,0.195c0.964,0.377,1.955,0.745,2.978,1.102c0.159,0.056,0.322,0.11,0.483,0.165
	c1.057,0.362,2.14,0.714,3.26,1.053c0.116,0.035,0.236,0.069,0.353,0.103c1.186,0.354,2.401,0.697,3.659,1.022
	c6.579,1.702,13.398,2.462,20.259,2.512c3.049,0.022,6.106-0.096,9.155-0.334c0.762-0.059,1.524-0.127,2.284-0.201
	c1.521-0.148,3.039-0.325,4.552-0.529c0.756-0.102,1.511-0.21,2.264-0.324c1.506-0.229,3.006-0.482,4.497-0.759
	c0.746-0.138,1.489-0.282,2.23-0.431c1.482-0.298,2.954-0.617,4.414-0.954c0.73-0.169,1.457-0.342,2.181-0.52
	c1.447-0.356,2.882-0.728,4.301-1.116c0.71-0.194,1.415-0.391,2.117-0.592c1.403-0.402,2.79-0.817,4.158-1.243
	c0.684-0.213,1.364-0.429,2.038-0.647c1.349-0.437,2.679-0.883,3.987-1.337c0.654-0.227,1.302-0.455,1.945-0.685
	c1.286-0.46,2.548-0.926,3.786-1.395c18.567-7.04,31.505-14.839,31.505-14.839c13.411,10.411,27.092,16.653,40.283,20.052
	c1.884,0.486,3.759,0.913,5.621,1.287s3.712,0.693,5.548,0.962c1.836,0.269,3.657,0.488,5.461,0.66
	c1.805,0.172,3.592,0.298,5.362,0.381c1.769,0.083,3.519,0.124,5.248,0.126c1.729,0.002,3.437-0.035,5.122-0.106
	c1.685-0.072,3.346-0.178,4.982-0.315s3.246-0.306,4.829-0.501c1.583-0.195,3.138-0.418,4.663-0.664
	c24.402-3.933,41.14-13.814,41.14-13.814c0.9-0.36,1.78-0.728,2.645-1.103c0.3-0.13,0.588-0.264,0.884-0.395
	c0.556-0.247,1.111-0.495,1.652-0.747c0.349-0.163,0.688-0.33,1.031-0.495c0.471-0.227,0.941-0.455,1.401-0.686
	c0.364-0.183,0.72-0.369,1.077-0.555c0.418-0.218,0.835-0.437,1.244-0.658c0.373-0.202,0.74-0.405,1.105-0.61
	c0.372-0.209,0.741-0.419,1.105-0.631c0.379-0.22,0.755-0.442,1.126-0.665c0.328-0.198,0.65-0.397,0.971-0.597
	c0.388-0.242,0.776-0.484,1.155-0.729c0.273-0.176,0.538-0.355,0.806-0.533c0.41-0.273,0.821-0.546,1.22-0.823
	c0.182-0.127,0.358-0.255,0.538-0.383c2.871-2.032,5.444-4.161,7.744-6.365c0.027-0.026,0.055-0.052,0.082-0.078
	c0.456-0.439,0.901-0.881,1.336-1.326c0.035-0.036,0.071-0.072,0.106-0.107c0.436-0.447,0.86-0.897,1.275-1.349
	c0.024-0.027,0.049-0.053,0.073-0.08c24.597-26.925,12.564-62.542,12.564-62.542C450.206,121.794,436.493,92.722,418.746,83.848z"/>
<g>
	<path fill="#F5F7F8" d="M234.826,204.04c0,0-58.887,35.493-105.673,23.393c-46.787-12.1-42.753-44.367-42.753-44.367
		s-65.34-15.327-57.273-64.533s114.547-62.92,158.913-20.973c0,0,20.167-68.567,90.347-66.147c0,0,77.44,7.26,66.147,65.34
		c0,0,56.467-32.267,74.213-23.393c17.747,8.873,31.46,37.946-14.52,57.289c0,0,19.36,57.257-41.14,81.457
		C363.086,212.107,296.133,251.633,234.826,204.04z"/>
	<path opacity="0.3" fill="#DBDFDF" d="M203.584,168.087c-34.043,15.261-79.474,17.424-117.236,15.606
		c-0.269,4.536-0.144,32.633,42.804,43.74c46.787,12.1,105.673-23.393,105.673-23.393c61.307,47.593,128.26,8.067,128.26,8.067
		c13.608-5.443,23.166-12.561,29.822-20.321C309.97,219.055,203.584,168.087,203.584,168.087z"/>
</g>
</svg>
