<?xml version="1.0" encoding="utf-8"?>
<!-- Generator: Adobe Illustrator 17.0.0, SVG Export Plug-In . SVG Version: 6.00 Build 0)  -->
<!DOCTYPE svg PUBLIC "-//W3C//DTD SVG 1.1//EN" "http://www.w3.org/Graphics/SVG/1.1/DTD/svg11.dtd">
<svg version="1.1" id="Layer_1" xmlns="http://www.w3.org/2000/svg" xmlns:xlink="http://www.w3.org/1999/xlink" x="0px" y="0px"
	 width="985px" height="720px" viewBox="0 0 985 720" enable-background="new 0 0 985 720" xml:space="preserve">
<path fill="none" stroke="#080B14" stroke-miterlimit="10" d="M533.532,260.904"/>
<radialGradient id="SVGID_1_" cx="-378.463" cy="283.325" r="0" gradientTransform="matrix(1 0 0 1 772 436)" gradientUnits="userSpaceOnUse">
	<stop  offset="0.5074" style="stop-color:#0F727E"/>
	<stop  offset="0.8325" style="stop-color:#00B4DE"/>
</radialGradient>
<path fill="url(#SVGID_1_)" d="M393.537,719.325"/>
<radialGradient id="SVGID_2_" cx="-456.433" cy="271.302" r="0" gradientTransform="matrix(1 0 0 1 772 436)" gradientUnits="userSpaceOnUse">
	<stop  offset="0.5074" style="stop-color:#0F727E"/>
	<stop  offset="0.8325" style="stop-color:#00B4DE"/>
</radialGradient>
<path fill="url(#SVGID_2_)" d="M315.567,707.302"/>
<path fill="none" stroke="#263872" stroke-miterlimit="10" d="M739,806.5"/>
<path fill="#092537" d="M424.913,352.979c3.06,2.505,6.272,6.271,6.811,9.163s-2.654,21.182-2.654,21.182
	s-17.017,19.886-20.894,23.617c-3.877,3.732-31.125,2.335-33.457,1.869s-14.466-11.2-14.466-13.066
	c0-1.868,10.599-36.616,14.738-39.221c4.138-2.605,22.595-8.702,22.595-8.702"/>
<linearGradient id="SVGID_3_" gradientUnits="userSpaceOnUse" x1="145.1422" y1="382.8299" x2="592.75" y2="382.8299" gradientTransform="matrix(1 0 0 -1 96.5 775)">
	<stop  offset="0.5128" style="stop-color:#405684"/>
	<stop  offset="0.8325" style="stop-color:#5A7ABA"/>
</linearGradient>
<path fill="url(#SVGID_3_)" d="M644.517,284.214c0,0-125.231,17.578-153.027,28.837c-0.699,0.283-1.336,0.561-1.907,0.836
	c0,0-4.087,1.578-10.628,5.219l0.063-0.362c0,0-33.726,17.592-49.949,38.431s-25.701,25.046-33.051,25.269
	c-7.35,0.223-14.952-11.421-17.99-18.67c-0.48-1.145-2.041-6.201-2.528-6.357c-0.638-2.015-0.102,0.601-0.51-0.892
	c-9.493,5.709-20.91,14.321-29.14,25.962c-19.132,27.066-46.2,60.666-56.466,35c-10.268-25.668-29.4-94.734-40.134-93.334
	c-10.734,1.4-7.934,100.8-4.668,120.401c3.266,19.6,6.534,56.934,33.6,55.534c27.068-1.4,411.068-52.541,411.068-52.541
	S619.317,375.874,644.517,284.214z"/>
<polyline fill="#2B2E33" points="555.355,557.395 489.031,496.684 500.333,491.833 562.558,551.623 "/>
<g>
	<ellipse fill="#070707" cx="725.664" cy="544.795" rx="52.126" ry="60.49"/>
	<ellipse fill="#D2D4D5" cx="721.531" cy="544.795" rx="36.959" ry="45.392"/>
	<g>
		<ellipse fill="#2B2E33" cx="721.531" cy="544.795" rx="9.18" ry="12.6"/>
	</g>
</g>
<path fill="#2B2E33" d="M699.751,457.631l28.349,89.663l-10.5,8.701l-46.197-98.364C694.501,443.407,699.75,457.631,699.751,457.631
	z"/>
<g>
	<g>
		<g>
			<defs>
				<polygon id="SVGID_4_" points="532.826,401.328 530.693,347.82 599.476,348.828 600.933,406.942 				"/>
			</defs>
			<clipPath id="SVGID_5_">
				<use xlink:href="#SVGID_4_"  overflow="visible"/>
			</clipPath>
			<g clip-path="url(#SVGID_5_)">
				<g enable-background="new    ">
					<g>
						<g>
							<defs>
								<polyline id="SVGID_6_" points="600.597,393.535 538.839,401.824 531.187,360.227 591.832,348.716 600.597,393.535 								
									"/>
							</defs>
							<defs>
								<polyline id="SVGID_7_" points="600.597,393.535 538.839,401.824 531.187,360.227 591.832,348.716 600.597,393.535 								
									"/>
							</defs>
							<defs>
								<polyline id="SVGID_8_" points="600.597,393.535 538.839,401.824 531.187,360.227 591.832,348.716 600.597,393.535 								
									"/>
							</defs>
							<defs>
								<polyline id="SVGID_9_" points="600.597,393.535 538.839,401.824 531.187,360.227 591.832,348.716 600.597,393.535 								
									"/>
							</defs>
							<defs>
								<polyline id="SVGID_10_" points="600.597,393.535 538.839,401.824 531.187,360.227 591.832,348.716 600.597,393.535 
																	"/>
							</defs>
							<defs>
								<polyline id="SVGID_11_" points="600.597,393.535 538.839,401.824 531.187,360.227 591.832,348.716 600.597,393.535 
																	"/>
							</defs>
							<clipPath id="SVGID_12_">
								<use xlink:href="#SVGID_6_"  overflow="visible"/>
							</clipPath>
							<clipPath id="SVGID_13_" clip-path="url(#SVGID_12_)">
								<use xlink:href="#SVGID_7_"  overflow="visible"/>
							</clipPath>
							<clipPath id="SVGID_14_" clip-path="url(#SVGID_13_)">
								<use xlink:href="#SVGID_8_"  overflow="visible"/>
							</clipPath>
							<clipPath id="SVGID_15_" clip-path="url(#SVGID_14_)">
								<use xlink:href="#SVGID_9_"  overflow="visible"/>
							</clipPath>
							<clipPath id="SVGID_16_" clip-path="url(#SVGID_15_)">
								<use xlink:href="#SVGID_10_"  overflow="visible"/>
							</clipPath>
							<clipPath id="SVGID_17_" clip-path="url(#SVGID_16_)">
								<use xlink:href="#SVGID_11_"  overflow="visible"/>
							</clipPath>
							<path opacity="0.502" clip-path="url(#SVGID_17_)" fill="#FFFFFF" enable-background="new    " d="M557.801,377.027
								l-0.056,0.158l0.15,0.181l0.056-0.158L557.801,377.027"/>
						</g>
					</g>
				</g>
			</g>
		</g>
		<path fill="#2B2E33" d="M706.699,479.608c-9.8,2.402-265.244,20.476-265.244,20.476s-220.556,5.121-263.956,7.022
			s-161-3.301-161-25.227s32.2-22.875,46.2-25.675s371,0,453.6,0s305.2-25.2,329-25.2s25.2,15.4,15.4,23.8s-44.8,8.4-44.8,8.4
			S716.499,477.206,706.699,479.608z"/>
		
			<linearGradient id="SVGID_18_" gradientUnits="userSpaceOnUse" x1="-80.001" y1="313.509" x2="769.9109" y2="313.509" gradientTransform="matrix(1 0 0 -1 96.5 775)">
			<stop  offset="0.5128" style="stop-color:#405684"/>
			<stop  offset="0.8325" style="stop-color:#5A7ABA"/>
		</linearGradient>
		<path fill="url(#SVGID_18_)" d="M16.499,481.882c0,3.87,3.674,7.216,9.943,10.095c0.647-5.075,7.595-6.873,23.477-16.432
			c25.586-15.401,355.6-9.8,427-6.307c71.4,3.493,350-23.094,368.2-20.503c7.195,1.025,10.662,4.445,12.235,8.205
			c1.302-0.644,2.435-1.352,3.346-2.135c9.8-8.4,8.4-23.8-15.4-23.8c-23.8,0-246.4,25.2-329,25.2s-439.6-2.8-453.6,0
			C48.699,459.006,16.499,459.955,16.499,481.882z"/>
		<g>
			<path fill="#092537" d="M625.772,362.55c0,0,6.066,60.666,36.4,84s77.468,7,77.468,7l-0.374-0.493
				c-31.094,5.06-64.088-35.405-73.844-90.735c-8.098-45.927,2.351-87.707,23.834-103.949c-8.464,2.531-33.716,10.318-38.749,14.577
				C644.44,278.084,619,284.5,625.772,362.55z"/>
			<radialGradient id="SVGID_19_" cx="713.7898" cy="357.2164" r="82.8915" gradientUnits="userSpaceOnUse">
				<stop  offset="0" style="stop-color:#405684"/>
				<stop  offset="0.3325" style="stop-color:#5A7ABA"/>
			</radialGradient>
			<path fill="url(#SVGID_19_)" d="M696.048,256.572c31.219-5.503,64.47,35.096,74.268,90.68
				c9.798,55.584-7.566,105.106-38.785,110.609c-31.219,5.503-64.47-35.096-74.268-90.68S664.83,262.075,696.048,256.572z"/>
			
				<ellipse transform="matrix(-0.1736 -0.9848 0.9848 -0.1736 493.5815 1128.616)" fill="#0F1B38" cx="720.324" cy="357.216" rx="81.758" ry="45.918"/>
			<g>
				
					<linearGradient id="SVGID_20_" gradientUnits="userSpaceOnUse" x1="611.6564" y1="421.98" x2="647.2145" y2="421.98" gradientTransform="matrix(1 0 0 -1 96.5 775)">
					<stop  offset="0" style="stop-color:#484941"/>
					<stop  offset="0.8065" style="stop-color:#5D5E58"/>
				</linearGradient>
				<path fill="url(#SVGID_20_)" d="M742.894,350.031c2.94,16.676-2.27,31.532-11.636,33.183
					c-9.366,1.651-19.341-10.529-22.281-27.205s2.27-31.532,11.636-33.183S739.955,333.356,742.894,350.031z"/>
				
					<ellipse transform="matrix(-0.1736 -0.9848 0.9848 -0.1736 507.0281 1131.5018)" fill="#8A8C85" cx="728.258" cy="353.017" rx="19.622" ry="11.021"/>
			</g>
			<path opacity="0.3" fill="#425399" d="M637.744,372.696c13.723,77.82,60.278,134.659,103.985,126.952
				c43.707-7.707,68.015-77.041,54.293-154.861c-13.723-77.82-60.278-134.659-103.985-126.952
				C648.329,225.542,624.021,294.875,637.744,372.696z M701.377,242.151c34.966-6.166,72.211,39.305,83.188,101.562
				s-8.469,117.723-43.435,123.889c-34.966,6.166-72.211-39.305-83.188-101.562C646.964,303.783,666.41,248.317,701.377,242.151z"/>
		</g>
		<polyline fill="#2B2E33" points="721.314,551.623 563.544,565.156 563.544,552.556 718.333,537.833 		"/>
		<path fill="#0D3151" d="M447.783,530.133"/>
		<polyline fill="#2B2E33" points="702.821,544.795 623.128,486.789 639.263,485.545 713.794,540.866 		"/>
		<ellipse fill="#142551" cx="607.835" cy="661.075" rx="185.241" ry="28.499"/>
		<path opacity="0.5" fill="#142551" enable-background="new    " d="M644.667,425c0,0-226.406,20.588-283.403,22.088
			S242.77,432.089,242.77,432.089C245,449.75,246,454.75,246,454.75l17.765-0.463c53.487,0.804,205.183,2.947,224.902,1.714
			c24-1.5,110.415,0.088,172.333-7.5L644.667,425z"/>
		<path fill="#2B2E33" d="M571.416,426.26l-8.558,93.1h14.858l29.4-89.6C577.716,408.06,571.416,426.26,571.416,426.26z"/>
		<g>
			<ellipse fill="#070707" cx="566.691" cy="555.995" rx="52.126" ry="60.49"/>
			<ellipse fill="#D2D4D5" cx="562.558" cy="555.995" rx="36.959" ry="45.392"/>
			<g>
				<ellipse fill="#3B3B3B" cx="562.558" cy="555.995" rx="9.18" ry="12.6"/>
			</g>
		</g>
	</g>
</g>
<radialGradient id="SVGID_21_" cx="439.9342" cy="316.6502" r="65.2217" gradientUnits="userSpaceOnUse">
	<stop  offset="0.5128" style="stop-color:#262728"/>
	<stop  offset="0.8898" style="stop-color:#333333"/>
</radialGradient>
<path fill="url(#SVGID_21_)" d="M376.355,356.389l0.636,0.134c0,0,10.509,27.477,19.509,25.977c2.46-0.41,4.856-0.984,7.395-2.009
	c-3.818-21.433,0.886-39.919,3.087-46.876l0.533,21.332l0.409,23.579c5.883-3.362,12.911-9.507,23.145-21.352
	c16.149-18.691,43.945-38.939,73.392-47.384c-7.572-36.687-29.213-51.225-29.213-51.225c-6.997-4.018-12.739-5.035-12.739-5.035
	c-8.785-2.309-16.692-3.046-23.747-2.714c-4.156-0.095-8.035,0.365-11.653,1.281c0,0-58.846,12.526-50.978,100.548
	C376.19,353.888,376.265,355.137,376.355,356.389z"/>
<g>
	<radialGradient id="SVGID_22_" cx="439.2812" cy="267.6436" r="31.4653" gradientUnits="userSpaceOnUse">
		<stop  offset="0.5128" style="stop-color:#262728"/>
		<stop  offset="0.8898" style="stop-color:#333333"/>
	</radialGradient>
	<path fill="url(#SVGID_22_)" d="M456.596,254.208c0-5.109-7.224-6.625-16.033-6.625s-15.867,1.516-15.867,6.625
		c0,1.213,0.414,2.369,1.146,3.431c-0.733,0.839-1.146,1.849-1.146,3.069c0,5.109,7.141,9.25,15.95,9.25
		c8.809,0,15.95-4.141,15.95-9.25c0-1.213-0.418-2.217-1.157-3.052C456.179,256.59,456.596,255.428,456.596,254.208z"/>
	<path fill="#FAB56E" d="M430.71,252.052c0,0,12.296,1.877,18.398,0.704l0.094,1.314c0,0-13.611,1.643-17.976-0.563
		c-4.365-2.206-0.282-0.094-0.282-0.094l-0.235-1.126"/>
	<g>
		<g>
			<path fill="#414242" d="M430.376,249.831c-0.977,0.48-1.589,1.035-1.589,1.623c0,0.649,0.944,1.322,2.118,1.836L430.376,249.831z
				"/>
			<path fill="#090B0C" d="M448.989,248.866l0.26,5.005l0.016,0.105c2.578-0.615,4.208-1.517,4.208-2.523
				C453.473,250.412,451.727,249.481,448.989,248.866z"/>
		</g>
		
			<radialGradient id="SVGID_23_" cx="-331.8562" cy="-181.4914" r="24.7165" gradientTransform="matrix(1 0 0 1 772 436)" gradientUnits="userSpaceOnUse">
			<stop  offset="0.5128" style="stop-color:#262728"/>
			<stop  offset="0.8898" style="stop-color:#333333"/>
		</radialGradient>
		<path fill="url(#SVGID_23_)" d="M448.953,248.638l0.026,0.595c2.695,0.606,4.306,1.486,4.306,2.315
			c0,1.454-4.953,3.075-12.062,3.075s-12.061-1.62-12.061-3.075c0-0.439,0.459-0.893,1.286-1.313l-0.089-0.605
			c-1.111,0.528-1.76,1.161-1.76,1.918c0,2.363,6.504,3.638,12.625,3.638s12.625-1.275,12.625-3.638
			C453.848,250.226,451.814,249.246,448.953,248.638z"/>
	</g>
	<path fill="#FAB56E" d="M481.487,184.21c23.964,3.764,94.224,19.27,94.224,19.27c-11.663-37.797-48.935-51.356-69.564-56.042
		c2.008-2.325,9.055-10.494,11.27-13.202c-0.001,0.001,8.914-13.146-0.756-23.916c-8.15-9.077-19.419-16.228-29.946-21.526
		c-51.381-31.558-86.783-21.748-86.783-21.748c-19.119,4.499-28.25,17.141-31.713,23.425
		c-10.411,15.054-16.193,38.002-16.193,38.002s-28.64-0.214-22.761,12.762c5.88,12.976,22.911,26.358,38.726,35.482
		c0,0-0.405,13.787,5.677,12.368c6.083-1.419,13.799-8.651,13.799-8.651l51.865,36.209l59.232,36.309
		c6.414-15.47,10.239-48.225,10.74-52.705c0.469-1.736,0.822-3.049,0.817-3.052l-28.385-8.009
		C481.735,189.186,481.443,187.238,481.487,184.21z"/>
	<polygon fill="#FAB56E" points="423.614,190.571 430.799,252.886 449,253.833 446.622,203.5 	"/>
	<polygon fill="#EE9062" points="439.158,254.199 432.979,196.584 446.81,203.5 449.125,253.75 	"/>
	<path fill="#7C2117" d="M520,107.5"/>
	<path fill="#551413" d="M474.329,126.853l-1.463-4.912c0,0,10.323-13.352,21.229-11.343c10.905,2.009,18.481,12.312,18.481,12.312
		l3.738-1.776l-2.322,5.921C513.991,127.056,492.801,114.527,474.329,126.853z"/>
	
		<ellipse transform="matrix(0.9848 0.1736 -0.1736 0.9848 38.0158 -82.144)" fill="#070707" cx="488.588" cy="176.247" rx="18.396" ry="4.41"/>
	<path fill="#EB8F63" d="M408.124,164.826c2.523,4.73,13.505,19.481,22.821,19.19c6.342-0.198,10.616-6.465,12.825-10.808
		C430.779,174.71,414.245,167.703,408.124,164.826z"/>
	<g>
		<path fill="#7C2117" d="M410.541,189.719"/>
		<path fill="#7C2117" d="M412.499,188.632c0.024-0.001,0.047-0.003,0.072-0.003C412.571,188.629,412.542,188.63,412.499,188.632z"
			/>
	</g>
	<path fill="#7C2117" d="M396.021,197.144"/>
	<path fill="#7C2117" d="M407.984,193.976"/>
	<path fill="#D77B48" d="M367.716,159.155c2.376,3.526,4.423,7.833,5.78,13.098l2.233-0.573
		c-6.64-25.779-29.121-30.008-29.347-30.048l-0.398,2.272c0.151,0.027,11.078,2.084,19.533,12.304
		c-6.993,4.492,0.259,15.374,0.259,15.374C361.1,162.851,365.785,159.941,367.716,159.155z"/>
	<path opacity="0.3" fill="#EB8F63" enable-background="new    " d="M485.024,230.491c-7.578,3.031-38.164-9.513-42.146-11.173
		l55.933,34.287c6.414-15.47,10.239-48.225,10.74-52.705c0.469-1.736,0.822-3.049,0.817-3.052
		C510.368,197.848,493.134,227.247,485.024,230.491z"/>
	<path fill="#7C2117" d="M540.026,195.776l-11.646-2.447h-0.001l-10.469-2.199l-4.089-0.929l-0.103,0.017l-46.176-10.358
		c0,0-34.265,21.796-47.951,21.999c-8.715,0.129-10.11-3.687-9.976-6.476c0.464,0.228,0.984,0.359,1.536,0.359
		c1.932,0,3.497-1.566,3.497-3.497c0-1.776-1.324-3.243-3.038-3.468l-0.139-0.017c-3.514-0.333-10.481,3.087-5.769,15.735
		c5.736,15.395,26.745,19.801,36.723,18.627c22.948-0.914,66.934-23.391,66.934-23.391s-1.339,13.887-2.04,16.885
		c12.368,0.87,30.848-7.354,30.848-7.354C546.852,204.598,540.026,195.776,540.026,195.776z"/>
	<path opacity="0.53" fill="#551413" enable-background="new    " d="M540.026,195.776l-11.646-2.447h-0.001l-10.469-2.199
		l-4.089-0.929l-0.103,0.017l-14.859-3.333c-3.261,3.473-18.783,18.414-51.034,26.176c-35.112,8.45-42.724-17.016-43.3-19.165
		c-0.711,2.435-0.582,5.872,1.178,10.598c5.736,15.395,26.745,19.801,36.723,18.627c22.948-0.914,66.934-23.391,66.934-23.391
		s-1.339,13.887-2.04,16.885c12.368,0.87,30.848-7.354,30.848-7.354C546.852,204.598,540.026,195.776,540.026,195.776z"/>
	<path fill="#7C2117" d="M389.797,160.808c0,0-0.967-6.371-0.56-13.774c2.079-37.862-18.067-51.64-18.067-51.64
		c-23.953-3.51-25.827,27.097-24.98,31.543c0.057,0.302,0.239,0.676,0.519,1.107c2.94,0.442,18.08,3.246,24.838,14.934
		c7.502,12.976,16.626,37.306,16.626,37.306s-0.077,0.186-0.208,0.5l6.035,7.383C395.823,171.135,389.797,160.808,389.797,160.808z"
		/>
	<path fill="#551413" d="M353.536,108.161c0,0,5.646-9.644,10.82-9.173s16.464,11.289,13.877,36.928
		C378.234,135.915,370.707,108.866,353.536,108.161z"/>
	<path opacity="0.5" fill="#EB8F63" enable-background="new    " d="M388.374,104.758l-5.17-8.82c0,0,26.763-23.418,52.918-9.732
		s55.655,16.423,67.212,15.511c0,0-11.861,8.82-32.846,2.737c-20.985-6.083-36.495-17.031-48.052-15.511
		C410.88,90.464,401.148,94.113,388.374,104.758z"/>
	<path opacity="0.5" fill="#EB8F63" enable-background="new    " d="M435.514,80.428c0,0,45.011,14.902,55.96,12.469l7.299,5.474
		C498.773,98.371,470.489,102.933,435.514,80.428z"/>
	<g>
		<path fill="#F59964" d="M471.055,145.347c0,0,4.985-17.378,22.241-16.665c0,0,15.626-0.446,14.092,16.756L471.055,145.347z"/>
		<path fill="#F9F7F5" d="M482.285,136.082c0,0,15.588-2.154,25.069,10.142c0,0-13.049,12.09-34.667,1.082"/>
		<path fill="#13100E" d="M482.285,136.082c0,0,6.604-0.539,7.445,10.219l-17.043,1.005
			C472.687,147.306,471.336,140.753,482.285,136.082z"/>
		<circle fill="#F9F7F5" cx="483.307" cy="139.732" r="0.803"/>
	</g>
	<g>
		<path fill="#551413" d="M408.996,123.891l2.634-10.537l6.398,1.882c0,0,21.827-13.548,29.354-10.914
			c7.527,2.633,8.28,15.053,9.033,18.439C456.415,122.762,433.081,108.461,408.996,123.891z"/>
		<path fill="#F59964" d="M412.854,139.793c0,0,4.892-18.346,21.827-17.594c0,0,15.335-0.469,13.831,17.688L412.854,139.793z"/>
		<path fill="#F9F7F5" d="M426.609,129.773c0,0,13.374-1.809,21.903,10.114c0,0-9.975,18.326-28.883,11.006"/>
		<path fill="#13100E" d="M426.609,129.773c-13.138,2.92-12.554,13.041-12.554,13.041l0.264-0.029
			c0.234,2.092,1.246,5.785,5.31,8.108c0,0,8.186-0.846,12.513-10.067C434.658,131.054,426.609,129.773,426.609,129.773z"/>
		<circle fill="#F9F7F5" cx="423.531" cy="137.349" r="0.803"/>
	</g>
	<path fill="#FAB56E" d="M466.528,145.899c0,0,59.609-7.705,90.833,27.98l-12.571,5.677l-62.853-8.11c0,0-17.842-5.272-19.464-5.677
		"/>
	<g>
		<path fill="#EB8F63" d="M516.987,190.754l59.331,13.031c-2.113-8.314-5.938-15.51-10.599-21.677l0.157-0.017
			c-17.031-22.708-42.477-30.311-42.477-30.311s0.328,0.266,0.911,0.75c6.005,3.756,32.271,20.824,31.732,31.691
			C555.565,193.88,528.612,192.096,516.987,190.754z"/>
		<path fill="#EB8F63" d="M511.236,189.49l0.353,0.078c-0.003-0.011-0.005-0.022-0.008-0.033
			C511.359,189.507,511.236,189.49,511.236,189.49z"/>
	</g>
	<path fill="#EB8F63" d="M461.966,175.805c0,0,0-12.165,17.639-9.732C479.606,166.072,456.493,158.773,461.966,175.805z"/>
	<circle opacity="0.3" fill="#FFFFFF" cx="490.667" cy="127.833" r="5"/>
	<radialGradient id="SVGID_24_" cx="371.3333" cy="122.1667" r="74.7737" gradientUnits="userSpaceOnUse">
		<stop  offset="0.5128" style="stop-color:#262728"/>
		<stop  offset="0.8898" style="stop-color:#333333"/>
	</radialGradient>
	<path fill="url(#SVGID_24_)" d="M361.333,202.167c0,0,39.667,2.333,37-16C395.667,167.833,399,99.5,430,99.833
		c0,0,39,15.667,44.333,12c5.333-3.667,21.333-16.333,37.333-7.333c0,0-74.667-68.667-117.333-47.333S344,106.833,343,122.5
		c0,0-15.667,1-17,9.667c-1.333,8.667,17,52.333,41.333,57.333c0,0-34.667-5.667-40,2.333
		C322,199.833,331.667,204.833,361.333,202.167z"/>
	<g>
		<ellipse opacity="0.5" fill="#425399" cx="436.167" cy="132.5" rx="32.5" ry="32"/>
		<circle opacity="0.3" fill="#FFFFFF" cx="427" cy="120.5" r="5"/>
	</g>
	<path opacity="0.5" fill="#425399" d="M499.833,99.167c-17.949,0-32.5,14.327-32.5,32c0,5.245,1.29,10.191,3.562,14.56
		c7.37-0.761,29.022-2.334,52.605,6.107c4.911-5.606,8.833-12.683,8.833-20.667C532.333,113.494,517.783,99.167,499.833,99.167z"/>
	<path fill="#3E2114" d="M468.006,139.587c0.569,2.249,1.37,4.406,2.374,6.445l0.912-0.199c0,0,1.315-0.167,3.458-0.25
		c-2.189-4.076-3.75-9.142-3.75-14.083c0-15.991,13.009-29,29-29s29,13.009,29,29c0,7.212-2.652,13.812-7.024,18.891
		c1.356,0.45,2.683,0.936,3.972,1.462c4.411-5.612,7.053-12.677,7.053-20.353c0-18.196-14.804-33-33-33
		c-15.407,0-28.378,10.614-31.994,24.913C464.313,108.558,450.696,97.5,434.5,97.5c-19.023,0-34.5,15.252-34.5,34s15.477,34,34.5,34
		C450.696,165.5,464.313,154.442,468.006,139.587z M434.5,161.5c-16.818,0-30.5-13.458-30.5-30s13.682-30,30.5-30
		s30.5,13.458,30.5,30S451.318,161.5,434.5,161.5z"/>
	
		<ellipse transform="matrix(0.866 -0.5 0.5 0.866 -29.2751 200.4104)" fill="#606163" cx="359.333" cy="154.833" rx="16" ry="26.667"/>
	<path opacity="0.4" fill="#08090A" d="M426.667,258.083c0,0,13.167,7.083,27.125-0.125
		C453.792,257.958,441.708,267.833,426.667,258.083z"/>
</g>
<g>
	<linearGradient id="SVGID_25_" gradientUnits="userSpaceOnUse" x1="374.4997" y1="345.7632" x2="506.2503" y2="345.7632">
		<stop  offset="0.5128" style="stop-color:#405684"/>
		<stop  offset="0.8325" style="stop-color:#5A7ABA"/>
	</linearGradient>
	<path fill="url(#SVGID_25_)" d="M395.745,384.026c-14.992,0-20.962-27.524-21.213-28.717c-0.171-0.811,0.348-1.606,1.158-1.777
		c0.815-0.167,1.606,0.349,1.777,1.158c0.058,0.272,5.86,27.196,18.929,26.313c11.6-0.801,27.823-18.218,38.559-29.744
		c2.076-2.228,4.036-4.333,5.721-6.058c10.266-10.51,42.082-33.333,63.779-37.672c0.808-0.162,1.603,0.364,1.765,1.177
		c0.163,0.812-0.364,1.603-1.177,1.765c-21.108,4.222-52.175,26.542-62.221,36.828c-1.66,1.699-3.609,3.792-5.672,6.006
		c-11.718,12.581-27.767,29.811-40.548,30.691C396.314,384.017,396.028,384.026,395.745,384.026z"/>
</g>
<path fill="#142551" d="M508.159,308.17c-5.659,5.04-18.619,17.73-29.776,37.081c-13.549,23.5-27.154,61.919-15.021,111.487
	l1.942-0.475c-11.965-48.888,1.428-86.771,14.771-109.941c14.479-25.144,32.028-38.895,32.204-39.03l-0.167-0.215L508.159,308.17z"
	/>
<path opacity="0.3" fill="#FFFFFF" d="M467,345.833c0,0-24,51.333-15.333,88C451.667,433.833,435,389.167,467,345.833z"/>
<g>
	<circle fill="#142551" cx="507.867" cy="332.733" r="9.066"/>
	<circle opacity="0.2" fill="#142551" enable-background="new    " cx="509.467" cy="334.6" r="9.066"/>
	<circle fill="#F0E5F0" cx="505.734" cy="329.533" r="2.666"/>
</g>
<g>
	<circle fill="#142551" cx="488.201" cy="374.4" r="9.066"/>
	<circle opacity="0.2" fill="#142551" enable-background="new    " cx="489.801" cy="376.266" r="9.066"/>
	<circle fill="#F0E5F0" cx="486.067" cy="371.2" r="2.666"/>
</g>
<g>
	<circle fill="#142551" cx="477.534" cy="416.733" r="9.066"/>
	<circle opacity="0.2" fill="#142551" enable-background="new    " cx="479.134" cy="418.6" r="9.066"/>
	<circle fill="#F0E5F0" cx="475.4" cy="413.533" r="2.666"/>
</g>
</svg>
