<svg xmlns="http://www.w3.org/2000/svg" viewBox="0 0 449.66 382.21"><defs><style>.cls-1{isolation:isolate;}.cls-2{fill:#fff7e6;}.cls-3{fill:#7883c0;}.cls-4{fill:#ff9566;}.cls-5{fill:#93452f;}.cls-6{fill:#4f3b3d;}.cls-7{fill:#f2eac9;}.cls-8{fill:#e0d5a4;}.cls-9{fill:#7c3423;}.cls-10{fill:#99805f;}.cls-11{fill:#7f6245;}.cls-12{fill:#ea4960;}.cls-13{fill:#ffb882;}.cls-14{fill:#dbcf9e;}.cls-15{fill:#b73e3b;}.cls-16{fill:#d35050;}.cls-17{fill:#722c2a;}.cls-18{fill:#843934;}.cls-19{fill:#f4ab42;}.cls-20{fill:#af4c4a;}.cls-21{fill:#993d3d;}.cls-22{fill:#eacf60;}.cls-23{fill:#843131;opacity:0.6;mix-blend-mode:multiply;}.cls-24{fill:#ea7b59;}.cls-25{fill:#ede3b9;}.cls-26{fill:#773120;}.cls-27{fill:#b7543d;}.cls-28{fill:#4f3131;}</style></defs><title>Artboard 3</title><g class="cls-1"><g id="Layer_2" data-name="Layer 2"><path class="cls-2" d="M301.86,375.73h-18l-.27-3.2a33.17,33.17,0,0,1-.07-3.34l-19.6-52.7,2.66,47.19h14.08v12l-89.8,0,.09,0H148.55v-12h4.16V201.07l0-.38h-3v-12h10.14l1.53-4.47h12.23c-10.16-11.44-17.79-29.78-18.18-30.72l-.91-2.23.8-.76-1.83-4L155,145a23.08,23.08,0,0,0-3.31-3.42l-.26-.19c-2,2.58-4,4.06-6.48,3.21a6.36,6.36,0,0,1-4.22-4.83,8.9,8.9,0,0,1,1.91-7.36l.92-1.16c-2.32-2.8-2.41-4.08-2.44-4.53-.13-1.83,1.46-4.78,3.36-6.15v-.24a10,10,0,0,1,3.43-5.74c.45-2.2,2.52-5.62,4.32-6.44,2.6-1.17,5.43.57,7.25,2.11l6.41-8.53c-1.85-1.43-3.41-2.62-4.06-3.1a5.73,5.73,0,0,1-1.09-1.06l-.21-.28a5.77,5.77,0,0,1-.53-.91l-.12-.26-.07-.18a3.45,3.45,0,0,1-.16-.52c0-.15-.07-.26-.1-.36l-.07-.4,0-.32a1.72,1.72,0,0,1,0-.26,5.15,5.15,0,0,1,0-.55v-.51l0-.38c0-.12,0-.24,0-.35s.05-.32.08-.46l.18-.79,0-.09.08-.26.11,0,0,0-.12,0,.08-.27.1-.28.06-.16a15.83,15.83,0,0,1,.85-1.84l.12-.23.33-.55.13-.22c.11-.16.22-.34.34-.51l.14-.21.37-.51.13-.18.42-.52.1-.13c.17-.21.33-.38.48-.56l.09-.09a17.35,17.35,0,0,1,4.67-3.72c.3-.16.55-.28.81-.4l.08,0c.26-.12.52-.22.77-.31a9,9,0,0,1,8.12.68A47.16,47.16,0,0,1,189,89.74l.29.33c2.17,2.39,2.12,6.14-.11,10.29l0,0c-.14.26-.26.46-.39.67l-.07.12c-.11.18-.23.38-.37.58l-.06.1c-.13.2-.27.39-.4.58l-.06.09a21.7,21.7,0,0,1-1.89,2.24l-.23.23-.33.32-.61.54-.42.34a3.92,3.92,0,0,1-.32.25l-.41.3-.32.22-.44.28-.31.19-.53.28-.28.14c-.24.12-.49.23-.74.33l-.12,0a8.07,8.07,0,0,1-.87.29l-.29.07-.64.14-.31,0-.68.06h-.43a5.34,5.34,0,0,1-.58,0l-.4,0a5.93,5.93,0,0,1-.63-.1l-.41-.1a4.48,4.48,0,0,1-.62-.2l-.4-.15c-.21-.09-.43-.2-.65-.32l-.31-.17a8.11,8.11,0,0,1-.91-.64l-.55-.43c-1.17,1.87-2.43,4-3.67,6.16.32.25.61.5.87.74a4.83,4.83,0,0,1,.58.43c1.6,1.37,2.8,4.19,4.43,10.41.06.21.1.37.13.46s.09.35.13.53l.48-.48,2.48,4.62.24-.23,2.37,3c.24.3,5.76,7.22,10.15,13.38C198,131.1,203.62,121.72,207,117.74a3.81,3.81,0,0,1,1-1.21c.15-.12.33-.24.53-.37a3.87,3.87,0,0,1,1-.54c2.93-1.46,9.26-3.36,14.42-4.78l2.31-2.39,0-.26a7.83,7.83,0,0,1-4.07-4,45.59,45.59,0,0,1-1.63-6.36,13.21,13.21,0,0,1-4.45-2.54l-.16-.13-.07-.07c-.27-.24-.54-.49-.8-.76a11.75,11.75,0,0,1-.86-.94l-.17-.21A13.87,13.87,0,0,1,213,91.7l-.12-.17c-.18-.28-.35-.55-.52-.85L208,82.81l8.54,2.85h0a7.73,7.73,0,0,0,1.07.23c-3.48-9.61-6-28.17-3.88-36.58A14.88,14.88,0,0,1,216.2,44a12.34,12.34,0,0,1,3.56-9.17c6.05-6,18.17-6.1,38.13-.14l.15,0,1.77.54a23.4,23.4,0,0,1,3.26,1.25,15.48,15.48,0,0,1,1.77,1,10.41,10.41,0,0,1,2.7,2.46,7.55,7.55,0,0,1,.63,8.11c.9,1.88,1.84,6.24-.23,17.94q-.29,1.62-.63,3.3c-.11.51-.21,1-.33,1.55,1.84,3.77,1.42,9.31.64,11.83a19.62,19.62,0,0,1-7.08,9.68c-.39,1-.79,1.82-1.17,2.62l1,10.77,1,1.07h.18l1.06,0c5.42.38,15,2.8,17.88,7.67a7.84,7.84,0,0,1,.72,1.73c5.35,8.92,12.24,28.27,16.35,43,1.94,6.76,4.24,15.69,4.16,19.71-.23,10.65-6.18,18.78-14.85,20.34a37.46,37.46,0,0,1-5.72,1.26c.51,6.61,1.22,13.79,1.85,20.23.62,6.23,1.2,12.13,1.54,16.78.05.69.1,1.36.13,2,.06,1,.11,1.86.14,2.69l0,.8c0,.54,0,1,0,1.5,0,2.71-.28,4.52-1.57,5.75a3.63,3.63,0,0,1-1,.71L292,364.14c2.44,1.29,7.59,3.46,11.09,4.83l17.31,6.76ZM142.8,132.3l-.1.1Zm70.43-11.44ZM152.32,120Zm10.7-2.5h0ZM154.77,116Zm1.14-2Zm72.69-12.61Zm-44.51-6.67Zm-18.94-2.27h.29l-2.26-.6ZM160.72,91l2.53.71-.93-.32-1.7-.46Z"/><circle class="cls-2" cx="228.65" cy="162.49" r="157.65"/><circle class="cls-3" cx="228.65" cy="162.49" r="154.34"/><path class="cls-4" d="M174.15,136.62c-2.37-4.56-3.12-11.2-3.12-11.2s-8.89-9.9-14.72-12.58c0,0-10.88,12.24-9.77,15.7s4.86,8.59,7.17,10.2,7.81,8.78,7.81,8.78Z"/><path class="cls-5" d="M186.69,92.42c3.29,3.64-6.07,16.55-11.78,12-3-2.4-9.37-7.36-11-8.55-4.23-3.11,5.68-16.37,12.28-12.22A43.14,43.14,0,0,1,186.69,92.42Z"/><path class="cls-5" d="M145.16,134.88c1-.86,27.13-35.79,27.13-35.79v1.16c-6.65,8.55-23,42.17-26.19,41.07S144.22,135.75,145.16,134.88Z"/><polygon class="cls-6" points="174.26 130.74 177.66 137.05 160.55 153.49 157.7 147.3 174.26 130.74"/><path class="cls-7" d="M210.61,119c-6.58,6.22-26.07,45.75-27.56,48.74s6.38,19.11,10.87,20.05,17.06-16.87,19.49-21.36S213.32,116.39,210.61,119Z"/><path class="cls-8" d="M205.81,152a104.07,104.07,0,0,0,7.8-16.83c1,12.73,1.18,28.68-.2,31.24-2.43,4.49-15,22.29-19.49,21.36-2.27-.48-6.65-5.24-10.21-10.2C190,174.4,198.55,164.73,205.81,152Z"/><path class="cls-7" d="M191.77,154.19c-3.18-5.79-14.3-19.72-14.3-19.72l-18.79,17.7s18.67,44.2,35.3,34.48S195,160,191.77,154.19Z"/><path class="cls-8" d="M192,169.39c2.73-1.59,6.68-6.08,7.85-8.07,4.34,8,5.35,21-5.55,27.31-16.64,9.72-35.66-36.46-35.66-36.46l4.89-4.61C170.63,160.14,181.78,175.38,192,169.39Z"/><path class="cls-5" d="M253,98.21c6.35-4.58,17.24-49,10.65-49.81,0,0,6.64-6.26-4.86-9.82s-29.72-8.13-36.54-1.3,2.24,19.06,2.24,19.06Z"/><path class="cls-9" d="M229.17,49.91c15,0,27.14-4.27,27.14-9.53A4.38,4.38,0,0,0,255,37.46c1.31.38,2.57.76,3.76,1.12,11.5,3.56,4.86,9.82,4.86,9.82,6.59.79-4.3,45.23-10.65,49.81L224.48,56.34a30.92,30.92,0,0,1-3.65-6.89A73.85,73.85,0,0,0,229.17,49.91Z"/><polygon class="cls-10" points="218.71 371.7 217.21 371.7 208.4 216.37 206.8 194.06 246.86 194.06 246.88 194.21 273.9 194.47 289.17 371.7 288.16 371.7 242.11 247.87 237.49 246.31 218.71 371.7"/><path class="cls-11" d="M246.86,194.06v.15l27,.26,6.28,72.82c-5.29-11.9-9.94-18.76-12.87-18-6.41,1.67-2.18,39.15,9.45,83.7,3.7,14.18,7.71,27.36,11.66,38.7h-.26L242.11,247.87l-4.62-1.56L218.71,371.7h-1.5L208.4,216.37l-1.6-22.31Z"/><path class="cls-7" d="M219.49,372.23H206.81s9-4.11,11.13-5.92S219.49,372.23,219.49,372.23Z"/><path class="cls-6" d="M273.46,208.73s4.39-83.4-1.92-91.69c-2.31-3-10.25-7.11-26.07-5.87-14.95,1.17-26.58,8.76-31.47,12.5-5.88,4.5-8.91,85.06-7.23,86.74S271.73,214.9,273.46,208.73Z"/><polygon class="cls-12" points="231.06 163.3 234.35 151.38 235.01 121.12 232.87 120.71 229.42 153.76 231.06 163.3"/><path class="cls-13" d="M257.38,111.3l-2.9-31L230.88,99l-1.95,16.2A66,66,0,0,0,257.38,111.3Z"/><path class="cls-7" d="M280.7,247.89c-22.15-.84-43.94-36.1-50.29-53.67s3.49-65.71,25.17-82.72c4-3.13,19.32.31,21.94,4.8s2,36.47-.38,63.74C275.65,197.61,283.78,248,280.7,247.89Z"/><path class="cls-8" d="M274.85,120.45a7.8,7.8,0,0,1,2.84,2.48c2.61,4.48,1.78,29.84-.55,57.11-1.49,17.57,6.64,68,3.56,67.85-8.21-.31-16.57-5.34-24.17-12.44C239.37,196.79,256.8,138.44,274.85,120.45Z"/><path class="cls-7" d="M205.37,238.17c11.54-8.25,24.06-36.5,26-53.33s-3-71.58-3-71.58-15.7,4.06-18.23,6S199.48,242.37,205.37,238.17Z"/><path class="cls-8" d="M206.07,148.42c.81,8.85,2.41,30.11,2.71,45.88.41,21.74,1,37.71-3.41,43.89h0C200.38,240.94,203.26,168.77,206.07,148.42Z"/><polygon class="cls-8" points="206.48 186.57 255.16 191.17 255.16 211.89 206.48 207.29 206.48 186.57"/><path class="cls-7" d="M275.84,114.72c7.43,7.55,21.85,52.7,21.66,61.49-.24,11.27-7.68,19.58-18.33,16.77-5.74-1.51-16.6-30.68-17.35-36.12C257.14,123,270.16,108.94,275.84,114.72Z"/><path class="cls-14" d="M277.83,178.78c9.38,2.46,16.07-4.72,16.28-14.63,0-2.05-.87-6.52-2.34-12.08,3.79,12,6.58,23.05,6.5,26.84-.24,11.27-7.85,19.44-18.51,16.64-3.84-1-21.18-29.05-20.12-55.35C260.3,145,272.79,177.45,277.83,178.78Z"/><path class="cls-13" d="M238.21,175.37c-8.06-1.49-13.89-8-14.52-8.3s-3.06,2.18-2.7,2.7S230.46,180,230.46,180Z"/><path class="cls-13" d="M246.63,190.59c-7.06,2.84-13.62,2.68-16.4,2.06s-8.82-14.75-8.82-14.75,10.37-1.39,12.38-2.78,10.83,2.63,10.83,2.63Z"/><path class="cls-13" d="M234.67,187.88c-6.15.51-15.47,1-15.62,1.54s1.59,2.76,2.24,2.93,15,.42,15,.42Z"/><path class="cls-13" d="M229,176.8c-6.47.63-16.19,1.29-16.54,1.89s.59,3.14,1.2,3.33,15.17.35,15.17.35Z"/><path class="cls-13" d="M229.91,182.37c-6.47.63-16.19,1.29-16.54,1.89s.59,3.14,1.2,3.33,15.17.35,15.17.35Z"/><polygon class="cls-6" points="249.43 169.63 253 194.35 244.1 192.91 243.03 169.64 249.43 169.63"/><path class="cls-7" d="M246.75,167.31,250.31,193s42.37,11.1,44.48-8.06C296.92,165.58,277.51,167.93,246.75,167.31Z"/><path class="cls-14" d="M293.14,170c.17,1.47,5.35,6.86,3.29,16.07-4.19,18.8-45.67,9.06-45.67,9.06l-1.59-11C258.65,185.71,288.05,184.6,293.14,170Z"/><polygon class="cls-15" points="259.01 371.56 156.21 371.56 156.21 195.94 250.79 195.94 259.01 371.56"/><polygon class="cls-16" points="257 371.56 217.81 371.56 156.21 239.12 156.21 195.94 175.32 195.94 257 371.56"/><polygon class="cls-16" points="164.05 369.29 165.7 217.18 222.64 218.13 225.88 368.62 227.85 368.6 224.57 216.19 163.74 215.17 162.08 369.25 164.05 369.29"/><polygon class="cls-17" points="165.53 369.29 167.18 217.18 224.12 218.13 227.36 368.62 229.33 368.6 226.05 216.19 165.22 215.17 163.56 369.25 165.53 369.29"/><polygon class="cls-18" points="239.2 195.94 253.59 195.94 263.5 371.56 239.2 371.56 239.2 195.94"/><path class="cls-17" d="M252.18,195.94c-6.57,15.26-11.33,60.07-11.33,113,0,23,.9,44.47,2.46,62.64H239.2V195.94Z"/><rect class="cls-17" x="156.32" y="365.54" width="85.18" height="5.01" transform="translate(397.83 736.08) rotate(180)"/><polygon class="cls-17" points="155.93 195.15 247.76 195.15 246.28 204.99 156.16 200.16 155.93 195.15"/><polygon class="cls-19" points="163.89 187.72 197.6 187.72 199.74 193.97 161.75 193.97 163.89 187.72"/><rect class="cls-20" x="153.22" y="192.19" width="105.8" height="5.01" transform="translate(412.23 389.38) rotate(180)"/><rect class="cls-18" x="152.05" y="367.18" width="125.1" height="5.01" transform="translate(429.19 739.37) rotate(180)"/><rect class="cls-18" x="236.57" y="192.19" width="22.44" height="5.01" transform="translate(495.59 389.38) rotate(180)"/><rect class="cls-21" x="152.05" y="367.18" width="96.04" height="5.01" transform="translate(400.13 739.37) rotate(180)"/><polygon class="cls-6" points="259.6 109.94 257.01 107.31 234.27 114.3 237.97 121.53 259.6 109.94"/><polygon class="cls-6" points="229.5 121.12 235.67 114.13 229.01 110.59 226.38 113.31 229.5 121.12"/><polygon class="cls-12" points="233.53 123.34 238.05 118.73 236.93 113.48 233.26 112.85 231.15 118.49 233.53 123.34"/><path class="cls-22" d="M230.32,167c0-1.63.78-3,1.73-3s1.73,1.33,1.73,3-.78,3-1.73,3S230.32,168.63,230.32,167Z"/><path class="cls-23" d="M233.34,144.31c-12.56,0-18.67-11.45-16.59-27.71,3.53-1.14,7.54-2.25,9.8-2.86l-.17-.43,2.63-2.72.44.24L230.88,99l23.6-18.69,2.53,27,2.59,2.63-.91.48c4.45-.58,11.5.92,15.7,3.24C263.16,131.46,246.65,144.31,233.34,144.31Z"/><path class="cls-5" d="M217.1,50.17c2.34-9.23,12-9.21,13.46-1,1.1,6.22,2.1,26.08-4.43,39C221.34,97.7,214.17,61.72,217.1,50.17Z"/><path class="cls-13" d="M251.83,104.55c-2.44,2.92-24.17,4-26.41-1.69s-10-52.63-.12-59.21,24.87-3.95,30.63,6S254.35,101.55,251.83,104.55Z"/><path class="cls-9" d="M261.47,44.47c-11.81-6.76-6.71,25.52-7,38.79L259,79.71S265,46.47,261.47,44.47Z"/><path class="cls-13" d="M264.28,81.64c-2.06,6.69-10.6,12.8-10.93,6.25s3.89-16.7,7.62-17.32C265,69.9,265.34,78.18,264.28,81.64Z"/><path class="cls-24" d="M261.91,82.52c-1.22,4-6.31,7.63-6.5,3.72s2.32-9.95,4.54-10.32C262.33,75.52,262.55,80.46,261.91,82.52Z"/><path class="cls-13" d="M259.45,84.69c-.82,2.67-4.23,5.1-4.35,2.49s1.55-6.66,3-6.91S259.87,83.31,259.45,84.69Z"/><path class="cls-8" d="M188,148.42c1,1.46,2,2.85,2.73,4.06,1.36-2.62,2.83-5.42,4.33-8.23l-3.28,16.54Z"/><path class="cls-25" d="M261.16,203.53l14.94,2.69s2.39,5.08-7.17,5.08S261.16,204,261.16,203.53Z"/><path class="cls-22" d="M173.24,149.82a2.53,2.53,0,1,1-2.53-2.53A2.52,2.52,0,0,1,173.24,149.82Z"/><path class="cls-22" d="M177.68,156.48a2.53,2.53,0,1,1-2.53-2.53A2.52,2.52,0,0,1,177.68,156.48Z"/><path class="cls-22" d="M263.32,179.91a2.53,2.53,0,1,1-2.53-2.53A2.53,2.53,0,0,1,263.32,179.91Z"/><path class="cls-22" d="M272.81,178.8a2.53,2.53,0,1,1-2.52-2.53A2.52,2.52,0,0,1,272.81,178.8Z"/><path class="cls-26" d="M164.08,89.76a2.46,2.46,0,0,0,1,1.59c1.61,1.18,8,6.15,11,8.54,3.72,3,9-1.46,11.3-5.93.6,4.78-7.35,14.5-12.42,10.43-3-2.4-9.37-7.36-11-8.55S162.73,92.25,164.08,89.76Z"/><path class="cls-27" d="M174.77,83l.33.37c3.26,3.6-5.83,16.22-11.55,12.12C160.6,92.12,168.51,81.37,174.77,83Z"/><path class="cls-7" d="M287.06,372.23h14.8s-10.53-4.11-13-5.92S287.06,372.23,287.06,372.23Z"/><path class="cls-28" d="M223.93,70.7c0-2.55.77-4.35,1.76-4s1.79,2.67,1.8,5.22-.76,4.35-1.74,4S224,73.25,223.93,70.7Z"/><path class="cls-28" d="M239.35,71.49c0-2.63,1-4.67,2.44-4.56s2.58,2.32,2.63,4.95-1,4.67-2.44,4.57S239.4,74.11,239.35,71.49Z"/><path class="cls-5" d="M235.75,62.3c2.68,2.68,13.05,2.26,13.77.81s1-3-1.29-3.86S235.91,56,234.61,57.09,234.53,61.06,235.75,62.3Z"/><path class="cls-5" d="M230.55,61.87c-1.06,2.82-8.92,3-10,1.59s-1.77-2.89-.37-3.9,8-3.94,9.38-2.91S231,60.58,230.55,61.87Z"/><path class="cls-24" d="M229.73,95.71c0-.5,1-.86,2.24-.82s2.27.49,2.28,1-1,.87-2.24.82S229.74,96.21,229.73,95.71Z"/><path class="cls-5" d="M252.06,90.4c-2.73,4.84-12.83,11.18-20.3-1.64C228.69,96,219.81,97,215.4,89c0,0,8.28,2.78,13.12-4.49a4.85,4.85,0,0,1,8.25.15C241.18,91.58,247.2,92.39,252.06,90.4Z"/><path class="cls-9" d="M230.82,87c6.35,10.61,14.57,8.08,18.81,4.15a12.81,12.81,0,0,0,2.43-.72c-2.73,4.84-12.91,11.9-20.38-.92-3,7-11.21,7.37-15.76.32C220.74,94.81,228.05,93.29,230.82,87Z"/><path class="cls-24" d="M232.46,63c-3.16,10.12-7.19,19.92-7.07,21.57s9.76-2,9.76-2S232.65,62.35,232.46,63Z"/><path class="cls-13" d="M234.06,62c-3.16,10.12-7.19,19.92-7.07,21.57s9.76-2,9.76-2S234.25,61.38,234.06,62Z"/><path class="cls-13" d="M153.69,111.37c1.52-.68,6.13,3.49,6,4.79s-1.43,4.61-3,4.68-5.32-4.56-5.32-5.43A8.91,8.91,0,0,1,153.69,111.37Z"/><path class="cls-13" d="M150.37,117.16c1.44-.36,5.55,4.46,5.33,5.65s-1.53,4.08-3,3.86-4.76-5.32-4.72-6.13A6.88,6.88,0,0,1,150.37,117.16Z"/><path class="cls-13" d="M146.7,123.33c1.61-.37,6.21,4.83,5.85,5.88s-1.83,3-3.21,2.63-4.66-4.63-4.71-5.33S146.07,123.48,146.7,123.33Z"/><path class="cls-13" d="M167.82,117.29c.38,2.53-7.16,9.95-8.31,9.53a3.92,3.92,0,0,1-2.11-4.37c.43-2.2,5.27-8.19,6-8.37S167.68,116.3,167.82,117.29Z"/><path class="cls-13" d="M164.69,131.94c-2.28-.73-3.76-13.4-2.77-14.29s4.13-2.37,5.75-1,3.25,8.41,3.48,9.19C172.39,130.1,165.58,132.23,164.69,131.94Z"/></g></g></svg>