<svg xmlns="http://www.w3.org/2000/svg" viewBox="0 0 1800 460"><defs><style>.cls-1{isolation:isolate;}.cls-2{fill:#fff7e6;}.cls-3{fill:#ffb882;}.cls-4{fill:#f7ebbc;}.cls-5{fill:#e5617a;}.cls-6{fill:#c63c5d;}.cls-7{fill:#4f3b3d;}.cls-8{fill:#3f2c2f;}.cls-9{fill:#e8d7a0;}.cls-10{fill:#4c3938;}.cls-11{fill:#e5d8a5;}.cls-12{fill:#584763;}.cls-13{fill:#843131;opacity:0.6;mix-blend-mode:multiply;}.cls-14{fill:#ea7b59;}.cls-15{fill:#8c4453;}.cls-16{fill:#734;}.cls-17{fill:#512727;}.cls-18{fill:#fffbe1;}.cls-19{fill:#593333;}.cls-20{fill:#748d93;}.cls-21{fill:#fff6d2;}.cls-22{fill:#702d3d;}.cls-23{fill:#43344f;}.cls-24{fill:#e04f64;}.cls-25{fill:#c42d51;}.cls-26{fill:#efdaa8;}.cls-27{fill:#90b1ba;}.cls-28{fill:#e5d591;}.cls-29{fill:#cc3681;}.cls-30{fill:#a7c7ce;}.cls-31{fill:#a0a02a;}.cls-32{fill:#b6bc3b;}.cls-33{fill:#c9e0e2;}.cls-34{fill:#5d7b82;}.cls-35{fill:#ffdc48;}.cls-36{fill:#e4f2f4;}.cls-37{fill:#4f3131;}.cls-38{fill:#934c3b;}.cls-39{fill:#b7715e;}.cls-40{fill:#9b233d;}.cls-41{fill:#841935;}.cls-42{fill:#4f3b38;}.cls-43{fill:#3f2c2a;}.cls-44{fill:#e0c9a2;}.cls-45{fill:#3a2826;}.cls-46{fill:#e8d1bf;}.cls-47{fill:#c14d61;}.cls-48{fill:#725a58;}.cls-49{fill:#4c3735;}.cls-50{fill:#f4e5d7;}.cls-51{fill:#5b302c;}.cls-52{fill:#99393e;}.cls-53{fill:#a85542;}.cls-54{fill:#e52c2c;}.cls-55{fill:#d11515;}.cls-56{fill:#ad1212;}.cls-57{fill:#ff9566;}.cls-58{fill:#ff3e71;}.cls-59{fill:#ed2152;}.cls-60{fill:#4c2731;}.cls-61{fill:#ffecc7;}.cls-62{fill:#8e2941;}.cls-63{fill:#bfdb49;}.cls-64{fill:#fff;}.cls-65{fill:#685187;}.cls-66{fill:#543f75;}.cls-67{fill:#473668;}.cls-68{fill:#cec49b;}.cls-69{fill:#3a292c;}.cls-70{fill:#f2eac9;}.cls-71{fill:#d6c996;}.cls-72{fill:#7a628c;}.cls-73{fill:#ceb651;}.cls-74{fill:#9b2947;}.cls-75{fill:#5b3d36;}.cls-76{fill:#b7494f;}</style></defs><title>Artboard 1</title><g class="cls-1"><g id="Layer_2" data-name="Layer 2"><path class="cls-2" d="M907.05,464.52l-6.71-3.16h-.73l0-.38a30,30,0,0,1-7.69-6H877.44l-4.27,6.59h-8.32l.31-6.59h-1.09l-4.46,6.59h-8.42l0-.26h-6.59v-5.21l-.63,5.21h-8.16v-86h2.41c-2.39-8.48-2.33-14.63.19-18.71-.08-18.15,1.42-23.72,2.6-25.81.44-6.39.93-12.39,1.47-17.9-17-16.74-14.59-50.06-13.79-57.55-7.48-10.17-3.94-31.21.31-40.18,3.15-6.64,7.91-11,14.14-13,8.27-2.59,19.12-.59,29.76,5.5l1,.57a26.51,26.51,0,0,1,5.22,4.19c.48.48,1,1,1.55,1.69s1,1.17,1.48,1.8.75,1,1.12,1.5c1,1.39,2,2.89,2.89,4.47.56,1,1.09,1.92,1.59,2.87l.15.28a94.79,94.79,0,0,1,5.71,13.65l.33,1V206.05H940.1v25.41l2.2-1.73.14-.11c1.49-1.16,3-2.29,4.48-3.35l.29-.3.19-.07.58-.45,1.86-7q-.15-1.35-.33-2.85l-.57-4.82-.06-.1c-.52-.79-1.07-1.67-1.65-2.62-.87-1.42-1.78-3-2.72-4.61-.82-1.44-1.66-3-2.5-4.5-5.74-5-5.48-7.84-5.39-8.79a5.83,5.83,0,0,1,.28-1.38c-3.76-8.09-5.7-14.12-5.78-17.94a6.94,6.94,0,0,1,1.79-5.32,1.49,1.49,0,0,1,0-.21,8.46,8.46,0,0,1,.1-.88,5.47,5.47,0,0,1,.13-.55c.08-.3.16-.54.25-.79s.15-.39.24-.59.2-.43.32-.65.2-.37.31-.56.25-.39.38-.58.25-.38.39-.57l.38-.48c.18-.22.33-.41.5-.6l.28-.32.17-.18c.17-.18.33-.36.51-.54l.2-.19a42.07,42.07,0,0,1,5.45-4.43c.45-.31.87-.6,1.3-.88l0,0c8.71-5.77,20.67-11,24.76-11.87,7.75-1.71,14.29,2.47,15.89,7.33.78,2.33.11,5.49-2.1,9.94l-1.36,2.57c1.08,5.06,4.77,23.37,4.1,33.94,2.87,18.09,1.41,19.89.44,21.08a6.8,6.8,0,0,1-3.4,2.06l2.92,3c5.83,1.45,9.55,3,11.59,4.94,8.68,5.72,22.5,36.58,26.09,48.82,1.68-1.16,3.5-2.31,5.07-3.26v-1.7a7.44,7.44,0,0,1,7.43-7.43h5.44l.81-.55.23-.37V261c0-.42-.11-.85-.16-1.3-.14-1.17-.26-2.4-.38-3.68a15.9,15.9,0,0,1-2.1-3.63c-2.42-1.7-9-6.66-9.93-11a6.63,6.63,0,0,1,1.58-5.88,8.89,8.89,0,0,1,3.17-2.26l-.09-.56c-.11-.67-.22-1.33-.32-2-.15-1-.28-2-.4-2.94l-.12-1a68.59,68.59,0,0,1-.47-7.2c0-2.45-.06-8.52,3.5-10.51,3.55-4.48,15.86-18.61,29.36-17.71,11.65.79,16.31,9.83,17.5,16a8.24,8.24,0,0,1,2.47,2.16c3.42,4.34,3.89,12.62,1.42,24.64a7,7,0,0,1,3.89,6.63c-.34,4.42-6.39,10.46-9.29,12.89a30.86,30.86,0,0,1-.53,3.54l2,3.06,4,1.71h8.06a9.41,9.41,0,0,1,9.4,9.4v.43c1,.62,1.94,1.21,2.72,1.75l.24.14a10.9,10.9,0,0,1,1.83,1.48,8,8,0,0,1,1,1.09c.08.11.14.21.2.31,8.58,11.37,9.27,48.15,6.32,62.54a20.19,20.19,0,0,1-.7,2.83v.81l-.51.51a11.22,11.22,0,0,1-9.78,7l-.27,2.43.45.12.1,0,1.2.35.14,0a44.34,44.34,0,0,1,8.7,3.63l0,0c.23.13.45.27.67.41l.18.11c2.38,1.56,3.66,3.22,3.92,5.09.36,2.61-.26,8.05-8.31,27v72.17H1104l-1.29-11.16v11.16h-24.5L1073,449.89l.63-1.37a19.67,19.67,0,0,1,2.36-3.89c.62-7.23,2-23.06,3.39-38.14h-22.29l.14.84c2.45,14.39,4.88,29.06,6,36.05a15.68,15.68,0,0,1,3.87,5l.8,1.53-6,11.73h-29.86V443.9l-2,17.72h-8.4v-65c-7.41,14.83-20.6,39.12-27.81,52.31a14.44,14.44,0,0,0,4.82,5.63l10.6,6.22h-20l-1.32-1.32.12,2.14H964.14l6.73-5.86a78.67,78.67,0,0,1,6.71-5.24c-3.59-13.19-12.85-47.44-19.19-73.33l0-.09c-.46-1.9-.89-3.68-1.3-5.41l3.21-.89-3.24.78-1.22-5.15c-.37-1.62-.72-3.15-1.05-4.62l-.15-.71a3.57,3.57,0,0,1-.87-.39,5.42,5.42,0,0,1-2.3-3.45l3,32.61,4.9,7.27-1.8,1.94c-.33.37-.68.72-1,1.06.36.25.7.52,1,.8l1.82,1.49-3,8.41,1.39,15.29,3.75,35.49h-8.41l-3.77-6.18.65,6.18h-8.41l-4-6.59h-21.2v6.33h-6.48l.87,2.49-4.49-2.05Zm137.33-34.82-3.61,29.5,13.73-6.5a37.08,37.08,0,0,1,.29-4.92C1052.71,444.24,1048.89,437.66,1044.38,429.7Zm41.17,23.13,8.27,4.47-2.72-22.25c-2.45,4.94-4.53,9.06-5.95,11.85A34.31,34.31,0,0,1,1085.55,452.83ZM991,359.46c-.91,10.35-2.2,42.05-3.29,74.9l10.17-54C995.38,372.77,992.72,364.68,991,359.46Zm-87-4.76v.17l.06-.09,0,0Zm3.43-5.82,5.89,2.41.14-.09c0-.05.05-.1.07-.14l1.41-2.64,1.83.73a16.28,16.28,0,0,1,3.66-1.5,5.93,5.93,0,0,1,1.38-.47,12.22,12.22,0,0,1,2.19-.22l0-1.14s.18-3.93.44-10.39l.34-8.44c.53-13.64,1.23-33.46,1.66-52.09.29-12.16,1.74-22.34,4.23-29.83h-11.2L918.35,268a3.72,3.72,0,0,1,.85.57,3.65,3.65,0,0,1,.81.82,3.84,3.84,0,0,1,.4,3.64,8.15,8.15,0,0,1-.21.82,4,4,0,0,1-.14,1.75,6.77,6.77,0,0,1-.23,1.14,3.72,3.72,0,0,1,0,1,6.55,6.55,0,0,1-1,3.23,4.52,4.52,0,0,1-1.14,1.18l-.49,10.17h-5.85c-1.27,7.19-2.63,13.85-4,19.36Zm-60.53-14.7Zm49.52-10.33v0Zm208.12-44h0Zm-.7-.46h0Zm-.09-.06h0Zm-191-3.27a4,4,0,0,0-1,1.61l1.29-.52,0,0Zm-12.86-3.77a7.24,7.24,0,0,1,5.58,3.19,10.77,10.77,0,0,1,4.32-5.56l.64-24.84H895.54A123.2,123.2,0,0,1,899.86,272.28ZM920,269.67l0,.06Zm-19.38-31.28h32.79V212.73H900.63ZM1038.92,215l-.1,0Zm40.62-1.94Zm-99.47-1.16Zm37.62,152-.83-4.37c-.26-1.42-.54-2.87-.83-4.32l-1.51-7.64,6.46,4.1.17.09.41.14.57.11.3.18c.49.07,2.32.2,7.77-.53l3.12-.42,1.3,6.68-3.78.76-.62.14-.17,0-.89.23-.12,0-.75.21-.19.06-.88.27-1,.33-.21.08-.79.28-.15.06-.92.36-.18.07-.73.3-.2.09-.83.38-1.48-2.82h0l1.38,2.87-.44.22Zm4.6-11.74Zm-9.77-18-.34-.22.18-.28-1.15.2c-.11-.41-.23-.82-.34-1.22l-.33-1.19,1-5.86,6,3.81.25,3.32-4.87.85Z"/><path class="cls-2" d="M703,462.91l-12.12-3.75-5.49-13.53.54-1.27a17.89,17.89,0,0,1,2.44-4.19l-1.83-59.69-5.67,73.89a22.92,22.92,0,0,1,1,3.21l.87,4H657.37l9-6.1c.41-.28,3.14-2.12,5.4-3.51l-.62-1h.72l-.21-2.11c-1.67-16.72-4.26-32.47-7-49.15-1.4-8.54-2.85-17.37-4.16-26.27q-.68-4.62-1.41-9.36-.52-3.48-1.07-7.05l-.2.16-4.62,3.55-.79-5.74c-.12-.91-.76-6.07-1.61-13.48-1,4.35-1.77,7.53-2,8.79l-.88,4-1-.44-.61,3.95-1-.37c0,.14,0,.28,0,.42l0,.19,0,.2c0,.57,0,1.12,0,1.62.09,5.15,2.47,9.8,3.49,11.8a6.25,6.25,0,0,1,.77,1.92c.49,2.8-2.2,4.5-3.85,5.27-2.95,1.38-4.57.19-5.27-.64a27.07,27.07,0,0,1-1.84-2.78c-3,8.22-3.51,9.21-5.49,9.73-1.38.38-2.94-.07-4.65-1.32a9.42,9.42,0,0,1-1-.83,6,6,0,0,1-4.13-1.42c-1.59-1.16-2.39-2.39-2.45-3.76a8.83,8.83,0,0,1,.38-2.4,6.49,6.49,0,0,1-.69-.6c-.43-.43-2.56-2.65-2.55-4.84,0-.5,0-.84,2-9.14a31.24,31.24,0,0,1,3.48-11.38l-1-.34.93-6-1.14-.52.28-2.42c1-9,10.55-88.74,21.54-103.26l.33-.42c2.49-4.5,9.26-10.92,10-11.65l.92-.87.52-4.84a7.2,7.2,0,0,1-2.75-1.17c-1.61-1.17-3.08-3.57-4.93-11.13-8.83-3.12-8.88-9.73-8.44-12.56a6.61,6.61,0,0,1,2.22-4.17c-4.18-12.07-6.31-25.35-1.55-31.22-.5-3.53-.93-10.94,3.06-15.91,1.67-2.08,4.83-4.56,10.44-4.56,10.89,0,15.48,5,17.25,7.94a13.84,13.84,0,0,1,.66,1.23c3.73.86,10.5,4,13.38,15.69a59.49,59.49,0,0,1,1.14,18,6.88,6.88,0,0,1,2.29,2.94c1.26,2.92,2.38,8.44-3.36,14,.18,1.35.32,2.5.43,3.45l.12-.22c6.18-11.69,16.22-35.88,21.62-48.88,1.73-4.17,3-7.19,3.51-8.36l1.73-3.83,1,.78,1.55-5,1.6,1.28,0-.08.09-.31c.18-.62.38-1.2.57-1.73,1.56-5.59.49-11.35,0-13.82a6.88,6.88,0,0,1-.22-2.18c.34-2.89,3.56-3.79,5.45-4.07,3.33-.5,4.58,1.12,5,2.13a42.57,42.57,0,0,1,1.26,4.21c6.25-8.45,7-9.12,9.05-9.07,1.47,0,2.9.95,4.25,2.73a9.13,9.13,0,0,1,.85,1.32,6.09,6.09,0,0,1,3.89,2.69c1.25,1.64,1.69,3.1,1.35,4.46a10.27,10.27,0,0,1-1.25,2.56,5.67,5.67,0,0,1,.66,1c.19.34,1.83,3.43,1.16,5.66-.15.5-.26.86-5,9A35,35,0,0,1,735.89,154l-1,3.43,1.14.87-22.74,85.45c6.29,21.52,7,35.07,6.6,50.21a63,63,0,0,1,9.62-12.51,6.28,6.28,0,0,1,1.83-1.25c2.55-1.81,8.58-4.27,11.52-5.42a5.87,5.87,0,0,1,4.15-2.22l3.45-1.81.11-.88a5.65,5.65,0,0,1-.82-1.27c-.27-.59-.82-1.78-1.5-9.53a15,15,0,0,1-8.34-7.25,8.9,8.9,0,0,1-.24-7.74,8,8,0,0,1,3.75-3.93c-1.32-6.55-2.61-15.32-1.13-19.16.52-1.36,2.09-5.44,5.53-6,.06-.16.13-.32.2-.49l0-.11a25.86,25.86,0,0,1,21.13-15.71c6.19-.76,8-2.57,8.55-3.58a4.09,4.09,0,0,0-.13-3.36l-14-25.53L783,188c.51.56,11.72,13.31,7.27,27.16.08.1.15.21.23.33l.71,1.17.26.49.09.2c.12.23.23.48.34.74l.1.24c.09.22.16.42.24.62l.12.33c.07.2.14.43.21.65l.1.3c.09.32.19.66.28,1l0,.14c.08.31.15.63.22,1l0,.29c.07.34.12.64.17.94l.06.38c0,.35.09.71.13,1.08l0,.24q.08.68.12,1.41v.22c0,.47,0,.87.05,1.29v2.11c0,1.14-.1,2.34-.21,3.57l-.05.5c0,.47-.1.95-.16,1.45l-.08.61c-.07.52-.15,1-.23,1.58l-.08.52c-.09.58-.2,1.17-.31,1.78a8.26,8.26,0,0,1,3.48,3.73,8.72,8.72,0,0,1-.12,7.54,15,15,0,0,1-8.11,7.28c-.8,8.71-1.39,9.79-1.65,10.27a6.71,6.71,0,0,1-1.7,1.94v.13l1.37,1.35h4.85c3,0,5.6,2,6.9,5.13l.19.08a4.94,4.94,0,0,1,1.07.56l0,0c.18.1.34.19.49.29l.27.17.27.19a4.43,4.43,0,0,1,.58.49l.15.16c.34.27.68.54,1,.83l.1.08c15.64,13.13,25.59,42.67,28.27,51.42l1.57,5.49.18.64,0,.11c.07.26.13.53.19.81l.21.91c.07.32.13.61.18.86a8,8,0,0,1,0,2.93c0,.07,0,.14,0,.2l0,.32-3.34-.1,3.33.28,0,.53c0,.12,0,.24,0,.36l0,.22-.06.46c0,.13,0,.27-.07.41l0,.21c0,.14,0,.28-.08.42s-.07.3-.1.45l0,.18c0,.14-.07.28-.1.41s-.09.32-.14.48l0,.09c-.06.22-.1.35-.14.47l-.18.49,0,.1-.17.44c-.07.17-.15.34-.23.51l0,.09c-.08.19-.14.3-.19.42s-.18.34-.28.51l-.06.1c-.09.16-.14.27-.2.37s-.23.36-.35.53l-.08.13-.21.3c-.13.18-.27.36-.41.53l-.06.08c-.08.11-.17.21-.25.31s-.3.33-.46.49l-.09.1-.26.27-.54.49-.37.32-.54.41-.09.06-.37.27a6,6,0,0,1-.6.36l-.09.06-.38.23c-.23.12-.45.23-.68.33l-.09,0a3.79,3.79,0,0,1-.42.2c-.22.1-.47.19-.71.28l-.11,0-.43.16c-.28.09-.59.17-.9.25a3.63,3.63,0,0,1-.4.11,13,13,0,0,1-1.41.28c-1.29.21-3.62.57-19.41-6.24-.11.84-.23,1.67-.35,2.47l1.53.19v.42a34.8,34.8,0,0,1,4.16,1.57l.1.05c.39.17.77.36,1.15.55l.08,0c6.32,3.19,9.88,7.55,9.78,12a14.71,14.71,0,0,1-.69,3.62l14.83,12.42-23.59,26.44v49.36H799.4l-.41-3.28v3.28h-8.15l-.21-1.69H775.12l-5.24-11.73.63-1.37a20.53,20.53,0,0,1,2.1-3.56c.53-6.61,1.51-18.17,2.79-30.54H757.32c.14,1.1.28,2.19.41,3.28,1.27,10.24,2.29,19.64,3,26.15a17.28,17.28,0,0,1,3.32,4.51l.8,1.53-6,11.73H744.21l-.21,1.69h-8.15v-1.69h-.43l-.21,1.69h-8.15V401.15c-12.22-25.2-12.41-28.95-12.48-30.37-.29-5.47,4.86-9.87,10.72-12.58-4.44-1.91-8.14-3.6-11.07-5.07-4.19,32.8-11.51,65.56-15.62,82.63l-.29,1.2c-.52,2.14-1,3.94-1.31,5.33.89,3.44,1,9.33,1.08,11.83Zm32.83-6.5-.25,2.07.25-.12Zm46.58-5.28,7.63,4.13-2.37-19.41c-1.88,3.7-3.72,7.28-5.46,10.65A44.62,44.62,0,0,1,782.43,451.13Zm-35.74-11.47-1.76,14.41,6.46-3.06c0-.75,0-1.62.05-2.51C749.94,445.74,748.34,442.77,746.69,439.66ZM694.94,436l.16,0-.16,0Zm60.76-35.56h21l.16-1.34-1.51-1.27H755.33C755.45,398.74,755.58,399.61,755.7,400.48ZM819,352.17h0ZM795.48,284ZM748,279Zm32.29-12.69Zm.35-.66Zm-25-.09ZM747.05,221v0Zm37.45-2.39Zm-127.2-5.72Zm22.07-8.44Zm-32.9-9.23Z"/><path class="cls-3" d="M641.94,358.17c-.62,8.12,4.16,15.39,4.27,16.07s-2.87,2.39-3.28,1.91-7.37-11.7-7.37-11.7Z"/><path class="cls-3" d="M629.47,346.2c-4.54,6.05-6.05,12.4-6.17,15.23s11.92,12.24,11.92,12.24,4-9.61,5.84-11.19.23-11.07.23-11.07Z"/><path class="cls-3" d="M629,358.38c-2,5.78-4.92,14.61-5.46,14.62s-2.24-2.23-2.24-2.9,3.42-14.52,3.42-14.52Z"/><path class="cls-3" d="M638.23,366.62c-2.25,6.05-5.38,15.23-6,15.41s-2.86-1.37-2.89-2,3.53-14.67,3.53-14.67Z"/><path class="cls-3" d="M633.1,364.36c-2.25,6.05-5.38,15.23-6,15.41s-2.86-1.37-2.89-2,3.53-14.67,3.53-14.67Z"/><path class="cls-3" d="M720.2,138.25c3.23-8.45.45-17.68.54-18.44s3.81-1.64,4.09-1S729,133.58,729,133.58Z"/><path class="cls-3" d="M729.69,154.92c6.74-5,10.35-11.28,11.37-14.26s-8.81-16.77-8.81-16.77-7.27,9-9.74,10-3.75,11.7-3.75,11.7Z"/><path class="cls-3" d="M734,142.1c4-5.49,9.85-14,10.43-13.81s1.68,3.07,1.46,3.79-8.22,14.35-8.22,14.35Z"/><path class="cls-3" d="M726.82,130.44c4.31-5.73,10.53-14.5,11.29-14.48s2.61,2.35,2.44,3-8.39,14.48-8.39,14.48Z"/><path class="cls-3" d="M731.57,134.46c4.3-5.73,10.52-14.5,11.28-14.48s2.62,2.35,2.45,3-8.39,14.48-8.39,14.48Z"/><polygon class="cls-4" points="714.46 150.4 717.08 141.91 732.37 154.06 730.57 159.95 714.46 150.4"/><polygon class="cls-4" points="626.23 347.02 627.66 337.88 644.58 347.02 643.61 353.36 626.23 347.02"/><path class="cls-5" d="M662.52,279.89c-5.71,10.47-15.65,63.52-17,69.74l-19.61-8.94S636,253.27,646.78,239.06,662.52,279.89,662.52,279.89Z"/><path class="cls-6" d="M649.33,292.06c-2.37,23.22-6.9,44.88-12.56,53.59l8.73,4c1.37-6.22,13.33-57.05,19-67.52C664.55,282.11,651.86,267.16,649.33,292.06Z"/><path class="cls-7" d="M675.54,454.37h2l8-110.35,4.07-1.6,2.26,101.2,1.08,1.22s25.76-98.08,20.38-150.52l-54.54,21.15C659.57,367.36,671.61,408.11,675.54,454.37Z"/><path class="cls-8" d="M694.28,337.25a126.42,126.42,0,0,1-14.75,6.55c1.77,15.93-1.09,96.36-4.54,104.76q.3,2.9.55,5.81h2L686,344.62l2.79-1.7,3.07,100.71,1.08,1.22s1-3.64,2.46-9.87C695.28,434.4,694.28,337.25,694.28,337.25Z"/><path class="cls-8" d="M711.46,348.31c2.32-19.5,4.52-40.95,2.95-56.25l-57.12,22.83c.32,20.59,3.88,40,6.53,58.12,1.43-26.51,14.29-42.83,22.81-48.05C699,317.37,708.56,325.84,711.46,348.31Z"/><path class="cls-4" d="M652,236.28c-3.58,18.94,5.86,84.68,7.37,87.88,2.42,5.11,53.64-16.74,55.1-25.45s-22.34-82.21-27.67-84.54C680.15,211.3,654,225.5,652,236.28Z"/><path class="cls-9" d="M686.75,214.17c-1.36-.59-3.55-.45-6.19.23l-.8,51.09-20.93-39c-3.62,3.22-6.29,6.66-6.88,9.81-3.58,18.94,5.86,84.68,7.37,87.88,1.1,2.33,12.28-.92,24.28-6l2.52-8.55,6.5,4.48c11.26-5.43,21.17-11.65,21.8-15.41C715.88,290,692.08,216.5,686.75,214.17Z"/><polygon class="cls-9" points="658.92 227.57 659.3 224.03 672.27 222.65 679.3 213.75 682.63 214.04 680.27 224.9 673.68 224.37 672.74 224.75 670.01 230.84 658.92 227.57"/><polygon class="cls-10" points="688.58 313.92 684.13 307.32 672.15 221.95 673.44 220.66 690.22 305.6 688.58 313.92"/><path class="cls-5" d="M655.73,354.63c10.2-7.82,29.41-41.25,30.58-51.76,0,0,26.79,26.15,28.54,27,0,0,4.2-42.43-1.36-67.31-5.34-23.9-18.77-62-22-59.54-3.92,2.92-10,10.46-10,10.46,2.51,11.35,1.37,33.11-1.29,57.62l-23.41-43.65s-8,7.52-9.78,11.57S655.73,354.63,655.73,354.63Z"/><path class="cls-6" d="M649.66,289.56c1.05,25.59,6.07,65.07,6.07,65.07a17,17,0,0,0,2.86-2.61C658.46,329,654.48,301.7,649.66,289.56Z"/><path class="cls-5" d="M685,209.3c5.94-6.33,26.56-58,29.08-63.6l18.1,13.88-24.89,85.33Z"/><polygon class="cls-6" points="728.12 156.47 706.55 234.12 708.79 247.47 732.17 159.58 728.12 156.47"/><path class="cls-11" d="M678.59,458.28H668.26s6-4,7.57-4.72S678.59,458.28,678.59,458.28Z"/><path class="cls-11" d="M696,457.25l-2.62-.81L689,445.66s2.42-5.75,4.07-4.05S694.75,455,694.75,455Z"/><path class="cls-3" d="M660.38,225.14l-2-11.78,17.33-10.1L680,214.55S672.26,224.89,660.38,225.14Z"/><polygon class="cls-4" points="658.54 226.39 659.06 221.46 672.04 220.07 679.06 211.18 682.4 211.47 679.14 223.19 673.44 221.79 672.51 222.18 670.11 228.07 658.54 226.39"/><polygon class="cls-10" points="673.75 226.55 670.55 223.82 670.87 220.31 673.04 218.8 675.39 221.32 673.75 226.55"/><path class="cls-6" d="M678.83,297.27a2.26,2.26,0,1,0,2.25-2.51A2.4,2.4,0,0,0,678.83,297.27Z"/><path class="cls-9" d="M678.94,296.22a2.27,2.27,0,1,0,2.26-2.52A2.4,2.4,0,0,0,678.94,296.22Z"/><ellipse class="cls-6" cx="678.97" cy="282.17" rx="2.25" ry="2.52"/><path class="cls-9" d="M676.84,281.12a2.26,2.26,0,1,0,2.25-2.52A2.4,2.4,0,0,0,676.84,281.12Z"/><path class="cls-12" d="M656.82,283.4c1.29-.23,8.19-4.1,8.55-4.68s-5.27-6.2-6.21-6.2S656.82,283.4,656.82,283.4Z"/><polygon class="cls-9" points="690.59 317.28 685.04 318.73 686.14 322.92 691.43 320.49 690.59 317.28"/><path class="cls-6" d="M716.36,298.5c.63-18.26.69-33.87-9.79-64.79C705.7,247.63,714.65,269.24,716.36,298.5Z"/><path class="cls-13" d="M673.75,249.34c11.21-7.82,14.37-36.85,15.1-46.22A32.66,32.66,0,0,1,685,209.3h0c-1.27,1.43-2.35,2.7-3,3.45l.36-1.29-3.34-.29-.26.33-3.12-8.25-17.33,10.1,1.38,8-.67.07-.52,4.93.32.05,0,0h0c-.59.52-1.16,1.06-1.7,1.59l-.35-.65s-7.34,6.88-9.5,11C652.73,251.11,662.71,257,673.75,249.34Z"/><path class="cls-3" d="M680.34,198.09c6.34-4.34,6.89-8.73,5.3-12.39-1.71-3.95-5.57-1.1-6.54,1S680.34,198.09,680.34,198.09Z"/><path class="cls-14" d="M681.13,194.82c3.78-2.59,4.11-5.21,3.16-7.39-1-2.36-3.33-.66-3.9.59S681.13,194.82,681.13,194.82Z"/><path class="cls-3" d="M680.92,194.83c2.71-1.85,2.94-3.73,2.26-5.29s-2.38-.47-2.79.42S680.92,194.83,680.92,194.83Z"/><path class="cls-3" d="M652.24,204.6c-7.91-1.62-9.73-5.72-9.12-9.7s5-2.89,6.53-1.45S652.24,204.6,652.24,204.6Z"/><path class="cls-14" d="M651.08,202.3c-5-1-6.13-3.61-5.75-6.12s3.16-1.82,4.12-.91S651.08,202.3,651.08,202.3Z"/><path class="cls-3" d="M651.36,201.92c-3.46-.72-4.25-2.51-4-4.25s2.19-1.26,2.86-.63S651.36,201.92,651.36,201.92Z"/><path class="cls-15" d="M669.42,150.74S668,141.88,654,141.88s-9.9,18.31-9.9,18.31c-6.12,4.13-2.63,25.69,9.31,47.24L681.65,193C688.93,150.15,669.42,150.74,669.42,150.74Z"/><path class="cls-16" d="M669.42,150.74a8.25,8.25,0,0,0-1-2.55c-1,6.65-7.73,7.89-15.62,7.89-3.51,0-6.5,2.87-9.1,1.16a24.92,24.92,0,0,0,.43,2.95c-6.12,4.13-2.63,25.69,9.31,47.24L681.65,193C688.93,150.15,669.42,150.74,669.42,150.74Z"/><path class="cls-3" d="M655.15,215.39c-4.37-3.18-9-40.22-9.41-44.89s7.37-13.66,11.64-13.66,15,.18,17.67,5.93,7.63,38.67,7.63,41.9-8,8.6-11.71,9.68S657.87,217.36,655.15,215.39Z"/><path class="cls-6" d="M679.11,269c4.75,8.86,8.75,22.95,7.14,34.28,0,0,3.07-11.06,0-20.91C682.58,270.92,679.11,269,679.11,269Z"/><path class="cls-17" d="M658.17,200.09l16.34-3.2s.07,7.09-1.2,8.38-10.48,2.91-11.16,2.76C660.57,207.67,658.17,200.09,658.17,200.09Z"/><path class="cls-18" d="M673.31,201.12c.15-1.81.13-3.56.13-3.56L659,200.38s.51,1.62,1.2,3.31Z"/><path class="cls-14" d="M659.18,178.24s1.09,16.17,1.37,16.86,3.71,1.35,4.69,1.16a11,11,0,0,0,3.89-2.69c.07-.38-5.53-16.1-5.53-16.1Z"/><path class="cls-3" d="M659.45,177.37s1.4,16.11,1.65,16.81,3.17,1.45,4,1.29a8.52,8.52,0,0,0,3.2-2.55c.05-.38-5.37-16.37-5.37-16.37Z"/><path class="cls-15" d="M648.22,182.5c1.23.16,9.74-3.47,10.21-4s-.3-5.43-1.4-6-9.82,5.7-10,6.42S647.56,182.4,648.22,182.5Z"/><path class="cls-15" d="M675.73,176.45c-1.08.62-10.3.46-10.94.14s-1.69-5.16-.85-6.06,11.19,1.59,11.66,2.16S676.31,176.11,675.73,176.45Z"/><path class="cls-19" d="M656.65,184.63c-.37-2-1.74-3.39-3-3.13s-2.07,2.07-1.7,4.06,1.74,3.38,3.05,3.13S657,186.61,656.65,184.63Z"/><path class="cls-19" d="M673.29,181.38c-.37-2-1.74-3.39-3-3.13s-2.07,2.07-1.7,4.05,1.74,3.39,3.05,3.13S673.66,183.36,673.29,181.38Z"/><path class="cls-14" d="M670.3,207.76c-.06-.32-1-.06-2.22.18s-2.22.35-2.16.68,1.09.4,2.3.16S670.36,208.09,670.3,207.76Z"/><rect class="cls-20" x="858.38" y="436.16" width="83.42" height="15.53"/><polygon class="cls-20" points="943.41 458.28 946.24 458.28 942.88 426.43 924.12 426.67 943.41 458.28"/><polygon class="cls-20" points="937.8 356.7 857.97 356.7 855.68 449.5 946.63 449.5 937.8 356.7"/><polygon class="cls-20" points="857.83 458.28 854.7 458.28 856.24 426.74 879.24 426.67 857.83 458.28"/><path class="cls-3" d="M931.38,340.76c-1.07,2.56.6,6.39-.35,8-1.81,3.07-5,1-8.63,1.69-1.94.38-8.37,5.74-2.49,7.7,2.59.87,7.5-.86,10.06,1.44,2,1.78,4,4.37,7.72,3.45,2.48-.61,6.16-6.34,5.57-18.17Z"/><path class="cls-3" d="M924,358.37c-3.92.05-6.48,0-8.15,1.13s.62,5.54-.1,6.54-3,1.25-3.74.37-1-8-.62-9,6.64-5.91,10.06-6.55C927.29,349.72,929.14,358.31,924,358.37Z"/><path class="cls-3" d="M932.8,356.06c-3.83.49-6.34.7-7.84,2.06s1.26,5.51.67,6.6-2.78,1.6-3.62.79-1.87-7.93-1.66-9,3.43-4.4,6.71-5.44C932.61,349.28,937.79,355.41,932.8,356.06Z"/><path class="cls-3" d="M928,355.76c-3.89.44-6.44.61-8,1.93s1.19,5.45.58,6.52-2.84,1.54-3.68.73-1.78-7.84-1.56-8.93,3.55-4.29,6.89-5.27C927.87,349.08,933,355.2,928,355.76Z"/><polygon class="cls-21" points="928.91 343.4 928.47 349.48 944.59 351 945.15 344.92 928.91 343.4"/><path class="cls-15" d="M953.07,211c-6.76-9.68-24.78-43-16.47-43.61-4.08-8,26.68-22.1,32.78-23.46s11,2,12,5.11-3.84,10.89-3.84,10.89,6.26,27.95,3.84,37.82C977.1,215.06,957.39,217.14,953.07,211Z"/><path class="cls-22" d="M979.45,156.43a42.33,42.33,0,0,1-8.79,7.59c-10.79,7.08-22.43,8.41-26,3-2-3.12-1-7.78,2.32-12.52-6.93,4.38-12.24,9.25-10.39,12.88-8.31.62,9.71,33.93,16.47,43.61,4.32,6.17,24,4.09,28.3-13.25,2.42-9.87-3.84-37.82-3.84-37.82S978.48,158.39,979.45,156.43Z"/><path class="cls-12" d="M996.59,315.92l16.95,17.88s7.46-45.76,6.82-55.3c-.47-7.06-18.18-47.48-26.33-50.64s-9.08,13.78-1.2,41.94C1001.58,301.08,996.59,315.92,996.59,315.92Z"/><path class="cls-23" d="M987,235.24l-.42.08c-2.49,5.31-1,18.76,5,37.45,9.47,29.55,4.82,43.56,4.82,43.56l17.9,12.69.45-3.07c-.94-7.53-5.26-26.67-7.93-46.42C1003.44,254.32,994.57,234.49,987,235.24Z"/><path class="cls-24" d="M982.25,454.91h1.41s1.16-99,2.82-102.13c.47-.89,6.24-4.35,6.74-3.37,1,1.87,9.37,30,9.37,30l-14.35,69.89,1,1.17s34.17-62.16,34.61-66.84-8.6-55.73-13.82-63-34.21-12.88-38.44-11.94-16.12,30.2-16.23,37C955.15,356.44,982.25,454.91,982.25,454.91Z"/><path class="cls-25" d="M988.69,331.45c5.33-2.67,17.77,1.39,26.88,6-2-8-4-14.54-5.59-16.8-5.23-7.26-34.21-12.88-38.44-11.94s-16.12,30.2-16.23,37c0,3.42,2.64,15.63,6.33,30.73C963.91,356.43,970.62,340.48,988.69,331.45Z"/><path class="cls-25" d="M982.25,350.59c.26,19.35.59,88.59-.62,103.69l2,.63s2.9-96.72,4.55-99.81c.48-.89,3.27-3.61,3.77-2.63,1,1.87,9.29,27.69,9.29,27.69l-13,69.11,1,1.17s.9-1.63,2.39-4.37c2.06-18.7,18-64.62,18-64.62s-9.49-21.51-13.1-36.67C993.23,346.61,987,348.31,982.25,350.59Z"/><path class="cls-26" d="M972.83,330l28.24-12.71s-15.54-11.3-19.54-9.88S972.83,330,972.83,330Z"/><path class="cls-21" d="M993.63,320.68a28,28,0,0,0-5.53-2.76c-2.3-.65-4.24,3-6.22,8Z"/><polygon class="cls-27" points="948.04 356.7 871.49 356.7 869.29 449.5 956.51 449.5 948.04 356.7"/><path class="cls-12" d="M939.79,236c8.69-7.27,21.43-16.2,25.51-15.57s25.41,3.14,29.49,7.84,8.63,66.44,11.3,78.13c1,4.38,10.66,26.43,10.66,26.43s-27.12-17.26-30-18.82c0,0-24.33,41.33-30.91,43.84-2.89,1.1-2.73-23.88-6.36-49.73C944.86,274.89,936.92,238.44,939.79,236Z"/><path class="cls-23" d="M961.08,294.11c-1.6-13.87-12.74-58.42-20.87-51.61-2.88,2.41,4.65,32.39,9.32,65.65C953.16,334,953,359,955.89,357.88a1.75,1.75,0,0,0,.28-.13C960.79,348.94,964.39,322.92,961.08,294.11Z"/><path class="cls-12" d="M927.32,346.28l19.57,2s10.2-57.49,11.05-63.08-5.13-44.36-12.19-49.29-15.28,8.57-16,39.1C929,308.91,927.32,346.28,927.32,346.28Z"/><path class="cls-23" d="M927.76,335.57c-.27,6.47-.44,10.4-.44,10.4l2.84.29A86.47,86.47,0,0,1,927.76,335.57Z"/><path class="cls-23" d="M941.51,347.39l5.38.54s11.53-57,12.38-62.54c.17-1.08-.47-10-1.65-12.65C953.39,298.44,946.9,333.61,941.51,347.39Z"/><path class="cls-21" d="M982.24,286.74s3.7-44.83,1.36-63.1c-6.65-2.2-15.13-4.32-18.18-4-2.77.31-10,4.11-16.32,9.13C957.45,235.6,969.85,259.29,982.24,286.74Z"/><polygon class="cls-28" points="950.88 227.6 968.06 234.74 973.23 225.72 981.47 230.97 983.1 223.48 979.51 221.48 968.13 225.09 953.15 225.09 950.88 227.6"/><path class="cls-28" d="M983.6,223.64l-.5-.16c1.62,19.83-1.68,59.85-1.68,59.85-11.28-25-22.56-46.85-30.79-55.69q-.78.57-1.53,1.17c8.35,6.79,20.79,31.17,33.18,58.62C982.28,287.43,985.94,241.91,983.6,223.64Z"/><path class="cls-29" d="M971.77,227.79l5.14,48a116.49,116.49,0,0,0,5.41,11.76,69.73,69.73,0,0,0,.91-10.43c-2.48-19.64-5.91-32.08-9.93-49.65Z"/><path class="cls-3" d="M972,176.69c-2.66-.78-24.15,6.9-23.21,8.94S954,225.48,954,225.48l24.8-3.32S974.71,177.48,972,176.69Z"/><polygon class="cls-21" points="951.06 226.85 952.83 220.23 971.3 223.44 967.53 233.56 951.06 226.85"/><polygon class="cls-21" points="980.95 229.56 970.83 223.09 978.95 218.97 982.24 222.38 980.95 229.56"/><polygon class="cls-27" points="954.94 458.28 957.77 458.28 954.41 426.43 935.65 426.67 954.94 458.28"/><polygon class="cls-27" points="871.35 458.28 868.35 458.28 869.83 426.74 891.88 426.67 871.35 458.28"/><path class="cls-21" d="M984.48,458.28H973.06s7.21-6.28,9.14-6.37S984.48,458.28,984.48,458.28Z"/><path class="cls-21" d="M985.06,451.93l5.53,5.53H997a17.83,17.83,0,0,1-7.3-10.12C989.1,445.33,985.06,451.93,985.06,451.93Z"/><polygon class="cls-29" points="969.77 222.85 969.69 227.76 972.95 229.44 974.54 225.46 971.89 222.15 969.77 222.85"/><polygon class="cls-30" points="945.39 357.8 895.5 357.8 877.62 448.87 927.5 448.87 945.39 357.8"/><path class="cls-31" d="M948.07,399.94l.72,7.36a28.11,28.11,0,0,1,4,3.59l2.63-7.37A16.08,16.08,0,0,0,948.07,399.94Z"/><path class="cls-32" d="M948.52,401.35l-.59-6.42a26.69,26.69,0,0,0,3.27-3.87l3.87,5.76A17.21,17.21,0,0,1,948.52,401.35Z"/><path class="cls-33" d="M953.31,446.29H874.17l2-86.13h69.48Zm-78.18-.93h77.15l-7.5-84.27h-67.7Z"/><path class="cls-31" d="M920.44,359.78a27,27,0,0,1,2.72-4.5l-6.74-2.65a18.11,18.11,0,0,0-2.12,7.15Z"/><path class="cls-32" d="M926.44,360.24a28,28,0,0,1,5-2.24l-5.67-5.39c-5.77,2.89-7.29,7-7.49,7.63Z"/><path class="cls-31" d="M902.72,350.59c-4.47,4.94-3.69,9.8-3.69,9.8h6c.63-3.37,4.63-7,4.63-7Z"/><path class="cls-32" d="M900.88,360h0c-1.8-3-1.3-9.14-1.3-9.14l-7.14,3.19a16.94,16.94,0,0,0,1.48,6Z"/><path class="cls-34" d="M952.49,446.75H873.35l2-87.3h69.48Zm-78.18-.94h77.15L944,360.39H876.25Z"/><path class="cls-25" d="M976.21,352.86c7.3.83,16.83,1.77,28.71-11.65Z"/><path class="cls-13" d="M961.62,249.09c11.47-.7,22-10.76,23.17-25.16l-1.19-.29-.5-.16-1-.54.1-.56L979,219l-.44.22c-.4-4.2-1.21-12.25-2.18-20.22-7-6.15-17.67-7.51-26.45-7.36,1.11,7.83,2.69,21.36,3.54,28.72l-.59-.1-1.77,6.62.36.15-.14.16c-.74.53-1.47,1.08-2.18,1.65-3.18,2.28-6.35,4.76-9.13,7.08a8.22,8.22,0,0,0-1,.78C948.53,236.54,953.67,249.57,961.62,249.09Z"/><path class="cls-3" d="M983,213.4c-2.12,2.62-22.28,3.29-24.48,2.2S944,171.2,945.22,167s24.47-10.2,28.08-6.59S985.69,210.11,983,213.4Z"/><path class="cls-15" d="M941.68,165c4.12-7.15,9.34,4.92,12.79,30.64l-3.66,1.42S938.28,170.93,941.68,165Z"/><path class="cls-3" d="M950.28,190.23c-4.1-4.49-10-3.45-10.34.26s13.14,13.7,14.3,10.41S952.45,192.61,950.28,190.23Z"/><path class="cls-14" d="M949.55,192.37c-2.28-2.5-5.56-1.92-5.74.14s7.3,7.62,8,5.79S950.76,193.69,949.55,192.37Z"/><path class="cls-3" d="M950.75,194.59c-1.67-1.83-4.08-1.4-4.22.11s5.36,5.6,5.84,4.25S951.64,195.57,950.75,194.59Z"/><path class="cls-23" d="M985.49,308c-.27-1.51-1.33-2.74-2.37-2.74s-1.67,1.23-1.39,2.74,1.33,2.74,2.37,2.74S985.76,309.51,985.49,308Z"/><path class="cls-23" d="M983.14,296.71c-.27-1.52-1.33-2.75-2.37-2.75s-1.67,1.23-1.4,2.75,1.33,2.74,2.37,2.74S983.41,298.22,983.14,296.71Z"/><path class="cls-35" d="M985.73,307.06c-.27-1.51-1.34-2.74-2.38-2.74s-1.66,1.23-1.39,2.74,1.33,2.74,2.37,2.74S986,308.57,985.73,307.06Z"/><path class="cls-35" d="M983.37,295.76C983.1,294.25,982,293,981,293s-1.66,1.23-1.39,2.74,1.33,2.74,2.37,2.74S983.64,297.28,983.37,295.76Z"/><polygon class="cls-21" points="985.27 326.27 985.86 329.92 992.1 327.68 990.57 323.68 985.27 326.27"/><path class="cls-34" d="M938,377.41H923.58l.79,16.79H938.8Zm-12.32,15.16L925.06,379h11.63l.64,13.53Z"/><polygon class="cls-36" points="929.23 389.52 926.94 389.52 927.09 391.69 929.39 391.69 929.23 389.52"/><polygon class="cls-36" points="929.01 386.36 926.72 386.36 926.87 388.53 929.16 388.53 929.01 386.36"/><polygon class="cls-36" points="928.79 383.2 926.49 383.2 926.64 385.37 928.94 385.37 928.79 383.2"/><polygon class="cls-36" points="928.56 380.04 926.27 380.04 926.42 382.21 928.72 382.21 928.56 380.04"/><polygon class="cls-36" points="932.7 389.52 930.41 389.52 930.56 391.69 932.86 391.69 932.7 389.52"/><polygon class="cls-36" points="932.48 386.36 930.19 386.36 930.34 388.53 932.63 388.53 932.48 386.36"/><polygon class="cls-36" points="932.26 383.2 929.96 383.2 930.12 385.37 932.41 385.37 932.26 383.2"/><polygon class="cls-36" points="932.03 380.04 929.74 380.04 929.89 382.21 932.19 382.21 932.03 380.04"/><polygon class="cls-36" points="936.17 389.52 933.88 389.52 934.03 391.69 936.33 391.69 936.17 389.52"/><polygon class="cls-36" points="935.95 386.36 933.66 386.36 933.81 388.53 936.11 388.53 935.95 386.36"/><polygon class="cls-36" points="935.73 383.2 933.43 383.2 933.59 385.37 935.88 385.37 935.73 383.2"/><polygon class="cls-36" points="935.5 380.04 933.21 380.04 933.36 382.21 935.66 382.21 935.5 380.04"/><path class="cls-20" d="M884,384h1.63v2.83H884a4.78,4.78,0,0,0-3.78,4.47v34c0,3,2.9,4.94,4.14,4.94h1.27v2.82h-1.27c-3.77,0-6.73-3.41-6.73-7.76v-34C877.62,387.21,880.42,384,884,384Z"/><path class="cls-36" d="M886.39,433.1h-1.24c-1.62,0-1.62-2.82,0-2.82h1.24c.84,0,2.05-1.74,2.05-4.47v-34c0-3-1.37-4.94-2.32-4.94h-1c-1.47,0-1.47-2.83,0-2.83h1c2.88,0,5.15,3.41,5.15,7.77v34C891.27,429.9,889.13,433.1,886.39,433.1Z"/><path class="cls-33" d="M885.15,386.83h1c1,0,2.32,1.92,2.32,4.94v34c0,2.73-1.21,4.47-2.05,4.47h-1.24a1.34,1.34,0,0,0-1.2,1.65,3.27,3.27,0,0,1,.57-.05h2.08c1.4,0,3.43-1.87,3.43-4.8V390.53c0-3.23-2.3-5.3-3.89-5.3h-1.62a3.15,3.15,0,0,1-.46,0C884,386,884.34,386.83,885.15,386.83Z"/><path class="cls-5" d="M1000.76,266.74c-.46,1.4-9.64,3.17-9.53,2s2.95-7.89,4.36-8.36S1001,266,1000.76,266.74Z"/><path class="cls-35" d="M945.39,338.75a2,2,0,1,0-2,1.9A1.93,1.93,0,0,0,945.39,338.75Z"/><path class="cls-35" d="M947.11,331.75a2,2,0,1,0-2,1.9A1.93,1.93,0,0,0,947.11,331.75Z"/><path class="cls-37" d="M974.3,180.53c-.35-2-1.5-3.42-2.58-3.18s-1.65,2.06-1.29,4.06,1.51,3.42,2.57,3.17S974.66,182.53,974.3,180.53Z"/><path class="cls-3" d="M966.89,179c1.16-1.18,10.36,16.65,10.43,19,0,1.2-7.42.64-7.42.64S966.68,179.23,966.89,179Z"/><path class="cls-14" d="M967.61,179.49c2.47,3.55,9.26,16.28,9.3,18.29,0,.91-4.58.79-6.51.64.08.42.11.66.11.66s8,1,8-.23C978.35,196.56,969.2,179.92,967.61,179.49Z"/><path class="cls-37" d="M962,181.13c-.36-2-1.51-3.42-2.58-3.17s-1.66,2-1.3,4,1.51,3.42,2.58,3.18S962.38,183.13,962,181.13Z"/><path class="cls-15" d="M962.79,175.8c-1.69,2.79-9.7,2.78-10.44,1.35s-1.16-2.92.48-3.91,9-3.77,10.14-2.7S963.56,174.51,962.79,175.8Z"/><path class="cls-15" d="M968,174.78c1.58,2.39,7.34.4,7.69-1.21s.45-3.24-.85-3.82-7-1.56-7.66-.21S967.24,173.68,968,174.78Z"/><path class="cls-14" d="M967.12,204.46c-1.86-.54-2.91-5.07-3.28-7l-.86-.11s1.08,7.05,3.35,7.74c2.47.75,9.1,1,10.58-.26.1-.09.2-.22.3-.33C974.72,205.32,969.34,205.1,967.12,204.46Z"/><path class="cls-14" d="M973.16,207.67c0-.39-.84-.64-1.82-.57s-1.75.45-1.72.84.84.64,1.81.57S973.19,208.06,973.16,207.67Z"/><path class="cls-3" d="M941.85,352.53c1.84,1.58-1.37,6.13-1.36,7,0,1.61,1.47,4.86,1.64,6.17s-2.76,1.77-3.41,1.63c-.92-.21-2.2-3.75-2.44-5.19s-.78-4.54-3-5.91C929.27,353.75,936.39,347.84,941.85,352.53Z"/><polygon class="cls-38" points="1099.4 370.61 1099.4 458.28 1097.3 458.28 1086.57 370.61 1099.4 370.61"/><polygon class="cls-38" points="1035.42 370.61 1035.42 458.28 1037.52 458.28 1048.25 370.61 1035.42 370.61"/><rect class="cls-38" x="1032.42" y="396.87" width="69.35" height="6.28"/><rect class="cls-39" x="1033.15" y="368.87" width="68.33" height="20.15"/><rect class="cls-38" x="1025.42" y="365.46" width="83.79" height="20.15"/><polygon class="cls-39" points="1109.1 365.46 1109.1 458.28 1107 458.28 1096.27 365.46 1109.1 365.46"/><polygon class="cls-39" points="1024.96 365.46 1024.96 458.28 1027.06 458.28 1037.79 365.46 1024.96 365.46"/><path class="cls-39" d="M1035.32,265.29a4.09,4.09,0,0,0-4.09,4.09v98.36L1101,369V271.35a6.06,6.06,0,0,0-6.06-6.06Z"/><path class="cls-3" d="M1087.38,240.49c.31-4.11-7.42-6-8.82-1.87s-2.32,13.67-1.13,13.66S1087.09,244.16,1087.38,240.49Z"/><path class="cls-14" d="M1085,241.25c.2-2.56-4.61-3.72-5.49-1.16s-1.44,8.5-.7,8.5S1084.86,243.53,1085,241.25Z"/><path class="cls-3" d="M1082.45,243.31c.16-2-3.68-3-4.38-.92s-1.15,6.78-.56,6.78S1082.31,245.14,1082.45,243.31Z"/><path class="cls-3" d="M1032.48,240.62c-.89-4,6.28-6.86,8.22-3s4.17,13.24,3,13.39S1033.27,244.23,1032.48,240.62Z"/><path class="cls-14" d="M1034.73,241c-.65-3,4.62-5.05,6-2.19s3.07,9.75,2.23,9.86S1035.31,243.65,1034.73,241Z"/><path class="cls-3" d="M1037,242.45c-.46-2.08,3.25-3.55,4.26-1.53s2.16,6.85,1.56,6.93S1037.43,244.32,1037,242.45Z"/><path class="cls-40" d="M1044.85,254.68c-4.94-1.7-12.86-41.66-6.68-42.9,0,0,13.31-18.05,27-17.13s14.69,15.13,14.69,15.13,13.1.09-2.47,45Z"/><path class="cls-41" d="M1079.9,209.78a16.24,16.24,0,0,0-.34-2.11,37.26,37.26,0,0,1-11.73,9.46c-11.93,6.31-24.56,5.84-28.2-1a9,9,0,0,1-1-5l-.51.66c-6.18,1.24,1.74,41.2,6.68,42.9l32.58.13C1093,209.87,1079.9,209.78,1079.9,209.78Z"/><path class="cls-42" d="M1107.39,278.21c-2.88-3.92-35.19-20.31-47.23-17.95s-36.32,16.13-39.36,20.06c-2.3,3,5.34,52.17,10.57,78.34l69.88.52S1110.27,282.14,1107.39,278.21Z"/><path class="cls-43" d="M1107.39,278.21l-.18-.21c.09,1.5.15,3,.15,4.53,0,31.07-15.16,52.93-39.75,52.93-17.65,0-34.14-36-41.68-37.47,2.29,16.66,2.61,46.54,5.44,60.67l69.88.52S1110.27,282.14,1107.39,278.21Z"/><polygon class="cls-44" points="1076.59 354.14 1066.36 338.8 1058.97 354.26 1076.59 354.14"/><polygon class="cls-45" points="1100.14 355 1063.55 351.1 1030.45 355.53 1030.2 380.93 1097.22 380.93 1100.14 355"/><path class="cls-2" d="M1064.75,331l21.67-64.75c-10.24-5.29-19.81-8.32-26.26-7.06a49.94,49.94,0,0,0-19.79,8.42Z"/><polygon class="cls-46" points="1062.43 272.93 1067.1 281.11 1082.24 264.22 1078.78 262.81 1062.43 272.93"/><polygon class="cls-46" points="1062.78 271.68 1058.47 280.45 1042.66 266.33 1046.62 262.26 1062.78 271.68"/><polygon class="cls-46" points="1061.42 270.1 1061.05 324.13 1063.9 330.69 1068.21 321.06 1063.97 270.52 1061.42 270.1"/><polygon class="cls-47" points="1062.25 270.86 1061.89 324.89 1064.74 331.44 1067.66 323.95 1063.43 270.73 1062.25 270.86"/><polygon class="cls-48" points="1064.73 332.89 1065.77 328.79 1042.9 264.53 1036.54 268.93 1064.73 332.89"/><polygon class="cls-48" points="1083.67 264.23 1064.58 325.43 1064.73 332.89 1087.91 266.05 1083.67 264.23"/><polygon class="cls-47" points="1063.21 277.71 1059.9 275.09 1061.99 270.03 1063.82 270.03 1065.91 274.92 1063.21 277.71"/><path class="cls-3" d="M1046.06,265.44c-1.62-4.13-3.2-30.74-1.74-34.36s8.53-10.35,17-10.35,15.39,5,17.07,10.35c1.14,3.62-1.1,32.8-1.87,34-1.12,1.68-10.24,6.38-14.69,6.38S1047,267.84,1046.06,265.44Z"/><polygon class="cls-2" points="1063.29 270.44 1067.08 279.23 1081.09 263.7 1078.67 259.91 1063.29 270.44"/><polygon class="cls-2" points="1062.15 269.99 1058.17 279.09 1043.43 264.68 1045.98 260.7 1062.15 269.99"/><path class="cls-42" d="M1112.57,341.35c3.91-11.23,3.57-58.18-7.11-64.86-4.44-2.77-8.58,5.6-11.61,16.46-4.25,15.26-4,35.47-4.72,37.36C1085.08,340.43,1109.49,350.16,1112.57,341.35Z"/><path class="cls-45" d="M1080.05,449.56l-1.1-.4s5.93-70,7.5-77.42c1-4.91,9.84-16.29,12.6-16.74s17.85,4.06,18.39,7.92C1119,374,1080.05,449.56,1080.05,449.56Z"/><path class="cls-49" d="M1082.36,410.53c.79,3,2.1,5,3.94,5.54,6.66,2,17.68-15.22,24.62-38.43a142.68,142.68,0,0,0,4.07-17.47c-4.5-2.95-13.82-5.52-15.94-5.17-2.76.45-11.56,11.83-12.6,16.74C1085.71,375.3,1084,393,1082.36,410.53Z"/><path class="cls-45" d="M1059.46,449.14l1.22-.85s-11.32-69.25-13.37-76.66c-1.35-4.89-10.87-16.18-13.67-16.63s-17.59,4-17.88,7.86C1014.92,373.87,1059.46,449.14,1059.46,449.14Z"/><path class="cls-49" d="M1047.31,371.63c-1.35-4.89-10.87-16.18-13.67-16.63-2-.33-10.19,1.9-14.76,4.59a107,107,0,0,0,5.62,21.84c7.51,20.58,18.91,35.33,25.45,32.94,2-.74,3.35-3,4-6.47C1051.1,391.24,1048.24,375,1047.31,371.63Z"/><path class="cls-50" d="M1050.52,458.28h9.38l4.27-8.37s-3.36-6.47-5.41-3.84c-1.22,1.57-.87,8.72-.87,8.72Z"/><path class="cls-50" d="M1088.62,458.28h-8.21l-3.74-8.37s2.94-6.47,4.73-3.84c1.07,1.57.76,8.72.76,8.72Z"/><path class="cls-42" d="M1017.73,352.6c-4.37-11.3-7.38-63.48,3-72.34,4.34-3.69,9,5.15,12.49,16.19,4.87,15.53,5.87,38,6.7,39.87C1044.42,346.41,1021.16,361.46,1017.73,352.6Z"/><path class="cls-43" d="M1015.16,316.17c-.57-3.17-1-6.28-1.25-9.27-.89,17.9,1.23,39,3.82,45.7,1.78,4.59,8.88,2.75,14.69-1.48C1025.75,348.9,1018.44,334.48,1015.16,316.17Z"/><path class="cls-13" d="M1061.85,283.78c13.78,0,25.7-5.76,31.41-14.13-1.82-.88-3.73-1.76-5.69-2.61l.35-1-4.25-1.82-.18.59-1.25-.59h0l-.08,0-1.07-.49h0l-2.42-3.79-1.54,1c.68-6.16,1.5-17.78,1.54-24.69a45.78,45.78,0,0,0-16.82-3.11,45.3,45.3,0,0,0-18.09,3.64,188.93,188.93,0,0,0,1.52,25l-1.85,2.89.43.42-.55.57-.41-1.14-6.36,4.4.38.87c-1.53.82-3,1.64-4.43,2.45C1038.73,279.19,1049.54,283.78,1061.85,283.78Z"/><path class="cls-3" d="M1045,257.15c-1.74-4.77-3.43-35.46-1.86-39.64s9.3-4.2,18.32-4.2,16.28-2,18.07,4.2c1.22,4.18-1.17,37.85-2,39.2-1.19,1.94-11,7.37-15.71,7.37S1046,259.92,1045,257.15Z"/><path class="cls-3" d="M1084.68,282.8s-1.93-5.64-3.35-9c-.95-2.27-4.89-7.73-9.24-8.75-7.51-1.78-9.82,3.73-6.34,3,2.59-.57,5.78.58,2.82,6.49-.62,1.22,1,4.24,3.48,4.46,1.92.18,3.45,10.16,3.45,10.16Z"/><path class="cls-3" d="M1070.77,269c-4.21-.08-5.19-.61-7.42-.26s-6.25,1.46-7.48,1.59-2.91-3.28-1.88-3.8c1.54-.76,6.5-1.87,8.37-2.29,1.2-.27,4.83.06,8.5.58C1074.71,265.39,1076.33,269.11,1070.77,269Z"/><path class="cls-3" d="M1077.46,276.86c-.44,2.22-6.86,2.13-7.46,2.68s-.45,3.75-1.43,4.54-3.45.23-3.57-.37.36-5,1-6.16,3.29-2.87,3.38-5.28C1069.55,267.9,1078.75,270.26,1077.46,276.86Z"/><path class="cls-3" d="M1070.69,273.22c-1.72.29-3.83.4-5.17,1.13s.12,4.55-.46,5.34-3.25,1.2-3.85.22-.26-6.47,0-7.39,6.14-4.46,8.51-4.56C1072.46,267.84,1074.46,272.59,1070.69,273.22Z"/><path class="cls-50" d="M1088.08,285.5l-1.75-4.7c-6.47,1.81-11.39,4.06-19.11,7.2l2.52,5.58Z"/><path class="cls-42" d="M1088.82,340.16c-3.4-3.87-22.51-49.13-22.51-49.13s14.91-6,22.17-8c0,0,24,37.92,24.9,46.12C1116.66,358.49,1091.74,343.47,1088.82,340.16Z"/><path class="cls-43" d="M1113.23,331.26a43.48,43.48,0,0,1,.3,5.68,37.59,37.59,0,0,0-.15-7.84c-.92-8.2-24.9-46.12-24.9-46.12l-1.11.32C1090,287.48,1112.33,323.18,1113.23,331.26Z"/><path class="cls-43" d="M1089.05,331.29c-2.53-2.87-13.73-28.59-19.32-41.62l-3.42,1.36s19.11,45.26,22.51,49.13c2.88,3.27,27.28,18,24.65-10.1C1110.38,345.67,1091.56,334.14,1089.05,331.29Z"/><path class="cls-35" d="M1083.94,296.85a2.2,2.2,0,1,0,2.19-2.19A2.19,2.19,0,0,0,1083.94,296.85Z"/><path class="cls-35" d="M1087.43,303.37a2.19,2.19,0,1,0,2.19-2.19A2.19,2.19,0,0,0,1087.43,303.37Z"/><path class="cls-51" d="M1071.57,228.49l-4.21.11c-.08,2.13.21,4.83,2.23,4.83S1071.66,230.07,1071.57,228.49Z"/><path class="cls-52" d="M1064.53,221.4c-.55.68-.29,6.52.14,7s11.95.48,12.6,0,.58-6.41.22-7.17S1065.1,220.7,1064.53,221.4Z"/><path class="cls-14" d="M1061.6,223.92c1.67,8.86,4,20.55,4,22.26s-6.91,1.61-7.81,1,3-23.3,3-23.3Z"/><path class="cls-3" d="M1061.59,222.89c1.67,8.86,3.08,20.73,3.08,22.44s-4.67.86-5.57.3,1.59-22.74,1.59-22.74Z"/><path class="cls-51" d="M1054.77,229.35l-4.21.1c-.08,2.14.21,4.83,2.23,4.83S1054.86,230.92,1054.77,229.35Z"/><path class="cls-52" d="M1045.19,222.48c-.57.7-.3,6.53.15,7s12.51-.25,13.18-.75.61-6.44.23-7.19S1045.79,221.74,1045.19,222.48Z"/><path class="cls-14" d="M1051.61,250.59l-.49,1c2.62,2.94,8.35,3.36,18,1.32l-.09-.44C1059.76,254.47,1054,253.24,1051.61,250.59Z"/><path class="cls-14" d="M1064.26,255.56c0,.29-.86.91-2.14,1s-2.48-.48-2.5-.77,1.21,0,2.49-.08S1064.24,255.26,1064.26,255.56Z"/><path class="cls-3" d="M1079.94,323.16c6.5-2,10.22-8.17,10.7-8.48s3,1.61,2.75,2.1-6.12,9.67-6.12,9.67Z"/><path class="cls-3" d="M1075.61,337.1c6.44,1.84,11.91,1.12,14.13.33s4.76-13.56,4.76-13.56-9-.29-10.89-1.32-8.62,3.25-8.62,3.25Z"/><path class="cls-3" d="M1085.16,333.7c5.25-.12,13.17-.5,13.39-.06s-.84,2.53-1.36,2.74-12.51,1.69-12.51,1.69Z"/><path class="cls-3" d="M1087.9,323.59c5.54,0,13.82-.32,14.22.17s.06,2.77-.41,3S1089,328.4,1089,328.4Z"/><path class="cls-3" d="M1088.17,328.49c5.54,0,13.82-.31,14.21.17s.07,2.77-.4,3-12.67,1.66-12.67,1.66Z"/><path class="cls-50" d="M1069.45,323.15l5.21-.7c2.81,6.46,4.07,10.82,4.19,19.69l-5.51,1.94Z"/><path class="cls-42" d="M1021.8,354.6c4.3,2.73,54.92-8.93,54.92-8.93s-1.41-17.95-5.63-23.7c0,0-35.93,3.85-37.88,5.16S1018.19,352.3,1021.8,354.6Z"/><path class="cls-43" d="M1022.37,342.09c-2.92,6.05-3.11,12-1.45,13.08,4.3,2.74,55.8-9.5,55.8-9.5s-.39-4.94-1.37-10.47C1025,345.37,1029.18,341.87,1022.37,342.09Z"/><path class="cls-35" d="M1055.46,338.34a2.19,2.19,0,1,0-1.17-2.87A2.2,2.2,0,0,0,1055.46,338.34Z"/><path class="cls-35" d="M1062.82,337.64a2.19,2.19,0,1,0-1.18-2.87A2.2,2.2,0,0,0,1062.82,337.64Z"/><polygon class="cls-38" points="904.43 380.27 904.43 458.02 902.57 458.02 893.05 380.27 904.43 380.27"/><polygon class="cls-38" points="847.96 380.27 847.96 458.02 849.82 458.02 859.34 380.27 847.96 380.27"/><path class="cls-53" d="M899.6,275.62H856.09c-1.65,0-3,1.88-3,4.2V380.73l3.34.06V307.63c0-2.14,1.18-3.87,2.64-3.87h37.6c2.17,0,3.92,2.57,3.92,5.73v72.4L904,382V281.84C904,278.4,902,275.62,899.6,275.62Z"/><rect class="cls-53" x="863.03" y="297.74" width="3.18" height="85.48"/><rect class="cls-53" x="891.9" y="297.74" width="3.18" height="85.48"/><rect class="cls-53" x="877.58" y="297.74" width="3.18" height="85.48"/><path class="cls-54" d="M832.19,254.4c-7.43-8.11-4.28-29-.15-37.74,8.18-17.28,26.89-13.38,40.16-5.46,24.86,14.86,41.29,107.6-4.55,107.91C823.4,319.42,832.19,254.4,832.19,254.4Z"/><path class="cls-55" d="M872.2,211.2l-.93-.54a36.06,36.06,0,0,1,3.33,6.25c5.66,13.76,1.9,28.35-8.4,32.59s-23.47-2.59-19,2.33c0,0-23.85,67.59,20.4,67.28C913.49,318.8,897.06,226.06,872.2,211.2Z"/><path class="cls-56" d="M865.91,241.18c-6.34-11.28-21.29,37.17-21.29,59.52q0,3.33.3,6.53c3.84,7.12,10.81,12,22.73,11.88,11.62-.08,19.23-6.1,23.72-15.27,0-1,.08-2.08.08-3.14C891.45,278.35,875.38,258,865.91,241.18Z"/><path class="cls-3" d="M851.81,282c-3.89,3.11-7.54,39-9,78.88l1.7.72s11.2-50,12.9-61.43S855.71,278.93,851.81,282Z"/><path class="cls-57" d="M851.81,282c-1,.81-2,3.88-3,8.64a35.4,35.4,0,0,1,1.64,13.53c-.55,9.3-5,43.87-6.71,57.12l.73.31s11.2-50,12.9-61.43S855.71,278.93,851.81,282Z"/><path class="cls-42" d="M844.4,331.93c-2.84,2.33-3.3,24.44-1.77,48.75l1.38.24s5.43-31.51,6-38.65S847.25,329.6,844.4,331.93Z"/><rect class="cls-38" x="844.98" y="403.56" width="61.51" height="5.57"/><rect class="cls-38" x="839.17" y="378.72" width="73.81" height="15.55"/><rect class="cls-39" x="839.17" y="380.04" width="73.81" height="7.46"/><polygon class="cls-39" points="912.98 380.27 912.98 458.02 911.12 458.02 901.61 380.27 912.98 380.27"/><polygon class="cls-39" points="839.17 380.27 839.17 458.02 841.03 458.02 850.55 380.27 839.17 380.27"/><path class="cls-58" d="M901.16,378.91h-41l-5.54-25.48s12.3,1.37,16.76-4.34c6.28-8-3.58-28.57-8.82-46.88l20.3-7.77s11,42.41,21.76,59.86C911.5,365.45,901.16,378.91,901.16,378.91Z"/><path class="cls-59" d="M904.6,354.3c-10.77-17.45-21.76-59.86-21.76-59.86l-20.3,7.77c3.07,10.71,7.7,22.17,9.78,31.46,12.51,2.2,21.68,8.6,20.89,14.87-.84,6.69-12.7,10.7-26.49,8.95a47,47,0,0,1-11.9-3l5.32,24.46h41S911.5,365.45,904.6,354.3Z"/><path class="cls-57" d="M846.52,381.62c.69,5.26,46.19,66.69,46.19,66.69l1.59-.26s-33.08-67.1-36.36-69.76S846.2,379.17,846.52,381.62Z"/><path class="cls-50" d="M901.64,458.28c-5.92-2.79-13.52-11.2-10-13.42C896.57,441.72,901.64,458.28,901.64,458.28Z"/><path class="cls-3" d="M883.72,430.05c-.3,1.21,1,5.22,3.36,10.61l5.63,7.65,1.59-.26s-3.59-7.28-8.52-17.14C884.64,429.68,883.9,429.32,883.72,430.05Z"/><path class="cls-57" d="M860.66,358.43c-.43,5.46,34.21,89.73,34.21,89.73l1.73.08s-18.05-78.6-20.66-82.1S860.86,355.88,860.66,358.43Z"/><path class="cls-50" d="M905,457.56c-6-2.73-13.83-11-10.47-13.17C899.25,441.29,905,457.56,905,457.56Z"/><path class="cls-3" d="M896.6,448.24s-2-8.82-4.82-20.68c-1-1.65-1.8-2.54-2.35-2.37-1.22.38-.59,5.95,1.37,13,2.48,6.11,4.07,10,4.07,10Z"/><path class="cls-58" d="M868.59,427.56l23.5-11.92s-6.23-43.41-8.73-46.17-8.87-22.64-37.83-14.19C824.44,361.44,868.59,427.56,868.59,427.56Z"/><path class="cls-59" d="M876.64,375.19c5.19,18.4,5.61,35.8,2,47.26l13.43-6.81s-4.2-43.9-6.7-46.66c-1.6-1.76-6.81-10-16.39-13.88A117.25,117.25,0,0,1,876.64,375.19Z"/><path class="cls-58" d="M851.19,282.51c-1.84,16.63-2.31,40.23-1,42.2s35.84-2.18,37.65-4.86c1.6-2.39-5.93-33.93-12.3-42.94C873.75,274.38,851.52,279.56,851.19,282.51Z"/><path class="cls-59" d="M875.54,276.91c-.52-.73-2.76-.81-5.67-.5,3.79,13.95,5.63,41.37,3.93,43.73-1.19,1.65-11.83,3.77-21.62,5,7.61.46,36.18-1.76,37.75-4.1S881.91,285.92,875.54,276.91Z"/><polygon class="cls-3" points="865.42 251.94 855.19 257.85 857.2 280.16 871.33 276.49 865.42 251.94"/><path class="cls-3" d="M858.13,317.22c13.93-1.66,16.42-28,15.26-41-5.28-.28-18.28,2.86-21.47,5.31C850.7,297.16,851.59,318,858.13,317.22Z"/><path class="cls-57" d="M858.92,315.4c-6.35.75-7.37-18.88-6.31-34.29a5.91,5.91,0,0,0-.69.45c-1.22,15.6-.33,36.43,6.21,35.66,5.49-.65,9.19-5.15,11.61-11.14C867.33,311.15,863.84,314.81,858.92,315.4Z"/><polygon class="cls-57" points="859.85 305.02 857.57 316.16 861.21 315.36 859.85 305.02"/><path class="cls-3" d="M876.14,276.68c6.6,3.42,23.49,46.37,22.89,48.5s-2.43,3.33-4.7,1.66c-1.59-1.16-13.87-23.17-18.49-37C873.82,283.85,873.75,275.44,876.14,276.68Z"/><path class="cls-57" d="M894.93,322.75c-1.58-1.16-13.86-23.17-18.49-37a31,31,0,0,1-1.49-8.69c-1.08,1.82-.7,8,.89,12.78,4.62,13.81,16.9,35.82,18.49,37,2.27,1.67,4.09.46,4.7-1.66a7.07,7.07,0,0,0-.46-2.28C897.68,323.7,896.41,323.83,894.93,322.75Z"/><path class="cls-42" d="M898.17,326.66c3.27-1.69,8.32-23.22,11.87-47.32l-1.3-.52s-11.86,29.69-13.9,36.56S894.91,328.35,898.17,326.66Z"/><path class="cls-13" d="M873.81,290.27a44.2,44.2,0,0,0,8.07-6.12c-2.23-3.89-4.25-6.7-5.74-7.47a.77.77,0,0,0-.85,0h0l-.12-.06-.27-.12-.17-.05-.35-.08-.2,0-.46-.05h-.19l-.33,0h-1.42l-.49,0-5-20.63a44,44,0,0,0-10.42,4.54l-.46.29,1.68,18.74h0c-.62.21-1.21.42-1.76.63l-.17.06-.5.2-.12.05c-.52.22-1,.44-1.41.65l-.13.07-.36.19-.09.06a5.93,5.93,0,0,0-.64.42h0a1.61,1.61,0,0,0-.73.94c0,.12,0,.25,0,.38-1.08,1.89-2.14,6.25-3.12,12.42C854.94,297.36,864.71,295.7,873.81,290.27Z"/><path class="cls-3" d="M861.29,271.77c-10.51-3.12-20.25-9.95-22-21-1.84-11.3-3-27.38,11.28-30.2,14.7-2.89,20.26,13.5,21.75,23.69C873.74,254.22,869.38,262.66,861.29,271.77Z"/><path class="cls-60" d="M852.57,257l10.19-2s-.71,7.32-3.78,7.93C854.81,263.77,852.57,257,852.57,257Z"/><path class="cls-61" d="M861.47,258.58a19.28,19.28,0,0,0,.57-2.95l-8.6,1.69a12.94,12.94,0,0,0,1.27,2.59Z"/><path class="cls-19" d="M850.78,243.84c-.36-2.24-1.95-3.8-3.54-3.49s-2.58,2.39-2.22,4.63,2,3.81,3.54,3.49S851.14,246.09,850.78,243.84Z"/><path class="cls-19" d="M846.7,241.19a4.45,4.45,0,0,1,4.2.09,3.59,3.59,0,0,0-4.65-1.32,4.7,4.7,0,0,0-2.64,4.86A5.58,5.58,0,0,1,846.7,241.19Z"/><path class="cls-19" d="M862.58,238.1a5.27,5.27,0,0,1,3.87,2.2,4.41,4.41,0,0,0-3.87-3.53,3.77,3.77,0,0,0-4.08,3A4.52,4.52,0,0,1,862.58,238.1Z"/><path class="cls-62" d="M862,233.1a7.66,7.66,0,0,1,5.64,3.2,6.45,6.45,0,0,0-5.65-5.15,5.5,5.5,0,0,0-6,4.39A6.58,6.58,0,0,1,862,233.1Z"/><path class="cls-62" d="M844.68,236.71a6.49,6.49,0,0,1,6.07-.74,5.07,5.07,0,0,0-6.89-1,7.27,7.27,0,0,0-3.15,7.61A8.72,8.72,0,0,1,844.68,236.71Z"/><path class="cls-19" d="M865.37,241c-.36-2.24-2-3.8-3.54-3.49s-2.58,2.38-2.22,4.63,1.95,3.8,3.54,3.49S865.73,243.22,865.37,241Z"/><path class="cls-14" d="M860.88,265.18c-.07-.4-.72-.17-1.57,0s-1.55.21-1.49.61.8.59,1.65.43S860.94,265.58,860.88,265.18Z"/><path class="cls-14" d="M858,249.15l-.17,0c.78,1.19.64,3-.63,3.28s-2.19-.93-1.88-2.67l-.21,0c-.57,2.09.57,3.49,2.21,3.17S859.13,250.42,858,249.15Z"/><path class="cls-59" d="M874.52,424.55l7.8-3.95c-5.17-21.63-9-34.15-15.42-47.61A225.85,225.85,0,0,1,874.52,424.55Z"/><path class="cls-3" d="M839.12,256.87c-.15-2.94-1.7-7.84-2.86-5.46S837.29,257.11,839.12,256.87Z"/><path class="cls-3" d="M875.42,247.91c-1.4-3.06-2.26-8.91.32-7.18S877.63,247.09,875.42,247.91Z"/><path class="cls-42" d="M908.22,278.84a7.32,7.32,0,0,1,4.72-6.82c1.94-.73,3.67-1.32,4-.93.67.69-.29,2.56-.29,2.56a4.63,4.63,0,0,1-.31,2.81,3.72,3.72,0,0,1-.37,2.71c-.78,1.2-7.8,3.12-7.8,3.12Z"/><polygon class="cls-63" points="913.83 241.88 912.6 289 914 289 916.26 241.88 913.83 241.88"/><rect class="cls-63" x="897.29" y="209.39" width="39.47" height="32.35"/><path class="cls-42" d="M917.29,271.35c-.3-.43-1.59,0-2.86.88s-2.07,2-1.76,2.43,1.58,0,2.86-.89S917.59,271.78,917.29,271.35Z"/><path class="cls-42" d="M916.84,274.23c-.31-.43-1.59,0-2.87.88s-2.06,2-1.76,2.43,1.59,0,2.86-.89S917.14,274.65,916.84,274.23Z"/><path class="cls-42" d="M916.46,277c-.31-.43-1.59,0-2.87.88s-2.06,2-1.76,2.42,1.59,0,2.87-.88S916.76,277.38,916.46,277Z"/><path class="cls-42" d="M914.49,272c-.31-.43-1.59,0-2.87.88s-2.06,2-1.76,2.42,1.59,0,2.87-.88S914.79,272.38,914.49,272Z"/><path class="cls-42" d="M912.33,277.44c.5.17,1.3-.9,1.8-2.39s.51-2.83,0-3-1.3.91-1.8,2.39S911.83,277.27,912.33,277.44Z"/><path class="cls-64" d="M904,221.85c-.13,0-.2,0-.2-.1a.43.43,0,0,1-.06-.24,4.22,4.22,0,0,1,0-1,.82.82,0,0,1,.48-.38,9.37,9.37,0,0,0,3.93-1.22,1.43,1.43,0,0,1,.46-.08c.28,0,.43.12.43.26,0,1,0,1.62-.06,2.4l-.11,1.84v1.4l.06,1.22c0,.32,0,.9,0,1.76,0,.7,0,2.82.15,3.66,1.47.06,2.22.16,2.22.28l0,.86c0,.28-.13.42-.46.4-.62,0-1.06,0-1.36-.08s-.65-.06-1-.08q-.9.06-2.4.12l-.73,0c-.42,0-.92,0-1.46.06-.13,0-.23-.2-.28-.58a.54.54,0,0,1,0-.18c0-.28.07-.46.22-.5a20.48,20.48,0,0,0,2.06-.4c.62,0,.92-.14.92-.44s0-.6,0-.86,0-.64,0-1.14V227c0-.72,0-1.34,0-1.88,0-.34,0-.66,0-1s0-.68,0-1l0-1.94-2.19.56A3.85,3.85,0,0,1,904,221.85Z"/><path class="cls-64" d="M914.54,232.45a3.09,3.09,0,0,1-1-1.28,8.35,8.35,0,0,1-.71-1.9,27.3,27.3,0,0,1-.16-3.86c0-2,.13-4,.8-5.16a3.29,3.29,0,0,1,1.35-1.32,5.87,5.87,0,0,1,2.44-.46A3.4,3.4,0,0,1,920,220a7.16,7.16,0,0,1,.76,2.66c.07.94.11,2,.11,3.26a21.34,21.34,0,0,1-.24,3.42,3.71,3.71,0,0,1-3.87,3.44A6.12,6.12,0,0,1,914.54,232.45Zm1.32-12.4a2.46,2.46,0,0,0-1,1.18,3.56,3.56,0,0,0-.34,1.56c0,.64,0,1.52,0,2.68l0,1.94a4.08,4.08,0,0,0,.57,2.32c.35.46.67.86.93,1.24a1.43,1.43,0,0,0,1.27.56,2.77,2.77,0,0,0,2.13-1.66,3.93,3.93,0,0,0,.41-1.9c0-.92,0-1.62,0-2.06,0-.76,0-1.42,0-2a16.45,16.45,0,0,0-.07-1.76,5.18,5.18,0,0,0-.47-1.82,1.19,1.19,0,0,0-1-.7c-.21,0-.41,0-.64,0s-.4,0-.63,0A2.5,2.5,0,0,0,915.86,220.05Zm2.43,5.82a.94.94,0,0,1-.95.86c-.44,0-.91-.36-.91-1.16s.49-1,.91-1C918.22,224.57,918.29,225.39,918.29,225.87Z"/><path class="cls-64" d="M923.42,231.87a4.36,4.36,0,0,1-1.22-2.5A24,24,0,0,1,922,226c0-1.24,0-2.32.12-3.26a8,8,0,0,1,.76-2.8,2.74,2.74,0,0,1,2.69-1.42c2.14.06,3.11.58,3.78,1.78s.82,3.16.82,5.16c0,1-.06,2.12-.17,3.36-.22,2.48-1.53,4-3.89,4A3.79,3.79,0,0,1,923.42,231.87Zm1-11.16a6.2,6.2,0,0,0-.57,1.82,21.05,21.05,0,0,0-.21,3.38c0,.42,0,1,.09,1.82a8.54,8.54,0,0,0,.41,2.06,2.36,2.36,0,0,0,2,1.74c1.17,0,1.73-.78,2.18-2.14a9.8,9.8,0,0,0,.41-2.34c0-.88.07-1.42.07-1.62s0-.74-.06-1.52a14.27,14.27,0,0,0-.27-2.26,2.27,2.27,0,0,0-.9-1.54,2.13,2.13,0,0,0-1.21-.48A2,2,0,0,0,924.37,220.71Zm2.85,4.82a1,1,0,0,1-1,.86c-.45,0-.91-.36-.91-1.16s.48-1,.91-1C927.14,224.23,927.22,225.05,927.22,225.53Z"/><path class="cls-65" d="M797.11,281.07c18.7,12.67,30.64,52.57,32.15,60.36s-16.66,14.08-20.67,7.32-18.09-29.11-20.66-35.67S791,276.91,797.11,281.07Z"/><path class="cls-66" d="M829.26,341.43c-.33-1.71-1.17-5-2.47-9.17-.08,4.32-1.24,7.41-3.57,8.55-6,2.94-17.51-8.21-25.67-24.9-4.76-9.73-7.33-19.18-7.46-26-2.43,8.19-3.62,19.4-2.16,23.14,2.57,6.56,16.64,28.91,20.66,35.67S830.78,349.22,829.26,341.43Z"/><path class="cls-65" d="M731.79,283.83c-16.24,15.78-25.78,52-24.72,59.47s22.78,7.22,24.49-.3,10.78-28.18,11.15-35S737.15,278.63,731.79,283.83Z"/><path class="cls-66" d="M733.46,286c-.13.12.72,16.14-2.72,29.1-4.63,17.47-13.64,30.25-20.11,28.53a6,6,0,0,1-3.58-3.1,13.45,13.45,0,0,0,0,2.81c1.06,7.52,22.78,7.22,24.49-.3s10.78-28.18,11.15-35S738.82,280.75,733.46,286Z"/><polygon class="cls-38" points="795.65 380.53 795.65 458.28 793.8 458.28 784.28 380.53 795.65 380.53"/><polygon class="cls-38" points="739.19 380.53 739.19 458.28 741.05 458.28 750.57 380.53 739.19 380.53"/><path class="cls-53" d="M790.83,275.88H747.32c-1.65,0-3,1.88-3,4.2V381l3.34.06V307.89c0-2.14,1.18-3.87,2.64-3.87h37.6c2.16,0,3.92,2.57,3.92,5.73v72.4l3.43.08V282.1C795.26,278.66,793.27,275.88,790.83,275.88Z"/><rect class="cls-53" x="754.26" y="298" width="3.18" height="85.48"/><rect class="cls-53" x="783.13" y="298" width="3.18" height="85.48"/><rect class="cls-53" x="768.81" y="298" width="3.18" height="85.48"/><rect class="cls-38" x="736.2" y="403.82" width="61.51" height="5.57"/><rect class="cls-38" x="730.4" y="378.98" width="73.81" height="15.55"/><polygon class="cls-39" points="804.21 380.53 804.21 458.28 802.35 458.28 792.84 380.53 804.21 380.53"/><polygon class="cls-39" points="730.4 380.53 730.4 458.28 732.26 458.28 741.77 380.53 730.4 380.53"/><path class="cls-65" d="M734.29,359.93c-2.93-11.4-3.5-74.42-1.54-76.62s24.12-11.09,31.71-11.09,31.66,7.45,33.82,9.62c2.94,2.94-.4,74.75-2.36,77.44S734.29,359.93,734.29,359.93Z"/><path class="cls-67" d="M767.46,340.7c-23.22,0-34.84-12.11-36.39-32.81.08,19.4,1.52,45.43,3.22,52,0,0,59.67,2,61.63-.65,1-1.37,4.54-32.24,5.25-51.27C796.4,324.07,786.34,340.7,767.46,340.7Z"/><path class="cls-68" d="M759.83,357.68a27.82,27.82,0,0,1,5.52-7.73l5.28,8Z"/><path class="cls-69" d="M798.39,358.14c-24.87-3.19-39.25-3.75-63.69,0v29h63.69Z"/><path class="cls-69" d="M757.36,452.33c-12.7-22.81-39.06-74.23-39.45-81.72s17.24-14.5,24.6-11.43,15.75,92.22,15.75,92.22Z"/><path class="cls-69" d="M776,451.22c12-22.72,37.5-74.06,37.68-81.52s-17.29-14.44-24.56-11.38-13.72,92.42-13.72,92.42Z"/><path class="cls-7" d="M789.1,358.32c-4,1.65-7.65,28.75-10.21,53.18,2.26,4.83,4.82,6.23,6.82,5.78,4.59-1,14-30.8,21-55.92C801.1,358.18,793.35,356.53,789.1,358.32Z"/><path class="cls-70" d="M745.87,276.62C750,294.15,766,333.41,766,333.41s17-40.24,21.09-56.07c-6.94-3-17.47-5.28-21.13-5.28A67.8,67.8,0,0,0,745.87,276.62Z"/><polygon class="cls-71" points="785.39 277.13 781.93 273.27 766.88 282.46 770.97 291.79 785.39 277.13"/><polygon class="cls-71" points="749.83 275.06 753.49 272.89 767.76 282.59 760.74 289.75 749.83 275.06"/><path class="cls-71" d="M766,329.75s-13.92-34-19.48-53.37l-.6.24c4.16,17.53,20,57.83,20,57.83s17.1-41.28,21.2-57.11l-.7-.29C780.63,295.27,766,329.75,766,329.75Z"/><path class="cls-3" d="M781.77,275.61,780.4,263.9l-26,2.28-1,8S765.4,292,781.77,275.61Z"/><polygon class="cls-70" points="785.39 276.66 781.93 273.23 766.88 281.41 770.97 289.71 785.39 276.66"/><polygon class="cls-70" points="749.83 274.82 753.49 272.89 767.76 281.52 760.74 287.89 749.83 274.82"/><polygon class="cls-72" points="797.01 385.43 768.18 359.69 767.25 360.74 795.39 387.25 797.01 385.43"/><polygon class="cls-63" points="800.81 414.8 826.35 386.17 801.82 365.62 776.27 394.26 800.81 414.8"/><path class="cls-3" d="M760.71,350.81s6,1.73,9.55,3c2.43.88,8.52,4.59,10.21,8.83,2.92,7.34-2.28,9.77-2,6.32.18-2.56-1.46-5.66-7-2.58-1.14.64-4.42-.82-5-3.29C766,361.23,755.7,360,755.7,360Z"/><path class="cls-3" d="M776.7,364.07c.71,4.14,1.39,5.09,1.37,7.3s-.52,6.17-.47,7.39,3.74,2.77,4.11,1.74c.54-1.53.91-6.44,1-8.29.09-1.2-.79-4.76-1.87-8.35C779.75,360.1,775.76,358.62,776.7,364.07Z"/><path class="cls-3" d="M767.78,357.73c-2.17.5-1.11,6.81-1.57,7.41s-3.71.55-4.36,1.54.28,3.4.91,3.5,5-.5,6.06-1.16,2.39-3.32,4.81-3.49C778,365.24,774.23,356.27,767.78,357.73Z"/><path class="cls-3" d="M772.46,364.28c0,1.7.18,3.78-.36,5.11s-4.6,0-5.3.62-.72,3.22.36,3.78,6.55.07,7.44-.23,3.56-6.17,3.31-8.5C777.62,362.38,772.54,360.55,772.46,364.28Z"/><polygon class="cls-70" points="763.63 346.47 756.5 344.17 748.23 361.92 755.97 364.94 763.63 346.47"/><path class="cls-65" d="M708.32,344.85c1.71,4.43,43.95,20.51,43.95,20.51s6.06-14.3,7.47-21.52c0,0-31.76-15.87-33.81-15.79S706.89,341.14,708.32,344.85Z"/><path class="cls-66" d="M743,337.56a137.83,137.83,0,0,1,16.32,8.12c.17-.65.31-1.27.42-1.84,0,0-30.71-16.37-32.76-16.28-.56,0-3.17-.32-5.23,1.14C728.18,330.21,735.45,334.39,743,337.56Z"/><path class="cls-66" d="M734,356.12a145.09,145.09,0,0,1-26.39-14.47c-.53.93.29,2.9.51,3.47,1.71,4.43,44.16,20.24,44.16,20.24s.41-1,1-2.51A153.8,153.8,0,0,1,734,356.12Z"/><path class="cls-3" d="M780.54,318.6l-5.48,13.24c2.84.5,7.27,2.45,8.41,3.54l8.41-11.46S782.7,323.09,780.54,318.6Z"/><path class="cls-3" d="M782,322.59c-.41-1-.31-3.24-.72-5.57-.92-5.15-2.37-11.56-3.3-11.78a3.16,3.16,0,0,0-3.21,1.69c-.26.81,2.78,9.75,1.68,10-1.82.42-6.7-2.07-7.58-1.81-1.91.57-2.21,9.6-2,12s5.71,5.91,10.61,5.19C779.23,332.06,782,322.59,782,322.59Z"/><path class="cls-3" d="M772.51,316.69c-2.23-1.06-5.35-2.37-5.94-3s-4-4.28-4.6-4.22-2.62.92-2.12,2a27.16,27.16,0,0,0,5.43,5.66c1.13.62,4.63,2.91,5.07,2.84S773.76,317.29,772.51,316.69Z"/><path class="cls-3" d="M769.92,320.07c-2.36-.76-5.62-1.66-6.29-2.19s-4.44-3.68-5-3.55-2.55,1.23-1.94,2.22a26.47,26.47,0,0,0,6,4.86c1.2.47,5,2.26,5.39,2.14S771.23,320.5,769.92,320.07Z"/><path class="cls-3" d="M770.56,325.92c-2.38-.7-5.67-1.51-6.35-2s-4.53-3.56-5.13-3.41-2.54,1.29-1.9,2.26a26,26,0,0,0,6.15,4.69c1.21.43,5,2.13,5.44,2S771.89,326.31,770.56,325.92Z"/><polygon class="cls-70" points="795.14 323.06 788.37 319.88 777.92 336.44 785.21 340.41 795.14 323.06"/><path class="cls-65" d="M819.45,355.47c-4.78.75-38.58-15.65-38.58-15.65s9-16.89,12.77-20.32c0,0,31,13.42,32.61,14.79C830.32,337.76,832,353.52,819.45,355.47Z"/><path class="cls-66" d="M826.35,334.39c.15,5.46-2.26,11.57-9.78,12.75-3.52.54-22.74-8.19-32.65-12.84-1.78,3.15-3,5.52-3,5.52s33.8,16.4,38.58,15.65C831.9,353.53,830.35,338,826.35,334.39Z"/><path class="cls-7" d="M767.37,282.77c-2.9,2.1-8.79,5.91-9.55,5.61s0-6.36,0-6.36-3.18-3.49-1.36-5.46S769,281.57,767.37,282.77Z"/><path class="cls-7" d="M766.92,282.77c2.89,2.1,8.77,5.91,9.53,5.61s0-6.36,0-6.36,3.17-3.49,1.36-5.46S765.25,281.57,766.92,282.77Z"/><path class="cls-7" d="M764.94,281.86a2.16,2.16,0,1,0,2.16-2.16A2.16,2.16,0,0,0,764.94,281.86Z"/><path class="cls-50" d="M747.4,456.59h9.38l4.27-8.37s-3.36-6.47-5.41-3.84c-1.22,1.57-.87,8.72-.87,8.72Z"/><path class="cls-50" d="M785.5,456.59h-8.21l-3.74-8.37s2.94-6.47,4.73-3.84c1.07,1.57.77,8.72.77,8.72Z"/><path class="cls-7" d="M725.62,367.59c8.4,25,20.19,57.55,25,58.47a11.91,11.91,0,0,0,4.93-.28c-1.85-16-4.46-36-7.28-50Z"/><path class="cls-73" d="M796.77,337.85a2,2,0,1,0,.89,2.75A2,2,0,0,0,796.77,337.85Z"/><path class="cls-73" d="M790.33,334.21a2,2,0,1,0,.89,2.75A2.05,2.05,0,0,0,790.33,334.21Z"/><path class="cls-73" d="M746.49,354.1a2,2,0,1,0,1.26,2.6A2.05,2.05,0,0,0,746.49,354.1Z"/><path class="cls-73" d="M739.61,351.38a2,2,0,1,0,1.26,2.61A2,2,0,0,0,739.61,351.38Z"/><path class="cls-13" d="M766.76,298c14.7,0,27.34-6.12,33-14.91-.44-.38-.89-.73-1.34-1.08a.59.59,0,0,0-.13-.17,4.79,4.79,0,0,0-1-.67l-.14-.1a2.28,2.28,0,0,0-.72-.32,90.21,90.21,0,0,0-9.34-3.41h0l-.7-.29-1-.39h0l-3.46-3.43-.42.22-1.11-9.55-26,2.28-.88,6.71-3.66,1.93.13.16-.13.08.06.09c-1.4.44-2.77.94-4,1.47l.12.51a81.74,81.74,0,0,0-12.46,5.57C739.05,291.7,751.85,298,766.76,298Z"/><path class="cls-3" d="M783.15,256.73c7.52-1.14,12-7.17,10-11.24s-6.8-3.27-8.59.48S783.15,256.73,783.15,256.73Z"/><path class="cls-14" d="M783.82,254.78c4.92-.75,7.85-4.7,6.56-7.36s-4.45-2.14-5.62.32S783.82,254.78,783.82,254.78Z"/><path class="cls-3" d="M784.59,254.34c3.19-.89,4.81-3.74,3.74-5.4s-3.11-1.05-3.69.67A12.63,12.63,0,0,0,784.59,254.34Z"/><path class="cls-3" d="M752.39,256.73c-7.32-1.14-11.67-7.17-9.75-11.24s6.61-3.27,8.35.48S752.39,256.73,752.39,256.73Z"/><path class="cls-14" d="M751,254.13c-4.78-.74-7.63-4.69-6.37-7.36s4.32-2.13,5.46.32S751,254.13,751,254.13Z"/><path class="cls-3" d="M751.38,254.11c-3.09-.48-4.93-3-4.12-4.76s2.8-1.38,3.53.21A12.36,12.36,0,0,1,751.38,254.11Z"/><path class="cls-47" d="M754.41,262.82c-3.48-1.83-11.49-34.31-9-40.64s4.52-3,4.52-3S753.19,204,769.55,202s11-11.83,11-11.83S792,203,786.43,215.85c0,0,11,7.66-3.13,44.47C776.9,277,754.41,262.82,754.41,262.82Z"/><path class="cls-74" d="M785.2,219.3c-11.15,9.26-25,10.68-31,3.16a12.88,12.88,0,0,1-2.7-7.55,21.09,21.09,0,0,0-1.6,4.27s-2.09-3.33-4.52,3,5.57,38.81,9,40.64c0,0,22.49,14.2,28.89-2.5,11.07-28.88,6.7-39.82,4.3-43.19C786.84,217.88,786,218.6,785.2,219.3Z"/><path class="cls-3" d="M752.73,267.2c.9,2,10.62,8.75,14.45,8.75s15.14-6.51,16.19-8.43,4.52-40.29,0-43.82-8.59-2.54-14.33-2.54-16.48.62-18,5.11S751.34,264.16,752.73,267.2Z"/><path class="cls-14" d="M766.9,238.26l-2.08,17.88s2.33,1.57,3.75,1.59,4-1.63,4-1.63l-1.29-17.77Z"/><path class="cls-3" d="M766.84,237.49l-1,17.9a6.45,6.45,0,0,0,2.8,1.34c1.13,0,2.92-1.41,2.92-1.41l-.1-17.75Z"/><path class="cls-14" d="M777.61,262.87l-.47.45a17.56,17.56,0,0,0-8-2.77A16,16,0,0,0,760,262.9l-.31-.51C767.43,257.68,776.19,261.54,777.61,262.87Z"/><path class="cls-14" d="M770.91,265.76c0-.3-.93-.17-2.08-.19s-2.08-.19-2.09.12.92.57,2.07.59S770.9,266.07,770.91,265.76Z"/><path class="cls-75" d="M757.66,241.82c.18,0,4.89-2.46,4.89-2.46s.28,6.31-2,6.59C758,246.26,757.66,241.82,757.66,241.82Z"/><path class="cls-75" d="M778.5,241.59c-.18,0-4.8-2.62-4.8-2.62s-.21,6.13,1.77,6.65C778.15,246.32,778.5,241.59,778.5,241.59Z"/><path class="cls-76" d="M766.67,237c-5,4.76-13.11,5.62-13.11,5.62l-.13-2.42s9-2.62,11.7-6.53Z"/><path class="cls-76" d="M770.44,237.35c4.61,4.54,12.18,5.6,12.18,5.6l.21-2.23s-8.44-2.7-10.83-6.39Z"/></g></g></svg>