<?xml version="1.0" encoding="utf-8"?>
<!-- Generator: Adobe Illustrator 17.0.0, SVG Export Plug-In . SVG Version: 6.00 Build 0)  -->
<!DOCTYPE svg PUBLIC "-//W3C//DTD SVG 1.1//EN" "http://www.w3.org/Graphics/SVG/1.1/DTD/svg11.dtd">
<svg version="1.1" id="Layer_1" xmlns="http://www.w3.org/2000/svg" xmlns:xlink="http://www.w3.org/1999/xlink" x="0px" y="0px"
	 width="985px" height="720px" viewBox="0 0 985 720" enable-background="new 0 0 985 720" xml:space="preserve">
<g>
	<g>
		<path fill="#FAB56E" d="M905.739,339.377c-27.388,9.292-45.974,18.585-65.537,12.227c0,0,0.978-9.291,0.978-12.227
			c0-2.936,40.103-12.231,45.486-39.621c5.382-27.39-31.301-58.691-25.922-75.808c0,0-17.12,1.464-15.651,16.143
			c1.47,14.671,31.791,35.211,24.944,56.243c-6.844,21.032-32.279,35.215-53.8,31.302c-15.664-2.851-27.133-10.111-29.973-18.941
			c0.459-3.649,3.745-22.904,22.484-29.463c20.736-7.258,16.589-30.586,6.998-41.99c0,0-5.966,20.004-28.603,38.556
			c-4.297,2.418-6.561,7.322-6.561,7.322l0.019,0.021c-4.896,7.815-9.789,16.536-11.643,23.953
			c-3.916,15.658-5.056,37.171-7.5,42.059c-2.446,4.897-21.522,46.47-21.522,46.47l13.697,7.335c0,0,13.207-27.388,22.008-26.901
			c8.805,0.489,101.244,20.052,120.812,11.741c0,0,70.43-21.034,87.547-43.045C983.997,344.754,933.133,330.08,905.739,339.377z"/>
		<path fill="#A64C25" d="M858.147,378.346c-24.349,0.002-40.366-16.743-51.749-28.64c-3.256-3.404-6.069-6.342-8.586-8.379
			c-2.493-2.019-5.143-2.746-8.11-2.191c-10.378,1.908-20.242,18.693-20.339,18.861l-1.794-1.041
			c0.421-0.725,10.451-17.782,21.759-19.859c3.538-0.654,6.838,0.229,9.789,2.618c2.618,2.12,5.474,5.103,8.78,8.558
			c13.906,14.533,34.919,36.493,69.794,24.521c44.588-15.301,56.092-11.765,64.788-6.417l-1.085,1.766
			c-7.93-4.88-19.329-8.388-63.03,6.612C871.049,377.267,864.328,378.346,858.147,378.346z"/>
		<path fill="#A64C25" d="M861.349,363.734c-12.932,0-24.083-3.748-24.746-3.975l0.672-1.96c0.223,0.075,22.708,7.62,40.403,1.308
			c29.968-10.704,69.854-20.149,89.683-4.398l-1.288,1.624c-14.896-11.826-46.038-10.147-87.699,4.726
			C872.835,363.037,866.926,363.734,861.349,363.734z"/>
		<path fill="#A64C25" d="M831.826,369.27l-1.511-1.422c9.999-10.625,8.865-25.134,8.853-25.28l2.066-0.178
			C841.289,343.02,842.456,357.975,831.826,369.27z"/>
		<path fill="#EB8F63" d="M816.157,237.757c0.992,6.637,1.943,18.572-2.918,23.676c-6.912,7.258-46.656,42.855-23.155,54.95
			c0.939,0.484,1.831,0.93,2.701,1.361c-3.213-2.703-5.466-5.767-6.522-9.05c0.459-3.649,3.745-22.904,22.484-29.463
			C829.18,272.08,825.447,249.332,816.157,237.757z"/>
		<path fill="#EB8F63" d="M850.563,227.125c0.043-0.043,0.074-0.072,0.074-0.072S850.606,227.08,850.563,227.125z"/>
		<path fill="#EB8F63" d="M870.566,279.103c-0.245-0.8-0.542-1.555-0.82-2.326c-1.608-6.511-4.555-14.604-9.981-23.644
			c-12.656-21.092-9.72-25.465-9.202-26.008c-0.972,0.962-12.146,12.51-0.994,23.629c2.556,2.925,23.438,27.346,21.126,41.827
			c0,0,0.498-0.392,0.901-1.521c-0.019,1.198-0.091,1.853-0.091,1.853c0.31-0.867,0.404-1.899,0.398-3.004
			C872.281,287.91,872.235,284.557,870.566,279.103z"/>
		<g>
			<g>
				<path fill="#F2CA79" d="M807.661,136.227c0.06-0.152-1.715-5.761-1.715-5.761l15.058-28.723l18.397,24.468l-25.604,10.338
					L807.661,136.227z"/>
				<polygon opacity="0.09" fill="#881A22" enable-background="new    " points="820.987,102.088 827.902,122.744 831.407,128.837 
					834.02,128.974 839.402,126.21 821.005,101.744 				"/>
				<path opacity="0.21" fill="#881A22" enable-background="new    " d="M814.648,126.071l6.358-24.328l-15.058,28.723
					c0,0,2.208,2.27,2.466,2.284c0.258,0.013,2.646-0.172,3.289-0.604s1.946-2.586,2.112-2.784
					C813.979,129.163,814.648,126.071,814.648,126.071z"/>
				<path fill="#51609E" d="M827.902,122.744c-0.709,1.342-2.646,5.408-5.944,6.167c-3.3,0.758-7.234-3.018-7.234-3.018
					s-1.316,3.344-4.157,5.213c-2.839,1.867-4.62-0.638-4.62-0.638l14.926,172.212l38.071-7.714l-19.542-168.754
					C832.264,128.789,827.902,122.744,827.902,122.744z"/>
			</g>
			<path fill="#0F1810" d="M824.674,106.624l-3.668-4.88l-2.905,5.552C819.761,106.891,822.246,106.448,824.674,106.624z"/>
		</g>
	</g>
	<path fill="#FAB56E" d="M688.3,443.107c-72.288,40.029-150.735,4.393-150.735,4.393l-27,28c10.735,4.334,21.225,7.509,31.443,9.691
		l0.057,0.809c87.732,21.604,142.285-3.713,174.266-32.502C732.663,439.496,782,374.5,782,374.5l-29.465-7.114
		C744.03,383.075,718.967,425.557,688.3,443.107z"/>
	<path opacity="0.6" fill="#EB8F63" enable-background="new    " d="M766.333,386.5C673.667,523.833,555,477.167,555,477.167
		l-15.789-28.964c-1.072-0.443-1.646-0.702-1.646-0.702l-27,28c10.735,4.334,21.225,7.509,31.443,9.691l0.057,0.809
		c87.732,21.604,142.285-3.713,174.266-32.502c16.331-14.002,52.725-66.639,52.725-66.639l-2.721-0.361
		C766.334,386.499,766.334,386.499,766.333,386.5z"/>
</g>
<ellipse fill="#142551" cx="386.864" cy="555.928" rx="177.707" ry="163.072"/>
<path fill="#FAB56E" d="M291.474,693.13l-0.374-2.056c-19.499-86.996,6-164.992,6-164.992L278,496.5
	c-23.583,61.521-21.465,134.017-17.764,173.741C265.603,674.401,276.25,684.5,291.474,693.13z"/>
<path opacity="0.6" fill="#EB8F63" enable-background="new    " d="M297.1,526.082l-10.214-15.819
	c-4.713,25.496-17.49,105.468-7.031,174.709c3.867,2.803,7.857,5.624,11.619,8.158l-0.374-2.056
	C271.601,604.078,297.1,526.082,297.1,526.082z"/>
<radialGradient id="SVGID_1_" cx="-201.6842" cy="259.763" r="562.3298" gradientTransform="matrix(1 0 0 -1 482.5 993)" gradientUnits="userSpaceOnUse">
	<stop  offset="0.5128" style="stop-color:#405684"/>
	<stop  offset="0.8325" style="stop-color:#5A7ABA"/>
</radialGradient>
<path fill="url(#SVGID_1_)" d="M443,389.125c-13.625-8.5-25.355-10.577-25.355-10.577c-15.598-4.099-29.638-5.408-42.164-4.819
	C292.463,371.837,271.8,494.493,271.8,494.493c7.804,15.394,23.35,43.068,39.406,54.54L319,518.621l1,40l2.599,150.007
	c9.082,2.954,43.932,13.301,76.068,9.571c2.836-0.329,5.401-0.53,7.726-0.622c28.76-3.868,61.543-14.09,93.32-36.602l1.173-21.228
	l0.056-1.129l-5.852-161.035l0,0c10.153,5.352,41.369,12.814,66.189,18.919c-0.123-20.978,3.373-54.756,4.71-66.873
	c-14.722-2.073-46.392-18.116-74.229-33.546C491.76,416.083,456.625,397.625,443,389.125z"/>
<path fill="none" stroke="#080B14" stroke-miterlimit="10" d="M539.5,451.5"/>
<radialGradient id="SVGID_2_" cx="-88.963" cy="273.675" r="0" gradientTransform="matrix(1 0 0 -1 482.5 993)" gradientUnits="userSpaceOnUse">
	<stop  offset="0.5074" style="stop-color:#0F727E"/>
	<stop  offset="0.8325" style="stop-color:#00B4DE"/>
</radialGradient>
<path fill="url(#SVGID_2_)" d="M393.537,719.325"/>
<radialGradient id="SVGID_3_" cx="-166.933" cy="285.698" r="0" gradientTransform="matrix(1 0 0 -1 482.5 993)" gradientUnits="userSpaceOnUse">
	<stop  offset="0.5074" style="stop-color:#0F727E"/>
	<stop  offset="0.8325" style="stop-color:#00B4DE"/>
</radialGradient>
<path fill="url(#SVGID_3_)" d="M315.567,707.302"/>
<path fill="none" stroke="#263872" stroke-miterlimit="10" d="M739,806.5"/>
<g>
	<path fill="#FAB56E" d="M370.063,388.646c0,0,21.833,3.333,32.667,1.25l0.167,2.333c0,0-24.167,2.917-31.917-1
		s-0.5-0.167-0.5-0.167l-0.417-2"/>
	<g>
		<g>
			<path fill="#FAB56E" d="M460.22,268.189c42.55,6.684,167.301,34.215,167.301,34.215c-20.709-67.111-86.887-91.186-123.516-99.507
				c3.566-4.129,16.078-18.633,20.011-23.441c-0.002,0.002,15.827-23.342-1.342-42.465c-14.47-16.116-34.479-28.814-53.171-38.22
				c-91.231-56.033-154.09-38.615-154.09-38.615c-33.947,7.988-50.16,30.435-56.308,41.592
				c-18.486,26.73-28.751,67.476-28.751,67.476s-50.853-0.38-40.413,22.66s40.68,46.8,68.76,63c0,0-0.72,24.48,10.08,21.96
				c10.8-2.52,24.501-15.361,24.501-15.361l92.089,64.292l105.17,64.469c11.389-27.468,18.18-85.627,19.069-93.581
				c0.833-3.082,1.46-5.414,1.451-5.419l-50.4-14.22C460.66,277.024,460.142,273.565,460.22,268.189z"/>
			<polygon fill="#FAB56E" points="357.388,279.927 370.146,390.571 402.313,392.904 398.315,302.439 			"/>
			<polygon fill="#EE9062" points="385.063,392.458 374.091,290.159 398.648,302.439 402.896,392.292 			"/>
			<path fill="#7C2117" d="M539.12,151.45"/>
			<path fill="#551413" d="M447.51,166.348l-2.597-8.722c0,0,18.33-23.707,37.693-20.141c19.363,3.567,32.815,21.861,32.815,21.861
				l6.637-3.153l-4.122,10.513C517.933,166.707,480.309,144.462,447.51,166.348z"/>
			
				<ellipse transform="matrix(0.1736 -0.9848 0.9848 0.1736 140.5452 675.585)" fill="#070707" cx="472.819" cy="254.049" rx="7.83" ry="32.665"/>
			<path fill="#EB8F63" d="M329.96,233.771c4.479,8.398,23.979,34.59,40.521,34.073c11.261-0.352,18.849-11.479,22.772-19.19
				C370.184,251.32,340.827,238.88,329.96,233.771z"/>
			<g>
				<path fill="#7C2117" d="M334.251,277.971"/>
				<path fill="#7C2117" d="M337.728,276.041c0.043-0.001,0.084-0.006,0.127-0.006C337.855,276.034,337.803,276.037,337.728,276.041
					z"/>
			</g>
			<path fill="#7C2117" d="M308.47,291.154"/>
			<path fill="#7C2117" d="M329.711,285.529"/>
			<path fill="#D77B48" d="M258.212,223.702c4.218,6.26,7.854,13.908,10.263,23.257l3.965-1.017
				c-11.789-45.773-51.706-53.281-52.108-53.352l-0.706,4.034c0.269,0.048,19.67,3.701,34.682,21.847
				c-12.417,7.976,0.46,27.297,0.46,27.297C246.465,230.264,254.784,225.098,258.212,223.702z"/>
			<path opacity="0.3" fill="#EB8F63" enable-background="new    " d="M466.5,350.364c-13.455,5.382-67.762-16.891-74.833-19.839
				l99.313,60.879c11.389-27.468,18.18-85.627,19.069-93.581c0.833-3.082,1.46-5.414,1.451-5.419
				C511.5,292.404,480.901,344.604,466.5,350.364z"/>
			<path fill="#7C2117" d="M564.161,288.724l-20.679-4.344h-0.001l-18.589-3.905l-7.261-1.65l-0.182,0.031l-81.988-18.391
				c0,0-60.84,38.7-85.14,39.06c-15.474,0.229-17.951-6.546-17.713-11.499c0.824,0.404,1.748,0.637,2.728,0.637
				c3.43,0,6.21-2.78,6.21-6.21c0-3.153-2.35-5.758-5.395-6.157l-0.247-0.03c-6.239-0.591-18.61,5.482-10.244,27.939
				c10.184,27.335,47.488,35.158,65.204,33.073c40.745-1.622,118.846-41.533,118.846-41.533s-2.377,24.658-3.622,29.98
				c21.961,1.544,54.772-13.058,54.772-13.058C576.281,304.389,564.161,288.724,564.161,288.724z"/>
			<path opacity="0.53" fill="#551413" enable-background="new    " d="M564.161,288.724l-20.679-4.344h-0.001l-18.589-3.905
				l-7.261-1.65l-0.182,0.031l-26.383-5.918c-5.79,6.167-33.35,32.695-90.615,46.477c-62.344,15.004-75.859-30.213-76.882-34.028
				c-1.263,4.323-1.034,10.426,2.092,18.818c10.184,27.335,47.488,35.158,65.204,33.073c40.745-1.622,118.846-41.533,118.846-41.533
				s-2.377,24.658-3.622,29.98c21.961,1.544,54.772-13.058,54.772-13.058C576.281,304.389,564.161,288.724,564.161,288.724z"/>
			<path fill="#7C2117" d="M297.419,226.636c0,0-1.717-11.313-0.995-24.456c3.691-67.227-32.08-91.691-32.08-91.691
				c-42.531-6.233-45.857,48.113-44.353,56.006c0.102,0.537,0.424,1.201,0.921,1.966c5.221,0.784,32.103,5.763,44.101,26.516
				c13.32,23.04,29.52,66.24,29.52,66.24s-0.137,0.33-0.369,0.888l21.519,15.132C318.922,246.996,297.419,226.636,297.419,226.636z"
				/>
			<path fill="#551413" d="M233.035,133.158c0,0,10.025-17.124,19.212-16.288s29.233,20.045,24.64,65.569
				C276.887,182.438,263.522,134.41,233.035,133.158z"/>
			<path opacity="0.5" fill="#EB8F63" enable-background="new    " d="M294.892,127.116l-9.18-15.66c0,0,47.52-41.58,93.96-17.28
				s98.82,29.16,119.34,27.54c0,0-21.06,15.66-58.32,4.86s-64.8-30.24-85.32-27.54C334.853,101.736,317.573,108.216,294.892,127.116
				z"/>
			<path opacity="0.5" fill="#EB8F63" enable-background="new    " d="M378.592,83.916c0,0,79.92,26.46,99.36,22.14l12.96,9.72
				C490.913,115.776,440.693,123.876,378.592,83.916z"/>
			<path fill="#3B3B3B" d="M465.313,83.071c0,0,15.333-36-34-55.333S313.979,1.071,290.646,10.404s-64.666,48.667-19.333,73.333
				c0,0,3,3.667,8.5-4.167s90.833-39.167,182.833,4.833"/>
			<path opacity="0.5" fill="#1A1A18" enable-background="new    " d="M285.313,55.404c-18.892-9.677-9.38-25.469-2.527-41.096
				c-23.227,13.565-52.026,47.364-11.473,69.429c0,0,3,3.667,8.5-4.167s90.833-39.167,182.833,4.833l2.667-1.332
				c0,0,1.265-2.977,1.899-7.673C380.646,26.404,285.313,55.404,285.313,55.404z"/>
			<path fill="#1A1A1A" d="M277.313,66.071l2.5,13.5c0,0,102-27,182,15.5l5.399-19.673
				C467.211,75.398,409.313,35.737,277.313,66.071z"/>
			<polyline fill="#3B3B3B" points="379.313,15.071 399.313,6.404 403.313,9.737 384.646,16.404 			"/>
			<g>
				<path fill="#F59964" d="M441.698,199.185c0,0,8.851-30.856,39.491-29.589c0,0,27.745-0.792,25.022,29.751L441.698,199.185z"/>
				<path fill="#F9F7F5" d="M461.637,182.734c0,0,27.678-3.825,44.511,18.008c0,0-23.169,21.466-61.553,1.921"/>
				<path fill="#13100E" d="M461.637,182.734c0,0,11.726-0.957,13.219,18.144l-30.261,1.785
					C444.595,202.663,442.197,191.028,461.637,182.734z"/>
				<circle fill="#F9F7F5" cx="463.451" cy="189.214" r="1.426"/>
			</g>
			<g>
				<path fill="#551413" d="M331.507,161.088l4.677-18.709l11.361,3.342c0,0,38.755-24.055,52.12-19.378
					c13.365,4.675,14.701,26.728,16.038,32.74C415.703,159.083,374.272,133.691,331.507,161.088z"/>
				<path fill="#F59964" d="M338.358,189.323c0,0,8.686-32.575,38.756-31.24c0,0,27.229-0.833,24.558,31.407L338.358,189.323z"/>
				<path fill="#F9F7F5" d="M362.781,171.532c0,0,23.747-3.212,38.89,17.958c0,0-17.711,32.539-51.284,19.542"/>
				<path fill="#13100E" d="M362.781,171.532c-23.328,5.184-22.291,23.155-22.291,23.155l0.469-0.051
					c0.416,3.715,2.212,10.272,9.428,14.396c0,0,14.534-1.502,22.218-17.874C377.073,173.806,362.781,171.532,362.781,171.532z"/>
				<circle fill="#F9F7F5" cx="357.315" cy="184.984" r="1.426"/>
			</g>
			<path fill="#FAB56E" d="M433.66,200.164c0,0,105.84-13.68,161.28,49.68l-22.32,10.08l-111.6-14.4c0,0-31.68-9.36-34.56-10.08"/>
			<g>
				<path fill="#EB8F63" d="M523.253,279.807L628.6,302.944c-3.751-14.762-10.544-27.539-18.819-38.489l0.279-0.031
					c-30.24-40.32-75.42-53.82-75.42-53.82s0.583,0.472,1.617,1.331c10.662,6.669,57.299,36.975,56.343,56.269
					C591.75,285.359,543.894,282.191,523.253,279.807z"/>
				<path fill="#EB8F63" d="M513.041,277.564l0.627,0.138c-0.005-0.019-0.009-0.039-0.014-0.058
					C513.26,277.594,513.041,277.564,513.041,277.564z"/>
			</g>
			<path fill="#EB8F63" d="M425.56,253.264c0,0,0-21.6,31.32-17.28C456.88,235.984,415.841,223.024,425.56,253.264z"/>
			<g>
				<path fill="#551413" d="M465.646,234.708c-12.958,0-23.5-10.542-23.5-23.5s10.542-23.5,23.5-23.5s23.5,10.542,23.5,23.5
					S478.603,234.708,465.646,234.708z M465.646,190.708c-11.304,0-20.5,9.196-20.5,20.5s9.196,20.5,20.5,20.5
					c11.303,0,20.5-9.196,20.5-20.5S476.949,190.708,465.646,190.708z"/>
			</g>
			<g>
				
					<rect x="295.826" y="205.207" transform="matrix(-0.9979 -0.0653 0.0653 -0.9979 725.3725 437.1217)" fill="#551413" width="148.008" height="3"/>
			</g>
			<path fill="#551413" d="M525.753,208.351c2.19-8.962,10.265-15.643,19.892-15.643c11.303,0,20.5,9.196,20.5,20.5
				c0,3.485-0.879,6.767-2.42,9.643c0.866,0.574,1.691,1.16,2.457,1.762c1.885-3.38,2.963-7.268,2.963-11.405
				c0-12.958-10.542-23.5-23.5-23.5c-10.986,0-20.211,7.587-22.771,17.79L525.753,208.351z"/>
			<g>
				<path fill="#551413" d="M523.542,206.441c-15.636-5.542-34.785-0.649-34.976-0.599l-0.506-1.935
					c0.808-0.212,19.942-5.099,36.149,0.648L523.542,206.441z"/>
			</g>
		</g>
		<g>
			<g>
				<path fill="#414242" d="M369.469,384.703c-1.734,0.853-2.822,1.837-2.822,2.881c0,1.153,1.676,2.348,3.76,3.26L369.469,384.703z
					"/>
				<path fill="#414242" d="M402.518,382.989l0.461,8.886l0.029,0.187c4.578-1.092,7.471-2.693,7.471-4.479
					C410.479,385.734,407.38,384.082,402.518,382.989z"/>
			</g>
			
				<radialGradient id="SVGID_4_" cx="-95.6875" cy="599.9915" r="43.8859" gradientTransform="matrix(1 0 0 -1 482.5 993)" gradientUnits="userSpaceOnUse">
				<stop  offset="0.5128" style="stop-color:#405684"/>
				<stop  offset="0.8325" style="stop-color:#5A7ABA"/>
			</radialGradient>
			<path fill="url(#SVGID_4_)" d="M402.453,382.584l0.047,1.056c4.786,1.076,7.645,2.639,7.645,4.11
				c0,2.582-8.795,5.459-21.417,5.459s-21.416-2.877-21.416-5.459c0-0.78,0.815-1.586,2.283-2.332l-0.158-1.074
				c-1.972,0.937-3.125,2.061-3.125,3.406c0,4.195,11.549,6.459,22.417,6.459s22.417-2.264,22.417-6.459
				C411.146,385.405,407.534,383.664,402.453,382.584z"/>
		</g>
	</g>
</g>
<g>
	<g opacity="0.4">
		<polygon fill="#142551" points="385.734,553.765 370.899,576.904 370.223,625.823 399.384,625.94 399.459,575.783 		"/>
		<path fill="#142551" d="M355.837,557.531c0.532-0.023,0.963-0.449,0.97-0.988c0.005-0.38-0.2-0.714-0.508-0.891
			c-0.106-0.061-0.227-0.095-0.353-0.115c0.329-0.163,0.564-0.491,0.57-0.884c0.005-0.38-0.2-0.714-0.507-0.891
			c-0.058-0.033-0.121-0.056-0.185-0.078c0.329-0.163,0.563-0.491,0.569-0.883c0.005-0.38-0.2-0.714-0.507-0.891
			c-0.145-0.083-0.312-0.132-0.491-0.135l-1.117-0.015l-0.088-1.363c-1.052-4.097-4.829-7.057-9.229-6.903l-3.516,0.122
			c-6.056,0.034-7.381,2.856-8.515,6.516l0.04,1.336l-1.672-0.023c-0.559-0.008-1.018,0.439-1.026,0.998
			c-0.006,0.454,0.293,0.828,0.703,0.962c-0.335,0.161-0.574,0.493-0.579,0.89c-0.007,0.514,0.377,0.927,0.872,0.999
			c-0.336,0.161-0.576,0.493-0.582,0.891c-0.007,0.559,0.439,1.018,0.998,1.026l0.713,15.877l3.042,73.54l15.843-8.197l0.077-0.04
			l0.019,0.48l7.404-3.603l-0.037-0.724l0.281-0.489L355.837,557.531z"/>
	</g>
	<g>
		<g>
			<path fill="#F2CA79" d="M373.921,581.895c0.061-0.124-1.022-4.991-1.022-4.991l14.835-23.139l13.725,22.018l-22.382,6.837
				L373.921,581.895z"/>
			<polygon opacity="0.09" fill="#881A22" enable-background="new    " points="387.693,554.055 392.005,572.006 394.515,577.41 
				396.712,577.718 401.459,575.783 387.734,553.765 			"/>
			<path opacity="0.21" fill="#881A22" enable-background="new    " d="M380.569,573.836l7.165-20.071l-14.835,23.139
				c0,0,1.697,2.08,1.913,2.11c0.217,0.03,2.247,0.051,2.822-0.267c0.575-0.317,1.834-2.04,1.989-2.195
				C379.776,576.398,380.569,573.836,380.569,573.836z"/>
			
				<linearGradient id="SVGID_5_" gradientUnits="userSpaceOnUse" x1="351.8355" y1="-100.0977" x2="393.4934" y2="-100.0977" gradientTransform="matrix(0.9557 0.2944 -0.2944 0.9557 1.7861 586.4971)">
				<stop  offset="0" style="stop-color:#F48220"/>
				<stop  offset="1" style="stop-color:#F05F22"/>
			</linearGradient>
			<path fill="url(#SVGID_5_)" d="M392.005,572.006c-0.698,1.081-2.634,4.371-5.474,4.767c-2.842,0.396-5.885-3.083-5.885-3.083
				s-1.359,2.727-3.894,4.094s-3.854-0.88-3.854-0.88l-0.676,48.919l29.161,0.117l0.076-50.157
				C395.242,577.433,392.005,572.006,392.005,572.006z"/>
		</g>
		<path fill="#0F1810" d="M390.471,558.157l-2.737-4.392l-2.863,4.474C386.303,558.02,388.435,557.829,390.471,558.157z"/>
	</g>
	<g>
		
			<linearGradient id="SVGID_6_" gradientUnits="userSpaceOnUse" x1="6588.7437" y1="1460.2542" x2="6612.2603" y2="1460.2542" gradientTransform="matrix(-0.8666 -0.499 0.499 -0.8666 5337.9907 5111.7959)">
			<stop  offset="0.0112" style="stop-color:#6B281C"/>
			<stop  offset="1" style="stop-color:#AF1F23"/>
		</linearGradient>
		<path fill="url(#SVGID_6_)" d="M334.93,550.132l0.206,6.894l6.598,3.041l2.313,0.748l12.666-2.327l-0.524-8.091
			c-1.052-4.097-4.829-7.057-9.229-6.903l-3.516,0.122C337.389,543.65,336.064,546.473,334.93,550.132z"/>
		<polyline fill="#FFC519" points="361.027,634.055 357.795,556.53 333.699,556.199 337.439,646.628 353.282,638.432 
			360.724,634.582 		"/>
		<path fill="#FFC519" d="M354.357,639.556"/>
		<polygon fill="#FDBE1C" points="353.379,638.871 360.783,635.268 356.713,555.906 350.08,557.691 		"/>
		<polygon fill="#F49720" points="345.728,641.239 353.133,637.635 349.992,555.049 342.909,556.02 		"/>
		<polygon fill="#E47E26" points="337.647,645.46 345.051,641.856 342.164,557.313 333.684,557.211 		"/>
		<g>
			<line fill="none" x1="357.505" y1="554.64" x2="333.408" y2="554.309"/>
			<path fill="#B97B2B" d="M358.009,553.763c0.307,0.177,0.513,0.511,0.507,0.891c-0.008,0.558-0.467,1.005-1.026,0.998
				l-24.097-0.331c-0.559-0.008-1.006-0.467-0.998-1.026c0.008-0.558,0.467-1.005,1.026-0.998l24.097,0.331
				C357.697,553.631,357.865,553.679,358.009,553.763L358.009,553.763z"/>
		</g>
		<g>
			<line fill="none" x1="357.381" y1="552.788" x2="333.284" y2="552.457"/>
			<path fill="#B97B2B" d="M357.886,551.911c0.307,0.177,0.513,0.511,0.507,0.891c-0.008,0.558-0.467,1.005-1.026,0.998
				l-24.097-0.331c-0.559-0.008-1.006-0.467-0.998-1.026c0.008-0.558,0.467-1.005,1.026-0.998l24.097,0.331
				C357.574,551.779,357.741,551.827,357.886,551.911L357.886,551.911z"/>
		</g>
		<g>
			<line fill="none" x1="357.795" y1="556.53" x2="333.699" y2="556.199"/>
			<path fill="#B97B2B" d="M358.299,555.652c0.308,0.178,0.513,0.511,0.508,0.891c-0.008,0.559-0.467,1.006-1.026,0.998
				l-24.097-0.331c-0.559-0.008-1.005-0.467-0.998-1.026c0.008-0.559,0.467-1.005,1.026-0.998l24.097,0.331
				C357.988,555.52,358.155,555.569,358.299,555.652L358.299,555.652z"/>
		</g>
	</g>
	
		<radialGradient id="SVGID_7_" cx="97.5254" cy="574.1616" r="187.0201" gradientTransform="matrix(1 0 0 1 193 109)" gradientUnits="userSpaceOnUse">
		<stop  offset="0.5128" style="stop-color:#405684"/>
		<stop  offset="1" style="stop-color:#5A7ABA"/>
	</radialGradient>
	<path fill="url(#SVGID_7_)" d="M331.525,622.178c0,0,66,3,74,0s6,78-37,80S329.525,644.178,331.525,622.178z"/>
</g>
</svg>
