<?xml version="1.0" encoding="utf-8"?>
<!-- Generator: Adobe Illustrator 17.0.0, SVG Export Plug-In . SVG Version: 6.00 Build 0)  -->
<!DOCTYPE svg PUBLIC "-//W3C//DTD SVG 1.1//EN" "http://www.w3.org/Graphics/SVG/1.1/DTD/svg11.dtd">
<svg version="1.1" id="Layer_1" xmlns="http://www.w3.org/2000/svg" xmlns:xlink="http://www.w3.org/1999/xlink" x="0px" y="0px"
	 width="985px" height="720px" viewBox="0 0 985 720" enable-background="new 0 0 985 720" xml:space="preserve">
<ellipse fill="#142551" cx="386.864" cy="555.928" rx="177.707" ry="163.072"/>
<path fill="#FAB56E" d="M471.591,457.294c-0.258-9.551-1.288-38.015-4.591-50.128c-4-14.667-20.667-23.333-31.333-24.667
	c-10.312-1.289-51.154,8.014-53.856,8.634c-11.149-3.164-20.414-5.977-24.736-6.961L355,383.833
	c-53.333-12-74.263,24.784-74.263,24.784S173.5,547.5,312.217,703.923c0,0,40.286,18.288,85.929,14.716
	c28.725-1.652,55.604-9.538,79.025-22.244c9.661-5.465,18.037-11.187,24.715-16.181c5.094-3.974,9.946-8.199,14.521-12.669
	C510.482,605.656,489.78,507.989,471.591,457.294z M295,485.5c4.81,10.445,21.509,62.81,30.5,96.5
	c9.22,32.633,6.872,70.464,3.213,104.385C302.749,641.106,252,539.5,295,485.5z"/>
<path fill="#EB8F63" d="M323.688,677.449C296.881,628.831,254.635,536.191,295,485.5c2.782,6.04,9.538,26.097,16.481,48.455
	l1.019-1.455L298.25,472l-5.25,3.5c-65,47.5,27.5,213,27.5,213l-16.03,6.39c2.496,3.004,5.07,6.015,7.747,9.033
	c0,0,5.38,2.441,14.428,5.364L323.688,677.449z"/>
<path fill="#FAB56E" d="M654.785,464.3c1.336,1.591,2.546,3.498,3.549,5.867c-51.667,171.333-191.333-63-191.333-63L460,445
	c0,0,28.552,79.139,96.5,110.5c60.13,27.752,88.396,2.997,101.688-28.671l25.957-68.252c10.555-19.809,24.226-43.773,27.519-57.359
	c1.302-5.369-1.01-10.268-5.257-14.629c-7.371-73.516,26.523-133.547,26.523-133.547c-43.218-2.401-36.701,34.986-36.701,34.986
	c-7.896,18.894-6.805,69.551-5.488,87.465c-15.203-8.081-31.899-11.319-31.899-11.319c-14.638,10.668-22.48,22.455-26.239,33.903
	c-0.17,2.737-0.532,11.395,0.808,21.832C633.411,419.908,638.236,446.766,654.785,464.3z"/>
<g opacity="0.5">
	<path fill="#EB8F63" d="M673.5,465.5c0,0-17.5,90-69.5,95.5S468.5,456,468.5,456l-6.884-19.734L460,445
		c0,0,28.552,79.139,96.5,110.5c60.13,27.752,88.396,2.997,101.688-28.671l25.957-68.252c0.846-1.589,1.714-3.206,2.594-4.84
		C676.458,463.034,673.5,465.5,673.5,465.5z"/>
</g>
<path fill="#FAB56E" d="M633,396.5l38-57.667c0,0,8,15.333-1,27.667s-27.823,34.029-27.823,34.029"/>
<polygon fill="#EB8F63" points="665.994,420.894 679.207,406.207 674.5,401 663,413 "/>
<path fill="#EB8F63" d="M647.265,412.489c0,0,9.235,25.761,6.235,43.011c0,0-10.25-44.75-14.5-55.75S645.78,404.479,647.265,412.489
	z"/>
<path fill="#51609E" d="M630.333,511.167l22-40.667l33.333,13.333c0,0-20,43.333-27.333,52
	C658.333,535.833,635.667,525.833,630.333,511.167z"/>
<polygon opacity="0.2" fill="#142551" enable-background="new    " points="657.333,528.5 649,524.833 672.667,482.5 
	679.667,485.833 "/>
<path fill="none" stroke="#080B14" stroke-miterlimit="10" d="M539.5,451.5"/>
<radialGradient id="SVGID_1_" cx="-281.963" cy="382.675" r="0" gradientTransform="matrix(1 0 0 -1 675.5 1102)" gradientUnits="userSpaceOnUse">
	<stop  offset="0.5074" style="stop-color:#0F727E"/>
	<stop  offset="0.8325" style="stop-color:#00B4DE"/>
</radialGradient>
<path fill="url(#SVGID_1_)" d="M393.537,719.325"/>
<radialGradient id="SVGID_2_" cx="-359.933" cy="394.698" r="0" gradientTransform="matrix(1 0 0 -1 675.5 1102)" gradientUnits="userSpaceOnUse">
	<stop  offset="0.5074" style="stop-color:#0F727E"/>
	<stop  offset="0.8325" style="stop-color:#00B4DE"/>
</radialGradient>
<path fill="url(#SVGID_2_)" d="M315.567,707.302"/>
<path fill="none" stroke="#263872" stroke-miterlimit="10" d="M739,806.5"/>
<path fill="#FAB56E" d="M370.063,388.646c0,0,21.833,3.333,32.667,1.25l0.167,2.333c0,0-24.167,2.917-31.917-1s-0.5-0.167-0.5-0.167
	l-0.417-2"/>
<g>
	<path fill="#5C9ABE" d="M851.476,127.51c0,67.632-54.826,122.465-122.459,122.465c-67.631,0-122.459-54.833-122.459-122.465
		c0-67.634,54.828-122.459,122.459-122.459C796.65,5.051,851.476,59.876,851.476,127.51z"/>
	<g>
		<path fill="#3673A5" d="M825.902,52.501c-21.941,9.198-23.085,39.763-22.588,47.834c0.498,8.136,0,8.909,0,8.909v1.243
			c-3.487,3.097-12.014-2.714-12.014-2.714c-18.016-14.337-35.261,2.318-36.236,3.484c-0.964,1.168-2.124,4.072-10.264,3.882
			c-8.136-0.196-8.332,2.9-7.948,4.835c0.39,1.938,14.732,0.778,15.507,0.778c0.77,0-0.25-2.659-0.25-2.659
			c2.698-1.138,5.098-2.47,6.801-3.111c4.137-1.554,6.719,3.613-2.067,16.53c-8.784,12.924-12.401,8.785-12.401,8.785
			C736.173,136.68,716.021,131,712.41,131c-3.621,0-2.071-6.204-3.107-8.265c-1.027-2.067-9.304-0.52-13.43-0.52
			c-4.136,0-13.436,10.334-15.507,10.85c-2.067,0.518-14.463-1.034-15.498,0.518c-1.036,1.549,5.684,9.818,3.1,10.332
			c-2.578,0.52-6.713-5.682-10.333-4.132c-3.621,1.552-8.274,16.535-10.333,14.471c-2.064-2.07,3.098-19.638,7.747-24.29
			c4.652-4.648,17.052-12.4,17.567-16.019c0.296-2.037,1.404-5.386,2.315-7.923h-6.988l-2.866,7.139
			c-0.213,0.291-0.418,0.556-0.619,0.807c-0.791,1.516-1.895,2.686-3.428,3.298l0,0c-0.606,0.34-1.148,0.467-1.638,0.438
			c-7.438,0.891-8.301-14.997-6.856-19.525c1.324-4.129,9.153-6.426,11.44-7.023c0.196-0.072,0.401-0.12,0.626-0.155l0,0
			c3.929-0.561,11.657,4.797,19.389,3.827c8.268-1.029,17.048-19.635,20.141-21.187c3.103-1.545,11.374-0.518,13.437-11.366
			c2.07-10.852,31.523-25.321,43.408-28.936c6.147-1.87,15.319-9.124,22.756-15.698C767.216,9.338,748.554,4.66,728.796,4.66
			c-67.63,0-122.46,54.831-122.46,122.465c0,67.632,54.831,122.461,122.46,122.461c67.638,0,122.467-54.829,122.467-122.461
			C851.263,99.038,841.814,73.159,825.902,52.501z M758.629,211.179c-0.725,2.549-2.139,5.273-3.432,7.442l0,0
			c-0.306,0.373-0.616,0.734-0.931,1.089c-8.68,14.397-30.641,39.889-69.232,17.546c-40.683-23.563-37.656-59.288-34.493-73.482
			c0.169-1.665,0.341-2.593,0.341-2.593c0.236-1.337,0.715-2.509,1.373-3.545l0,0l0,0c5.894-9.13,26.894-7.159,33.51-9.245
			c7.366-2.326,19.38-13.178,22.093-13.568c2.714-0.387,35.269,12.406,41.302,12.015c6.021-0.387,8.306-7.356,12.576-3.486
			c4.258,3.877-6.972,25.97-9.3,33.151C750.112,183.684,760.182,205.752,758.629,211.179z M781.798,187.792
			c-0.378,5.211-1.279,17.649-5.423,17.849c-10.46-2.961-3.279-23.852-3.279-23.852l0,0
			C776.375,177.846,782.283,180.996,781.798,187.792z"/>
		<g>
			<g>
				<g>
					<defs>
						<path id="SVGID_3_" d="M640.87,126.99c0-60.479,45.737-110.28,104.509-116.699c-4.231-0.457-8.531-0.702-12.881-0.702
							c-64.844,0-117.402,52.565-117.402,117.401c0,64.844,52.558,117.406,117.402,117.406c4.351,0,8.65-0.241,12.881-0.703
							C686.607,237.283,640.87,187.477,640.87,126.99z"/>
					</defs>
					<clipPath id="SVGID_4_">
						<use xlink:href="#SVGID_3_"  overflow="visible"/>
					</clipPath>
					<path clip-path="url(#SVGID_4_)" fill="#95CADD" d="M851.736,126.99c0,67.636-54.824,122.465-122.465,122.465
						c-67.635,0-122.464-54.829-122.464-122.465c0-67.63,54.829-122.461,122.464-122.461
						C796.912,4.529,851.736,59.36,851.736,126.99z"/>
				</g>
			</g>
			<g>
				<g>
					<defs>
						<path id="SVGID_5_" d="M640.87,126.99c0-60.479,45.737-110.28,104.509-116.699c-4.231-0.457-8.531-0.702-12.881-0.702
							c-64.844,0-117.402,52.565-117.402,117.401c0,64.844,52.558,117.406,117.402,117.406c4.351,0,8.65-0.241,12.881-0.703
							C686.607,237.283,640.87,187.477,640.87,126.99z"/>
					</defs>
					<clipPath id="SVGID_6_">
						<use xlink:href="#SVGID_5_"  overflow="visible"/>
					</clipPath>
					<path clip-path="url(#SVGID_6_)" fill="#5496CA" d="M825.902,52.374c-21.949,9.204-23.089,39.766-22.593,47.838
						c0.503,8.136,0,8.911,0,8.911v1.24c-3.482,3.099-12.014-2.713-12.014-2.713c-18.022-14.337-35.264,2.325-36.231,3.49
						c-0.966,1.158-2.134,4.068-10.276,3.871c-8.137-0.192-8.325,2.911-7.94,4.843c0.391,1.934,14.725,0.776,15.504,0.776
						c0.771,0-0.257-2.657-0.257-2.657c2.705-1.141,5.102-2.475,6.808-3.115c4.133-1.551,6.719,3.615-2.067,16.536
						c-8.785,12.915-12.4,8.781-12.4,8.781c-8.271-3.619-28.42-9.299-32.034-9.299c-3.621,0-2.071-6.2-3.107-8.266
						c-1.037-2.071-9.296-0.519-13.436-0.519c-4.123,0-13.432,10.336-15.503,10.85c-2.059,0.516-14.467-1.034-15.494,0.516
						c-1.032,1.553,5.685,9.82,3.099,10.34c-2.581,0.512-6.719-5.686-10.34-4.136c-3.613,1.545-8.262,16.536-10.332,14.469
						c-2.067-2.068,3.103-19.637,7.751-24.286c4.653-4.652,17.052-12.405,17.575-16.021c0.287-2.039,1.4-5.388,2.31-7.92h-6.983
						l-2.879,7.136c-0.211,0.286-0.409,0.554-0.614,0.809c-0.786,1.517-1.895,2.683-3.42,3.292l-0.008,0.008
						c-0.61,0.336-1.151,0.468-1.637,0.429c-7.434,0.895-8.302-14.99-6.848-19.519c1.318-4.131,9.14-6.433,11.432-7.025
						c0.193-0.07,0.405-0.125,0.626-0.153l0,0c3.926-0.562,11.653,4.793,19.384,3.826c8.265-1.034,17.048-19.64,20.151-21.187
						c3.102-1.548,11.372-0.514,13.439-11.367c2.067-10.851,31.518-25.318,43.401-28.936c6.145-1.868,15.321-9.122,22.755-15.691
						C767.206,9.219,748.54,4.537,728.791,4.537c-67.63,0-122.46,54.829-122.46,122.463c0,67.632,54.829,122.461,122.46,122.461
						c67.638,0,122.467-54.829,122.467-122.461C851.259,98.917,841.805,73.036,825.902,52.374z M758.626,211.062
						c-0.728,2.545-2.145,5.267-3.445,7.437l0,0c-0.293,0.373-0.606,0.734-0.919,1.084c-8.679,14.402-30.644,39.89-69.243,17.547
						c-40.676-23.555-37.645-59.284-34.495-73.482c0.186-1.654,0.358-2.587,0.358-2.587c0.232-1.341,0.699-2.508,1.373-3.544l0,0
						l0,0c5.885-9.133,26.887-7.16,33.506-9.247c7.366-2.326,19.376-13.172,22.085-13.564c2.713-0.389,35.273,12.406,41.303,12.017
						c6.033-0.387,8.318-7.36,12.581-3.486c4.258,3.875-6.974,25.966-9.305,33.145C750.095,183.559,760.179,205.635,758.626,211.062
						z M781.791,187.674c-0.373,5.206-1.281,17.65-5.423,17.842c-10.457-2.956-3.276-23.85-3.276-23.85l0,0
						C776.375,177.729,782.273,180.868,781.791,187.674z"/>
				</g>
			</g>
		</g>
		<g>
			<g>
				<g>
					<defs>
						<path id="SVGID_7_" d="M715.376,85.051c0,12.444-10.095,22.542-22.543,22.542c-12.451,0-22.539-10.097-22.539-22.542
							c0-12.452,10.088-22.539,22.539-22.539C705.281,62.511,715.376,72.599,715.376,85.051z"/>
					</defs>
					<clipPath id="SVGID_8_">
						<use xlink:href="#SVGID_7_"  overflow="visible"/>
					</clipPath>
					<path clip-path="url(#SVGID_8_)" fill="#95CADD" d="M852.194,126.88c0,67.634-54.826,122.459-122.459,122.459
						c-67.631,0-122.455-54.825-122.455-122.459c0-67.636,54.824-122.467,122.455-122.467
						C797.369,4.413,852.194,59.244,852.194,126.88z"/>
				</g>
			</g>
			<g>
				<g>
					<defs>
						<path id="SVGID_9_" d="M715.376,85.039c0,12.448-10.095,22.543-22.543,22.543c-12.451,0-22.539-10.095-22.539-22.543
							c0-12.446,10.088-22.539,22.539-22.539C705.281,62.5,715.376,72.593,715.376,85.039z"/>
					</defs>
					<clipPath id="SVGID_10_">
						<use xlink:href="#SVGID_9_"  overflow="visible"/>
					</clipPath>
					<path clip-path="url(#SVGID_10_)" fill="#5496CA" d="M826.37,52.255c-21.944,9.198-23.093,39.76-22.598,47.828
						c0.505,8.143,0,8.917,0,8.917v1.236c-3.481,3.105-12.01-2.713-12.01-2.713c-18.016-14.334-35.269,2.329-36.232,3.49
						c-0.968,1.164-2.135,4.07-10.272,3.877c-8.135-0.196-8.321,2.904-7.94,4.84c0.388,1.934,14.723,0.778,15.507,0.778
						c0.762,0-0.257-2.66-0.257-2.66c2.698-1.136,5.098-2.473,6.8-3.119c4.135-1.548,6.724,3.618-2.064,16.534
						c-8.783,12.923-12.404,8.785-12.404,8.785c-8.26-3.614-28.42-9.297-32.033-9.297c-3.62,0-2.07-6.2-3.102-8.263
						c-1.032-2.069-9.302-0.521-13.433-0.521c-4.137,0-13.435,10.336-15.505,10.852c-2.057,0.522-14.467-1.034-15.499,0.522
						c-1.032,1.547,5.683,9.814,3.098,10.33c-2.58,0.516-6.716-5.68-10.336-4.136c-3.613,1.55-8.269,16.541-10.332,14.473
						c-2.063-2.071,3.103-19.639,7.75-24.29c4.645-4.648,17.053-12.399,17.579-16.016c0.276-2.04,1.396-5.389,2.303-7.922h-6.985
						l-2.873,7.137c-0.217,0.287-0.414,0.55-0.618,0.809c-0.787,1.513-1.89,2.684-3.421,3.298l0,0
						c-0.614,0.338-1.156,0.461-1.646,0.429c-7.426,0.896-8.301-14.992-6.84-19.519c1.313-4.126,9.136-6.429,11.424-7.025
						c0.196-0.069,0.413-0.12,0.629-0.152l0,0c3.93-0.564,11.657,4.795,19.384,3.825c8.266-1.037,17.053-19.635,20.152-21.187
						c3.1-1.545,11.376-0.514,13.44-11.368c2.063-10.852,31.52-25.313,43.396-28.936c6.15-1.866,15.33-9.122,22.756-15.694
						c-16.522-8.305-35.176-12.988-54.926-12.988c-67.638,0-122.466,54.831-122.466,122.467
						c0,67.634,54.827,122.459,122.466,122.459c67.63,0,122.455-54.825,122.455-122.459C851.72,98.791,842.267,72.913,826.37,52.255
						z M759.094,210.936c-0.727,2.547-2.142,5.273-3.44,7.436v0.004c-0.292,0.367-0.618,0.728-0.927,1.084
						c-8.669,14.404-30.643,39.892-69.239,17.547c-40.683-23.557-37.645-59.286-34.497-73.482c0.181-1.656,0.358-2.589,0.358-2.589
						c0.232-1.338,0.706-2.509,1.373-3.544l0,0l0,0c5.883-9.134,26.894-7.159,33.505-9.243c7.366-2.328,19.384-13.176,22.094-13.564
						c2.71-0.393,35.271,12.403,41.297,12.017c6.029-0.393,8.309-7.368,12.573-3.492c4.271,3.878-6.969,25.963-9.297,33.151
						C750.564,183.437,760.644,205.511,759.094,210.936z M782.256,187.548c-0.368,5.212-1.281,17.654-5.419,17.843
						c-10.461-2.951-3.279-23.85-3.279-23.85l0,0C776.837,177.601,782.746,180.753,782.256,187.548z"/>
				</g>
			</g>
		</g>
	</g>
</g>
<path fill="none" stroke="#FAB56E" stroke-miterlimit="10" d="M977.25,696.75L963.875,693l-9.75,11.375l6.625,13
	c0,0,4.125-4.75,1.125-8.5c0,0,3.5-1.875,4.25-5.625c0,0,1.625,2,3,2.375"/>
<g>
	<path fill="#5C9ABE" d="M-2713.969-129.442c0,109.792-89.002,198.807-198.797,198.807c-109.79,0-198.797-89.015-198.797-198.807
		c0-109.796,89.007-198.797,198.797-198.797C-2802.971-328.239-2713.969-239.238-2713.969-129.442z"/>
	<g>
		<path fill="#3673A5" d="M-2755.485-251.211c-35.618,14.932-37.476,64.551-36.669,77.653c0.808,13.208,0,14.462,0,14.462v2.018
			c-5.661,5.027-19.503-4.405-19.503-4.405c-29.246-23.274-57.241,3.763-58.825,5.656c-1.564,1.896-3.448,6.611-16.662,6.301
			c-13.208-0.319-13.526,4.708-12.903,7.85c0.633,3.147,23.916,1.263,25.174,1.263c1.25,0-0.405-4.317-0.405-4.317
			c4.38-1.847,8.276-4.01,11.041-5.05c6.716-2.522,10.907,5.865-3.356,26.834c-14.26,20.98-20.131,14.262-20.131,14.262
			c-13.424-5.872-46.137-15.092-52.001-15.092c-5.879,0-3.362-10.072-5.044-13.417c-1.667-3.356-15.103-0.844-21.802-0.844
			c-6.714,0-21.811,16.776-25.175,17.614c-3.355,0.841-23.479-1.678-25.159,0.841c-1.683,2.514,9.227,15.938,5.032,16.772
			c-4.184,0.844-10.897-9.224-16.774-6.708c-5.878,2.519-13.433,26.842-16.774,23.492c-3.351-3.36,5.03-31.879,12.576-39.432
			c7.552-7.545,27.682-20.129,28.518-26.004c0.481-3.306,2.279-8.744,3.758-12.862h-11.344l-4.653,11.589
			c-0.346,0.472-0.679,0.903-1.004,1.31c-1.284,2.46-3.076,4.36-5.566,5.353l0,0c-0.984,0.551-1.863,0.759-2.659,0.711
			c-12.074,1.447-13.476-24.345-11.129-31.696c2.15-6.703,14.859-10.433,18.572-11.4c0.318-0.118,0.651-0.195,1.017-0.251l0,0
			c6.378-0.91,18.924,7.788,31.475,6.213c13.422-1.671,27.675-31.874,32.697-34.394c5.038-2.509,18.464-0.841,21.813-18.451
			c3.361-17.617,51.173-41.106,70.468-46.973c9.979-3.036,24.869-14.812,36.942-25.483c-26.814-13.482-57.109-21.077-89.183-21.077
			c-109.788,0-198.799,89.012-198.799,198.807c0,109.792,89.01,198.8,198.799,198.8c109.802,0,198.809-89.008,198.809-198.8
			C-2714.314-175.663-2729.654-217.675-2755.485-251.211z M-2864.694,6.384c-1.177,4.137-3.472,8.559-5.571,12.082l0,0
			c-0.497,0.606-1,1.192-1.512,1.768c-14.09,23.372-49.741,64.755-112.39,28.484c-66.044-38.252-61.131-96.247-55.996-119.289
			c0.274-2.703,0.554-4.21,0.554-4.21c0.384-2.171,1.16-4.073,2.229-5.754l0,0l0,0c9.567-14.822,43.659-11.622,54.4-15.007
			c11.958-3.777,31.461-21.393,35.866-22.026c4.405-0.628,57.254,20.139,67.048,19.504c9.775-0.628,13.483-11.942,20.415-5.659
			c6.913,6.294-11.319,42.158-15.098,53.817C-2878.521-38.25-2862.173-2.426-2864.694,6.384z M-2827.082-31.581
			c-0.613,8.459-2.076,28.651-8.803,28.976c-16.981-4.806-5.323-38.721-5.323-38.721l0,0
			C-2835.885-47.728-2826.294-42.614-2827.082-31.581z"/>
		<g>
			<g>
				<g>
					<defs>
						<path id="SVGID_11_" d="M-3055.862-130.286c0-98.18,74.248-179.026,169.657-189.446c-6.869-0.743-13.849-1.14-20.911-1.14
							c-105.266,0-190.587,85.333-190.587,190.586c0,105.266,85.321,190.593,190.587,190.593c7.063,0,14.042-0.391,20.911-1.142
							C-2981.613,48.76-3055.862-32.093-3055.862-130.286z"/>
					</defs>
					<clipPath id="SVGID_12_">
						<use xlink:href="#SVGID_11_"  overflow="visible"/>
					</clipPath>
					<path clip-path="url(#SVGID_12_)" fill="#95CADD" d="M-2713.547-130.286c0,109.799-88.999,198.807-198.807,198.807
						c-109.797,0-198.805-89.008-198.805-198.807c0-109.789,89.008-198.801,198.805-198.801
						C-2802.546-329.087-2713.547-240.075-2713.547-130.286z"/>
				</g>
			</g>
			<g>
				<g>
					<defs>
						<path id="SVGID_13_" d="M-3055.862-130.286c0-98.18,74.248-179.026,169.657-189.446c-6.869-0.743-13.849-1.14-20.911-1.14
							c-105.266,0-190.587,85.333-190.587,190.586c0,105.266,85.321,190.593,190.587,190.593c7.063,0,14.042-0.391,20.911-1.142
							C-2981.613,48.76-3055.862-32.093-3055.862-130.286z"/>
					</defs>
					<clipPath id="SVGID_14_">
						<use xlink:href="#SVGID_13_"  overflow="visible"/>
					</clipPath>
					<path clip-path="url(#SVGID_14_)" fill="#5496CA" d="M-2755.485-251.416c-35.632,14.942-37.482,64.555-36.677,77.66
						c0.816,13.208,0,14.466,0,14.466v2.014c-5.653,5.031-19.502-4.405-19.502-4.405c-29.257-23.274-57.247,3.774-58.817,5.666
						c-1.569,1.879-3.465,6.604-16.682,6.284c-13.209-0.312-13.514,4.725-12.89,7.863c0.635,3.14,23.904,1.26,25.168,1.26
						c1.251,0-0.417-4.313-0.417-4.313c4.391-1.852,8.282-4.018,11.052-5.057c6.71-2.518,10.907,5.869-3.355,26.845
						c-14.261,20.967-20.129,14.255-20.129,14.255c-13.427-5.875-46.137-15.096-52.002-15.096c-5.879,0-3.362-10.064-5.043-13.418
						c-1.684-3.362-15.091-0.843-21.811-0.843c-6.693,0-21.804,16.78-25.167,17.614c-3.342,0.837-23.486-1.679-25.153,0.837
						c-1.676,2.521,9.228,15.942,5.031,16.786c-4.19,0.831-10.907-9.23-16.786-6.715c-5.865,2.509-13.412,26.844-16.773,23.488
						c-3.356-3.357,5.037-31.878,12.583-39.425c7.554-7.552,27.683-20.139,28.531-26.007c0.466-3.31,2.273-8.748,3.75-12.857
						h-11.336l-4.675,11.584c-0.343,0.465-0.664,0.899-0.997,1.313c-1.276,2.463-3.077,4.356-5.552,5.343l-0.012,0.013
						c-0.99,0.545-1.869,0.759-2.658,0.697c-12.068,1.453-13.478-24.335-11.117-31.686c2.139-6.706,14.838-10.443,18.559-11.403
						c0.314-0.114,0.657-0.202,1.016-0.248l0,0c6.373-0.913,18.917,7.781,31.468,6.21c13.417-1.678,27.676-31.882,32.713-34.394
						c5.036-2.512,18.461-0.834,21.817-18.454c3.356-17.615,51.166-41.1,70.457-46.974c9.976-3.033,24.872-14.809,36.94-25.473
						c-26.815-13.483-57.116-21.084-89.177-21.084c-109.789,0-198.798,89.008-198.798,198.804
						c0,109.793,89.009,198.801,198.798,198.801c109.802,0,198.81-89.008,198.81-198.801
						C-2714.32-175.859-2729.668-217.874-2755.485-251.416z M-2864.699,6.194c-1.181,4.132-3.482,8.55-5.592,12.073l0,0
						c-0.475,0.606-0.984,1.192-1.493,1.76c-14.09,23.379-49.747,64.756-112.408,28.485c-66.033-38.238-61.112-96.24-55.998-119.29
						c0.301-2.685,0.581-4.199,0.581-4.199c0.377-2.177,1.134-4.071,2.229-5.754l0,0l0,0c9.554-14.826,43.647-11.624,54.393-15.011
						c11.958-3.776,31.454-21.383,35.852-22.019c4.405-0.632,57.262,20.139,67.05,19.508c9.794-0.629,13.502-11.948,20.423-5.659
						c6.913,6.291-11.321,42.152-15.106,53.806C-2878.547-38.453-2862.177-2.616-2864.699,6.194z M-2827.093-31.773
						c-0.605,8.452-2.079,28.652-8.803,28.965c-16.976-4.799-5.319-38.717-5.319-38.717l0,0
						C-2835.885-47.919-2826.311-42.821-2827.093-31.773z"/>
				</g>
			</g>
		</g>
		<g>
			<g>
				<g>
					<defs>
						<path id="SVGID_15_" d="M-2934.91-198.37c0,20.202-16.388,36.593-36.596,36.593c-20.213,0-36.589-16.392-36.589-36.593
							c0-20.214,16.377-36.59,36.589-36.59C-2951.298-234.96-2934.91-218.584-2934.91-198.37z"/>
					</defs>
					<clipPath id="SVGID_16_">
						<use xlink:href="#SVGID_15_"  overflow="visible"/>
					</clipPath>
					<path clip-path="url(#SVGID_16_)" fill="#95CADD" d="M-2712.802-130.465c0,109.796-89.002,198.797-198.797,198.797
						c-109.79,0-198.79-89.001-198.79-198.797c0-109.799,89-198.811,198.79-198.811
						C-2801.805-329.275-2712.802-240.264-2712.802-130.465z"/>
				</g>
			</g>
			<g>
				<g>
					<defs>
						<path id="SVGID_17_" d="M-2934.91-198.389c0,20.207-16.388,36.596-36.596,36.596c-20.213,0-36.589-16.389-36.589-36.596
							c0-20.205,16.377-36.589,36.589-36.589C-2951.298-234.979-2934.91-218.594-2934.91-198.389z"/>
					</defs>
					<clipPath id="SVGID_18_">
						<use xlink:href="#SVGID_17_"  overflow="visible"/>
					</clipPath>
					<path clip-path="url(#SVGID_18_)" fill="#5496CA" d="M-2754.724-251.609c-35.623,14.932-37.489,64.545-36.686,77.643
						c0.82,13.219,0,14.476,0,14.476v2.007c-5.651,5.041-19.496-4.405-19.496-4.405c-29.246-23.269-57.254,3.781-58.819,5.666
						c-1.571,1.889-3.466,6.608-16.676,6.294c-13.206-0.318-13.508,4.715-12.889,7.857c0.631,3.14,23.901,1.264,25.174,1.264
						c1.236,0-0.417-4.318-0.417-4.318c4.379-1.844,8.276-4.014,11.039-5.063c6.712-2.513,10.916,5.874-3.35,26.841
						c-14.257,20.979-20.136,14.261-20.136,14.261c-13.409-5.868-46.136-15.092-52.001-15.092c-5.876,0-3.36-10.065-5.035-13.414
						c-1.675-3.358-15.1-0.846-21.807-0.846c-6.716,0-21.809,16.78-25.17,17.617c-3.339,0.848-23.486-1.678-25.161,0.848
						c-1.675,2.512,9.226,15.931,5.03,16.769c-4.188,0.837-10.902-9.22-16.78-6.715c-5.866,2.516-13.423,26.852-16.773,23.495
						c-3.349-3.363,5.038-31.882,12.582-39.432c7.541-7.546,27.683-20.129,28.538-26c0.449-3.311,2.266-8.749,3.739-12.86h-11.339
						l-4.665,11.586c-0.352,0.467-0.671,0.893-1.004,1.313c-1.278,2.457-3.069,4.357-5.553,5.353l0,0
						c-0.997,0.548-1.876,0.749-2.672,0.697c-12.055,1.454-13.475-24.338-11.104-31.686c2.131-6.699,14.831-10.436,18.546-11.403
						c0.318-0.111,0.671-0.195,1.022-0.247l0,0c6.381-0.915,18.925,7.784,31.468,6.21c13.419-1.684,27.683-31.875,32.714-34.394
						c5.032-2.508,18.468-0.834,21.818-18.454c3.349-17.617,51.168-41.093,70.448-46.974c9.983-3.029,24.887-14.808,36.941-25.477
						c-26.821-13.482-57.104-21.084-89.165-21.084c-109.802,0-198.808,89.012-198.808,198.811
						c0,109.796,89.006,198.797,198.808,198.797c109.789,0,198.791-89.001,198.791-198.797
						C-2713.572-176.063-2728.918-218.075-2754.724-251.609z M-2863.938,5.99c-1.181,4.135-3.478,8.559-5.585,12.071v0.007
						c-0.474,0.596-1.002,1.182-1.506,1.76c-14.073,23.383-49.746,64.76-112.401,28.486
						c-66.043-38.241-61.113-96.244-56.002-119.289c0.293-2.688,0.581-4.203,0.581-4.203c0.377-2.173,1.146-4.073,2.229-5.754l0,0
						l0,0c9.551-14.827,43.659-11.622,54.392-15.004c11.958-3.78,31.467-21.39,35.867-22.02c4.399-0.638,57.259,20.134,67.04,19.508
						c9.787-0.638,13.488-11.961,20.411-5.669c6.934,6.296-11.313,42.148-15.093,53.816
						C-2877.786-38.652-2861.422-2.817-2863.938,5.99z M-2826.339-31.978c-0.598,8.462-2.079,28.659-8.796,28.966
						c-16.982-4.79-5.324-38.718-5.324-38.718l0,0C-2835.135-48.126-2825.543-43.008-2826.339-31.978z"/>
				</g>
			</g>
		</g>
	</g>
</g>
<polyline fill="#3B3B3B" points="379.313,15.071 399.313,6.404 403.313,9.737 384.646,16.404 "/>
<path opacity="0.6" fill="#EE9062" enable-background="new    " d="M402.5,386.667c0,0,24-5,31.333-4.167s14.167,2,23.5,10.167
	c0,0-27.541-9.249-54.437-0.375"/>
<g opacity="0.6">
	<path fill="#EB8F63" d="M690.741,375.493c-1.717-0.913-3.453-1.761-5.182-2.552L689,376l10,4c0,0-3.5-14-2-50
		c1.156-27.747,15.973-62.022,22.707-76.282c-28.55,5.175-23.478,34.31-23.478,34.31
		C688.332,306.922,689.424,357.578,690.741,375.493z"/>
	<path fill="#EB8F63" d="M467.085,407.309c-0.054-0.09-0.085-0.142-0.085-0.142l-0.038,0.205L467.085,407.309z"/>
</g>
<path fill="#D77B48" d="M708.012,387.631c-9.942-15.671-47.366-24.083-48.954-24.434l-0.287-0.063l-0.275,0.103
	c-0.327,0.121-8.105,3.117-16.183,16.411c-5.454,8.976-2.668,16.403-0.06,20.495c-0.027,0.131-0.059,0.268-0.076,0.387
	c-0.855,6.144,2.049,10.59,4.088,11.96l7.011,26.175l0.92-0.184c0.134-0.026,13.377-2.85,11.798-17.587l-2.271-6.441
	c2.171-1.306,8.309-5.481,10.326-11.988l3.743,3.743c0.391,0.391,1.023,0.391,1.414,0s0.391-1.023,0-1.414l-6.358-6.358
	l-0.333,1.892c-1.396,7.905-10.392,12.741-10.482,12.789l-0.767,0.405l2.751,7.703c1.1,10.799-6.601,14.197-9.311,15.052
	l-7.129-26.616l17.375-27.992l38.275,10.796c0.524,0.146,1.083-0.159,1.234-0.691c0.149-0.531-0.16-1.084-0.691-1.234
	l-39.725-11.204L645.7,408.893c-1.055-1.689-2.056-4.406-1.544-8.086c0.637-4.587,11.563-21.409,16.248-28.292l33.123,10.606
	c0.528,0.167,1.089-0.122,1.257-0.647c0.169-0.525-0.121-1.089-0.647-1.257l-34.542-11.062l-0.421,0.614
	c-0.579,0.846-12.646,18.49-16.109,26.904c-2.001-3.797-3.421-9.782,0.956-16.985c6.876-11.317,13.552-14.837,14.915-15.465
	c3.66,0.849,38.344,9.229,47.386,23.481c0.296,0.466,0.912,0.604,1.381,0.309C708.169,388.716,708.308,388.098,708.012,387.631z"/>
<path fill="#FAB56E" d="M460.22,268.189c42.55,6.684,167.301,34.215,167.301,34.215c-20.709-67.111-86.887-91.186-123.516-99.507
	c3.566-4.129,16.078-18.633,20.011-23.441c-0.002,0.002,15.827-23.342-1.342-42.465c-14.47-16.116-34.479-28.814-53.171-38.22
	c-91.231-56.033-154.09-38.615-154.09-38.615c-33.947,7.988-50.16,30.435-56.308,41.592c-18.486,26.73-28.751,67.476-28.751,67.476
	s-50.853-0.38-40.413,22.66s40.68,46.8,68.76,63c0,0-0.72,24.48,10.08,21.96c10.8-2.52,24.501-15.361,24.501-15.361l92.089,64.292
	l105.17,64.469c11.389-27.468,18.18-85.627,19.069-93.581c0.833-3.082,1.46-5.414,1.451-5.419l-50.4-14.22
	C460.66,277.024,460.142,273.565,460.22,268.189z"/>
<polygon fill="#FAB56E" points="357.388,279.927 370.146,390.571 402.313,392.904 398.315,302.439 "/>
<polygon opacity="0.6" fill="#EE9062" enable-background="new    " points="399.667,393.167 374.091,290.159 398.648,302.439 
	402.896,392.292 "/>
<path fill="#7C2117" d="M539.12,151.45"/>
<path fill="#551413" d="M447.51,166.348l-2.597-8.722c0,0,18.33-23.707,37.693-20.141c19.363,3.567,32.815,21.861,32.815,21.861
	l6.637-3.153l-4.122,10.513C517.933,166.707,480.309,144.462,447.51,166.348z"/>
<ellipse transform="matrix(-0.1736 0.9848 -0.9848 -0.1736 805.107 -167.4747)" fill="#070707" cx="472.821" cy="254.061" rx="7.83" ry="32.663"/>
<path fill="#EB8F63" d="M329.96,233.771c4.479,8.398,23.979,34.59,40.521,34.073c11.261-0.352,18.849-11.479,22.772-19.19
	C370.184,251.32,340.827,238.88,329.96,233.771z"/>
<g>
	<path fill="#7C2117" d="M334.251,277.971"/>
	<path fill="#7C2117" d="M337.728,276.041c0.043-0.001,0.084-0.006,0.127-0.006C337.855,276.034,337.803,276.037,337.728,276.041z"
		/>
</g>
<path fill="#7C2117" d="M308.47,291.154"/>
<path fill="#7C2117" d="M329.711,285.529"/>
<path fill="#D77B48" d="M258.212,223.702c4.218,6.26,7.854,13.908,10.263,23.257l3.965-1.017
	c-11.789-45.773-51.706-53.281-52.108-53.352l-0.706,4.034c0.269,0.048,19.67,3.701,34.682,21.847
	c-12.417,7.976,0.46,27.297,0.46,27.297C246.465,230.264,254.784,225.098,258.212,223.702z"/>
<path opacity="0.3" fill="#EB8F63" enable-background="new    " d="M466.5,350.364c-13.455,5.382-67.762-16.891-74.833-19.839
	l99.313,60.879c11.389-27.468,18.18-85.627,19.069-93.581c0.833-3.082,1.46-5.414,1.451-5.419
	C511.5,292.404,480.901,344.604,466.5,350.364z"/>
<path fill="#7C2117" d="M564.161,288.724l-20.679-4.344h-0.001l-18.589-3.905l-7.261-1.65l-0.182,0.031l-81.988-18.391
	c0,0-60.84,38.7-85.14,39.06c-15.474,0.229-17.951-6.546-17.713-11.499c0.824,0.404,1.748,0.637,2.728,0.637
	c3.43,0,6.21-2.78,6.21-6.21c0-3.153-2.35-5.758-5.395-6.157l-0.247-0.03c-6.239-0.591-18.61,5.482-10.244,27.939
	c10.184,27.335,47.488,35.158,65.204,33.073c40.745-1.622,118.846-41.533,118.846-41.533s-2.377,24.658-3.622,29.98
	c21.961,1.544,54.772-13.058,54.772-13.058C576.281,304.389,564.161,288.724,564.161,288.724z"/>
<path opacity="0.53" fill="#551413" enable-background="new    " d="M564.161,288.724l-20.679-4.344h-0.001l-18.589-3.905
	l-7.261-1.65l-0.182,0.031l-26.383-5.918c-5.79,6.167-33.35,32.695-90.615,46.477c-62.344,15.004-75.859-30.213-76.882-34.028
	c-1.263,4.323-1.034,10.426,2.092,18.818c10.184,27.335,47.488,35.158,65.204,33.073c40.745-1.622,118.846-41.533,118.846-41.533
	s-2.377,24.658-3.622,29.98c21.961,1.544,54.772-13.058,54.772-13.058C576.281,304.389,564.161,288.724,564.161,288.724z"/>
<path fill="#7C2117" d="M297.419,226.636c0,0-1.717-11.313-0.995-24.456c3.691-67.227-32.08-91.691-32.08-91.691
	c-42.531-6.233-45.857,48.113-44.353,56.006c0.102,0.537,0.424,1.201,0.921,1.966c5.221,0.784,32.103,5.763,44.101,26.516
	c13.32,23.04,29.52,66.24,29.52,66.24s-0.137,0.33-0.369,0.888l21.519,15.132C318.922,246.996,297.419,226.636,297.419,226.636z"/>
<path fill="#551413" d="M233.035,133.158c0,0,10.025-17.124,19.212-16.288s29.233,20.045,24.64,65.569
	C276.887,182.438,263.522,134.41,233.035,133.158z"/>
<path opacity="0.5" fill="#EB8F63" enable-background="new    " d="M294.892,127.116l-9.18-15.66c0,0,47.52-41.58,93.96-17.28
	s98.82,29.16,119.34,27.54c0,0-21.06,15.66-58.32,4.86s-64.8-30.24-85.32-27.54C334.853,101.736,317.573,108.216,294.892,127.116z"
	/>
<path opacity="0.5" fill="#EB8F63" enable-background="new    " d="M378.592,83.916c0,0,79.92,26.46,99.36,22.14l12.96,9.72
	C490.913,115.776,440.693,123.876,378.592,83.916z"/>
<path fill="#3B3B3B" d="M465.313,83.071c0,0,15.333-36-34-55.333S313.979,1.071,290.646,10.404s-64.666,48.667-19.333,73.333
	c0,0,3,3.667,8.5-4.167s90.833-39.167,182.833,4.833"/>
<path opacity="0.5" fill="#1A1A18" enable-background="new    " d="M285.313,55.404c-18.892-9.677-9.38-25.469-2.527-41.096
	c-23.227,13.565-52.026,47.364-11.473,69.429c0,0,3,3.667,8.5-4.167s90.833-39.167,182.833,4.833l2.667-1.332
	c0,0,1.265-2.977,1.899-7.673C380.646,26.404,285.313,55.404,285.313,55.404z"/>
<path fill="#1A1A1A" d="M277.313,66.071l2.5,13.5c0,0,102-27,182,15.5l5.399-19.673C467.211,75.398,409.313,35.737,277.313,66.071z"
	/>
<g>
	<path fill="#F59964" d="M441.698,199.185c0,0,8.851-30.856,39.491-29.589c0,0,27.745-0.792,25.022,29.751L441.698,199.185z"/>
	<path fill="#F9F7F5" d="M461.637,182.734c0,0,27.678-3.825,44.511,18.008c0,0-23.169,21.466-61.553,1.921"/>
	<path fill="#13100E" d="M461.637,182.734c0,0,11.726-0.957,13.219,18.144l-30.261,1.785
		C444.595,202.663,442.197,191.028,461.637,182.734z"/>
	<circle fill="#F9F7F5" cx="463.451" cy="189.214" r="1.426"/>
</g>
<g>
	<path fill="#551413" d="M331.507,161.088l4.677-18.709l11.361,3.342c0,0,38.755-24.055,52.12-19.378
		c13.365,4.675,14.701,26.728,16.038,32.74C415.703,159.083,374.272,133.691,331.507,161.088z"/>
	<path fill="#F59964" d="M338.358,189.323c0,0,8.686-32.575,38.756-31.24c0,0,27.229-0.833,24.558,31.407L338.358,189.323z"/>
	<path fill="#F9F7F5" d="M362.781,171.532c0,0,23.747-3.212,38.89,17.958c0,0-17.711,32.539-51.284,19.542"/>
	<path fill="#13100E" d="M362.781,171.532c-23.328,5.184-22.291,23.155-22.291,23.155l0.469-0.051
		c0.416,3.715,2.212,10.272,9.428,14.396c0,0,14.534-1.502,22.218-17.874C377.073,173.806,362.781,171.532,362.781,171.532z"/>
	<circle fill="#F9F7F5" cx="357.315" cy="184.984" r="1.426"/>
</g>
<path fill="#FAB56E" d="M433.66,200.164c0,0,105.84-13.68,161.28,49.68l-22.32,10.08l-111.6-14.4c0,0-31.68-9.36-34.56-10.08"/>
<g>
	<path fill="#EB8F63" d="M523.253,279.807L628.6,302.944c-3.751-14.762-10.544-27.539-18.819-38.489l0.279-0.031
		c-30.24-40.32-75.42-53.82-75.42-53.82s0.583,0.472,1.617,1.331c10.662,6.669,57.299,36.975,56.343,56.269
		C591.75,285.359,543.894,282.191,523.253,279.807z"/>
	<path fill="#EB8F63" d="M513.041,277.564l0.627,0.138c-0.005-0.019-0.009-0.039-0.014-0.058
		C513.26,277.594,513.041,277.564,513.041,277.564z"/>
</g>
<path fill="#EB8F63" d="M425.56,253.264c0,0,0-21.6,31.32-17.28C456.88,235.984,415.841,223.024,425.56,253.264z"/>
<path fill="#51609E" d="M327,675.555c-0.866,4.164-0.673,10.79,0,15.167c1.136,7.381,3.276,14.225,6.207,20.567
	c4.137,1.318,63.126,25.878,141.368-13.98c9.88-5.589,43.425-22.809,66.526-61.325c-3.541-19.241-7.824-39.409-11.652-59.432
	c-14.625-76.5-58.5-172.125-69.75-186.75s-29.25-7.875-29.25-7.875c32.625,15.75,38.25,87.75,7.875,93.375
	s-92.491-94.413-92.491-94.413l-16.667-0.667c54,121.5,11.283,160.33-13.467,164.83c-6.108,1.111-11.031-1.988-15.054-7.331
	c4.379,12.259,9.447,27.893,14.042,44.449C314.687,582.17,331.167,651.222,327,675.555z"/>
<polygon opacity="0.2" fill="#142551" enable-background="new    " points="326.333,681.833 328.333,671.833 368.5,718.125 
	343.333,714 "/>
<path fill="#51609E" d="M348.25,715l-23.75-38.5c-11-1.5-30,11-30,11l10,13.5c0,0,22.625,10.75,43.25,14S348.25,715,348.25,715z"/>
<path opacity="0.2" fill="#142551" enable-background="new    " d="M319,559.833c0,0,18.667-1.333,23.333-10.667l20.667,150
	L339.667,676.5C339.667,676.5,326.333,582.5,319,559.833z"/>
<g>
	<g opacity="0.2">
		<path fill="#142551" d="M364.925,571.453c0.278-2.957,0.731-6.064,1.358-9.323c0.626-3.258,1.373-6.625,2.239-10.099l0.022-0.061
			c0.188-0.532,0.373-1.147,0.552-1.844c0.179-0.697,0.32-1.42,0.424-2.166c0.104-0.746,0.17-1.466,0.197-2.16
			c0.028-0.694-0.016-1.302-0.128-1.826c-0.21-1.228-0.713-2.051-1.508-2.472s-1.693-0.556-2.693-0.403
			c-1,0.152-2.006,0.504-3.02,1.054c-1.014,0.551-1.871,1.163-2.572,1.836c-1.444,1.47-2.927,3.128-4.447,4.974
			c-1.52,1.847-2.912,3.785-4.175,5.814c-1.264,2.029-2.324,4.109-3.184,6.236c-0.859,2.128-1.376,4.186-1.554,6.175
			c-0.086,0.892,0.104,1.652,0.574,2.279c0.469,0.629,0.992,1.103,1.57,1.422c0.577,0.32,1.11,0.475,1.6,0.464
			c0.487-0.011,0.695-0.203,0.619-0.576c-0.134-0.854-0.052-1.932,0.25-3.232c0.301-1.298,0.74-2.7,1.32-4.2
			c0.578-1.5,1.261-3.05,2.05-4.65c0.787-1.6,1.61-3.14,2.472-4.621c0.86-1.481,1.715-2.849,2.564-4.104
			c0.85-1.254,1.632-2.273,2.348-3.056c0.716-0.782,1.325-1.294,1.824-1.531c0.499-0.238,0.833-0.072,1.001,0.493
			c0.128,0.415,0.179,0.877,0.148,1.384c-0.031,0.509-0.085,1.019-0.163,1.532c-0.079,0.515-0.168,1.007-0.266,1.478
			c-0.098,0.473-0.172,0.872-0.22,1.202c-0.472,2.3-0.938,4.624-1.404,6.971c-0.466,2.348-0.895,4.645-1.29,6.892
			c-0.395,2.246-0.715,4.415-0.962,6.506c-0.247,2.092-0.391,4.024-0.433,5.795c-0.042,1.772,0.023,3.358,0.196,4.756
			c0.172,1.398,0.51,2.521,1.016,3.37c0.319,0.528,0.815,1.033,1.486,1.513c0.671,0.48,1.375,0.782,2.116,0.907
			c0.41,0.077,0.706,0.106,0.886,0.089c0.179-0.017,0.283-0.084,0.313-0.2c0.029-0.116,0.016-0.271-0.042-0.464
			c-0.059-0.193-0.119-0.428-0.182-0.704c-0.617-2.156-0.99-4.53-1.118-7.124C364.571,577.184,364.647,574.41,364.925,571.453z"/>
		<path fill="#142551" d="M488.797,594.195c-25.306-12.779-82.768,28.477-89.168,33.172c-0.001,0.251,0.206,0.449,0.815,0.491
			c1.974,0.139,1.045,0.401,2.248,0.578c1.201,0.178,4.327-1.446,5.718-1.301c1.391,0.145-1.718,1.864-1.718,1.864
			s1.86-0.053,3.394-0.646c5.872-2.952,25.109-16.897,46.165-27.384c21.7-10.808,31.561-5.746,32.264-5.356
			c0.028,0.016,0.041,0.023,0.041,0.023c0.859,0.493,1.096-0.286,1.096-0.286c0.185-0.52-0.306-0.869-0.306-0.869
			C489.161,594.384,488.98,594.288,488.797,594.195z"/>
		<path fill="#142551" d="M445.961,534.114l0.007-0.002c-0.047-0.137-0.109-0.246-0.179-0.343c-0.017-0.028-0.029-0.058-0.046-0.085
			c-0.001-0.001-0.002-0.001-0.004-0.002c-0.036-0.048-0.073-0.078-0.113-0.1c-0.383-0.348-0.9-0.343-1.069-0.317
			c-0.232,0.035-0.119,0.112-0.294,0.163c-0.175,0.052-0.5-0.041-0.818,0.028c-0.318,0.07-0.41,0.304-0.467,0.432
			c-0.056,0.128-0.12,0.106-0.512,0.214c-0.391,0.108-0.254,0.582-0.43,0.742c-0.174,0.161-0.286,0.277-0.286,0.277
			s-0.142,2.686,0.268,3.996c-0.344-0.354-0.474-0.793-0.521-1.049c-0.109-0.772,0.002-1.616,0.08-2.059
			c0.1-0.392-0.056-0.562-0.056-0.562c-0.056,0.103-0.11,0.216-0.162,0.338c-0.052,0.124-0.085,0.229-0.101,0.322
			c-0.679,1.843-0.344,3.264,0.047,4.126c0.118,0.377,0.311,0.69,0.58,0.94l-0.164,0.493c-0.102,0.378-0.198,0.702-0.287,0.966
			c-0.104,0.311-0.199,0.619-0.282,0.924c-0.085,0.306-0.169,0.61-0.252,0.916c-0.053,0.191-0.106,0.415-0.158,0.665l-0.012,0.01
			c0,0-3.038,11.555-8.767,17.598l-0.013-0.074c-0.635-3.985,0.672-9.878,0.672-9.878c0.112-0.919,0.235-1.781,0.368-2.586
			c0.247-1.481,0.497-2.911,0.755-4.288c0.257-1.378,0.536-2.783,0.841-4.217c0.304-1.434,0.594-3.06,0.87-4.877
			c0,0,1.358-0.412,1.541-0.894c0.008-0.02,0.011-0.035,0.018-0.053l9.355-3.878c0,0,0.968-0.613,0.641-1.15
			c0.018-0.035-0.004-0.062-0.065-0.082c-0.044-0.05-0.096-0.1-0.168-0.146c-0.115-0.096-0.252-0.119-0.412-0.072
			c-0.158,0.048-0.343,0.083-0.553,0.102c-1.346,0.276-2.51,0.584-3.492,0.923c-0.98,0.34-2.054,0.727-3.222,1.165l-3.443,1.297
			c0.143-0.823,0.312-1.622,0.512-2.396c0.193-0.746,0.32-1.504,0.386-2.27c0.002-0.03,0.005-0.06,0.007-0.091
			c0.34-2.376-2.03-2.035-2.815-2.024c-0.785,0.011-1.294,0.792-1.294,0.792c-0.048,0.058-0.104,0.119-0.173,0.181
			c-0.126,0.731-0.246,1.374-0.362,1.928c-0.114,0.554-0.235,1.088-0.361,1.603c-0.127,0.515-0.248,1.05-0.362,1.603
			c-0.112,0.54-0.253,1.152-0.426,1.834c-1.142,0.547-7.496,3.592-7.789,3.715c-0.29,0.122-0.388,0.38-0.404,0.431
			c-0.226,0.108-0.539,0.258-0.596,0.284c-0.092,0.041-0.106,0.13-0.106,0.13c-0.362,1.124,0.721,1.282,0.721,1.282l2.629-1.093
			l1.122-0.502c2.066-0.906,4.264-1.876,4.264-1.876l-2.556,13.24c-0.11,0.073-0.228,0.152-0.349,0.233
			c-0.03,0.001-0.061,0.005-0.096,0.016c0.006,0.02,0.006,0.031,0.006,0.044c-1.463,0.974-3.556,2.366-3.556,2.366
			c-0.332-1.48-2.09-6.787-2.09-6.787c-0.184-0.535-0.32-1.061-0.409-1.576c0,0-0.48-1.909-0.742-2.872
			c-0.264-0.971-3.436,0.896-3.436,0.896c-0.335,0.313,0.202,2.905,0.278,3.266c-0.224,0.797-0.454,1.576-0.689,2.333
			c0,0-2.47,8.743-5.636,15.151l0.019-0.108c-1.436,3.079-4.354,5.802-4.354,5.802c0.028-0.181,0.032-0.37,0.014-0.559
			c-0.018-0.191-0.046-0.41-0.082-0.661l-0.25-2.796l0.004-2.42c0.102-3.228-0.04-10.452-0.166-10.952
			c-0.126-0.5-0.624-0.434-0.624-0.434c-0.029-0.008-0.058-0.019-0.085-0.034c-0.168-0.251-0.341-0.478-0.515-0.684
			c-0.174-0.204-0.42-0.256-0.736-0.155c0.038-0.013-0.019-0.059-0.176-0.139c-0.145,0.09-0.289,0.115-0.433,0.073
			c-0.144-0.04-0.276-0.041-0.394-0.004c-0.043,0.013-0.091,0.01-0.125,0.032c-0.127,0.088-0.364,0.19-0.758,0.254
			c-0.314,0.052-0.341,0.211-0.413,0.421c0,0-0.204,0.69-0.227,1.394c-0.011,0.348-0.24,1.129-0.468,1.829l-5.788,14.382
			c0.002-0.745,0.008-1.462,0.02-2.144c0.014-0.964,0.054-1.924,0.115-2.88c0.061-0.956,0.175-1.954,0.343-2.989
			c0.151-0.934,0.366-1.968,0.648-3.104c0.11-0.608,0.318-2.069,0.397-2.635h0.014c0.209-1.315-0.464-1.685-0.792-1.854
			s-1.264-0.054-1.618-0.301c-0.353-0.247-0.92-0.016-0.92-0.016c-2.105,0.065-1.878,2.353-1.878,2.353s0.013,1.874-0.104,3.425
			c-0.119,0.684-0.244,1.609-0.379,2.778c-0.136,1.18-0.264,2.377-0.388,3.59c0,0-2.694,9.1-6.883,13.292l-0.048-0.05
			c-0.263-1.31-0.352-2.528-0.265-3.65c0.061-0.806,0.11-1.636,0.148-2.48c0.427-8.189,3.168-24.661,3.168-24.661
			c0.131-1.049,0.258-2.042,0.384-2.982c0.125-0.936,0.187-1.604,0.186-1.997c0.094-0.118,0.125-0.248,0.098-0.394
			c-0.025-0.144,0.007-0.276,0.098-0.395c-0.04-0.118-0.108-0.227-0.208-0.324c-0.097-0.098-0.199-0.173-0.304-0.227
			c-0.106-0.053-0.119-0.124-0.04-0.216c0.078-0.092,0.085-0.172,0.02-0.236c-0.236-0.316-0.444-0.509-0.619-0.581
			c-0.178-0.072-0.336-0.085-0.473-0.038c-0.139,0.046-0.246,0.114-0.324,0.206s-0.139,0.145-0.176,0.158
			c-0.119,0.17-0.295,0.229-0.532,0.176s-0.486-0.143-0.748-0.276c-0.21,0.028-0.302,0.112-0.275,0.256
			c0.026,0.145-0.04,0.244-0.197,0.295c-1.098,4.16-4.168,23.392-5.125,29.459c-1.91,10.781-5.869,10.586-5.869,10.586
			c-0.133-0.932-0.17-1.813-0.113-2.642c0.078-1.121,0.132-2.28,0.166-3.474l0.037-0.275l0.049-0.905
			c0.102-1.766,0.22-3.233,0.35-4.388c0.137-1.207,0.288-2.344,0.451-3.408c0.163-1.063,0.343-2.177,0.54-3.337
			c0.196-1.163,0.4-2.656,0.61-4.481c0.127-0.656,0.2-1.086,0.218-1.29c0.018-0.204,0.034-0.416,0.046-0.641
			c0.036-0.406,0.128-1.072,0.272-1.998c0.145-0.925,0.28-1.913,0.403-2.964c0.124-1.05,0.246-2.045,0.366-2.983
			c0.118-0.938,0.175-1.606,0.174-1.999c0.092-0.118,0.124-0.25,0.096-0.394c-0.026-0.144,0.006-0.274,0.096-0.394
			c-0.041-0.118-0.109-0.224-0.209-0.323c-0.098-0.098-0.203-0.173-0.306-0.226c-0.106-0.05-0.12-0.122-0.041-0.215
			c0.078-0.092,0.084-0.17,0.018-0.236c-0.239-0.313-0.446-0.505-0.623-0.576c-0.179-0.072-0.335-0.084-0.473-0.037
			c-0.138,0.047-0.246,0.118-0.324,0.209c-0.078,0.092-0.137,0.146-0.175,0.158c-0.118,0.173-0.294,0.232-0.53,0.181
			c-0.238-0.052-0.486-0.14-0.75-0.271c-0.21,0.029-0.3,0.114-0.272,0.258c0.026,0.145-0.04,0.244-0.194,0.296
			c0.026,0.08,0.026,0.145,0.001,0.197l-0.353,0.317l-4.181,29.906c0,0-0.548,4.469,0.215,7.061
			c0.091,0.386,0.811,3.017,3.524,3.221c0,0,0.372,0.114,0.978,0.091l0.001,0.006c0,0,1.684,0.28,4.392-2.246l-1.154,9.876
			c0,0-1.595,0.812-3.27,1.686c-0.26,0.131-0.515,0.266-0.768,0.402c-1.508,0.792-2.892,1.54-3.023,1.684
			c-0.299,0.326-0.642,0.684-0.39,1.16c0,0-0.079,0.736,0.734,0.466l6.445-3.082l-0.557,4.759l-0.035,0.299
			c0,0-2.087,14.728,1.163,17.929c0,0,2.017,1.9,4.421-0.896c0.439-0.575,0.844-1.199,1.214-1.873
			c0.341-0.619,0.662-1.21,0.964-1.771c0,0,0.29,3.146,3.451,2.629l0.581-3.822c0.032-0.169,0.062-0.349,0.091-0.538
			c0.064-0.42,0.133-0.852,0.203-1.284c0.928-4.258,3.544-9.713,4.525-11.671c-0.168,1.094-0.722,4.966-0.598,7.582
			c-0.005,0.12-0.008,0.245-0.011,0.372c-0.006,0.252-0.004,0.493,0.002,0.721c0,0.007,0,0.012,0,0.019
			c-0.01,0.294-0.014,0.575-0.016,0.836c-0.014,0.151-0.023,0.305-0.023,0.461c0,0-0.112,4.439,2.225,4.757
			c0,0,1.411,0.278,3.091-1.71h0.001c0,0,0.677-0.75,1.352-1.964l2.461-3.997c0.06,0.155,0.136,0.336,0.223,0.533
			c0.01,0.022,0.018,0.043,0.029,0.064c0.356,0.784,0.91,1.757,1.554,2.051c0.019,0.008,0.035,0.011,0.054,0.017
			c0.325,0.205,0.676,0.336,1.056,0.379c0.126,0.018,0.258,0.032,0.395,0.044c1.8,0.155,3.178-0.14,3.996-0.401
			c0.119-0.036,0.236-0.076,0.354-0.121c0.317-0.119,0.487-0.209,0.487-0.209c0.496-0.218,0.905-0.496,1.229-0.83
			c3.793-3.103,6.56-10.535,6.56-10.535c-1.937,4.247-3.824,6.808-5.054,8.202c0.284-0.36,0.56-0.733,0.824-1.129
			c0.366-0.551,0.686-1.096,0.972-1.637c0.528-0.958,1.022-1.979,1.468-2.977c0.851-1.727,1.462-3.276,1.892-4.573l0.068-0.157
			l-0.008-0.025c0.062-0.193,0.121-0.38,0.176-0.562c0.004-0.001,0.005-0.004,0.008-0.005c0.001-0.014,0.005-0.03,0.006-0.046
			c0.095-0.313,0.178-0.608,0.251-0.883c0.032-0.086,0.064-0.172,0.095-0.258c0.014-0.062,0.013-0.116,0.016-0.174
			c0.336-1.354,0.407-2.128,0.407-2.128l-0.001,0.001c0.035-0.181,0.072-0.364,0.102-0.545c0.1-0.605,0.163-1.247,0.185-1.931
			c-0.13,0.042-0.23,0.191-0.306,0.449c-0.074,0.257-0.161,0.401-0.256,0.432c-0.042-0.019-0.041-0.146,0.008-0.377
			c0.048-0.229,0.049-0.354,0.008-0.377c-0.066,0.022-0.11-0.008-0.137-0.088s-0.044-0.19-0.055-0.329
			c-0.012-0.138-0.023-0.277-0.032-0.416c-0.01-0.138-0.011-0.245,0.001-0.322c-0.042,0.086-0.104,0.222-0.184,0.41
			c-0.08,0.186-0.146,0.307-0.2,0.36c-0.023,0.149-0.001,0.293,0.062,0.433c0.064,0.139,0.026,0.268-0.113,0.385
			c-0.074-0.011-0.13-0.011-0.16,0c-0.034,0.011-0.071,0.005-0.113-0.016c-0.011,0.182-0.025,0.355-0.04,0.521
			c-0.018,0.167-0.084,0.341-0.202,0.522c-0.022-0.278-0.018-0.51,0.008-0.698c0.026-0.186,0.019-0.398-0.023-0.634
			c0.041-0.085,0.076-0.175,0.096-0.271c0.022-0.096,0.004-0.172-0.049-0.224l-0.192,0.064l-0.064,0.13
			c-0.034,0.118-0.038,0.316-0.017,0.593c-0.011,0.076-0.048,0.124-0.112,0.145c-0.066,0.022-0.118,0.074-0.16,0.16
			c-0.055,0.055-0.073,0.132-0.056,0.233c0.014,0.102,0.011,0.175-0.008,0.216c-0.044,0.088-0.088,0.172-0.128,0.257
			c-0.044,0.088-0.076,0.204-0.096,0.353c-0.066,0.127-0.091,0.289-0.08,0.48c0.008,0.163-0.052,0.253-0.18,0.271
			c0,0-4.104,12.27-9.517,15.982c-1.294-1.02-1.542-3.208-1.523-4.866c0.012-0.227,0.022-0.484,0.03-0.773
			c0.001-0.041,0.004-0.076,0.005-0.115c0.023-0.337,0.052-0.619,0.078-0.832c0.628,0.1,1.507,0.194,1.89,0.024
			c0.001,0,0.002-0.001,0.002-0.001c1.963-0.476,3.132-4.54,3.132-4.54l0.437-1.802c0.076-0.308,0.128-0.629,0.161-0.961
			c0.031-0.331,0.054-0.642,0.066-0.931c0.01-0.181,0.029-0.364,0.055-0.552c0.026-0.186,0.041-0.388,0.041-0.602
			c-0.019-0.704-0.121-1.41-0.302-2.116c-0.154-0.6-0.356-1.108-0.704-1.429c-0.486-0.449-1.362-0.292-1.362-0.292
			c-1.598,0.04-2.776,1.016-3.564,2.012c-1.59,2.06-3.139,8.1-3.139,8.1c-0.023,0.107-0.046,0.215-0.066,0.323
			c0,0-2.639,8.128-5.896,12.215c0.042-0.191,0.058-0.384,0.046-0.577c-0.004-0.066-0.006-0.131-0.007-0.194l1.357-12.745
			c0.26-3.092-0.638-3.653-1.622-3.42v-0.001c-0.002,0.001-0.005,0.002-0.008,0.004c-0.298,0.072-0.602,0.215-0.886,0.383
			c-0.809,0.428-1.546,1.028-2.143,1.596c-2.177,1.86-3.838,5.551-3.838,5.551l-0.046,0.098c0.232-1.432,0.434-2.866,0.611-4.298
			c0.041-0.329,0.084-0.664,0.126-0.994l0.65-4.672c0.017-0.061,0.035-0.127,0.056-0.205c-0.002-0.029-0.004-0.066-0.004-0.104
			c0.739-0.295,1.297-0.556,1.328-0.677c0.1-0.376-0.391-0.424-0.391-0.424s1.367-0.688,1.254-1.109
			c-0.048-0.182-0.132-0.286-0.25-0.362l-0.047-0.036c-0.212-0.149-0.656,0.023-0.656,0.023l-0.953,0.349
			c0.079-0.481,0.157-0.986,0.233-1.525c0.052-0.366,0.097-0.724,0.14-1.075l0.246-1.424c0.011-0.442-0.451-0.47-0.574-0.47
			c-0.116-0.084-0.155-0.241-0.379-0.461c-0.293-0.287-0.449-0.107-0.637-0.067c-0.188,0.04-0.35-0.232-0.76-0.149
			s-0.829,0.473-0.908,0.74c-0.08,0.268-0.004,0.5-0.311,0.748c-0.253,0.203-0.689,3.594-0.871,4.82l-0.01,0.043
			c-0.004,0.026-0.006,0.05-0.008,0.076c-0.01,0.062-0.018,0.115-0.025,0.161l-5.044,2.046l1.284-9.199
			c0.505,0.041,2.232,0.116,3.648-0.583c0.118-0.049,0.212-0.098,0.278-0.148c0.182-0.106,0.328-0.198,0.433-0.276
			c0.104-0.078,0.211-0.158,0.316-0.236c0.091-0.119,0.19-0.216,0.295-0.295c0.104-0.079,0.203-0.178,0.294-0.294
			c0.011-0.013,0.019-0.026,0.03-0.04c1.373-1.548,3.038-5.014,3.832-6.757c0.089,0.341,0.184,0.668,0.284,0.982
			c0.205,0.502,0.47,0.982,0.793,1.444c0,0,2.61,3.078,5.23-1.099c2.099-3.346,4.367-12.727,4.367-12.727
			c0.067-0.194,0.155-0.394,0.26-0.6c0.024,0.21,0.042,0.4,0.054,0.57c0.012,0.172,0.01,0.368-0.005,0.592
			c0.001,1.22,0.016,2.315,0.047,3.287c0.029,0.971,0.065,2.062,0.106,3.268c0.008,0.164,0.024,0.334,0.048,0.508
			c0,0,0.504,7.054,4.852,4.8c0.874-0.352,1.966-1.056,3.138-2.44c1.471-1.735,2.286-3.568,2.286-3.568s2.752-6.239,3.972-9.466
			c0.004-0.008,0.007-0.016,0.011-0.024c0.187-0.449,0.371-0.94,0.552-1.475c0.053-0.156,0.1-0.304,0.149-0.455l2.083-5.624
			c0.294,0.562,0.852,1.871,1.266,4.284c0.004,0.025,0.008,0.054,0.013,0.082c-0.41,0.437-0.852,0.94-1.314,1.512
			c-0.817,0.952-1.571,2.065-2.122,2.942c-0.12,0.186-0.241,0.377-0.362,0.572l0.04-0.047c-0.355,0.59-0.569,0.983-0.569,0.983
			c-0.581,1.076-1.013,2.467-1.286,3.517c-0.008,0.022-0.017,0.042-0.026,0.062l-0.05,0.206l0.026,0.08
			c0.566-1.784,2.111-5.507,5.852-9.004c-0.94,1.031-1.806,2.125-2.597,3.282c-0.792,1.158-1.495,2.354-2.112,3.588
			c-0.012,0.025-0.024,0.052-0.036,0.077c-1.492,3.356-1.614,5.336-1.378,6.469c0.233,1.139,0.895,1.434,0.895,1.434
			c-0.504-0.776-0.583-1.454-0.583-1.454c-0.258-1.151-0.036-2.063-0.023-2.113c-0.03,0.205-0.066,0.523-0.064,0.907
			c0,0-0.001,1.912,1.051,2.737c3.114,2.371,6.154-1.477,6.154-1.477c4.026-5.557,2.432-12.263,2.432-12.263l-0.116-1.236
			l3.082-2.282c0,0-0.013,0.167-0.034,0.45c-0.042,0.566-0.083,1.151-0.121,1.77c-0.004,0.131-0.002,0.265-0.004,0.398
			c-0.086,1.919-0.127,4.369,0.143,5.461c0.118,0.474,0.257,0.974,0.425,1.466c0.19,0.656,0.659,1.934,1.57,2.678
			c0.307,0.268,0.654,0.466,1.05,0.56l-0.007-0.047c0.113,0.024,0.226,0.046,0.347,0.053c0,0,2.543,0.731,5.587-4.082
			c0.042-0.068,0.084-0.137,0.125-0.206c0.49-0.818,0.949-1.595,1.378-2.332c0.982-1.532,2.02-3.744,3.001-6.121
			c0.028-0.048,0.048-0.091,0.054-0.126c-0.001,0-0.001-0.001-0.001,0c2.234-5.432,4.168-11.683,4.48-12.704
			c0.386,0.16,0.86,0.198,1.433,0.103c0.7-0.115,1.306-0.336,1.817-0.658c-0.185,0.702-0.35,1.247-0.497,1.634
			c-0.145,0.388-0.293,0.744-0.436,1.066c-0.144,0.324-0.287,0.689-0.427,1.096c-0.14,0.408-0.278,0.977-0.412,1.706
			c-0.068,0.064-0.097,0.148-0.089,0.253c0.01,0.107-0.016,0.21-0.071,0.312c-0.196,0.964-0.386,1.873-0.57,2.724
			c-0.185,0.854-0.342,1.72-0.476,2.602c-0.121,0.806-0.204,1.643-0.256,2.502c-0.115,1.088-0.232,3.4,0.535,5.365
			c0.098,0.286,0.226,0.6,0.386,0.905c0.001,0.002,0.002,0.005,0.002,0.007c0,0,0.001,0.001,0.002,0.001
			c0.244,0.456,0.566,0.883,0.982,1.153c0.005,0.004,0.008,0.007,0.012,0.011l0.001-0.002c0.083,0.053,0.167,0.101,0.258,0.14
			c0,0,0.874,0.424,2.092-0.152c0.097-0.043,0.205-0.097,0.337-0.179c0.202-0.122,0.408-0.27,0.618-0.439
			c0.118-0.094,0.242-0.172,0.344-0.27c3.668-3.516,6.032-8.17,6.032-8.17c0.025,0.248,2.267,3.84,4.871,3.118
			c2.604-0.722,4.31-4.433,4.31-4.433c0.284-0.682,0.593-1.367,0.918-2.059c0.326-0.69,0.598-1.346,0.816-1.966
			c0.06,0.577,0.133,1.177,0.214,1.787l-0.013,0.018c0,0,0.359,4.342,2.608,5.522c0,0,1.084,0.598,2.636-0.26
			c1.252-0.742,3.013-2.382,4.34-5.99l-3.125,18.928c-0.346-1.764-1.21-2.496-1.21-2.496c-1.618,13.613-10.223,19.859-10.223,19.859
			c-0.532,0.416-1.066,0.787-1.602,1.11c-0.463-0.425-0.844-0.997-1.121-1.724c-0.911-2.388-0.446-5.623-0.278-6.583
			c0.584,0.162,1.244,0.325,1.385,0.284c0,0,2.1,0.168,3.499-2.178c0.2-0.348,0.392-0.748,0.572-1.198
			c0.254-0.635,0.493-1.286,0.719-1.955l0.599-2.242c0.1-0.372,0.174-0.76,0.223-1.16c0.048-0.398,0.083-0.774,0.106-1.124
			c0.017-0.22,0.046-0.443,0.084-0.67c0.037-0.226,0.059-0.467,0.066-0.726c-0.005-0.822-0.058-1.655-0.283-2.471
			c-0.868-3.132-3.482-2.622-3.482-2.622c-3.121,0.319-7.097,9.433-7.097,9.433c-1.315,1.759-3.563,1.94-3.563,1.94
			c-2.059,0.023-2.711-1.614-2.875-2.182c-0.011-0.022-0.022-0.038-0.032-0.062c-0.45-1.087-0.235-3.253-0.102-4.254
			c-0.246-0.005-0.482,0.094-0.63,0.176c-0.071-0.02-0.15-0.079-0.385-0.151c-0.427-0.13-0.492,0.133-0.73,0.162
			c-0.238,0.029-0.162-0.137-0.533-0.298c-0.371-0.16-0.638,0.018-0.706,0.256c-0.067,0.238-0.271,0.155-0.271,0.155
			c-0.632-0.224-0.811-0.01-0.811-0.01l-0.058-0.001c-0.036,0.506-0.038,1.027-0.005,1.562c-0.032,1.222,0.572,3.049,0.743,3.535
			c-0.145,1.327-1.59,13.974-4.676,19.95c-0.012-0.029-0.024-0.059-0.036-0.088l0.012,0.029c-1.319-2.184-1.676-6.836-1.578-10.122
			c0.122-4.114-1.147-6.264-1.147-6.264c-0.25-0.277-0.436-0.425-0.436-0.425l-0.092,0.229c0,0-0.112-0.023-0.443-0.26
			c-0.331-0.238-0.678-0.206-1.17-0.17s-0.959,0.07-0.959,0.07s-0.305,0.569-0.665,0.892c-0.181,0.163-0.266,0.412-0.305,0.618
			c-0.025,0.07-0.031,0.122-0.031,0.122l0,0l0,0c-0.07,0.383-1.025,5.706-1.535,8.382c-0.06,0.256-0.121,0.512-0.181,0.767
			l-0.236,0.594l0.055-0.743c0.034-0.126,0.062-0.247,0.072-0.361c0.037-0.415,0.596-4.264,0.596-4.264
			c-0.41,1.69-1.687,6.773-2.342,8.657c-0.655,1.886-1.259,3.673-1.811,5.36c-0.593-1.768-0.143-4.753-0.143-4.753
			c0.67-4.79,1.686-14.684,1.686-14.684l0.053-1.968c-0.01-0.236-0.052-0.307-0.179-0.517c-0.131-0.217-0.146-0.143-0.455-0.162
			s-0.311-0.107-0.636-0.325s-0.307-0.139-0.672-0.151c-0.365-0.012-0.442-0.124-0.943-0.263c-0.5-0.14-0.619,0.214-1.129,0.196
			c-0.51-0.018-0.673,0.688-0.65,0.87c0.023,0.182,0.013,0.112-0.306,0.328c-0.233,0.157-0.229,0.672-0.194,1.045l-0.008-0.004
			c0,0-0.047,1.787-0.089,2.099c0,0,0.005,0,0.006,0c-0.004,0.032-0.011,0.066-0.014,0.098c-0.042,0.391-0.092,0.786-0.156,1.183
			l-0.27,1.709c0,0-0.782,5.513-1.105,10.546c0,0-0.397,5.842,0.055,7.271c0.234,1.339,0.935,3.419,3.028,4.067l0.011-0.005
			c0.389,0.121,2.276,0.558,4.025-1.634c0.018-0.024,0.036-0.048,0.052-0.071c0.718-1.176,1.916-4.032,1.916-4.032
			c0.253-0.664,0.491-1.334,0.714-2.012l1.487-4.412c0.424,1.48,2.117,6.403,6.03,6.888c2.82,0.504,4.477-3.756,5.102-5.791
			c0.425-1.133,1.363-5.732,1.363-5.732c0.618-3.496,1.166-8.099,1.316-9.317c0.391,0.365,2.365,1.898,6.361,0.174
			c0,0-1.914,6.264,0.556,11.081c0,0,0.532,1.114,1.421,1.616c0.547,0.282,3.116,1.426,6.48,0.028
			c3.796-1.578,6.275-5.752,6.275-5.752c1.198-1.541,0.99-1.891,0.99-1.891l-1.858,2.484c-0.142,0.169-0.281,0.33-0.418,0.485
			c1.558-1.915,3.456-5.441,4.376-7.225c-0.089,0.958-0.204,2.429-0.22,3.676c0,0-0.106,3.995,2.215,4.598
			c0.082,0.022,0.162,0.034,0.242,0.024c0.476-0.059,0.733-0.138,1.058-0.444c0.287-0.27,0.427-1.276,0.402-2.216
			c0,0,2.003-13.364,9.564-19.879c0,0,1.007,4.037,0.605,8.389c-1.886,0.719-3.436,1.632-4.702,2.629
			c1.795-1.973,3.841-3.125,3.841-3.125c-4.114,1.165-6.761,5.929-7.421,7.24c-0.612,1.102-0.958,2.142-1.082,2.989
			c-0.307,2.083,0.674,3.721,2.42,4.16c5.54,1.392,9.152-6.809,10.398-10.225c0.971,0.004,4.166,0.088,6.149,0.986
			c0,0-0.552-0.604-2.009-1.039c1.578,0.121,2.617,0.27,2.921,0.227c0.784-0.11-0.473-2.238-2.047-3.176
			c-0.192-0.114-0.509-0.2-0.914-0.263c-0.299-0.452-0.792-0.77-1.381-0.808c-0.71-0.047-1.402-0.078-2.082-0.102
			c0.148-3.148-0.29-5.929-0.29-5.929c-0.084-0.556-0.199-1.116-0.348-1.679c-0.008-0.026-0.016-0.052-0.024-0.078
			c-0.265-0.858-0.942-3.202-2.73-3.58c-1.788-0.377-3.808,0.988-3.808,0.988c-2.41,1.327-4.266,4.908-4.71,5.82l1.859-13.739
			c0.398,0.07,2.369,0.32,3.842-1.254l-0.002-0.001c0.043-0.042,0.08-0.085,0.109-0.133c0.599-0.67,1.157-1.403,1.679-2.203
			c0.47-0.721,0.911-1.405,1.328-2.062l0.002,0.001l0.029-0.048c0.035-0.055,0.073-0.113,0.107-0.168
			c0.011-0.019,0.014-0.034,0.018-0.048l1.158-1.987c0.01,0.217,0.062,0.428,0.156,0.635c0.22,0.802,0.886,2.579,2.572,3.136
			c1.246,0.235,2.467,0.257,3.433,0.211c0.493-0.02,2.104-0.108,3.188-0.422c0.455-0.138,0.854-0.318,1.213-0.532
			c0.361-0.205,0.719-0.454,1.068-0.725c4.31-3.068,7.295-9.253,8.485-12.066l-0.023-0.014c-1.088,2.444-2.4,4.528-3.708,6.242
			c0-0.004,0-0.006,0.001-0.011c-0.056,0.078-0.119,0.161-0.178,0.24c-2.126,2.737-4.204,4.507-5.221,5.298
			c0.198-0.162,0.408-0.341,0.637-0.552c0.978-0.824,1.897-1.775,2.752-2.862c0.32-0.407,0.614-0.812,0.893-1.218
			c0.874-1.219,1.778-2.741,2.418-3.869c0.223-0.379,0.45-0.79,0.676-1.218c0.121-0.226,0.192-0.358,0.192-0.358l-0.004-0.004
			c1.54-2.984,3.001-6.622,3.001-6.622c0.678-2.017,0.881-3.258,0.881-3.258c0.184-0.728,0.325-1.511,0.419-2.345
			c-0.161,0.041-0.3,0.212-0.418,0.52c-0.118,0.307-0.235,0.474-0.358,0.504c-0.049-0.031-0.035-0.184,0.048-0.461
			c0.082-0.277,0.097-0.43,0.047-0.46c-0.08,0.019-0.133-0.02-0.158-0.122c-0.024-0.098-0.037-0.236-0.035-0.407
			c0-0.172,0-0.341,0.002-0.514c0-0.17,0.011-0.302,0.032-0.392c-0.061,0.101-0.15,0.262-0.268,0.482
			c-0.116,0.221-0.21,0.361-0.281,0.421c-0.042,0.182-0.031,0.36,0.035,0.536c0.064,0.178,0.005,0.331-0.176,0.46
			c-0.091-0.019-0.155-0.026-0.194-0.016c-0.041,0.01-0.086,0-0.136-0.031c-0.032,0.222-0.065,0.432-0.102,0.632
			c-0.036,0.202-0.134,0.408-0.296,0.618c0.001-0.342,0.028-0.625,0.079-0.852c0.052-0.226,0.062-0.485,0.035-0.776
			c0.06-0.1,0.109-0.208,0.144-0.324c0.036-0.114,0.023-0.209-0.036-0.28l-0.241,0.06l-0.091,0.15
			c-0.052,0.142-0.077,0.382-0.078,0.724c-0.022,0.092-0.072,0.146-0.152,0.166c-0.08,0.019-0.15,0.079-0.211,0.18
			c-0.071,0.06-0.102,0.154-0.092,0.28c0.008,0.126-0.001,0.215-0.031,0.264c-0.061,0.101-0.121,0.202-0.182,0.301
			c-0.061,0.101-0.112,0.241-0.154,0.421c-0.09,0.15-0.139,0.344-0.145,0.58c-0.006,0.238-0.12,0.34-0.342,0.308
			c0,0-4.508,12.698-11.467,17.59c-0.589,0.414-1.178,0.776-1.768,1.086c-0.014-0.014-0.029-0.03-0.043-0.046l0.014,0.016
			c-2.79-1.7-2.041-5.376-1.372-7.37c0.45,0.064,1.169,0.113,1.972-0.031c3.238-0.421,5.014-5.746,5.014-5.746
			c0.006-0.014,0.012-0.03,0.018-0.044l0.736-2.231c0.122-0.371,0.22-0.757,0.293-1.159c0.072-0.402,0.128-0.779,0.172-1.132
			c0.031-0.222,0.072-0.444,0.125-0.671c0.049-0.226,0.086-0.47,0.109-0.732c0.044-0.865-0.01-1.738-0.161-2.62
			c-0.138-0.798-0.401-1.433-0.792-1.907c-4.356-2.832-7.751,4.031-7.751,4.031c-0.152,0.251-0.274,0.494-0.366,0.731
			s-0.214,0.479-0.366,0.73c-0.548,1.246-1.081,2.518-1.596,3.818c-0.514,1.3-0.92,2.648-1.219,4.044
			c-0.126,0.556-0.223,1.115-0.299,1.673c0,0-4.328,7.507-5.411,8.744c-3.607,4.124-1.937-3.14-1.937-3.14
			c0.028-0.197,0.054-0.398,0.078-0.604c0.004-0.001,0.011-0.004,0.011-0.004l0.913-6.008c0.04-0.203,0.078-0.413,0.119-0.608
			c0.304-1.47,0.611-2.89,0.92-4.255c0.31-1.366,0.644-2.759,1.004-4.182c0.36-1.421,0.713-3.034,1.061-4.838
			c0.014-0.006,0.031-0.012,0.046-0.019c0.421-0.122,2.112-0.628,2.616-0.998c0.576-0.426,6.682-2.707,7.363-2.935
			c0.562-0.188,1.506-0.632,1.739-1.232c0.004-0.002,0.014-0.005,0.016-0.006c0.025-0.04,0.172-0.668-0.289-0.732
			c-0.461-0.064-3.719,0.74-3.719,0.74l0.013,0.001c-0.248,0.065-0.49,0.132-0.719,0.202c-0.995,0.3-2.082,0.648-3.266,1.039
			l-3.491,1.163c0.174-0.817,0.376-1.608,0.605-2.375c0.229-0.767,0.392-1.549,0.486-2.344c0.1-0.112,0.14-0.239,0.125-0.385
			c-0.002-0.023-0.004-0.044-0.005-0.066c-0.416-1.4-1.736-1.818-2.725-1.729s-1.631,0.965-1.631,0.965
			c-0.155,0.726-0.299,1.363-0.436,1.913c-0.137,0.55-0.277,1.079-0.424,1.588c-0.146,0.51-0.287,1.039-0.424,1.588
			c-0.137,0.55-0.306,1.172-0.511,1.867l-0.052,0.023l-8.155,3.634c-0.358,0.188-0.277,0.551-0.325,0.686
			c-0.048,0.134-1.399,0.817-1.027,1.351c0.224,0.323,1.244,0.034,2.021-0.247l7.194-2.501l-3.305,15.145
			c0,0-0.888,2.759-1.938,4.752c-0.647,1.229-1.109,2.348-1.663,3.232c-0.007,0.012-0.016,0.024-0.023,0.036
			c-0.827,1.591-2.354,3.44-2.858,4.033c-0.403-1.321-0.545-5.578-0.545-5.578l-0.007,0.012c0.023-1.21,0.086-2.375,0.197-3.488
			c0.13-1.326,0.296-2.64,0.498-3.944c0.18-1.158,0.346-2.368,0.499-3.622c-0.006-0.037-0.008-0.082-0.004-0.142
			c0.115-1.223-1.132-2.909-2.034-3.571c-0.504-0.37-0.99-0.392-1.324-0.341c-0.386,0.037-0.665,0.133-0.862,0.256
			c-0.002-0.001-0.007,0.001-0.01-0.001c-0.198,0.104-0.311,0.257-0.378,0.414c-0.012,0.023-0.023,0.046-0.031,0.067
			c0,0.001,0,0.001-0.001,0.002c-0.094,0.236-0.065,0.438-0.065,0.438h0.005c0.004,0.096,0.014,0.162,0.014,0.162
			s0.002,0.02-0.126,0.157c-0.128,0.137-0.179,1.102-0.179,1.102l-0.024,0.094c-0.001,0.01,0,0.02-0.001,0.03
			c-0.012,0.061-0.028,0.109-0.044,0.151l-0.186,0.736c-0.001,0.006-0.002,0.011-0.004,0.016l-0.126,0.497l-0.002-0.002
			c-0.007,0.02-0.035,0.028-0.088,0.018c-0.328-0.326-0.672-0.593-1.031-0.809l0.007-0.005c-0.731-0.461-1.319-0.665-1.65-0.754
			c-0.036-0.011-0.072-0.018-0.108-0.026c-0.035-0.008-0.062-0.014-0.088-0.019c-4.609-0.911-7.147,12.324-7.147,12.324
			s-1.19,3.877-2.956,6.479c-1.934,3.275-3.688,5.156-4.142,5.621c-0.113-1.103-0.166-2.064-0.151-2.872
			c0.013-0.845,0.077-1.631,0.191-2.356c0.114-0.722,0.265-1.458,0.46-2.207c0.042-0.16,0.085-0.326,0.13-0.499
			c0,0,2.136-7.128,2.221-8.752c0.116-2.225-0.877-2.634-0.877-2.634c-0.731-0.157-1.616,0.24-1.964,0.418l-0.004-0.006
			c-2.784,1.648-4.492,1.434-4.492,1.434l-0.133-0.056c-0.024-0.018-0.047-0.038-0.061-0.06c-0.049-0.168-0.062-0.425-0.038-0.772
			c0,0,0.043-2.6,0.211-3.215c0.168-0.614-0.112-1.514-0.112-1.514 M499.309,525.363c0,0-0.611,5.93-3.43,9.26
			c-0.05-0.017-0.101-0.025-0.152-0.029C496.277,531.689,499.309,525.363,499.309,525.363z M403.94,550.848
			c0.078,0.041,0.163,0.068,0.256,0.082c-0.106,0.078-0.236,0.077-0.394-0.004C403.815,550.835,403.861,550.808,403.94,550.848z
			 M407.065,590.597c-0.092,0.92-0.602,5.28-2.138,7.484c-0.054-0.017-0.107-0.029-0.161-0.029
			C404.956,597.187,405.939,592.896,407.065,590.597z M382.131,593.573c0.067-0.188,2.336-1.148,3.478-1.62l0.001,0.008
			l-1.608,14.045c-0.077,0.28-0.104,0.544-0.089,0.793c0,0-2.538,6.737-5.274,8.808l0.031,0.022
			c-0.013,0.012-0.026,0.023-0.04,0.034c-0.384-1.753,0.169-7.87,0.169-7.87l0.005,0.095c0.073-0.925,0.161-1.784,0.263-2.575
			c0.157-1.214,0.32-2.386,0.49-3.515c0.169-1.128,0.356-2.281,0.563-3.457c0.202-1.153,0.386-2.455,0.556-3.905l0.014-0.006
			C380.687,594.427,382.041,593.826,382.131,593.573z M418.485,570.066c-0.475,0.488-0.737,0.346-0.737,0.346
			c-0.269-0.152-0.329-0.726-0.329-0.726c-0.042-0.468-0.013-1.135,0.235-2.004c0.5-1.744,2.178-5.376,3.349-6.736
			C420.921,561.971,420.364,567.86,418.485,570.066z M467.296,537.383c-0.995,5.879-4.302,12.636-4.302,12.636
			c-0.047,0.107-0.094,0.212-0.14,0.319c-0.293,0.662-0.668,1.248-1.129,1.762c-0.034-0.12-0.041-0.224-0.023-0.316
			c0.017-0.09,0.005-0.217-0.04-0.377c-0.013-1.932,0.169-3.926,0.552-5.989c0.379-2.062,0.812-3.934,1.298-5.615
			c0.151-0.385,0.288-0.788,0.409-1.21c0.121-0.42,0.268-0.868,0.438-1.346c0.124-0.334,0.258-0.629,0.403-0.884
			c0.034-0.06,0.074-0.12,0.121-0.18c0,0,0.89-1.135,1.548-0.64c0.193,0.114,0.376,0.26,0.548,0.438
			c0.179,0.187,0.347,0.325,0.499,0.412C467.452,536.696,467.357,537.02,467.296,537.383z M463.941,566.431
			c0,0-0.002,0.166-0.014,0.443c-0.695,6.48-3.012,8.689-3.012,8.689C461.05,573.264,463.432,567.615,463.941,566.431z
			 M435.332,577.357c0.001,0.005,0.004,0.01,0.005,0.016C435.335,577.377,435.333,577.367,435.332,577.357z M482.083,581.711
			c0.018-0.198,0.078-0.496,0.244-0.904c0.282-0.69,1.406-2.881,4.901-5.051C485.375,578.924,483.225,581.431,482.083,581.711z
			 M500.505,547.255c-0.031,0.019-0.061,0.04-0.092,0.059c0.031-0.022,0.067-0.048,0.1-0.071L500.505,547.255z"/>
	</g>
	<g>
		<path fill="#FFFFFF" d="M368.666,564.391c0.278-2.957,0.731-6.064,1.358-9.323c0.626-3.258,1.373-6.625,2.239-10.099l0.022-0.061
			c0.19-0.532,0.373-1.147,0.552-1.844c0.179-0.697,0.32-1.42,0.424-2.166c0.104-0.746,0.17-1.466,0.197-2.16
			c0.028-0.694-0.016-1.302-0.128-1.826c-0.21-1.228-0.713-2.051-1.508-2.472s-1.693-0.554-2.693-0.403
			c-1,0.152-2.006,0.504-3.02,1.054c-1.014,0.551-1.871,1.163-2.572,1.836c-1.444,1.47-2.927,3.127-4.447,4.974
			s-2.912,3.785-4.175,5.814c-1.264,2.029-2.324,4.109-3.184,6.236c-0.859,2.128-1.376,4.186-1.554,6.175
			c-0.086,0.892,0.104,1.652,0.574,2.279c0.469,0.629,0.992,1.103,1.57,1.422c0.577,0.32,1.11,0.475,1.6,0.464
			c0.487-0.011,0.695-0.203,0.619-0.576c-0.134-0.854-0.052-1.932,0.25-3.232c0.301-1.298,0.74-2.7,1.32-4.2
			c0.578-1.5,1.261-3.05,2.05-4.65c0.787-1.6,1.61-3.14,2.472-4.621c0.86-1.481,1.715-2.849,2.564-4.104
			c0.85-1.254,1.632-2.273,2.348-3.056c0.716-0.782,1.325-1.294,1.824-1.531c0.499-0.238,0.833-0.072,1.001,0.493
			c0.128,0.415,0.179,0.877,0.148,1.384c-0.031,0.509-0.085,1.019-0.163,1.532c-0.079,0.515-0.168,1.007-0.266,1.478
			c-0.098,0.473-0.172,0.872-0.22,1.202c-0.472,2.3-0.938,4.624-1.404,6.971c-0.466,2.348-0.895,4.645-1.29,6.892
			s-0.715,4.415-0.962,6.506c-0.247,2.092-0.391,4.024-0.433,5.795c-0.042,1.772,0.023,3.358,0.196,4.756
			c0.172,1.398,0.51,2.521,1.016,3.371c0.319,0.528,0.815,1.033,1.486,1.513c0.671,0.48,1.375,0.782,2.116,0.907
			c0.41,0.077,0.706,0.106,0.886,0.089c0.179-0.017,0.283-0.084,0.313-0.2c0.029-0.116,0.016-0.271-0.042-0.464
			c-0.059-0.193-0.119-0.428-0.182-0.704c-0.617-2.156-0.99-4.531-1.118-7.124C368.313,570.122,368.389,567.348,368.666,564.391z"/>
		<path fill="#FFFFFF" d="M492.537,587.133c-25.306-12.779-82.768,28.477-89.168,33.172c-0.001,0.251,0.206,0.448,0.815,0.491
			c1.974,0.139,1.045,0.401,2.248,0.578c1.201,0.178,4.327-1.446,5.718-1.301c1.391,0.145-1.718,1.864-1.718,1.864
			s1.86-0.053,3.394-0.646c5.872-2.952,25.109-16.897,46.165-27.384c21.7-10.808,31.561-5.746,32.264-5.356
			c0.028,0.016,0.041,0.023,0.041,0.023c0.859,0.493,1.096-0.286,1.096-0.286c0.185-0.52-0.306-0.869-0.306-0.869
			C492.903,587.322,492.721,587.226,492.537,587.133z"/>
		<path fill="#FFFFFF" d="M449.703,527.052l0.007-0.002c-0.047-0.137-0.109-0.246-0.179-0.343c-0.017-0.028-0.029-0.058-0.046-0.085
			c-0.001-0.001-0.002-0.001-0.004-0.002c-0.036-0.048-0.073-0.078-0.113-0.1c-0.383-0.348-0.9-0.343-1.069-0.317
			c-0.232,0.035-0.119,0.112-0.294,0.163c-0.175,0.052-0.5-0.041-0.818,0.028c-0.318,0.068-0.41,0.305-0.467,0.432
			c-0.056,0.128-0.12,0.106-0.512,0.214c-0.391,0.108-0.254,0.582-0.428,0.742c-0.174,0.161-0.286,0.277-0.286,0.277
			s-0.142,2.686,0.268,3.996c-0.344-0.354-0.474-0.793-0.521-1.049c-0.109-0.772,0.004-1.616,0.08-2.059
			c0.1-0.392-0.056-0.562-0.056-0.562c-0.056,0.103-0.11,0.216-0.161,0.338c-0.052,0.124-0.085,0.229-0.101,0.322
			c-0.679,1.843-0.344,3.264,0.048,4.126c0.118,0.377,0.311,0.69,0.58,0.94l-0.164,0.493c-0.102,0.378-0.198,0.702-0.287,0.966
			c-0.104,0.311-0.199,0.619-0.282,0.924c-0.085,0.306-0.169,0.61-0.252,0.916c-0.053,0.191-0.106,0.415-0.158,0.665l-0.012,0.008
			c0,0-3.038,11.555-8.767,17.598l-0.013-0.074c-0.635-3.985,0.672-9.878,0.672-9.878c0.112-0.919,0.235-1.781,0.368-2.586
			c0.247-1.481,0.497-2.911,0.755-4.289c0.257-1.376,0.536-2.783,0.841-4.217c0.304-1.434,0.594-3.06,0.87-4.877
			c0,0,1.358-0.412,1.541-0.894c0.008-0.02,0.011-0.035,0.018-0.053l9.355-3.878c0,0,0.968-0.613,0.641-1.15
			c0.018-0.035-0.004-0.062-0.065-0.082c-0.044-0.05-0.096-0.1-0.168-0.146c-0.115-0.096-0.252-0.119-0.412-0.072
			c-0.158,0.048-0.343,0.083-0.553,0.102c-1.346,0.276-2.51,0.584-3.492,0.923c-0.98,0.34-2.054,0.727-3.222,1.165l-3.443,1.297
			c0.143-0.823,0.312-1.622,0.512-2.396c0.193-0.746,0.32-1.504,0.386-2.27c0.002-0.03,0.005-0.06,0.007-0.091
			c0.34-2.376-2.03-2.035-2.815-2.024c-0.785,0.012-1.294,0.792-1.294,0.792c-0.048,0.058-0.104,0.119-0.173,0.181
			c-0.126,0.731-0.246,1.374-0.362,1.928c-0.114,0.554-0.235,1.088-0.361,1.603c-0.127,0.515-0.248,1.05-0.362,1.603
			c-0.112,0.54-0.253,1.152-0.426,1.834c-1.142,0.547-7.496,3.592-7.789,3.715c-0.29,0.122-0.388,0.38-0.404,0.431
			c-0.226,0.108-0.539,0.258-0.596,0.284c-0.092,0.041-0.106,0.13-0.106,0.13c-0.362,1.124,0.721,1.282,0.721,1.282l2.629-1.093
			l1.122-0.502c2.066-0.906,4.264-1.876,4.264-1.876l-2.556,13.24c-0.11,0.073-0.228,0.152-0.349,0.233
			c-0.03,0.001-0.061,0.005-0.096,0.016c0.006,0.02,0.006,0.031,0.006,0.044c-1.463,0.974-3.556,2.366-3.556,2.366
			c-0.332-1.48-2.09-6.787-2.09-6.787c-0.184-0.535-0.32-1.061-0.409-1.576c0,0-0.48-1.909-0.742-2.872
			c-0.264-0.971-3.436,0.896-3.436,0.896c-0.335,0.313,0.202,2.905,0.278,3.266c-0.224,0.797-0.454,1.576-0.689,2.333
			c0,0-2.47,8.743-5.636,15.151l0.019-0.108c-1.436,3.079-4.354,5.802-4.354,5.802c0.028-0.181,0.032-0.37,0.014-0.559
			c-0.018-0.191-0.046-0.41-0.082-0.661l-0.25-2.796l0.004-2.42c0.102-3.228-0.04-10.452-0.166-10.952
			c-0.126-0.5-0.624-0.434-0.624-0.434c-0.029-0.008-0.058-0.019-0.085-0.034c-0.168-0.251-0.341-0.478-0.515-0.684
			c-0.175-0.204-0.42-0.256-0.736-0.155c0.038-0.013-0.019-0.059-0.176-0.139c-0.145,0.09-0.289,0.115-0.433,0.073
			c-0.144-0.04-0.276-0.041-0.394-0.004c-0.043,0.013-0.091,0.01-0.125,0.032c-0.127,0.088-0.364,0.19-0.758,0.254
			c-0.314,0.052-0.341,0.211-0.413,0.421c0,0-0.204,0.69-0.227,1.394c-0.011,0.348-0.24,1.129-0.468,1.829l-5.788,14.382
			c0.002-0.745,0.008-1.462,0.02-2.144c0.014-0.964,0.054-1.924,0.115-2.88c0.061-0.956,0.175-1.954,0.343-2.989
			c0.151-0.934,0.366-1.968,0.648-3.104c0.11-0.608,0.318-2.07,0.397-2.635h0.014c0.209-1.315-0.464-1.685-0.792-1.854
			s-1.264-0.054-1.618-0.301c-0.353-0.247-0.92-0.016-0.92-0.016c-2.105,0.065-1.878,2.353-1.878,2.353s0.013,1.874-0.104,3.425
			c-0.119,0.684-0.244,1.609-0.379,2.778c-0.136,1.18-0.264,2.377-0.388,3.59c0,0-2.694,9.1-6.883,13.292l-0.048-0.05
			c-0.263-1.31-0.352-2.528-0.265-3.65c0.061-0.806,0.11-1.634,0.148-2.48c0.427-8.189,3.168-24.661,3.168-24.661
			c0.131-1.049,0.258-2.042,0.384-2.982c0.125-0.936,0.187-1.604,0.186-1.997c0.094-0.118,0.125-0.248,0.098-0.394
			c-0.025-0.144,0.007-0.276,0.098-0.395c-0.04-0.118-0.108-0.227-0.208-0.324c-0.097-0.098-0.199-0.173-0.304-0.227
			c-0.106-0.053-0.119-0.124-0.04-0.216c0.078-0.092,0.085-0.172,0.02-0.236c-0.236-0.316-0.444-0.509-0.619-0.581
			c-0.178-0.072-0.336-0.085-0.473-0.038c-0.139,0.046-0.246,0.114-0.324,0.206c-0.078,0.092-0.139,0.145-0.176,0.158
			c-0.119,0.17-0.295,0.229-0.532,0.176s-0.486-0.143-0.748-0.276c-0.21,0.028-0.302,0.112-0.275,0.256
			c0.026,0.145-0.04,0.244-0.197,0.295c-1.098,4.16-4.168,23.392-5.125,29.459c-1.91,10.781-5.869,10.586-5.869,10.586
			c-0.133-0.932-0.17-1.813-0.113-2.642c0.078-1.121,0.132-2.28,0.166-3.474l0.037-0.275l0.049-0.905
			c0.102-1.766,0.22-3.233,0.35-4.388c0.137-1.207,0.288-2.344,0.451-3.408c0.163-1.063,0.343-2.177,0.54-3.337
			c0.196-1.163,0.4-2.656,0.61-4.481c0.127-0.656,0.2-1.086,0.218-1.29c0.018-0.204,0.034-0.416,0.046-0.641
			c0.036-0.406,0.128-1.072,0.272-1.998c0.145-0.925,0.28-1.913,0.403-2.964c0.124-1.05,0.246-2.045,0.366-2.983
			c0.118-0.938,0.175-1.606,0.174-1.999c0.092-0.118,0.124-0.25,0.096-0.394c-0.026-0.144,0.006-0.274,0.096-0.394
			c-0.041-0.118-0.109-0.224-0.209-0.323c-0.098-0.098-0.203-0.173-0.306-0.226c-0.106-0.05-0.12-0.122-0.041-0.216
			c0.078-0.092,0.084-0.17,0.018-0.236c-0.239-0.313-0.446-0.505-0.623-0.576c-0.179-0.072-0.335-0.084-0.473-0.037
			c-0.138,0.047-0.246,0.118-0.324,0.209c-0.078,0.092-0.137,0.146-0.175,0.158c-0.118,0.173-0.294,0.232-0.53,0.181
			c-0.238-0.052-0.487-0.14-0.75-0.271c-0.21,0.029-0.3,0.114-0.272,0.258c0.026,0.145-0.04,0.242-0.194,0.296
			c0.026,0.08,0.026,0.145,0.001,0.197l-0.353,0.317l-4.181,29.906c0,0-0.548,4.469,0.215,7.061
			c0.091,0.386,0.811,3.017,3.524,3.221c0,0,0.372,0.114,0.978,0.091l0.001,0.006c0,0,1.684,0.28,4.392-2.246l-1.154,9.876
			c0,0-1.595,0.812-3.27,1.686c-0.26,0.131-0.515,0.266-0.768,0.402c-1.508,0.792-2.892,1.54-3.023,1.684
			c-0.299,0.326-0.642,0.684-0.39,1.16c0,0-0.079,0.736,0.734,0.466l6.445-3.082l-0.557,4.759l-0.035,0.299
			c0,0-2.087,14.728,1.163,17.929c0,0,2.017,1.9,4.421-0.896c0.438-0.575,0.844-1.199,1.214-1.873
			c0.341-0.619,0.662-1.21,0.964-1.771c0,0,0.29,3.146,3.451,2.629l0.581-3.822c0.032-0.169,0.062-0.349,0.091-0.538
			c0.064-0.42,0.133-0.852,0.203-1.283c0.928-4.258,3.544-9.713,4.525-11.671c-0.168,1.094-0.722,4.966-0.598,7.582
			c-0.005,0.12-0.008,0.245-0.011,0.372c-0.006,0.252-0.004,0.493,0.002,0.721c0,0.007,0,0.012,0,0.019
			c-0.01,0.294-0.014,0.575-0.016,0.836c-0.014,0.151-0.023,0.305-0.023,0.461c0,0-0.112,4.439,2.225,4.757
			c0,0,1.411,0.277,3.091-1.71h0.001c0,0,0.677-0.75,1.352-1.964l2.461-3.997c0.061,0.155,0.136,0.336,0.223,0.533
			c0.01,0.022,0.018,0.043,0.029,0.064c0.356,0.784,0.91,1.757,1.554,2.051c0.019,0.008,0.035,0.011,0.054,0.018
			c0.325,0.205,0.676,0.336,1.056,0.379c0.126,0.018,0.258,0.032,0.395,0.044c1.8,0.155,3.178-0.14,3.996-0.4
			c0.119-0.036,0.236-0.076,0.354-0.121c0.317-0.119,0.487-0.209,0.487-0.209c0.496-0.218,0.905-0.496,1.229-0.83
			c3.793-3.103,6.56-10.535,6.56-10.535c-1.937,4.247-3.824,6.808-5.054,8.202c0.284-0.36,0.56-0.733,0.824-1.129
			c0.366-0.551,0.686-1.096,0.972-1.637c0.528-0.958,1.022-1.978,1.468-2.977c0.851-1.727,1.462-3.276,1.892-4.573l0.068-0.157
			l-0.008-0.025c0.062-0.193,0.121-0.382,0.176-0.562c0.004-0.001,0.005-0.004,0.008-0.005c0.001-0.014,0.005-0.03,0.006-0.046
			c0.095-0.313,0.178-0.608,0.251-0.883c0.032-0.086,0.064-0.172,0.095-0.258c0.014-0.062,0.013-0.116,0.016-0.174
			c0.336-1.354,0.407-2.128,0.407-2.128l-0.001,0.001c0.035-0.181,0.072-0.364,0.102-0.545c0.101-0.605,0.163-1.247,0.185-1.931
			c-0.13,0.042-0.23,0.191-0.306,0.449c-0.074,0.257-0.161,0.401-0.256,0.432c-0.042-0.019-0.041-0.146,0.008-0.377
			c0.048-0.229,0.049-0.354,0.008-0.377c-0.066,0.022-0.11-0.008-0.138-0.088c-0.026-0.08-0.044-0.19-0.055-0.329
			c-0.012-0.138-0.023-0.277-0.032-0.416c-0.01-0.138-0.011-0.245,0.001-0.322c-0.042,0.086-0.104,0.222-0.184,0.41
			c-0.08,0.186-0.146,0.307-0.2,0.36c-0.023,0.149-0.001,0.293,0.062,0.433c0.064,0.139,0.026,0.268-0.113,0.385
			c-0.074-0.011-0.13-0.011-0.16,0c-0.034,0.011-0.071,0.005-0.113-0.016c-0.011,0.182-0.025,0.355-0.04,0.521
			c-0.018,0.167-0.084,0.341-0.202,0.522c-0.022-0.278-0.018-0.51,0.008-0.698c0.026-0.186,0.019-0.398-0.023-0.635
			c0.041-0.085,0.076-0.175,0.096-0.271c0.022-0.096,0.004-0.172-0.049-0.224l-0.192,0.064l-0.064,0.13
			c-0.034,0.118-0.038,0.316-0.017,0.593c-0.011,0.077-0.048,0.124-0.112,0.145c-0.066,0.022-0.118,0.074-0.16,0.16
			c-0.055,0.055-0.073,0.132-0.056,0.233c0.014,0.102,0.011,0.175-0.008,0.216c-0.044,0.088-0.088,0.172-0.128,0.257
			c-0.044,0.086-0.076,0.204-0.096,0.353c-0.066,0.127-0.091,0.289-0.08,0.481c0.008,0.163-0.052,0.253-0.18,0.271
			c0,0-4.104,12.27-9.517,15.982c-1.294-1.019-1.542-3.208-1.523-4.866c0.012-0.227,0.022-0.484,0.03-0.773
			c0.001-0.041,0.004-0.077,0.005-0.116c0.023-0.337,0.052-0.619,0.078-0.832c0.628,0.1,1.507,0.194,1.89,0.024
			c0.001-0.001,0.002-0.001,0.002-0.001c1.963-0.476,3.132-4.54,3.132-4.54l0.437-1.802c0.076-0.308,0.128-0.629,0.161-0.961
			c0.031-0.331,0.054-0.642,0.065-0.931c0.01-0.181,0.029-0.364,0.055-0.552c0.026-0.186,0.041-0.388,0.041-0.602
			c-0.019-0.704-0.121-1.41-0.302-2.116c-0.154-0.6-0.356-1.108-0.704-1.429c-0.486-0.449-1.362-0.292-1.362-0.292
			c-1.598,0.04-2.774,1.016-3.564,2.012c-1.59,2.06-3.139,8.1-3.139,8.1c-0.023,0.107-0.046,0.215-0.066,0.323
			c0,0-2.639,8.128-5.896,12.215c0.042-0.191,0.058-0.384,0.046-0.577c-0.004-0.066-0.006-0.131-0.007-0.194l1.357-12.745
			c0.26-3.092-0.638-3.653-1.622-3.42v-0.001c-0.002,0.001-0.005,0.002-0.008,0.004c-0.298,0.072-0.602,0.215-0.886,0.383
			c-0.809,0.428-1.546,1.028-2.143,1.596c-2.177,1.86-3.838,5.551-3.838,5.551l-0.046,0.098c0.232-1.432,0.434-2.866,0.611-4.298
			c0.041-0.329,0.084-0.664,0.126-0.994l0.65-4.672c0.017-0.061,0.035-0.127,0.056-0.205c-0.002-0.029-0.004-0.066-0.004-0.104
			c0.739-0.295,1.297-0.556,1.328-0.677c0.1-0.376-0.391-0.424-0.391-0.424s1.367-0.688,1.254-1.109
			c-0.048-0.182-0.132-0.286-0.25-0.362l-0.047-0.036c-0.212-0.149-0.656,0.023-0.656,0.023l-0.953,0.349
			c0.079-0.481,0.157-0.986,0.233-1.525c0.052-0.366,0.097-0.724,0.14-1.075l0.246-1.424c0.011-0.442-0.451-0.47-0.574-0.47
			c-0.116-0.084-0.155-0.241-0.379-0.461c-0.293-0.287-0.449-0.107-0.637-0.067c-0.188,0.04-0.35-0.232-0.76-0.149
			s-0.829,0.473-0.908,0.74c-0.08,0.268-0.004,0.5-0.311,0.748c-0.253,0.203-0.689,3.594-0.871,4.82l-0.01,0.043
			c-0.004,0.026-0.006,0.05-0.008,0.076c-0.01,0.062-0.018,0.115-0.025,0.161l-5.044,2.046l1.284-9.199
			c0.505,0.041,2.232,0.116,3.648-0.583c0.118-0.049,0.212-0.098,0.278-0.148c0.182-0.106,0.328-0.198,0.433-0.276
			c0.104-0.078,0.211-0.157,0.316-0.236c0.091-0.119,0.19-0.216,0.295-0.295c0.104-0.079,0.203-0.178,0.295-0.294
			c0.011-0.013,0.019-0.026,0.03-0.04c1.373-1.547,3.038-5.014,3.832-6.757c0.089,0.341,0.184,0.668,0.284,0.982
			c0.206,0.502,0.47,0.982,0.793,1.444c0,0,2.61,3.078,5.23-1.099c2.099-3.346,4.367-12.727,4.367-12.727
			c0.067-0.194,0.155-0.394,0.26-0.6c0.024,0.21,0.042,0.4,0.054,0.57c0.012,0.172,0.01,0.368-0.005,0.592
			c0.001,1.22,0.016,2.315,0.047,3.287c0.029,0.971,0.065,2.062,0.106,3.268c0.008,0.164,0.024,0.334,0.048,0.508
			c0,0,0.504,7.054,4.852,4.8c0.874-0.352,1.966-1.056,3.138-2.44c1.471-1.735,2.286-3.568,2.286-3.568s2.752-6.239,3.972-9.466
			c0.004-0.008,0.007-0.016,0.011-0.024c0.187-0.449,0.371-0.94,0.552-1.475c0.053-0.156,0.1-0.304,0.149-0.455l2.083-5.624
			c0.294,0.562,0.852,1.871,1.266,4.284c0.004,0.025,0.008,0.054,0.013,0.082c-0.41,0.437-0.852,0.94-1.314,1.512
			c-0.817,0.952-1.571,2.065-2.122,2.942c-0.12,0.186-0.241,0.377-0.362,0.571l0.04-0.047c-0.355,0.59-0.569,0.983-0.569,0.983
			c-0.581,1.076-1.013,2.467-1.286,3.517c-0.008,0.022-0.017,0.042-0.026,0.062l-0.05,0.206l0.026,0.082
			c0.566-1.784,2.111-5.507,5.852-9.004c-0.94,1.031-1.806,2.125-2.597,3.282c-0.792,1.159-1.495,2.354-2.112,3.588
			c-0.012,0.025-0.024,0.05-0.036,0.077c-1.492,3.356-1.614,5.336-1.378,6.469c0.233,1.139,0.895,1.434,0.895,1.434
			c-0.504-0.776-0.583-1.454-0.583-1.454c-0.258-1.151-0.036-2.063-0.023-2.113c-0.03,0.205-0.066,0.523-0.064,0.907
			c0,0-0.001,1.912,1.051,2.737c3.114,2.371,6.154-1.477,6.154-1.477c4.026-5.557,2.432-12.263,2.432-12.263l-0.116-1.236
			l3.082-2.282c0,0-0.013,0.167-0.034,0.45c-0.042,0.566-0.083,1.151-0.121,1.77c-0.004,0.131-0.002,0.265-0.004,0.398
			c-0.086,1.919-0.127,4.369,0.143,5.461c0.118,0.474,0.257,0.974,0.425,1.466c0.19,0.656,0.659,1.934,1.57,2.678
			c0.307,0.268,0.654,0.466,1.05,0.56l-0.007-0.047c0.113,0.024,0.226,0.046,0.347,0.053c0,0,2.543,0.731,5.587-4.082
			c0.042-0.068,0.084-0.137,0.125-0.206c0.49-0.818,0.949-1.595,1.378-2.332c0.982-1.532,2.02-3.744,3.001-6.121
			c0.028-0.048,0.048-0.091,0.054-0.126c-0.001,0-0.001-0.001-0.001,0c2.234-5.432,4.168-11.683,4.48-12.704
			c0.386,0.16,0.86,0.198,1.433,0.103c0.7-0.115,1.306-0.336,1.817-0.658c-0.185,0.702-0.35,1.247-0.497,1.636
			c-0.145,0.388-0.293,0.743-0.436,1.066c-0.144,0.324-0.287,0.689-0.427,1.096c-0.14,0.408-0.278,0.977-0.412,1.706
			c-0.068,0.064-0.097,0.148-0.089,0.253c0.01,0.107-0.014,0.21-0.071,0.312c-0.196,0.964-0.386,1.873-0.57,2.724
			c-0.185,0.854-0.342,1.72-0.476,2.602c-0.121,0.806-0.204,1.643-0.256,2.502c-0.115,1.088-0.232,3.4,0.535,5.365
			c0.098,0.286,0.226,0.6,0.386,0.905c0.001,0.002,0.002,0.005,0.002,0.007c0,0,0.001,0.001,0.002,0.001
			c0.244,0.456,0.566,0.883,0.982,1.153c0.005,0.004,0.008,0.007,0.012,0.011l0.001-0.002c0.083,0.053,0.167,0.101,0.258,0.14
			c0,0,0.874,0.424,2.092-0.152c0.097-0.043,0.205-0.097,0.337-0.179c0.202-0.122,0.408-0.27,0.618-0.439
			c0.118-0.094,0.242-0.172,0.344-0.27c3.668-3.516,6.032-8.17,6.032-8.17c0.025,0.248,2.267,3.84,4.871,3.118
			c2.604-0.722,4.31-4.433,4.31-4.433c0.284-0.682,0.593-1.367,0.918-2.059c0.326-0.69,0.598-1.346,0.816-1.966
			c0.06,0.577,0.133,1.177,0.214,1.787l-0.013,0.018c0,0,0.359,4.342,2.608,5.522c0,0,1.084,0.598,2.636-0.26
			c1.252-0.742,3.013-2.382,4.34-5.99l-3.125,18.928c-0.346-1.764-1.21-2.496-1.21-2.496c-1.618,13.613-10.223,19.859-10.223,19.859
			c-0.532,0.416-1.067,0.787-1.602,1.11c-0.463-0.425-0.844-0.997-1.121-1.724c-0.911-2.388-0.446-5.623-0.278-6.583
			c0.584,0.161,1.244,0.325,1.385,0.284c0,0,2.1,0.168,3.499-2.178c0.2-0.348,0.392-0.748,0.572-1.198
			c0.254-0.635,0.493-1.286,0.719-1.955l0.599-2.242c0.1-0.372,0.174-0.76,0.223-1.16c0.048-0.398,0.083-0.774,0.106-1.124
			c0.017-0.22,0.046-0.443,0.084-0.67c0.037-0.226,0.059-0.467,0.066-0.726c-0.005-0.822-0.058-1.655-0.283-2.471
			c-0.868-3.132-3.482-2.622-3.482-2.622c-3.121,0.319-7.097,9.433-7.097,9.433c-1.315,1.759-3.563,1.94-3.563,1.94
			c-2.059,0.023-2.711-1.614-2.875-2.182c-0.011-0.022-0.022-0.038-0.032-0.061c-0.45-1.087-0.235-3.253-0.102-4.254
			c-0.246-0.005-0.482,0.094-0.63,0.176c-0.071-0.02-0.15-0.079-0.385-0.151c-0.427-0.13-0.492,0.133-0.73,0.162
			c-0.238,0.03-0.162-0.137-0.533-0.298s-0.638,0.018-0.706,0.256c-0.067,0.238-0.271,0.155-0.271,0.155
			c-0.632-0.224-0.811-0.01-0.811-0.01l-0.058-0.001c-0.036,0.506-0.038,1.027-0.005,1.562c-0.032,1.222,0.572,3.049,0.743,3.535
			c-0.145,1.327-1.59,13.974-4.676,19.95c-0.012-0.029-0.024-0.059-0.036-0.088l0.012,0.029c-1.319-2.183-1.676-6.836-1.578-10.122
			c0.122-4.114-1.147-6.264-1.147-6.264c-0.25-0.277-0.436-0.425-0.436-0.425l-0.092,0.229c0,0-0.112-0.023-0.443-0.26
			s-0.678-0.206-1.17-0.17c-0.491,0.036-0.959,0.07-0.959,0.07s-0.305,0.569-0.665,0.892c-0.181,0.163-0.265,0.412-0.305,0.618
			c-0.025,0.07-0.031,0.122-0.031,0.122l0,0l0,0c-0.07,0.383-1.025,5.706-1.535,8.382c-0.06,0.256-0.121,0.512-0.181,0.767
			l-0.236,0.594l0.055-0.743c0.034-0.126,0.062-0.247,0.072-0.361c0.037-0.415,0.596-4.264,0.596-4.264
			c-0.41,1.69-1.687,6.773-2.342,8.657c-0.655,1.886-1.259,3.673-1.811,5.36c-0.593-1.768-0.143-4.753-0.143-4.753
			c0.67-4.79,1.686-14.684,1.686-14.684l0.053-1.968c-0.01-0.236-0.052-0.307-0.179-0.517c-0.132-0.217-0.146-0.143-0.455-0.162
			c-0.308-0.019-0.311-0.107-0.636-0.325c-0.325-0.218-0.307-0.139-0.672-0.151c-0.364-0.012-0.442-0.124-0.943-0.263
			c-0.5-0.14-0.619,0.214-1.129,0.194c-0.51-0.018-0.673,0.688-0.65,0.87c0.023,0.182,0.013,0.112-0.306,0.328
			c-0.233,0.157-0.229,0.672-0.194,1.045l-0.008-0.004c0,0-0.047,1.787-0.089,2.099c0,0,0.005,0,0.006,0
			c-0.004,0.032-0.011,0.066-0.014,0.098c-0.042,0.391-0.092,0.786-0.156,1.183l-0.27,1.709c0,0-0.782,5.513-1.105,10.546
			c0,0-0.397,5.842,0.055,7.271c0.234,1.339,0.935,3.419,3.028,4.067l0.011-0.005c0.389,0.121,2.276,0.558,4.025-1.634
			c0.018-0.024,0.035-0.048,0.052-0.071c0.718-1.177,1.916-4.032,1.916-4.032c0.253-0.664,0.491-1.334,0.714-2.012l1.487-4.412
			c0.424,1.48,2.117,6.403,6.03,6.888c2.82,0.504,4.477-3.756,5.101-5.791c0.425-1.133,1.363-5.732,1.363-5.732
			c0.618-3.496,1.166-8.1,1.316-9.317c0.391,0.365,2.365,1.898,6.361,0.174c0,0-1.914,6.264,0.556,11.081
			c0,0,0.532,1.114,1.421,1.616c0.547,0.282,3.116,1.426,6.48,0.028c3.796-1.578,6.275-5.752,6.275-5.752
			c1.198-1.541,0.99-1.891,0.99-1.891l-1.858,2.484c-0.142,0.169-0.281,0.33-0.418,0.485c1.558-1.915,3.456-5.441,4.376-7.225
			c-0.089,0.958-0.204,2.429-0.22,3.676c0,0-0.106,3.995,2.215,4.598c0.082,0.022,0.162,0.034,0.242,0.024
			c0.476-0.059,0.733-0.138,1.058-0.444c0.287-0.27,0.427-1.276,0.402-2.216c0,0,2.003-13.364,9.564-19.879
			c0,0,1.007,4.037,0.605,8.389c-1.886,0.719-3.436,1.632-4.702,2.629c1.795-1.973,3.841-3.125,3.841-3.125
			c-4.114,1.165-6.761,5.929-7.421,7.24c-0.612,1.102-0.958,2.142-1.082,2.989c-0.307,2.083,0.674,3.721,2.42,4.16
			c5.54,1.392,9.152-6.809,10.398-10.225c0.971,0.004,4.166,0.088,6.149,0.986c0,0-0.552-0.604-2.009-1.039
			c1.578,0.121,2.617,0.27,2.921,0.227c0.784-0.11-0.473-2.238-2.047-3.176c-0.192-0.114-0.509-0.2-0.914-0.263
			c-0.299-0.452-0.792-0.77-1.381-0.808c-0.71-0.047-1.402-0.078-2.082-0.102c0.148-3.148-0.29-5.929-0.29-5.929
			c-0.084-0.556-0.199-1.116-0.348-1.679c-0.008-0.026-0.016-0.052-0.024-0.078c-0.265-0.858-0.942-3.202-2.73-3.58
			c-1.788-0.377-3.808,0.988-3.808,0.988c-2.41,1.327-4.266,4.908-4.71,5.82l1.859-13.739c0.398,0.07,2.369,0.32,3.842-1.254
			l-0.002-0.001c0.043-0.042,0.08-0.085,0.109-0.133c0.598-0.67,1.157-1.403,1.679-2.203c0.47-0.721,0.911-1.405,1.328-2.062
			l0.002,0.001l0.029-0.048c0.035-0.055,0.073-0.113,0.107-0.168c0.011-0.019,0.014-0.034,0.018-0.048l1.158-1.987
			c0.01,0.217,0.062,0.428,0.156,0.635c0.22,0.802,0.886,2.579,2.572,3.136c1.246,0.235,2.467,0.257,3.433,0.211
			c0.493-0.02,2.104-0.108,3.188-0.422c0.455-0.138,0.854-0.318,1.213-0.532c0.361-0.205,0.719-0.454,1.068-0.725
			c4.31-3.068,7.295-9.253,8.485-12.066l-0.023-0.014c-1.088,2.444-2.4,4.528-3.708,6.242c0-0.004,0-0.006,0.001-0.011
			c-0.056,0.078-0.119,0.161-0.178,0.241c-2.126,2.737-4.204,4.507-5.221,5.298c0.198-0.162,0.408-0.341,0.637-0.552
			c0.978-0.824,1.897-1.775,2.752-2.861c0.32-0.407,0.614-0.812,0.893-1.218c0.874-1.219,1.778-2.741,2.418-3.868
			c0.223-0.379,0.45-0.79,0.676-1.218c0.121-0.226,0.192-0.358,0.192-0.358l-0.004-0.004c1.54-2.984,3.001-6.622,3.001-6.622
			c0.678-2.017,0.881-3.258,0.881-3.258c0.184-0.728,0.325-1.511,0.419-2.345c-0.161,0.04-0.3,0.212-0.418,0.52
			c-0.118,0.307-0.235,0.474-0.358,0.504c-0.049-0.031-0.035-0.184,0.048-0.461c0.082-0.277,0.097-0.43,0.047-0.46
			c-0.08,0.019-0.133-0.02-0.158-0.122c-0.024-0.098-0.037-0.236-0.035-0.407c0-0.172,0-0.341,0.002-0.514
			c0-0.17,0.011-0.302,0.032-0.392c-0.061,0.101-0.15,0.262-0.268,0.481c-0.116,0.221-0.21,0.361-0.281,0.421
			c-0.042,0.182-0.031,0.36,0.035,0.536c0.064,0.178,0.005,0.331-0.176,0.46c-0.091-0.019-0.155-0.026-0.194-0.016
			c-0.041,0.01-0.086,0-0.136-0.031c-0.032,0.222-0.065,0.432-0.102,0.632c-0.036,0.202-0.134,0.408-0.296,0.618
			c0.001-0.342,0.028-0.625,0.079-0.852c0.052-0.226,0.062-0.485,0.035-0.776c0.06-0.1,0.109-0.208,0.144-0.324
			c0.036-0.114,0.023-0.209-0.036-0.28l-0.241,0.06l-0.091,0.15c-0.052,0.142-0.077,0.382-0.078,0.724
			c-0.022,0.092-0.072,0.146-0.152,0.166c-0.08,0.019-0.15,0.079-0.211,0.18c-0.071,0.06-0.102,0.154-0.092,0.28
			c0.008,0.126-0.001,0.215-0.031,0.264c-0.061,0.101-0.121,0.202-0.182,0.301c-0.061,0.101-0.112,0.241-0.154,0.421
			c-0.09,0.15-0.139,0.344-0.145,0.58c-0.006,0.238-0.12,0.34-0.342,0.308c0,0-4.508,12.698-11.467,17.59
			c-0.589,0.414-1.178,0.776-1.768,1.086c-0.014-0.014-0.029-0.03-0.043-0.046l0.014,0.016c-2.79-1.7-2.041-5.377-1.372-7.37
			c0.45,0.064,1.169,0.113,1.972-0.031c3.238-0.421,5.014-5.746,5.014-5.746c0.006-0.014,0.012-0.03,0.018-0.044l0.736-2.231
			c0.122-0.371,0.22-0.757,0.293-1.159c0.072-0.402,0.128-0.779,0.172-1.132c0.031-0.222,0.072-0.444,0.125-0.671
			c0.049-0.226,0.086-0.47,0.109-0.732c0.044-0.865-0.01-1.738-0.161-2.62c-0.138-0.798-0.402-1.433-0.792-1.907
			c-4.356-2.832-7.751,4.031-7.751,4.031c-0.152,0.251-0.274,0.494-0.366,0.731c-0.092,0.235-0.214,0.479-0.366,0.73
			c-0.548,1.246-1.081,2.518-1.596,3.818c-0.514,1.3-0.92,2.648-1.219,4.045c-0.126,0.556-0.223,1.115-0.299,1.673
			c0,0-4.328,7.507-5.411,8.744c-3.607,4.124-1.937-3.14-1.937-3.14c0.028-0.197,0.054-0.398,0.078-0.604
			c0.004-0.001,0.011-0.004,0.011-0.004l0.913-6.008c0.04-0.203,0.078-0.413,0.119-0.608c0.304-1.47,0.611-2.89,0.92-4.255
			c0.31-1.366,0.644-2.759,1.004-4.182c0.36-1.421,0.713-3.034,1.061-4.838c0.014-0.006,0.031-0.012,0.046-0.019
			c0.421-0.122,2.112-0.628,2.616-0.998c0.576-0.426,6.682-2.707,7.363-2.935c0.562-0.188,1.506-0.632,1.739-1.232
			c0.004-0.002,0.014-0.005,0.016-0.006c0.025-0.04,0.172-0.668-0.289-0.732c-0.462-0.064-3.719,0.74-3.719,0.74l0.013,0.001
			c-0.248,0.065-0.49,0.132-0.719,0.202c-0.995,0.3-2.082,0.648-3.266,1.039l-3.491,1.163c0.174-0.817,0.376-1.608,0.605-2.375
			c0.229-0.767,0.392-1.549,0.486-2.344c0.098-0.112,0.14-0.239,0.125-0.385c-0.002-0.023-0.004-0.044-0.005-0.066
			c-0.416-1.4-1.736-1.818-2.725-1.729s-1.631,0.965-1.631,0.965c-0.155,0.726-0.299,1.363-0.436,1.913
			c-0.137,0.55-0.277,1.079-0.424,1.588c-0.146,0.51-0.287,1.039-0.424,1.588c-0.137,0.55-0.306,1.172-0.511,1.868l-0.052,0.023
			l-8.155,3.634c-0.358,0.188-0.277,0.551-0.325,0.685s-1.399,0.817-1.027,1.351c0.224,0.323,1.244,0.034,2.021-0.247l7.194-2.501
			l-3.305,15.145c0,0-0.888,2.759-1.938,4.752c-0.647,1.229-1.109,2.348-1.663,3.232c-0.007,0.012-0.016,0.024-0.023,0.036
			c-0.827,1.591-2.354,3.44-2.858,4.033c-0.403-1.321-0.545-5.578-0.545-5.578l-0.007,0.013c0.023-1.21,0.086-2.375,0.197-3.488
			c0.13-1.326,0.296-2.64,0.498-3.944c0.18-1.158,0.346-2.368,0.499-3.622c-0.006-0.037-0.008-0.082-0.004-0.142
			c0.115-1.223-1.132-2.909-2.034-3.571c-0.504-0.37-0.99-0.392-1.324-0.341c-0.386,0.037-0.665,0.133-0.862,0.256
			c-0.002-0.001-0.007,0.001-0.01-0.001c-0.198,0.104-0.311,0.257-0.378,0.414c-0.012,0.023-0.023,0.046-0.031,0.067
			c0,0.001,0,0.001-0.001,0.002c-0.094,0.236-0.065,0.438-0.065,0.438h0.005c0.004,0.096,0.014,0.162,0.014,0.162
			s0.002,0.02-0.126,0.157c-0.128,0.137-0.179,1.102-0.179,1.102l-0.024,0.094c-0.001,0.01,0,0.02-0.001,0.03
			c-0.012,0.061-0.028,0.109-0.044,0.151l-0.186,0.736c-0.001,0.006-0.002,0.011-0.004,0.016l-0.126,0.497l-0.002-0.002
			c-0.007,0.02-0.035,0.028-0.088,0.018c-0.328-0.326-0.672-0.593-1.031-0.809l0.007-0.005c-0.731-0.461-1.319-0.665-1.65-0.754
			c-0.036-0.011-0.072-0.018-0.108-0.026c-0.035-0.008-0.062-0.014-0.088-0.019c-4.609-0.912-7.147,12.324-7.147,12.324
			s-1.19,3.877-2.956,6.479c-1.934,3.275-3.688,5.156-4.142,5.621c-0.113-1.103-0.166-2.064-0.151-2.872
			c0.013-0.845,0.077-1.631,0.191-2.356c0.114-0.722,0.265-1.458,0.46-2.207c0.042-0.16,0.085-0.326,0.13-0.499
			c0,0,2.136-7.128,2.221-8.752c0.116-2.225-0.877-2.634-0.877-2.634c-0.731-0.157-1.616,0.24-1.964,0.418l-0.004-0.006
			c-2.784,1.648-4.492,1.434-4.492,1.434l-0.133-0.056c-0.024-0.018-0.047-0.038-0.061-0.06c-0.049-0.168-0.062-0.425-0.038-0.772
			c0,0,0.043-2.6,0.211-3.215c0.168-0.614-0.112-1.514-0.112-1.514 M503.049,518.301c0,0-0.611,5.93-3.43,9.26
			c-0.05-0.017-0.101-0.025-0.152-0.029C500.018,524.627,503.049,518.301,503.049,518.301z M407.68,543.785
			c0.078,0.041,0.163,0.068,0.256,0.082c-0.106,0.078-0.236,0.077-0.394-0.004C407.555,543.771,407.602,543.746,407.68,543.785z
			 M410.805,583.535c-0.092,0.92-0.602,5.28-2.138,7.484c-0.054-0.018-0.107-0.029-0.161-0.03
			C408.698,590.125,409.679,585.833,410.805,583.535z M385.871,586.511c0.067-0.188,2.336-1.148,3.478-1.62l0.001,0.008
			l-1.608,14.045c-0.077,0.28-0.104,0.544-0.089,0.793c0,0-2.538,6.737-5.274,8.808l0.031,0.022
			c-0.013,0.012-0.026,0.024-0.04,0.035c-0.384-1.753,0.169-7.87,0.169-7.87l0.005,0.095c0.073-0.925,0.161-1.784,0.263-2.575
			c0.157-1.214,0.32-2.386,0.49-3.515c0.169-1.128,0.356-2.282,0.563-3.457c0.202-1.153,0.386-2.455,0.556-3.905l0.014-0.006
			C384.428,587.365,385.781,586.763,385.871,586.511z M422.225,563.003c-0.475,0.488-0.737,0.346-0.737,0.346
			c-0.269-0.152-0.329-0.726-0.329-0.726c-0.042-0.468-0.013-1.135,0.235-2.004c0.5-1.744,2.178-5.376,3.349-6.736
			C424.661,554.907,424.106,560.798,422.225,563.003z M471.037,530.321c-0.995,5.879-4.302,12.636-4.302,12.636
			c-0.047,0.107-0.094,0.212-0.14,0.319c-0.293,0.662-0.668,1.248-1.129,1.762c-0.034-0.12-0.041-0.224-0.023-0.316
			c0.017-0.09,0.005-0.217-0.04-0.377c-0.013-1.932,0.169-3.926,0.552-5.989c0.379-2.062,0.812-3.934,1.298-5.615
			c0.151-0.386,0.288-0.79,0.409-1.21s0.268-0.869,0.437-1.346c0.124-0.334,0.258-0.629,0.403-0.884
			c0.034-0.06,0.074-0.12,0.121-0.18c0,0,0.89-1.135,1.548-0.64c0.193,0.114,0.376,0.26,0.548,0.438
			c0.179,0.187,0.347,0.325,0.499,0.412C471.194,529.634,471.098,529.957,471.037,530.321z M467.683,559.369
			c0,0-0.002,0.166-0.014,0.443c-0.695,6.48-3.012,8.689-3.012,8.689C464.792,566.201,467.173,560.553,467.683,559.369z
			 M439.072,570.294c0.001,0.005,0.004,0.01,0.005,0.016C439.076,570.315,439.073,570.305,439.072,570.294z M485.823,574.649
			c0.018-0.198,0.078-0.496,0.244-0.904c0.282-0.69,1.406-2.881,4.901-5.051C489.116,571.861,486.965,574.369,485.823,574.649z
			 M504.245,540.192c-0.031,0.019-0.061,0.04-0.092,0.059c0.031-0.022,0.067-0.048,0.1-0.071L504.245,540.192z"/>
	</g>
</g>
<path opacity="0.8" fill="#51609E" enable-background="new    " d="M880.078,92.226c-1.776-20.295-75.462-30.426-164.583-22.629
	c-86.108,7.533-155.104,29.047-158.07,48.798c11.725-15.107,73.18-31.165,148.24-37.731c84.444-7.388,154.073,0.035,155.521,16.58
	c0.36,4.12-3.543,8.417-10.91,12.661c0.293,2.099,0.6,4.558,0.768,6.66C869.956,108.794,880.785,100.314,880.078,92.226z"/>
<path opacity="0.8" fill="#51609E" enable-background="new    " d="M593.607,193.15c1.438,16.439,61.124,24.645,133.312,18.33
	c69.747-6.102,125.634-23.528,128.037-39.527c-9.498,12.237-59.276,25.243-120.074,30.562c-68.4,5.984-124.799-0.028-125.972-13.43
	c-0.292-3.337,2.87-6.817,8.837-10.255c-0.237-1.7-0.486-3.692-0.622-5.395C601.805,179.73,593.034,186.599,593.607,193.15z"/>
</svg>
