<?xml version="1.0" encoding="utf-8"?>
<!-- Generator: Adobe Illustrator 17.0.0, SVG Export Plug-In . SVG Version: 6.00 Build 0)  -->
<!DOCTYPE svg PUBLIC "-//W3C//DTD SVG 1.1//EN" "http://www.w3.org/Graphics/SVG/1.1/DTD/svg11.dtd">
<svg version="1.1" id="Layer_1" xmlns="http://www.w3.org/2000/svg" xmlns:xlink="http://www.w3.org/1999/xlink" x="0px" y="0px"
	 width="985px" height="720px" viewBox="0 0 985 720" enable-background="new 0 0 985 720" xml:space="preserve">
<polygon fill="#3B3B3B" points="773.979,595.633 793,598 834.5,361.5 816.248,355.918 "/>
<path fill="#51609E" d="M846.797,148.369c0,0-22.797,59.631-17.297,107.131c0,0-85.781-75.837-158.17-78.114l1.785-76.35
	c0,0-5.043-23.229,55.538,3.677C796.838,134.994,846.797,148.369,846.797,148.369z"/>
<path fill="#51609E" d="M669.108,113.683c0,0-0.626,56.025-2.842,58.102s-23.68-22.257-53.883-37.26l24-3.171l-60.817-43.418
	L669.108,113.683z"/>
<ellipse fill="#142551" cx="386.864" cy="555.928" rx="177.707" ry="163.072"/>
<g>
	<path fill="#3B3B3B" d="M622.333,463.167c0,0-35.833-7.667-69.833-20.667c-3.178-1.215-6.585-2.483-10.149-3.782l-0.017-0.218
		c-54.667-46-84.667-38-84.667-38l3.375,10.86c-1.746-0.556-2.709-0.86-2.709-0.86c10.5,12.5,15.167,77.5,39.667,94
		c24.5,16.5,103,12,103,12C626.5,499.5,622.333,463.167,622.333,463.167z"/>
	<path fill="#3B3B3B" d="M358,417.5l-63,2l1,104c0,0,11,154,26,182c0.587,1.096,1.124,2.102,1.624,3.041L371,704.5c0,0,27-42,30-47
		s20-112,20-115s-21-90-21-90L358,417.5z"/>
</g>
<path fill="#3B3B3B" d="M253,470.5l4,2l12.488,144.51c-8.426,2.542-9.488,7.49-9.488,7.49l16,58c9,10,36,21,36,21l-12.769-84.473
	C306.842,593.891,306,520.5,306,520.5s28-12,30-42S286,392.5,253,470.5z"/>
<path fill="#3B3B3B" d="M250.333,120.5c0,0,0.077,1.683,0.264,4.732c1.473,23.955,9.801,132.236,41.736,171.268
	c36,44,78.667,71.333,97.333,72c18.667,0.667,37.333-2,37.333-2l8.667-5.333c0,0,34.667-82.667,34.667-86s-22.667-128-22.667-128
	L402.333,106.5l-70.667-6l-68,13.333"/>
<path fill="#EB8F63" d="M866.395,224.318c0.05-0.035,0.085-0.058,0.085-0.058S866.445,224.281,866.395,224.318z"/>
<path fill="#3B3B3B" d="M766.333,386.5C673.667,523.833,555,477.167,555,477.167l-15.789-28.964
	c-1.072-0.443-1.646-0.702-1.646-0.702l-27,28c10.735,4.334,21.225,7.509,31.443,9.691l0.057,0.809
	c87.732,21.604,142.285-3.713,174.266-32.502c16.331-14.002,52.725-66.639,52.725-66.639l-2.721-0.361
	C766.334,386.499,766.334,386.499,766.333,386.5z"/>
<path fill="none" stroke="#080B14" stroke-miterlimit="10" d="M539.5,451.5"/>
<radialGradient id="SVGID_1_" cx="-281.963" cy="382.675" r="0" gradientTransform="matrix(1 0 0 -1 675.5 1102)" gradientUnits="userSpaceOnUse">
	<stop  offset="0.5074" style="stop-color:#0F727E"/>
	<stop  offset="0.8325" style="stop-color:#00B4DE"/>
</radialGradient>
<path fill="url(#SVGID_1_)" d="M393.537,719.325"/>
<radialGradient id="SVGID_2_" cx="-359.933" cy="394.698" r="0" gradientTransform="matrix(1 0 0 -1 675.5 1102)" gradientUnits="userSpaceOnUse">
	<stop  offset="0.5074" style="stop-color:#0F727E"/>
	<stop  offset="0.8325" style="stop-color:#00B4DE"/>
</radialGradient>
<path fill="url(#SVGID_2_)" d="M315.567,707.302"/>
<path fill="none" stroke="#263872" stroke-miterlimit="10" d="M739,806.5"/>
<path fill="#FAB56E" d="M370.063,388.646c0,0,21.833,3.333,32.667,1.25l0.167,2.333c0,0-24.167,2.917-31.917-1s-0.5-0.167-0.5-0.167
	l-0.417-2"/>
<path fill="#FAB56E" d="M460.22,268.189c42.55,6.684,167.301,34.215,167.301,34.215c-20.709-67.111-86.887-91.186-123.516-99.507
	c3.566-4.129,16.078-18.633,20.011-23.441c-0.002,0.002,15.827-23.342-1.342-42.465c-14.47-16.116-34.479-28.814-53.171-38.22
	c-91.231-56.033-154.09-38.615-154.09-38.615c-33.947,7.988-50.16,30.435-56.308,41.592c-18.486,26.73-28.751,67.476-28.751,67.476
	s-50.853-0.38-40.413,22.66s40.68,46.8,68.76,63c0,0-0.72,24.48,10.08,21.96c10.8-2.52,24.501-15.361,24.501-15.361l92.089,64.292
	l105.17,64.469c11.389-27.468,18.18-85.627,19.069-93.581c0.833-3.082,1.46-5.414,1.451-5.419l-50.4-14.22
	C460.66,277.024,460.142,273.565,460.22,268.189z"/>
<polygon fill="#FAB56E" points="357.388,279.927 370.146,390.571 402.313,392.904 398.315,302.439 "/>
<polygon fill="#EE9062" points="385.063,392.458 374.091,290.159 398.648,302.439 402.896,392.292 "/>
<path fill="#7C2117" d="M539.12,151.45"/>
<path fill="#551413" d="M447.51,166.348l-2.597-8.722c0,0,18.33-23.707,37.693-20.141c19.363,3.567,32.815,21.861,32.815,21.861
	l6.637-3.153l-4.122,10.513C517.933,166.707,480.309,144.462,447.51,166.348z"/>
<ellipse transform="matrix(-0.1736 0.9848 -0.9848 -0.1736 805.107 -167.4747)" fill="#070707" cx="472.821" cy="254.061" rx="7.83" ry="32.663"/>
<path fill="#EB8F63" d="M329.96,233.771c4.479,8.398,23.979,34.59,40.521,34.073c11.261-0.352,18.849-11.479,22.772-19.19
	C370.184,251.32,340.827,238.88,329.96,233.771z"/>
<g>
	<path fill="#7C2117" d="M334.251,277.971"/>
	<path fill="#7C2117" d="M337.728,276.041c0.043-0.001,0.084-0.006,0.127-0.006C337.855,276.034,337.803,276.037,337.728,276.041z"
		/>
</g>
<path fill="#7C2117" d="M308.47,291.154"/>
<path fill="#7C2117" d="M329.711,285.529"/>
<path fill="#D77B48" d="M258.212,223.702c4.218,6.26,7.854,13.908,10.263,23.257l3.965-1.017
	c-11.789-45.773-51.706-53.281-52.108-53.352l-0.706,4.034c0.269,0.048,19.67,3.701,34.682,21.847
	c-12.417,7.976,0.46,27.297,0.46,27.297C246.465,230.264,254.784,225.098,258.212,223.702z"/>
<path opacity="0.3" fill="#EB8F63" enable-background="new    " d="M466.5,350.364c-13.455,5.382-67.762-16.891-74.833-19.839
	l99.313,60.879c11.389-27.468,18.18-85.627,19.069-93.581c0.833-3.082,1.46-5.414,1.451-5.419
	C511.5,292.404,480.901,344.604,466.5,350.364z"/>
<path fill="#7C2117" d="M564.161,288.724l-20.679-4.344h-0.001l-18.589-3.905l-7.261-1.65l-0.182,0.031l-81.988-18.391
	c0,0-60.84,38.7-85.14,39.06c-15.474,0.229-17.951-6.546-17.713-11.499c0.824,0.404,1.748,0.637,2.728,0.637
	c3.43,0,6.21-2.78,6.21-6.21c0-3.153-2.35-5.758-5.395-6.157l-0.247-0.03c-6.239-0.591-18.61,5.482-10.244,27.939
	c10.184,27.335,47.488,35.158,65.204,33.073c40.745-1.622,118.846-41.533,118.846-41.533s-2.377,24.658-3.622,29.98
	c21.961,1.544,54.772-13.058,54.772-13.058C576.281,304.389,564.161,288.724,564.161,288.724z"/>
<path opacity="0.53" fill="#551413" enable-background="new    " d="M564.161,288.724l-20.679-4.344h-0.001l-18.589-3.905
	l-7.261-1.65l-0.182,0.031l-26.383-5.918c-5.79,6.167-33.35,32.695-90.615,46.477c-62.344,15.004-75.859-30.213-76.882-34.028
	c-1.263,4.323-1.034,10.426,2.092,18.818c10.184,27.335,47.488,35.158,65.204,33.073c40.745-1.622,118.846-41.533,118.846-41.533
	s-2.377,24.658-3.622,29.98c21.961,1.544,54.772-13.058,54.772-13.058C576.281,304.389,564.161,288.724,564.161,288.724z"/>
<path fill="#7C2117" d="M297.419,226.636c0,0-1.717-11.313-0.995-24.456c3.691-67.227-32.08-91.691-32.08-91.691
	c-42.531-6.233-45.857,48.113-44.353,56.006c0.102,0.537,0.424,1.201,0.921,1.966c5.221,0.784,32.103,5.763,44.101,26.516
	c13.32,23.04,29.52,66.24,29.52,66.24s-0.137,0.33-0.369,0.888l21.519,15.132C318.922,246.996,297.419,226.636,297.419,226.636z"/>
<path fill="#551413" d="M233.035,133.158c0,0,10.025-17.124,19.212-16.288s29.233,20.045,24.64,65.569
	C276.887,182.438,263.522,134.41,233.035,133.158z"/>
<path opacity="0.5" fill="#EB8F63" enable-background="new    " d="M294.892,127.116l-9.18-15.66c0,0,47.52-41.58,93.96-17.28
	s98.82,29.16,119.34,27.54c0,0-21.06,15.66-58.32,4.86s-64.8-30.24-85.32-27.54C334.853,101.736,317.573,108.216,294.892,127.116z"
	/>
<path opacity="0.5" fill="#EB8F63" enable-background="new    " d="M378.592,83.916c0,0,79.92,26.46,99.36,22.14l12.96,9.72
	C490.913,115.776,440.693,123.876,378.592,83.916z"/>
<g>
	<path fill="#F59964" d="M441.698,199.185c0,0,8.851-30.856,39.491-29.589c0,0,27.745-0.792,25.022,29.751L441.698,199.185z"/>
	<path fill="#F9F7F5" d="M461.637,182.734c0,0,27.678-3.825,44.511,18.008c0,0-23.169,21.466-61.553,1.921"/>
	<path fill="#13100E" d="M461.637,182.734c0,0,11.726-0.957,13.219,18.144l-30.261,1.785
		C444.595,202.663,442.197,191.028,461.637,182.734z"/>
	<circle fill="#F9F7F5" cx="463.451" cy="189.214" r="1.426"/>
</g>
<g>
	<path fill="#551413" d="M331.507,161.088l4.677-18.709l11.361,3.342c0,0,38.755-24.055,52.12-19.378
		c13.365,4.675,14.701,26.728,16.038,32.74C415.703,159.083,374.272,133.691,331.507,161.088z"/>
	<path fill="#F59964" d="M338.358,189.323c0,0,8.686-32.575,38.756-31.24c0,0,27.229-0.833,24.558,31.407L338.358,189.323z"/>
	<path fill="#F9F7F5" d="M362.781,171.532c0,0,23.747-3.212,38.89,17.958c0,0-17.711,32.539-51.284,19.542"/>
	<path fill="#13100E" d="M362.781,171.532c-23.328,5.184-22.291,23.155-22.291,23.155l0.469-0.051
		c0.416,3.715,2.212,10.272,9.428,14.396c0,0,14.534-1.502,22.218-17.874C377.073,173.806,362.781,171.532,362.781,171.532z"/>
	<circle fill="#F9F7F5" cx="357.315" cy="184.984" r="1.426"/>
</g>
<path fill="#FAB56E" d="M433.66,200.164c0,0,105.84-13.68,161.28,49.68l-22.32,10.08l-111.6-14.4c0,0-31.68-9.36-34.56-10.08"/>
<g>
	<path fill="#EB8F63" d="M523.253,279.807L628.6,302.944c-3.751-14.762-10.544-27.539-18.819-38.489l0.279-0.031
		c-30.24-40.32-75.42-53.82-75.42-53.82s0.583,0.472,1.617,1.331c10.662,6.669,57.299,36.975,56.343,56.269
		C591.75,285.359,543.894,282.191,523.253,279.807z"/>
	<path fill="#EB8F63" d="M513.041,277.564l0.627,0.138c-0.005-0.019-0.009-0.039-0.014-0.058
		C513.26,277.594,513.041,277.564,513.041,277.564z"/>
</g>
<path fill="#EB8F63" d="M425.56,253.264c0,0,0-21.6,31.32-17.28C456.88,235.984,415.841,223.024,425.56,253.264z"/>
<g>
	<g>
		<path fill="#414242" d="M369.469,384.703c-1.734,0.853-2.822,1.837-2.822,2.881c0,1.153,1.676,2.348,3.76,3.26L369.469,384.703z"
			/>
		<path fill="#414242" d="M402.518,382.989l0.461,8.886l0.029,0.187c4.578-1.092,7.471-2.693,7.471-4.479
			C410.479,385.734,407.38,384.082,402.518,382.989z"/>
	</g>
	
		<radialGradient id="SVGID_3_" cx="-288.6875" cy="708.9915" r="43.8859" gradientTransform="matrix(1 0 0 -1 675.5 1102)" gradientUnits="userSpaceOnUse">
		<stop  offset="0.5128" style="stop-color:#405684"/>
		<stop  offset="0.8325" style="stop-color:#5A7ABA"/>
	</radialGradient>
	<path fill="url(#SVGID_3_)" d="M402.453,382.584l0.047,1.056c4.786,1.076,7.645,2.639,7.645,4.11c0,2.582-8.795,5.459-21.417,5.459
		s-21.416-2.877-21.416-5.459c0-0.78,0.815-1.586,2.283-2.332l-0.158-1.074c-1.972,0.937-3.125,2.061-3.125,3.406
		c0,4.195,11.549,6.459,22.417,6.459s22.417-2.264,22.417-6.459C411.146,385.405,407.534,383.664,402.453,382.584z"/>
</g>
<path fill="#8A8C85" d="M290.333,82.5c0,0-0.82,1.961-1.333,4c-4.699,18.649-35.871,118.015,8,191.333
	c48.667,81.333,98,86.667,139.333,79.333c0,0,9.333,32,20.667,40.667c0,0-65.333,70.667-149.333,10c0,0,15.333-37.333,1.333-67.333
	s-128-129.333-122.667-152s28-24,28-24s6.333-59.667,52.167-73.5"/>
<linearGradient id="SVGID_4_" gradientUnits="userSpaceOnUse" x1="171.5" y1="724" x2="358.5" y2="724" gradientTransform="matrix(1 0 0 -1 96.5 775)">
	<stop  offset="0" style="stop-color:#484941"/>
	<stop  offset="0.8065" style="stop-color:#5D5E58"/>
</linearGradient>
<path fill="url(#SVGID_4_)" d="M268,89.5c0,0,48-71,93-77c0,0,61,9,94,69C455,81.5,397,52.5,268,89.5z"/>
<path opacity="0.3" fill="#3B3B3B" enable-background="new    " d="M361,12.5c0,0-18.25,34-14,50.25l-69.25,14
	C277.75,76.75,320.75,17.5,361,12.5z"/>
<path fill="#3B3B3B" d="M266.5,91c0,0,89.75-37,192,1.75L455,81.5c0,0-65.75-51.5-177.75-7.5L266.5,91z"/>
<path opacity="0.5" fill="#71726D" enable-background="new    " d="M264.333,104.833c0,0-29.333,15.333-28.667,68
	c0,0-31.333,6-26,22s86.667,114,86.667,114s-109.972-98.07-100-122.667c10-24.667,32-18.667,32-18.667
	S229.667,108.833,264.333,104.833z"/>
<linearGradient id="SVGID_5_" gradientUnits="userSpaceOnUse" x1="562.5847" y1="393.6146" x2="666.0847" y2="232.1146" gradientTransform="matrix(1 0 0 -1 96.5 775)">
	<stop  offset="0" style="stop-color:#484941"/>
	<stop  offset="0.7693" style="stop-color:#5C5D57"/>
	<stop  offset="0.8065" style="stop-color:#5D5E58"/>
</linearGradient>
<path fill="url(#SVGID_5_)" d="M609.667,461.167c0,0,83.333,12.333,148.333-111.667l24,22.75c0,0-44.833,136.417-168.833,138.417"/>
<path fill="#5D5E58" d="M589.833,518.333L608,455.5l14.5,1.5l4.333,55.833C626.833,512.833,617.833,528.833,589.833,518.333z"/>
<linearGradient id="SVGID_6_" gradientUnits="userSpaceOnUse" x1="361.167" y1="355.8096" x2="445.834" y2="355.8096" gradientTransform="matrix(1 0 0 -1 96.5 775)">
	<stop  offset="0" style="stop-color:#484941"/>
	<stop  offset="0.8065" style="stop-color:#5D5E58"/>
</linearGradient>
<path fill="url(#SVGID_6_)" d="M469.667,419.167c0,0,44,3,72.667,19.333c0,0-41.333-44.333-84.667-38"/>
<path fill="#5F605A" d="M771,363.5l-40,60c1.983,2.314,3.747,4.068,5.293,5.398C694.248,482.648,627.5,496.5,627.5,496.5l-2,7
	C693.5,498,740,432,740,432l-0.56-0.747c3.371,2.116,5.06,1.747,5.06,1.747l35-65L771,363.5z"/>
<g>
	<g>
		<path fill="#71726D" d="M803.823,309.303c0,0-20.2-14.6-33-5.4s-14,20.2-15.4,28.8c0,0,0.433,8.115-0.442,16.668l-56.758,58.532
			c0,0,31.2,41.4,54.6,46.2l31.8-80.1c1.788,0.349,19.187,9.218,32.346,11.159c1.058,0.191,2.16,0.375,3.354,0.541
			c1.253,0.174,2.43,0.283,3.569,0.361c1.905,0.198,3.415,0.293,4.331,0.239c0.564-0.033,1.097-0.135,1.617-0.265
			c14.596-1.282,16.81-11.673,17.129-14.183c2.992-1.544,5.681-3.666,5.854-6.352c0.4-6.2-0.4-8.6-0.4-8.6s0.419-0.223,1.082-0.618
			c5.46-0.867,18.056-3.208,21.318-6.782c3.659-4.008-4.521-10.594-6.688-12.225c4.384-0.717,16.983-3.283,19.288-9.375
			C890.223,320.504,846.623,301.904,803.823,309.303z"/>
	</g>
	<path fill="#71726D" d="M803.023,310.503l20.4,14.6c0,0-20.8,36.8-40.8,31.2c0,0-3.2-23.2,13.6-31.2"/>
	<path fill="#3F3F3C" d="M842.039,360.014c3.739,0,7.455-0.403,10.983-1.372l-0.635-2.314c-17.482,4.803-40.734-5.413-45.803-7.802
		c5.077-4.641,9.443-10.157,12.592-14.614l-0.592,1.51c10.637,4.171,23.126,5.195,32.827,5.195c8.953,0,15.533-0.873,16.086-0.949
		l-0.326-2.378c-0.276,0.037-27.668,3.668-47.534-4.039c2.836-4.074,4.591-7.133,4.83-7.557l0.531-0.939l-21.277-15.227
		l-1.397,1.951l19.507,13.961c-3.323,5.521-21.189,33.64-38.102,29.904c-0.349-4.052-1.105-22.436,13.009-29.157l-1.031-2.167
		c-17.392,8.282-14.306,32.207-14.272,32.447l0.107,0.779l0.758,0.212c1.535,0.43,3.068,0.629,4.595,0.629
		c1.594,0,3.177-0.234,4.744-0.634c12.875,14.94,34.318,17.222,46.181,17.222c4.825,0,8.065-0.376,8.496-0.43l-0.293-2.381
		c-0.346,0.04-34.346,3.961-51.863-15.201c3.658-1.386,7.182-3.684,10.457-6.421C806.574,351.225,824.574,360.014,842.039,360.014z"
		/>
	<path fill="#5F605A" d="M734.223,443.904l37.6-73.6c0,0-14.8-36.4-4.8-48.8c0,0-5.2,40.6,17.6,52.5l-32,78.3
		C752.623,452.304,747.423,455.904,734.223,443.904z"/>
</g>
<linearGradient id="SVGID_7_" gradientUnits="userSpaceOnUse" x1="141.6111" y1="204.6047" x2="199.5" y2="204.6047" gradientTransform="matrix(1 0 0 -1 96.5 775)">
	<stop  offset="0" style="stop-color:#484941"/>
	<stop  offset="0.8065" style="stop-color:#5D5E58"/>
</linearGradient>
<path fill="url(#SVGID_7_)" d="M243,519.5c0,0-11,70,0,112c0,0,25,11,53-2l-10-124c0,0-16-5-47,15"/>
<linearGradient id="SVGID_8_" gradientUnits="userSpaceOnUse" x1="132.9726" y1="216.363" x2="403.213" y2="216.363" gradientTransform="matrix(1 0 0 -1 96.5 775)">
	<stop  offset="0" style="stop-color:#484941"/>
	<stop  offset="0.8065" style="stop-color:#5D5E58"/>
</linearGradient>
<path fill="url(#SVGID_8_)" d="M495.09,497.583c-3.243-49.584-38.09-99.75-38.09-99.75c-90,32-149.333,10-149.333,10
	S222,425.5,230,526.5c0,0,46-27,73-23c0,0-12.704-47.188,1.653-66.356C306.228,472.346,319,518.621,319,518.621l3.599,190.007
	c107.599,35.461,177.114-27.653,177.114-27.653S498.333,547.167,495.09,497.583z"/>
<path fill="#3B3B3B" d="M322.421,707.129L315,644.5c0,0,0-44-11-51s-24,4-24,4l12.441,96.656
	C296.821,696.144,310.25,703.5,322.421,707.129z"/>
<linearGradient id="SVGID_9_" gradientUnits="userSpaceOnUse" x1="156.5" y1="102" x2="198" y2="102" gradientTransform="matrix(1 0 0 -1 96.5 775)">
	<stop  offset="0" style="stop-color:#484941"/>
	<stop  offset="0.8065" style="stop-color:#5D5E58"/>
</linearGradient>
<path fill="url(#SVGID_9_)" d="M258.5,669l-5.5-16l32.5-3l9,46C294.5,696,268.5,679.5,258.5,669z"/>
<linearGradient id="SVGID_10_" gradientUnits="userSpaceOnUse" x1="141.2222" y1="136.5" x2="195.5" y2="136.5" gradientTransform="matrix(1 0 0 -1 96.5 775)">
	<stop  offset="0" style="stop-color:#484941"/>
	<stop  offset="0.8065" style="stop-color:#5D5E58"/>
</linearGradient>
<path fill="url(#SVGID_10_)" d="M238,620.5c0,0-2.5,23,7.5,32s46.5,0,46.5,0l-7-29C285,623.5,250.5,628.5,238,620.5z"/>
<path opacity="0.2" fill="#3B3B3B" enable-background="new    " d="M241.885,648.033c0.899,1.571,2.078,3.084,3.615,4.467
	c10,9,46.5,0,46.5,0l-2.315-4.736C269.773,653.819,252.4,651.092,241.885,648.033z"/>
<path opacity="0.2" fill="#3B3B3B" enable-background="new    " d="M254.082,624.59c1.361,0.105,2.76,0.185,4.18,0.25
	c-8.781-47.373-0.762-117.34-0.762-117.34l-3,0.5c-1-45,22.5-74.5,22.5-74.5c-26.5,13-30,80.5-30,80.5l4.5,2.5
	C246.684,553.425,251.854,605.483,254.082,624.59z"/>
<path opacity="0.6" fill="#3B3B3B" enable-background="new    " d="M339,710.5l-3-195c0,0,90,12,146-29l3,206
	C485,692.5,414,740.5,339,710.5z"/>
<path fill="#3B3B3B" d="M853.206,147.653l-29.702,168.446l1.669,0.529c0.19,0.061,0.382,0.121,0.575,0.182l-0.195,1.109L842,321
	l30-169L853.206,147.653z"/>
<path opacity="0.3" fill="#263460" enable-background="new    " d="M829.738,220.087c-3.882-2.206-7.902-4.723-12.071-7.587
	c-72.378-49.725-128.728-53.661-145.906-53.551l-0.431,18.437C743.719,179.663,829.5,255.5,829.5,255.5
	C828.176,244.065,828.495,231.927,829.738,220.087z"/>
</svg>
