<?xml version="1.0" encoding="utf-8"?>
<!-- Generator: Adobe Illustrator 17.0.0, SVG Export Plug-In . SVG Version: 6.00 Build 0)  -->
<!DOCTYPE svg PUBLIC "-//W3C//DTD SVG 1.1//EN" "http://www.w3.org/Graphics/SVG/1.1/DTD/svg11.dtd">
<svg version="1.1" id="Layer_1" xmlns="http://www.w3.org/2000/svg" xmlns:xlink="http://www.w3.org/1999/xlink" x="0px" y="0px"
	 width="470px" height="280px" viewBox="0 0 470 280" enable-background="new 0 0 470 280" xml:space="preserve">
<g>
	<path fill="#F7CBDD" d="M413.924,123.198c-8.192-35.499-53.931-74.411-109.227-30.037c0,0-31.071-30.471-71.68-27.307
		c-52.565,4.096-78.507,62.123-78.507,62.123c-34.815-72.452-101.717-43.008-111.957,5.461
		c-10.24,48.469,60.075,51.883,60.075,51.883c-2.972,16.003,4.933,21.356,16.756,21.408c0.246,0.002,0.493,0.004,0.743,0.001
		c0.147-0.002,0.294-0.005,0.442-0.009c22.692-0.45,58.627-19.231,61.272-20.63c0.569,2.084,13.103,44.907,82.918,45.042
		c8.794,0.027,18.498-0.624,29.205-2.122c0,0,58.832-2.376,68.683-26.94c-0.062-0.003-0.124-0.007-0.186-0.01
		c3.095-7.73,1.353-17.652-8.612-30.394C353.85,171.668,422.116,158.697,413.924,123.198z"/>
	<g>
		<g>
			<path fill="#F5F7F8" d="M159.646,118.15c0,0,25.941-58.027,78.507-62.123c40.609-3.164,71.68,27.307,71.68,27.307
				c55.296-44.373,101.035-5.461,109.227,30.037c8.192,35.499-60.075,48.469-60.075,48.469
				c41.643,53.248-60.075,57.344-60.075,57.344c-97.621,13.653-111.957-43.008-111.957-43.008s-88.064,47.104-79.189-0.683
				c0,0-70.315-3.413-60.075-51.883S124.831,45.698,159.646,118.15z"/>
		</g>
		<path opacity="0.3" fill="#DBDFDF" d="M195.43,159.163c-7.844,11.495-29.335,26.146-87.875,25.824
			c4.688,31.252,79.587-8.81,79.587-8.81s14.336,56.661,111.957,43.008c0,0,58.832-2.376,68.683-26.94
			C304.525,189.427,237.016,171.874,195.43,159.163z"/>
	</g>
</g>
</svg>
