<?xml version="1.0" encoding="utf-8"?>
<!-- Generator: Adobe Illustrator 17.0.0, SVG Export Plug-In . SVG Version: 6.00 Build 0)  -->
<!DOCTYPE svg PUBLIC "-//W3C//DTD SVG 1.1//EN" "http://www.w3.org/Graphics/SVG/1.1/DTD/svg11.dtd">
<svg version="1.1" id="Layer_1" xmlns="http://www.w3.org/2000/svg" xmlns:xlink="http://www.w3.org/1999/xlink" x="0px" y="0px"
	 width="985px" height="720px" viewBox="0 0 985 720" enable-background="new 0 0 985 720" xml:space="preserve">
<ellipse fill="#142551" cx="386.864" cy="555.928" rx="177.707" ry="163.072"/>
<path fill="#FAB56E" d="M291.474,693.13l-0.374-2.056c-19.499-86.996,6-164.992,6-164.992L278,496.5
	c-23.583,61.521-21.465,134.017-17.764,173.741C265.603,674.401,275.75,684.5,291.474,693.13z"/>
<path opacity="0.6" fill="#EB8F63" enable-background="new    " d="M297.1,526.082l-10.214-15.819
	c-4.713,25.496-17.49,105.468-7.031,174.709c3.867,2.803,7.857,5.624,11.619,8.158l-0.374-2.056
	C271.601,604.078,297.1,526.082,297.1,526.082z"/>
<path fill="#FAB56E" d="M716.331,453.498C684.35,482.287,629.797,507.604,542.065,486l-0.057-0.809
	c-10.219-2.182-20.708-5.357-31.443-9.691l27-28c0,0,78.447,35.636,150.735-4.393c37.967-21.727,67.35-81.678,67.35-81.678
	c2.311-4.62,3.388-24.955,7.09-39.755c3.698-14.792,20.186-35.133,22.5-41.145c2.312-6.011-5.549-18.494-5.549-18.494
	c6.933-2.31,14.329,3.702,14.329,3.702c14.795,22.19-8.78,35.136-14.329,47.616c-5.549,12.484,7.399,24.035,27.738,27.737
	c20.343,3.698,44.384-9.708,50.853-29.588c6.472-19.879-22.187-39.294-23.577-53.161c-1.388-13.875,14.794-15.259,14.794-15.259
	c-5.084,16.18,29.59,45.765,24.502,71.655s-42.994,34.676-42.994,37.451s-0.925,11.557-0.925,11.557
	c18.492,6.01,36.059-2.773,61.947-11.557C917.923,343.401,966,357.27,966,357.27c-16.18,20.806-82.751,40.687-82.751,40.687
	c-18.496,7.855-105.871-10.637-114.193-11.098C769.056,386.859,732.663,439.496,716.331,453.498z"/>
<path opacity="0.6" fill="#EB8F63" enable-background="new    " d="M766.333,386.5C673.667,523.833,555,477.167,555,477.167
	l-15.789-28.964c-1.072-0.443-1.646-0.702-1.646-0.702l-27,28c10.735,4.334,21.225,7.509,31.443,9.691l0.057,0.809
	c87.732,21.604,142.285-3.713,174.266-32.502c16.331-14.002,52.725-66.639,52.725-66.639l-2.721-0.361
	C766.334,386.499,766.334,386.499,766.333,386.5z"/>
<path fill="#EB8F63" d="M784.966,262.655c0,0,9.865,14.177,3.085,25.271c-6.785,11.098-26.51,32.057-10.483,41.92
	c16.028,9.857,12.328,4.927,12.328,4.927s-12.328-4.927-11.094-15.414c1.233-10.48,30.206-32.667,15.716-53.622
	C794.519,265.737,788.666,262.035,784.966,262.655z"/>
<path fill="#EB8F63" d="M840.445,246.516c0,0-12.327,11.704-0.616,22.8c8.881,8.416,23.424,30.822,20.343,39.453
	c0,0,1.849-16.03-11.098-37.602C836.131,249.598,840.445,246.516,840.445,246.516z"/>
<path fill="#A64C25" d="M850.07,375.21c5.272,0,10.857-0.659,16.093-2.529c39.378-14.058,68.814-15.645,82.894-4.467l1.217-1.535
	c-18.742-14.888-56.444-5.961-84.77,4.157c-14.308,5.105-31.918,0.626-36.845-0.821c2.968-7.716,2.434-14.569,2.398-14.979
	l-1.952,0.168c0.012,0.138,1.084,13.85-8.366,23.893c-8.643-5.394-15.541-12.593-21.193-18.5c-3.125-3.266-5.824-6.085-8.299-8.089
	c-2.789-2.259-5.909-3.093-9.253-2.475c-10.689,1.964-20.169,18.086-20.567,18.771l1.696,0.984
	c0.092-0.159,9.415-16.025,19.225-17.828c2.804-0.524,5.31,0.163,7.666,2.071c2.38,1.925,5.038,4.702,8.116,7.92
	c10.759,11.246,25.899,27.073,48.914,27.071c5.842,0,12.195-1.021,19.108-3.396c41.307-14.177,52.082-10.862,59.577-6.249
	l1.026-1.669c-8.219-5.055-19.093-8.397-61.239,6.066c-17.867,6.134-31.879,2.838-43.065-3.649c2.422-2.647,4.178-5.492,5.443-8.285
	C831.077,372.807,840,375.21,850.07,375.21z"/>
<g>
	<g>
		<path opacity="0.3" fill="#90B1B8" enable-background="new    " d="M831.754,219.399c-5.064,0.75-15.772,9.043-20.333,12.735
			c14.56-2.9,22.096-7.98,23.483-13.197C833.935,219.078,832.907,219.228,831.754,219.399z"/>
	</g>
	<path fill="#F6CE1F" d="M815.61,70.377c-0.241,0-0.479,0.019-0.713,0.035c-0.238-0.017-0.475-0.035-0.716-0.035
		c-33.941,0-61.452,27.515-61.452,61.454c0,14.368,4.967,27.554,13.23,38.019c6.285,9.893,18.943,33.159,21.772,63.826l13.152,1.765
		l-0.007,0.293l1.091-0.147l12.532,1.683v0.106l0.397-0.054l0.393,0.054v-0.106l12.532-1.683l1.091,0.147l-0.007-0.293l13.152-1.765
		c2.829-30.666,15.487-53.933,21.772-63.826c8.263-10.465,13.23-23.65,13.23-38.019C877.062,97.891,849.551,70.377,815.61,70.377z"
		/>
	<polygon fill="#293D6D" points="821.077,229.198 821.077,229.081 814.657,229.139 808.238,229.081 808.238,229.198 786.94,229.394 
		786.94,267.29 794.456,267.29 794.456,275.12 804.164,275.12 804.164,282.323 808.238,282.323 821.077,282.323 825.151,282.323 
		825.151,275.12 834.858,275.12 834.858,267.29 842.375,267.29 842.375,229.394 	"/>
	<circle fill="#FDF3F3" cx="779.971" cy="103.955" r="8.87"/>
	<path opacity="0.4" fill="#E5A226" enable-background="new    " d="M780.897,199.91h24.108c0,0,30.576-59.388,61.152-39.396
		l0.718,4.486c0,0-19.625,36.875-21.886,49.61c-1.673,9.425-2.026,15.372-2.026,15.372l-55.088-0.607l-6.875-28.5"/>
	<g>
		<path fill="#465891" d="M814.933,53.48c-0.974,0-1.764-0.79-1.764-1.764V5.264c0-0.974,0.79-1.764,1.764-1.764
			s1.764,0.79,1.764,1.764v46.452C816.697,52.69,815.907,53.48,814.933,53.48z"/>
	</g>
	<g>
		<path fill="#465891" d="M754.369,81.259c-0.689,0.689-1.806,0.689-2.495,0l-32.847-32.847c-0.689-0.689-0.689-1.806,0-2.495
			s1.806-0.689,2.495,0l32.847,32.847C755.058,79.453,755.058,80.57,754.369,81.259z"/>
	</g>
	<g>
		<path fill="#465891" d="M873.287,81.847c0.689,0.689,1.806,0.689,2.495,0L908.629,49c0.689-0.689,0.689-1.806,0-2.495
			s-1.806-0.689-2.495,0l-32.847,32.847C872.598,80.041,872.598,81.158,873.287,81.847z"/>
	</g>
</g>
<path fill="none" stroke="#080B14" stroke-miterlimit="10" d="M539.5,451.5"/>
<radialGradient id="SVGID_1_" cx="7.537" cy="501.325" r="0" gradientTransform="matrix(1 0 0 1 386 218)" gradientUnits="userSpaceOnUse">
	<stop  offset="0.5074" style="stop-color:#0F727E"/>
	<stop  offset="0.8325" style="stop-color:#00B4DE"/>
</radialGradient>
<path fill="url(#SVGID_1_)" d="M393.537,719.325"/>
<radialGradient id="SVGID_2_" cx="-70.433" cy="489.302" r="0" gradientTransform="matrix(1 0 0 1 386 218)" gradientUnits="userSpaceOnUse">
	<stop  offset="0.5074" style="stop-color:#0F727E"/>
	<stop  offset="0.8325" style="stop-color:#00B4DE"/>
</radialGradient>
<path fill="url(#SVGID_2_)" d="M315.567,707.302"/>
<path fill="none" stroke="#263872" stroke-miterlimit="10" d="M739,806.5"/>
<radialGradient id="SVGID_3_" cx="-8.1842" cy="149.7628" r="562.3298" gradientTransform="matrix(1 0 0 -1 289.5 884)" gradientUnits="userSpaceOnUse">
	<stop  offset="0.5128" style="stop-color:#405684"/>
	<stop  offset="0.8325" style="stop-color:#5A7ABA"/>
</radialGradient>
<path fill="url(#SVGID_3_)" d="M443.5,390.125c-13.625-8.5-25.355-10.577-25.355-10.577c-15.598-4.099-29.638-5.408-42.164-4.819
	C292.963,372.837,272.3,495.493,272.3,495.493c7.804,15.394,23.35,43.068,39.406,54.54l7.794-30.412l1,40l2.599,150.007
	c9.082,2.954,43.932,13.301,76.068,9.571c2.836-0.329,5.401-0.53,7.726-0.622c28.76-3.868,61.543-14.09,93.32-36.602l1.173-21.228
	l0.056-1.129l-5.852-161.035l0,0c10.153,5.352,41.369,12.814,66.189,18.919c-0.123-20.978,3.373-54.756,4.71-66.873
	c-14.722-2.073-46.392-18.116-74.229-33.546C492.26,417.083,457.125,398.625,443.5,390.125z"/>
<path fill="#FAB56E" d="M460.907,266.314c42.55,6.684,167.301,34.215,167.301,34.215c-20.709-67.111-86.887-91.186-123.516-99.507
	c3.566-4.129,16.078-18.633,20.011-23.441c-0.002,0.002,15.827-23.342-1.342-42.465c-14.47-16.116-34.479-28.814-53.171-38.22
	C378.959,40.863,316.1,58.281,316.1,58.281c-33.947,7.988-50.16,30.435-56.308,41.592c-18.486,26.73-28.751,67.476-28.751,67.476
	s-50.853-0.38-40.413,22.66s40.68,46.8,68.76,63c0,0-0.72,24.48,10.08,21.96c10.8-2.52,24.501-15.361,24.501-15.361l92.089,64.292
	l105.17,64.469c11.389-27.468,18.18-85.627,19.069-93.581c0.833-3.082,1.46-5.414,1.451-5.419l-50.4-14.22
	C461.348,275.149,460.83,271.69,460.907,266.314z"/>
<polygon fill="#FAB56E" points="358.075,278.052 370.833,388.696 403,391.029 399.002,300.564 "/>
<polygon fill="#EE9062" points="385.75,390.583 374.778,288.284 399.336,300.564 403.583,390.417 "/>
<path fill="#7C2117" d="M539.807,149.575"/>
<path fill="#F59964" d="M443.267,187.524c0,0,9.035-31.499,40.313-30.205c0,0,28.323-0.809,25.543,30.371L443.267,187.524z"/>
<g>
	<ellipse fill="#F9F7F5" cx="478.589" cy="192.074" rx="29.365" ry="21.324"/>
	<path fill="#DB7F57" d="M507.651,188.521c-1.959-10.395-14.206-18.416-29.061-18.416s-27.105,8.021-29.064,18.416H507.651z"/>
	<rect x="440.362" y="188.195" fill="#090A0A" width="82.711" height="3.07"/>
	<path fill="#13100E" d="M448.877,190.946c0,0-1.043,10.821,9.905,16.636c0,0,15.117-1.452,23.111-17.283L448.877,190.946z"/>
</g>
<path fill="#551413" d="M448.198,164.473l-2.597-8.722c0,0,18.33-23.707,37.693-20.141c19.363,3.567,32.815,21.861,32.815,21.861
	l6.637-3.153l-4.122,10.513C518.621,164.832,480.996,142.587,448.198,164.473z"/>
<path fill="#FAB56E" d="M434.348,198.289c0,0,105.84-13.68,161.28,49.68l-22.32,10.08l-111.6-14.4c0,0-31.68-9.36-34.56-10.08"/>
<ellipse transform="matrix(0.9848 0.1736 -0.1736 0.9848 50.969 -78.3739)" fill="#070707" cx="473.512" cy="252.179" rx="32.666" ry="7.83"/>
<path fill="#EB8F63" d="M426.248,251.389c0,0,0-21.6,31.32-17.28C457.568,234.109,416.528,221.149,426.248,251.389z"/>
<path fill="#EB8F63" d="M330.647,231.896c4.479,8.398,23.979,34.59,40.521,34.073c11.261-0.352,18.849-11.479,22.772-19.19
	C370.871,249.445,341.514,237.005,330.647,231.896z"/>
<g>
	<path fill="#7C2117" d="M334.939,276.096"/>
	<path fill="#7C2117" d="M338.416,274.166c0.043-0.001,0.084-0.006,0.127-0.006C338.543,274.159,338.491,274.162,338.416,274.166z"
		/>
</g>
<path fill="#7C2117" d="M309.158,289.279"/>
<path fill="#7C2117" d="M330.398,283.654"/>
<path fill="#D77B48" d="M258.9,221.827c4.218,6.26,7.854,13.908,10.263,23.257l3.965-1.017
	c-11.789-45.773-51.706-53.281-52.108-53.352l-0.706,4.034c0.269,0.048,19.67,3.701,34.682,21.847
	c-12.417,7.976,0.46,27.297,0.46,27.297C247.152,228.389,255.471,223.223,258.9,221.827z"/>
<g>
	<path fill="#EB8F63" d="M523.941,277.932l105.347,23.137c-3.751-14.762-10.544-27.539-18.819-38.489l0.279-0.031
		c-30.24-40.32-75.42-53.82-75.42-53.82s0.583,0.472,1.617,1.331c10.662,6.669,57.299,36.975,56.343,56.269
		C592.437,283.484,544.582,280.316,523.941,277.932z"/>
	<path fill="#EB8F63" d="M513.728,275.689l0.627,0.138c-0.005-0.019-0.009-0.039-0.014-0.058
		C513.947,275.719,513.728,275.689,513.728,275.689z"/>
</g>
<g>
	<path fill="#551413" d="M327.06,158.807l4.775-19.099l11.598,3.412c0,0,39.563-24.556,53.206-19.782
		c13.644,4.773,15.007,27.285,16.372,33.423C413.011,156.759,370.717,130.838,327.06,158.807z"/>
	<path fill="#F59964" d="M334.054,187.63c0,0,8.868-33.253,39.564-31.891c0,0,27.796-0.85,25.069,32.061L334.054,187.63z"/>
	<g>
		<ellipse fill="#F9F7F5" cx="365.775" cy="191.378" rx="28.821" ry="22.509"/>
		<path fill="#DB7F57" d="M394.297,187.627c-1.921-10.976-13.942-19.441-28.521-19.441c-14.581,0-26.602,8.465-28.522,19.441
			H394.297L394.297,187.627z"/>
		<rect x="328.257" y="187.284" fill="#090A0A" width="81.177" height="3.241"/>
		<path fill="#13100E" d="M336.615,190.185c0,0-1.024,11.425,9.719,17.564c0,0,14.837-1.534,22.681-18.246L336.615,190.185z"/>
	</g>
</g>
<path opacity="0.3" fill="#EB8F63" enable-background="new    " d="M467.188,348.489c-13.455,5.382-67.762-16.891-74.833-19.839
	l99.313,60.879c11.389-27.468,18.18-85.627,19.069-93.581c0.833-3.082,1.46-5.414,1.451-5.419
	C512.188,290.529,481.588,342.729,467.188,348.489z"/>
<path fill="#7C2117" d="M564.848,286.849l-20.679-4.344h-0.001l-18.589-3.905l-7.261-1.65l-0.182,0.031l-81.988-18.391
	c0,0-60.84,38.7-85.14,39.06c-15.474,0.229-17.951-6.546-17.713-11.499c0.824,0.404,1.748,0.637,2.728,0.637
	c3.43,0,6.21-2.78,6.21-6.21c0-3.153-2.35-5.758-5.395-6.157l-0.247-0.03c-6.239-0.591-18.61,5.482-10.244,27.939
	c10.184,27.335,47.488,35.158,65.204,33.073c40.745-1.622,118.846-41.533,118.846-41.533s-2.377,24.658-3.622,29.98
	c21.961,1.544,54.772-13.058,54.772-13.058C576.968,302.514,564.848,286.849,564.848,286.849z"/>
<path opacity="0.53" fill="#551413" enable-background="new    " d="M564.848,286.849l-20.679-4.344h-0.001l-18.589-3.905
	l-7.261-1.65l-0.182,0.031l-26.383-5.918c-5.79,6.167-33.35,32.695-90.615,46.477c-62.344,15.004-75.859-30.213-76.882-34.028
	c-1.263,4.323-1.034,10.426,2.092,18.818c10.184,27.335,47.488,35.158,65.204,33.073c40.745-1.622,118.846-41.533,118.846-41.533
	s-2.377,24.658-3.622,29.98c21.961,1.544,54.772-13.058,54.772-13.058C576.968,302.514,564.848,286.849,564.848,286.849z"/>
<path fill="#7C2117" d="M298.107,224.761c0,0-1.717-11.313-0.995-24.456c3.691-67.227-32.08-91.691-32.08-91.691
	c-42.531-6.233-45.857,48.113-44.353,56.006c0.102,0.537,0.424,1.201,0.921,1.966c5.221,0.784,32.103,5.763,44.101,26.516
	c13.32,23.04,29.52,66.24,29.52,66.24s-0.137,0.33-0.369,0.888l21.519,15.132C319.61,245.121,298.107,224.761,298.107,224.761z"/>
<path fill="#551413" d="M233.722,131.283c0,0,10.025-17.124,19.212-16.288c9.187,0.836,29.233,20.045,24.64,65.569
	C277.574,180.563,264.209,132.535,233.722,131.283z"/>
<path opacity="0.5" fill="#EB8F63" enable-background="new    " d="M295.58,125.241l-9.18-15.66c0,0,47.52-41.58,93.96-17.28
	s98.82,29.16,119.34,27.54c0,0-21.06,15.66-58.32,4.86s-64.8-30.24-85.32-27.54C335.54,99.861,318.26,106.341,295.58,125.241z"/>
<path opacity="0.5" fill="#EB8F63" enable-background="new    " d="M379.28,82.041c0,0,79.92,26.46,99.36,22.14l12.96,9.72
	C491.6,113.901,441.38,122.001,379.28,82.041z"/>
<path fill="#3B3B3B" d="M466,81.196c0,0,15.333-36-34-55.333S314.667-0.804,291.333,8.529C268,17.862,226.667,57.196,272,81.862
	c0,0,3,3.667,8.5-4.167s90.833-39.167,182.833,4.833"/>
<path opacity="0.5" fill="#1A1A18" enable-background="new    " d="M286,53.529c-18.892-9.677-9.38-25.469-2.527-41.096
	C260.246,25.998,231.447,59.797,272,81.862c0,0,3,3.667,8.5-4.167s90.833-39.167,182.833,4.833L466,81.196
	c0,0,1.265-2.977,1.899-7.673C381.333,24.529,286,53.529,286,53.529z"/>
<path fill="#1A1A1A" d="M278,64.196l2.5,13.5c0,0,102-27,182,15.5l5.399-19.673C467.899,73.523,410,33.862,278,64.196z"/>
<polyline fill="#3B3B3B" points="380,13.196 400,4.529 404,7.862 385.333,14.529 "/>
<path fill="#FAB56E" d="M370.833,388.696c0,0,16.083,2.471,32.417,1.138"/>
<g>
	<path fill="#414242" d="M370.058,382.831c-1.734,0.853-2.724,1.834-2.724,2.878c0,1.153,1.207,2.228,3.291,3.14L370.058,382.831z"
		/>
	<path fill="#414242" d="M403.206,381.114l0.461,8.886l0.029,0.187c4.578-1.092,7.471-2.693,7.471-4.479
		C411.167,383.859,408.068,382.207,403.206,381.114z"/>
</g>
<path fill="#FAB56E" d="M370.75,386.833c0,0,21.833,3.333,32.667,1.25l0.167,2.333c0,0-24.167,2.917-31.917-1s-0.5-0.167-0.5-0.167
	l-0.417-2"/>
<radialGradient id="SVGID_4_" cx="1.5" cy="173.1335" r="43.8859" gradientTransform="matrix(1 0 0 1 386 218)" gradientUnits="userSpaceOnUse">
	<stop  offset="0.5128" style="stop-color:#405684"/>
	<stop  offset="0.8325" style="stop-color:#5A7ABA"/>
</radialGradient>
<path fill="url(#SVGID_4_)" d="M403.141,380.709l0.047,1.056c4.786,1.076,7.645,2.639,7.645,4.11c0,2.582-8.795,5.459-21.417,5.459
	S368,388.457,368,385.875c0-0.78,0.815-1.586,2.283-2.332l-0.12-1.095c-1.972,0.937-3.163,2.082-3.163,3.427
	c0,4.195,11.549,6.459,22.417,6.459s22.417-2.264,22.417-6.459C411.833,383.53,408.222,381.789,403.141,380.709z"/>
<g>
	<g opacity="0.4">
		<polygon fill="#142551" points="383.734,556.765 368.899,579.904 368.223,628.823 397.384,628.94 397.459,578.783 		"/>
		<path fill="#142551" d="M353.837,560.531c0.532-0.023,0.963-0.449,0.97-0.988c0.005-0.38-0.2-0.714-0.508-0.891
			c-0.106-0.061-0.227-0.095-0.353-0.115c0.329-0.163,0.564-0.491,0.57-0.884c0.005-0.38-0.2-0.714-0.507-0.891
			c-0.058-0.033-0.121-0.056-0.185-0.078c0.329-0.163,0.563-0.491,0.569-0.883c0.005-0.38-0.2-0.714-0.507-0.891
			c-0.145-0.083-0.312-0.132-0.491-0.135l-1.117-0.015l-0.088-1.363c-1.052-4.097-4.829-7.057-9.229-6.903l-3.516,0.122
			c-6.056,0.034-7.381,2.856-8.515,6.516l0.04,1.336l-1.672-0.023c-0.559-0.008-1.018,0.439-1.026,0.998
			c-0.006,0.454,0.293,0.828,0.703,0.962c-0.335,0.161-0.574,0.493-0.579,0.89c-0.007,0.514,0.377,0.927,0.872,0.999
			c-0.336,0.161-0.576,0.493-0.582,0.891c-0.007,0.559,0.439,1.018,0.998,1.026l0.713,15.877l3.042,73.54l15.843-8.197l0.077-0.04
			l0.019,0.48l7.404-3.603l-0.037-0.724l0.281-0.489L353.837,560.531z"/>
	</g>
	<g>
		<g>
			<path fill="#F2CA79" d="M371.921,584.895c0.061-0.124-1.022-4.991-1.022-4.991l14.835-23.139l13.725,22.018l-22.382,6.837
				L371.921,584.895z"/>
			<polygon opacity="0.09" fill="#881A22" points="385.693,557.055 390.005,575.006 392.515,580.41 394.712,580.718 
				399.459,578.783 385.734,556.765 			"/>
			<path opacity="0.21" fill="#881A22" d="M378.569,576.836l7.165-20.071l-14.835,23.139c0,0,1.697,2.08,1.913,2.11
				c0.217,0.03,2.247,0.051,2.822-0.267c0.575-0.317,1.834-2.04,1.989-2.195C377.776,579.398,378.569,576.836,378.569,576.836z"/>
			
				<linearGradient id="SVGID_5_" gradientUnits="userSpaceOnUse" x1="567.3403" y1="-49.2918" x2="608.9982" y2="-49.2918" gradientTransform="matrix(0.9557 0.2944 -0.2944 0.9557 -191.2139 477.4972)">
				<stop  offset="0" style="stop-color:#F48220"/>
				<stop  offset="1" style="stop-color:#F05F22"/>
			</linearGradient>
			<path fill="url(#SVGID_5_)" d="M390.005,575.006c-0.698,1.081-2.634,4.371-5.474,4.767c-2.842,0.396-5.885-3.083-5.885-3.083
				s-1.359,2.727-3.894,4.094c-2.535,1.367-3.854-0.88-3.854-0.88l-0.676,48.919l29.161,0.117l0.076-50.157
				C393.242,580.433,390.005,575.006,390.005,575.006z"/>
		</g>
		<path fill="#0F1810" d="M388.471,561.157l-2.737-4.392l-2.863,4.474C384.303,561.02,386.435,560.829,388.471,561.157z"/>
	</g>
	<g>
		
			<linearGradient id="SVGID_6_" gradientUnits="userSpaceOnUse" x1="6367.335" y1="1458.6301" x2="6390.8521" y2="1458.6301" gradientTransform="matrix(-0.8666 -0.499 0.499 -0.8666 5144.9907 5002.7959)">
			<stop  offset="0.0112" style="stop-color:#6B281C"/>
			<stop  offset="1" style="stop-color:#AF1F23"/>
		</linearGradient>
		<path fill="url(#SVGID_6_)" d="M332.93,553.132l0.206,6.894l6.598,3.041l2.313,0.748l12.666-2.327l-0.524-8.091
			c-1.052-4.097-4.829-7.057-9.229-6.903l-3.516,0.122C335.389,546.65,334.064,549.473,332.93,553.132z"/>
		<polyline fill="#FFC519" points="359.027,637.055 355.795,559.53 331.699,559.199 335.439,649.628 351.282,641.432 
			358.724,637.582 		"/>
		<path fill="#FFC519" d="M352.357,642.556"/>
		<polygon fill="#FDBE1C" points="351.379,641.871 358.783,638.268 354.713,558.906 348.08,560.691 		"/>
		<polygon fill="#F49720" points="343.728,644.239 351.133,640.635 347.992,558.049 340.909,559.02 		"/>
		<polygon fill="#E47E26" points="335.647,648.46 343.051,644.856 340.164,560.313 331.684,560.211 		"/>
		<g>
			<line fill="#B97B2B" x1="355.505" y1="557.64" x2="331.408" y2="557.309"/>
			<path fill="#B97B2B" d="M356.009,556.763c0.307,0.177,0.513,0.511,0.507,0.891c-0.008,0.558-0.467,1.005-1.026,0.998
				l-24.097-0.331c-0.559-0.008-1.006-0.467-0.998-1.026c0.008-0.558,0.467-1.005,1.026-0.998l24.097,0.331
				C355.697,556.631,355.865,556.679,356.009,556.763L356.009,556.763z"/>
		</g>
		<g>
			<line fill="#B97B2B" x1="355.381" y1="555.788" x2="331.284" y2="555.457"/>
			<path fill="#B97B2B" d="M355.886,554.911c0.307,0.177,0.513,0.511,0.507,0.891c-0.008,0.558-0.467,1.005-1.026,0.998
				l-24.097-0.331c-0.559-0.008-1.006-0.467-0.998-1.026c0.008-0.558,0.467-1.005,1.026-0.998l24.097,0.331
				C355.574,554.779,355.741,554.827,355.886,554.911L355.886,554.911z"/>
		</g>
		<g>
			<line fill="#B97B2B" x1="355.795" y1="559.53" x2="331.699" y2="559.199"/>
			<path fill="#B97B2B" d="M356.299,558.652c0.308,0.178,0.513,0.511,0.508,0.891c-0.008,0.559-0.467,1.006-1.026,0.998
				l-24.097-0.331c-0.559-0.008-1.005-0.467-0.998-1.026c0.008-0.559,0.467-1.005,1.026-0.998l24.097,0.331
				C355.988,558.52,356.155,558.569,356.299,558.652L356.299,558.652z"/>
		</g>
	</g>
	<radialGradient id="SVGID_7_" cx="301.5255" cy="678.1616" r="187.0201" gradientUnits="userSpaceOnUse">
		<stop  offset="0.5128" style="stop-color:#405684"/>
		<stop  offset="0.8325" style="stop-color:#5A7ABA"/>
	</radialGradient>
	<path fill="url(#SVGID_7_)" d="M329.525,625.178c0,0,66,3,74,0s6,78-37,80S327.525,647.178,329.525,625.178z"/>
</g>
</svg>
