<?xml version="1.0" encoding="utf-8"?>
<!-- Generator: Adobe Illustrator 17.0.0, SVG Export Plug-In . SVG Version: 6.00 Build 0)  -->
<!DOCTYPE svg PUBLIC "-//W3C//DTD SVG 1.1//EN" "http://www.w3.org/Graphics/SVG/1.1/DTD/svg11.dtd">
<svg version="1.1" id="Layer_1" xmlns="http://www.w3.org/2000/svg" xmlns:xlink="http://www.w3.org/1999/xlink" x="0px" y="0px"
	 width="985px" height="720px" viewBox="0 0 985 720" enable-background="new 0 0 985 720" xml:space="preserve">
<path id="SVGID_3_" fill="#5E6CA5" d="M492,675.126c-174.159,0-317.125-142.1-317.125-317.124S317.841,40.875,492,40.875
	S809.126,183.841,809.126,358S667.025,675.126,492,675.126z M759.737,401.323c-9.53-2.599-84.913-25.127-168.96-11.264
	c34.659,97.91,49.388,175.892,51.988,193.221C704.283,540.823,746.74,476.705,759.737,401.323z M597.708,607.542
	c-4.332-24.26-19.929-107.441-58.054-206.218h-1.733c-151.631,53.721-207.084,159.43-212.283,168.96
	c46.79,35.525,103.976,58.052,166.362,58.052C530.124,628.336,565.649,621.404,597.708,607.542L597.708,607.542z M290.982,539.958
	c5.199-9.531,80.581-133.436,220.081-178.492c4.332-1.734,6.932-2.599,11.264-2.599c-6.932-15.596-13.863-31.193-22.528-46.788
	c-135.168,40.724-266.004,38.991-279.001,38.124v8.665C221.664,428.183,246.791,491.435,290.982,539.958L290.982,539.958z
	 M226.863,303.414c12.997,0,123.904,0,250.407-32.059c-45.056-80.581-92.711-146.432-99.643-155.964
	C300.512,150.049,244.192,218.5,226.863,303.414z M428.748,96.329c6.932,9.532,56.32,77.116,101.376,157.696
	c95.311-36.391,136.901-90.112,142.1-97.044c-47.655-42.457-110.908-67.584-178.49-67.584
	C469.472,87.664,448.678,90.263,428.748,96.329L428.748,96.329z M701.684,187.307c-6.065,6.932-50.255,65.852-150.764,107.441
	c6.065,12.996,12.997,25.127,18.196,38.991c1.732,4.332,4.332,9.531,6.065,13.863c90.112-11.264,180.224,6.932,188.889,8.665
	C762.336,292.148,739.808,234.096,701.684,187.307z"/>
</svg>
