<?xml version="1.0" encoding="utf-8"?>
<!-- Generator: Adobe Illustrator 17.0.0, SVG Export Plug-In . SVG Version: 6.00 Build 0)  -->
<!DOCTYPE svg PUBLIC "-//W3C//DTD SVG 1.1//EN" "http://www.w3.org/Graphics/SVG/1.1/DTD/svg11.dtd">
<svg version="1.1" id="Layer_1" xmlns="http://www.w3.org/2000/svg" xmlns:xlink="http://www.w3.org/1999/xlink" x="0px" y="0px"
	 width="985px" height="720px" viewBox="0 0 985 720" enable-background="new 0 0 985 720" xml:space="preserve">
<path fill="#FAB56E" d="M736.5,327.5l-6.68,4.607l-15.294,1.115c0.058,0.808,5.223,81.259-42.076,119.407
	c-28.663,23.116-71.438,26.574-127.142,10.273l-5.617,19.195c0.321,0.094,0.637,0.18,0.957,0.273L538,492
	C758,567.5,736.5,327.5,736.5,327.5z"/>
<path opacity="0.6" fill="#EB8F63" enable-background="new    " d="M723,335.5c0,0,7.5,206.5-180,142.5l4.5-13.5
	c0,0,83.9,26.258,124.95-11.871S716.5,365.5,714.5,336L723,335.5z"/>
<ellipse fill="#142551" cx="386.864" cy="555.928" rx="177.707" ry="163.072"/>
<path fill="#FAB56E" d="M291.474,693.13l-0.374-2.056c-19.499-86.996,6-164.992,6-164.992L278,496.5
	c-23.583,61.521-21.465,134.017-17.764,173.741C265.603,674.401,276.25,684.5,291.474,693.13z"/>
<path opacity="0.6" fill="#EB8F63" enable-background="new    " d="M297.1,526.082l-10.214-15.819
	c-4.713,25.496-17.49,105.468-7.031,174.709c3.867,2.803,7.857,5.624,11.619,8.158l-0.374-2.056
	C271.601,604.078,297.1,526.082,297.1,526.082z"/>
<radialGradient id="SVGID_1_" cx="-298.1842" cy="406.237" r="562.3298" gradientTransform="matrix(1 0 0 1 579 327)" gradientUnits="userSpaceOnUse">
	<stop  offset="0.5128" style="stop-color:#405684"/>
	<stop  offset="0.8325" style="stop-color:#5A7ABA"/>
</radialGradient>
<path fill="url(#SVGID_1_)" d="M443,389.125c-13.625-8.5-25.355-10.577-25.355-10.577c-15.598-4.099-29.638-5.408-42.164-4.819
	C292.463,371.837,271.8,494.493,271.8,494.493c7.804,15.394,23.35,43.068,39.406,54.54L319,518.621l1,40l2.599,150.007
	c9.082,2.954,43.932,13.301,76.068,9.571c2.836-0.329,5.401-0.53,7.726-0.622c28.76-3.868,61.543-14.09,93.32-36.602l1.173-21.228
	l0.056-1.129l-5.852-161.035l0,0c10.153,5.352,41.369,12.814,66.189,18.919c-0.123-20.978,3.373-54.756,4.71-66.873
	c-14.722-2.073-46.392-18.116-74.229-33.546C491.76,416.083,456.625,397.625,443,389.125z"/>
<path fill="none" stroke="#080B14" stroke-miterlimit="10" d="M539.5,451.5"/>
<radialGradient id="SVGID_2_" cx="-185.463" cy="392.325" r="0" gradientTransform="matrix(1 0 0 1 579 327)" gradientUnits="userSpaceOnUse">
	<stop  offset="0.5074" style="stop-color:#0F727E"/>
	<stop  offset="0.8325" style="stop-color:#00B4DE"/>
</radialGradient>
<path fill="url(#SVGID_2_)" d="M393.537,719.325"/>
<radialGradient id="SVGID_3_" cx="-263.433" cy="380.302" r="0" gradientTransform="matrix(1 0 0 1 579 327)" gradientUnits="userSpaceOnUse">
	<stop  offset="0.5074" style="stop-color:#0F727E"/>
	<stop  offset="0.8325" style="stop-color:#00B4DE"/>
</radialGradient>
<path fill="url(#SVGID_3_)" d="M315.567,707.302"/>
<path fill="none" stroke="#263872" stroke-miterlimit="10" d="M739,806.5"/>
<path fill="#FAB56E" d="M370.063,388.646c0,0,21.833,3.333,32.667,1.25l0.167,2.333c0,0-24.167,2.917-31.917-1s-0.5-0.167-0.5-0.167
	l-0.417-2"/>
<polygon fill="#FAB56E" points="357.388,279.927 370.146,390.571 402.313,392.904 398.315,302.439 "/>
<polygon fill="#EE9062" points="385.063,392.458 374.091,290.159 398.648,302.439 402.896,392.292 "/>
<g>
	<path fill="#7C2117" d="M334.251,277.971"/>
	<path fill="#7C2117" d="M337.728,276.041c0.043-0.001,0.084-0.006,0.127-0.006C337.855,276.034,337.803,276.037,337.728,276.041z"
		/>
</g>
<path fill="#7C2117" d="M308.47,291.154"/>
<path fill="#7C2117" d="M329.711,285.529"/>
<g>
	<g>
		<path fill="#414242" d="M369.469,384.703c-1.734,0.853-2.822,1.837-2.822,2.881c0,1.153,1.676,2.348,3.76,3.26L369.469,384.703z"
			/>
		<path fill="#414242" d="M402.518,382.989l0.461,8.886l0.029,0.187c4.578-1.092,7.471-2.693,7.471-4.479
			C410.479,385.734,407.38,384.082,402.518,382.989z"/>
	</g>
	
		<radialGradient id="SVGID_4_" cx="-192.1875" cy="66.0085" r="43.8859" gradientTransform="matrix(1 0 0 1 579 327)" gradientUnits="userSpaceOnUse">
		<stop  offset="0.5128" style="stop-color:#405684"/>
		<stop  offset="0.8325" style="stop-color:#5A7ABA"/>
	</radialGradient>
	<path fill="url(#SVGID_4_)" d="M402.453,382.584l0.047,1.056c4.786,1.076,7.645,2.639,7.645,4.11c0,2.582-8.795,5.459-21.417,5.459
		s-21.416-2.877-21.416-5.459c0-0.78,0.815-1.586,2.283-2.332l-0.158-1.074c-1.972,0.937-3.125,2.061-3.125,3.406
		c0,4.195,11.549,6.459,22.417,6.459s22.417-2.264,22.417-6.459C411.146,385.405,407.534,383.664,402.453,382.584z"/>
</g>
<g>
	<g opacity="0.4">
		<polygon fill="#142551" points="385.734,553.765 370.899,576.904 370.223,625.823 399.384,625.94 399.459,575.783 		"/>
		<path fill="#142551" d="M355.837,557.531c0.532-0.023,0.963-0.449,0.97-0.988c0.005-0.38-0.2-0.714-0.508-0.891
			c-0.106-0.061-0.227-0.095-0.353-0.115c0.329-0.163,0.564-0.491,0.57-0.884c0.005-0.38-0.2-0.714-0.507-0.891
			c-0.058-0.033-0.121-0.056-0.185-0.078c0.329-0.163,0.563-0.491,0.569-0.883c0.005-0.38-0.2-0.714-0.507-0.891
			c-0.145-0.083-0.312-0.132-0.491-0.135l-1.117-0.015l-0.088-1.363c-1.052-4.097-4.829-7.057-9.229-6.903l-3.516,0.122
			c-6.056,0.034-7.381,2.856-8.515,6.516l0.04,1.336l-1.672-0.023c-0.559-0.008-1.018,0.439-1.026,0.998
			c-0.006,0.454,0.293,0.828,0.703,0.962c-0.335,0.161-0.574,0.493-0.579,0.89c-0.007,0.514,0.377,0.927,0.872,0.999
			c-0.336,0.161-0.576,0.493-0.582,0.891c-0.007,0.559,0.439,1.018,0.998,1.026l0.713,15.877l3.042,73.54l15.843-8.197l0.077-0.04
			l0.019,0.48l7.404-3.603l-0.037-0.724l0.281-0.489L355.837,557.531z"/>
	</g>
	<g>
		<g>
			<path fill="#F2CA79" d="M373.921,581.895c0.061-0.124-1.022-4.991-1.022-4.991l14.835-23.139l13.725,22.018l-22.382,6.837
				L373.921,581.895z"/>
			<polygon opacity="0.09" fill="#881A22" enable-background="new    " points="387.693,554.055 392.005,572.006 394.515,577.41 
				396.712,577.718 401.459,575.783 387.734,553.765 			"/>
			<path opacity="0.21" fill="#881A22" enable-background="new    " d="M380.569,573.836l7.165-20.071l-14.835,23.139
				c0,0,1.697,2.08,1.913,2.11c0.217,0.03,2.247,0.051,2.822-0.267c0.575-0.317,1.834-2.04,1.989-2.195
				C379.776,576.398,380.569,573.836,380.569,573.836z"/>
			
				<linearGradient id="SVGID_5_" gradientUnits="userSpaceOnUse" x1="243.5693" y1="844.2729" x2="285.2273" y2="844.2729" gradientTransform="matrix(0.9557 0.2944 0.2944 -0.9557 -113.8291 1329.5789)">
				<stop  offset="0" style="stop-color:#F48220"/>
				<stop  offset="1" style="stop-color:#F05F22"/>
			</linearGradient>
			<path fill="url(#SVGID_5_)" d="M392.005,572.006c-0.698,1.081-2.634,4.371-5.474,4.767c-2.842,0.396-5.885-3.083-5.885-3.083
				s-1.359,2.727-3.894,4.094s-3.854-0.88-3.854-0.88l-0.676,48.919l29.161,0.117l0.076-50.157
				C395.242,577.433,392.005,572.006,392.005,572.006z"/>
		</g>
		<path fill="#0F1810" d="M390.471,558.157l-2.737-4.392l-2.863,4.474C386.303,558.02,388.435,557.829,390.471,558.157z"/>
	</g>
	<g>
		
			<linearGradient id="SVGID_6_" gradientUnits="userSpaceOnUse" x1="6699.5664" y1="-738.8302" x2="6723.083" y2="-738.8302" gradientTransform="matrix(-0.8666 -0.499 -0.499 0.8666 5794.02 4541.9106)">
			<stop  offset="0.0112" style="stop-color:#6B281C"/>
			<stop  offset="1" style="stop-color:#AF1F23"/>
		</linearGradient>
		<path fill="url(#SVGID_6_)" d="M334.93,550.132l0.206,6.894l6.598,3.041l2.313,0.748l12.666-2.327l-0.524-8.091
			c-1.052-4.097-4.829-7.057-9.229-6.903l-3.516,0.122C337.389,543.65,336.064,546.473,334.93,550.132z"/>
		<polyline fill="#FFC519" points="361.027,634.055 357.795,556.53 333.699,556.199 337.439,646.628 353.282,638.432 
			360.724,634.582 		"/>
		<path fill="#FFC519" d="M354.357,639.556"/>
		<polygon fill="#FDBE1C" points="353.379,638.871 360.783,635.268 356.713,555.906 350.08,557.691 		"/>
		<polygon fill="#F49720" points="345.728,641.239 353.133,637.635 349.992,555.049 342.909,556.02 		"/>
		<polygon fill="#E47E26" points="337.647,645.46 345.051,641.856 342.164,557.313 333.684,557.211 		"/>
		<g>
			<line fill="none" x1="357.505" y1="554.64" x2="333.408" y2="554.309"/>
			<path fill="#B97B2B" d="M358.009,553.763c0.307,0.177,0.513,0.511,0.507,0.891c-0.008,0.558-0.467,1.005-1.026,0.998
				l-24.097-0.331c-0.559-0.008-1.006-0.467-0.998-1.026c0.008-0.558,0.467-1.005,1.026-0.998l24.097,0.331
				C357.697,553.631,357.865,553.679,358.009,553.763L358.009,553.763z"/>
		</g>
		<g>
			<line fill="none" x1="357.381" y1="552.788" x2="333.284" y2="552.457"/>
			<path fill="#B97B2B" d="M357.886,551.911c0.307,0.177,0.513,0.511,0.507,0.891c-0.008,0.558-0.467,1.005-1.026,0.998
				l-24.097-0.331c-0.559-0.008-1.006-0.467-0.998-1.026c0.008-0.558,0.467-1.005,1.026-0.998l24.097,0.331
				C357.574,551.779,357.741,551.827,357.886,551.911L357.886,551.911z"/>
		</g>
		<g>
			<line fill="none" x1="357.795" y1="556.53" x2="333.699" y2="556.199"/>
			<path fill="#B97B2B" d="M358.299,555.652c0.308,0.178,0.513,0.511,0.508,0.891c-0.008,0.559-0.467,1.006-1.026,0.998
				l-24.097-0.331c-0.559-0.008-1.005-0.467-0.998-1.026c0.008-0.559,0.467-1.005,1.026-0.998l24.097,0.331
				C357.988,555.52,358.155,555.569,358.299,555.652L358.299,555.652z"/>
		</g>
	</g>
	
		<radialGradient id="SVGID_7_" cx="1.0254" cy="200.8384" r="187.0201" gradientTransform="matrix(1 0 0 -1 289.5 884)" gradientUnits="userSpaceOnUse">
		<stop  offset="0.5128" style="stop-color:#405684"/>
		<stop  offset="1" style="stop-color:#5A7ABA"/>
	</radialGradient>
	<path fill="url(#SVGID_7_)" d="M331.525,622.178c0,0,66,3,74,0s6,78-37,80S329.525,644.178,331.525,622.178z"/>
</g>
<g>
	<g>
		<path fill="#5D5D5D" d="M693.942,389.534c1.066,6.046-2.972,11.811-9.017,12.877l-516.691,91.107
			c-6.046,1.066-11.811-2.97-12.877-9.017l-62.54-354.679c-1.066-6.045,2.97-11.812,9.016-12.878l516.691-91.107
			c6.045-1.066,11.811,2.973,12.877,9.018L693.942,389.534z"/>
		
			<rect x="138.981" y="89.255" transform="matrix(0.9848 -0.1736 0.1736 0.9848 -34.5237 71.4256)" fill="#7884C1" width="503.913" height="287.524"/>
		<circle fill="#3C4242" cx="415.293" cy="413.832" r="11.857"/>
		<path opacity="0.4" fill="#42423E" d="M615.865,27.812L473.115,52.982c1.865,5.512,3.833,11.648,5.833,18.337l135.12-23.825
			l49.962,283.349l-177.539,31.305c-6.896,26.108-16.259,52.748-28.688,79.556l218.601-38.545
			c11.904,0.158,15.942-5.606,14.876-11.652L628.742,36.829C627.676,30.782,621.91,26.746,615.865,27.812z"/>
	</g>
	<g>
		<defs>
			
				<rect id="SVGID_8_" x="138.981" y="89.255" transform="matrix(0.9848 -0.1736 0.1736 0.9848 -34.5237 71.4256)" width="503.913" height="287.524"/>
		</defs>
		<clipPath id="SVGID_9_">
			<use xlink:href="#SVGID_8_"  overflow="visible"/>
		</clipPath>
		<g clip-path="url(#SVGID_9_)">
			<path fill="#FAB56E" d="M365.4,421.64c0,0,26.2,4,39.2,1.5l0.2,2.8c0,0-29,3.5-38.3-1.2c-9.3-4.7-0.6-0.2-0.6-0.2l-0.5-2.4"/>
			<g>
				<g>
					<path fill="#FAB56E" d="M473.588,277.091c51.06,8.021,200.761,41.058,200.761,41.058
						c-24.851-80.533-104.264-109.423-148.219-119.408c4.279-4.955,19.294-22.36,24.013-28.129
						c-0.002,0.002,18.992-28.01-1.61-50.958c-17.364-19.339-41.375-34.577-63.805-45.864C375.25,6.55,299.82,27.452,299.82,27.452
						c-40.736,9.586-60.192,36.522-67.57,49.91c-22.183,32.076-34.501,80.971-34.501,80.971s-61.024-0.456-48.496,27.192
						c12.528,27.648,48.816,56.16,82.512,75.6c0,0-0.864,29.376,12.096,26.352c12.96-3.024,29.401-18.433,29.401-18.433
						l110.507,77.15l126.204,77.363c13.667-32.962,21.816-102.752,22.883-112.297c1-3.698,1.752-6.497,1.741-6.503l-60.48-17.064
						C474.116,287.693,473.494,283.543,473.588,277.091z"/>
					<polygon fill="#FAB56E" points="350.19,291.177 365.499,423.95 404.1,426.749 399.302,318.191 					"/>
					<polygon fill="#EE9062" points="383.4,426.214 370.233,303.455 399.702,318.191 404.799,426.015 					"/>
					<path fill="#7C2117" d="M568.268,137.005"/>
					<path fill="#551413" d="M458.336,154.882l-3.116-10.466c0,0,21.996-28.448,45.232-24.169
						c23.236,4.28,39.378,26.233,39.378,26.233l7.964-3.784l-4.946,12.616C542.844,155.313,497.695,128.619,458.336,154.882z"/>
					
						<ellipse transform="matrix(-0.9848 -0.1736 0.1736 -0.9848 924.8217 601.153)" fill="#070707" cx="488.701" cy="260.132" rx="39.197" ry="9.396"/>
					<path fill="#EB8F63" d="M317.276,235.79c5.375,10.078,28.775,41.508,48.625,40.888c13.513-0.422,22.619-13.775,27.326-23.028
						C365.545,256.849,330.316,241.921,317.276,235.79z"/>
					<g>
						<path fill="#7C2117" d="M322.425,288.83"/>
						<path fill="#7C2117" d="M326.598,286.514c0.052-0.001,0.101-0.007,0.152-0.007
							C326.75,286.505,326.688,286.509,326.598,286.514z"/>
					</g>
					<path fill="#7C2117" d="M291.488,304.649"/>
					<path fill="#7C2117" d="M316.977,297.899"/>
					<path fill="#D77B48" d="M231.178,223.707c5.062,7.512,9.425,16.69,12.316,27.908l4.758-1.22
						c-14.147-54.928-62.047-63.937-62.53-64.022l-0.847,4.841c0.323,0.058,23.604,4.441,41.618,26.216
						c-14.9,9.571,0.552,32.756,0.552,32.756C217.082,231.581,227.065,225.382,231.178,223.707z"/>
					<path opacity="0.3" fill="#EB8F63" enable-background="new    " d="M481.124,375.701c-16.146,6.458-81.314-20.269-89.8-23.807
						L510.5,424.949c13.667-32.962,21.816-102.752,22.883-112.297c1-3.698,1.752-6.497,1.741-6.503
						C535.124,306.149,498.405,368.789,481.124,375.701z"/>
					<path fill="#7C2117" d="M598.317,301.733l-24.815-5.213h-0.001l-22.307-4.686l-8.713-1.98l-0.218,0.037l-98.386-22.069
						c0,0-73.008,46.44-102.168,46.872c-18.569,0.275-21.541-7.855-21.256-13.799c0.989,0.485,2.098,0.764,3.274,0.764
						c4.116,0,7.452-3.336,7.452-7.452c0-3.784-2.82-6.91-6.474-7.388l-0.296-0.036c-7.487-0.709-22.332,6.578-12.293,33.527
						c12.221,32.802,56.986,42.19,78.245,39.688c48.894-1.946,142.615-49.84,142.615-49.84s-2.852,29.59-4.346,35.976
						c26.353,1.853,65.726-15.67,65.726-15.67C612.861,320.531,598.317,301.733,598.317,301.733z"/>
					<path opacity="0.53" fill="#551413" enable-background="new    " d="M598.317,301.733l-24.815-5.213h-0.001l-22.307-4.686
						l-8.713-1.98l-0.218,0.037l-31.66-7.102c-6.948,7.4-40.02,39.234-108.738,55.772c-74.813,18.005-91.031-36.256-92.258-40.834
						c-1.516,5.188-1.241,12.511,2.51,22.582c12.221,32.802,56.986,42.19,78.245,39.688c48.894-1.946,142.615-49.84,142.615-49.84
						s-2.852,29.59-4.346,35.976c26.353,1.853,65.726-15.67,65.726-15.67C612.861,320.531,598.317,301.733,598.317,301.733z"/>
					<path fill="#7C2117" d="M278.227,227.228c0,0-2.06-13.576-1.194-29.347c4.429-80.672-38.496-110.029-38.496-110.029
						c-51.037-7.48-55.028,57.736-53.224,67.207c0.122,0.644,0.509,1.441,1.105,2.359c6.265,0.941,38.524,6.916,52.921,31.819
						c15.984,27.648,35.424,79.488,35.424,79.488s-0.164,0.396-0.443,1.066l25.823,18.158
						C304.03,251.66,278.227,227.228,278.227,227.228z"/>
					<path fill="#551413" d="M200.966,115.054c0,0,12.03-20.549,23.054-19.546c11.024,1.003,35.08,24.054,29.568,78.683
						C253.588,174.19,237.55,116.557,200.966,115.054z"/>
					<path opacity="0.5" fill="#EB8F63" enable-background="new    " d="M275.194,107.804l-11.016-18.792
						c0,0,57.024-49.896,112.752-20.736s118.584,34.992,143.208,33.048c0,0-25.272,18.792-69.984,5.832
						s-77.76-36.288-102.384-33.048C323.148,77.348,302.412,85.124,275.194,107.804z"/>
					<path opacity="0.5" fill="#EB8F63" enable-background="new    " d="M375.634,55.964c0,0,95.904,31.752,119.232,26.568
						l15.552,11.664C510.42,94.196,450.156,103.916,375.634,55.964z"/>
					<path fill="#3B3B3B" d="M479.7,54.95c0,0,18.4-43.2-40.8-66.4s-140.801-32-168.8-20.801s-77.599,58.4-23.2,88
						c0,0,3.6,4.4,10.2-5c6.6-9.401,109-47,219.4,5.8"/>
					<path opacity="0.5" fill="#1A1A18" enable-background="new    " d="M263.7,21.749c-22.67-11.612-11.256-30.563-3.032-49.315
						c-27.872,16.278-62.431,56.837-13.768,83.315c0,0,3.6,4.4,10.2-5c6.6-9.401,109-47,219.4,5.8l3.2-1.598
						c0,0,1.518-3.572,2.279-9.208C378.099-13.051,263.7,21.749,263.7,21.749z"/>
					<path fill="#1A1A1A" d="M254.1,34.55l3,16.2c0,0,122.4-32.4,218.4,18.6l6.479-23.608C481.977,45.742,412.5-1.851,254.1,34.55z"
						/>
					<polyline fill="#3B3B3B" points="376.5,-26.65 400.5,-37.051 405.3,-33.051 382.899,-25.051 					"/>
					<g>
						<path fill="#F59964" d="M451.362,194.287c0,0,10.621-37.027,47.389-35.507c0,0,33.294-0.95,30.026,35.701L451.362,194.287z"/>
						<path fill="#F9F7F5" d="M475.288,174.545c0,0,33.214-4.59,53.413,21.61c0,0-27.803,25.759-73.864,2.305"/>
						<path fill="#13100E" d="M475.288,174.545c0,0,14.071-1.148,15.863,21.773l-36.313,2.142
							C454.838,198.46,451.96,184.498,475.288,174.545z"/>
						<circle fill="#F9F7F5" cx="477.465" cy="182.321" r="1.711"/>
					</g>
					<g>
						<path fill="#551413" d="M319.132,148.57l5.612-22.451l13.633,4.01c0,0,46.506-28.866,62.544-23.254
							c16.038,5.61,17.641,32.074,19.246,39.288C420.168,146.164,370.45,115.694,319.132,148.57z"/>
						<path fill="#F59964" d="M327.354,182.452c0,0,10.423-39.09,46.507-37.488c0,0,32.675-1,29.47,37.688L327.354,182.452z"/>
						<path fill="#F9F7F5" d="M356.661,161.103c0,0,28.496-3.854,46.668,21.55c0,0-21.253,39.047-61.541,23.45"/>
						<path fill="#13100E" d="M356.661,161.103c-27.994,6.221-26.749,27.786-26.749,27.786l0.563-0.061
							c0.499,4.458,2.654,12.326,11.314,17.275c0,0,17.441-1.802,26.662-21.449C373.812,163.832,356.661,161.103,356.661,161.103z"
							/>
						<circle fill="#F9F7F5" cx="350.102" cy="177.245" r="1.711"/>
					</g>
					<path fill="#FAB56E" d="M441.716,195.461c0,0,127.008-16.416,193.536,59.616l-26.784,12.096l-133.92-17.28
						c0,0-38.016-11.232-41.472-12.096"/>
					<g>
						<path fill="#EB8F63" d="M549.228,291.033l126.416,27.764c-4.501-17.714-12.653-33.047-22.583-46.187l0.335-0.037
							c-36.288-48.384-90.504-64.584-90.504-64.584s0.7,0.566,1.94,1.597c12.794,8.003,68.759,44.37,67.612,67.523
							C631.424,297.695,573.997,293.894,549.228,291.033z"/>
						<path fill="#EB8F63" d="M536.973,288.341l0.752,0.166c-0.006-0.023-0.011-0.047-0.017-0.07
							C537.236,288.377,536.973,288.341,536.973,288.341z"/>
					</g>
					<path fill="#EB8F63" d="M431.996,259.181c0,0,0-25.92,37.584-20.736C469.58,238.445,420.333,222.893,431.996,259.181z"/>
					<g>
						<path fill="#551413" d="M480.099,236.914c-15.55,0-28.2-12.65-28.2-28.2s12.65-28.2,28.2-28.2c15.55,0,28.2,12.65,28.2,28.2
							S495.648,236.914,480.099,236.914z M480.099,184.114c-13.565,0-24.6,11.035-24.6,24.6c0,13.565,11.035,24.6,24.6,24.6
							c13.564,0,24.6-11.035,24.6-24.6C504.699,195.149,493.663,184.114,480.099,184.114z"/>
					</g>
					<g>
						
							<rect x="276.297" y="201.503" transform="matrix(0.9979 0.0653 -0.0653 0.9979 14.0544 -23.4066)" fill="#551413" width="177.616" height="3.6"/>
					</g>
					<path fill="#551413" d="M552.228,205.286c2.628-10.754,12.318-18.772,23.87-18.772c13.564,0,24.6,11.035,24.6,24.6
						c0,4.182-1.055,8.12-2.904,11.572c1.039,0.689,2.029,1.392,2.948,2.114c2.262-4.056,3.556-8.722,3.556-13.686
						c0-15.55-12.65-28.2-28.2-28.2c-13.183,0-24.253,9.104-27.325,21.348L552.228,205.286z"/>
					<g>
						<path fill="#551413" d="M549.574,202.994c-18.763-6.65-41.742-0.779-41.971-0.719l-0.607-2.322
							c0.97-0.254,23.93-6.119,43.379,0.778L549.574,202.994z"/>
					</g>
				</g>
				<g>
					<g>
						<path fill="#414242" d="M364.687,416.908c-2.081,1.024-3.386,2.204-3.386,3.457c0,1.384,2.011,2.818,4.512,3.912
							L364.687,416.908z"/>
						<path fill="#414242" d="M404.346,414.851l0.553,10.663l0.035,0.224c5.494-1.31,8.965-3.232,8.965-5.375
							C413.899,418.145,410.18,416.163,404.346,414.851z"/>
					</g>
					
						<radialGradient id="SVGID_10_" cx="-193.501" cy="99.8748" r="52.6631" gradientTransform="matrix(1 0 0 1 579 327)" gradientUnits="userSpaceOnUse">
						<stop  offset="0.5128" style="stop-color:#405684"/>
						<stop  offset="0.8325" style="stop-color:#5A7ABA"/>
					</radialGradient>
					<path fill="url(#SVGID_10_)" d="M404.268,414.365l0.056,1.267c5.743,1.291,9.174,3.167,9.174,4.932
						c0,3.098-10.554,6.551-25.7,6.551s-25.699-3.452-25.699-6.551c0-0.936,0.978-1.903,2.74-2.798l-0.19-1.289
						c-2.366,1.124-3.75,2.473-3.75,4.087c0,5.034,13.859,7.751,26.9,7.751c13.042,0,26.9-2.717,26.9-7.751
						C414.699,417.751,410.365,415.661,404.268,414.365z"/>
				</g>
			</g>
		</g>
	</g>
</g>
<path opacity="0.3" fill="#465389" d="M484.728,73.79c0,0,55.254,173.006,1.763,288.358l177.539-31.305L614.102,47.687
	L484.728,73.79z"/>
<polygon opacity="0.2" fill="#142551" points="277,474.75 274.75,482.5 526.25,435.75 520.5,431.75 "/>
<path fill="#FAB56E" d="M730,283.833c-9-5.333-29.667-30.333-37.667-37.333s-25.506-8.932-25.506-8.932l2.056,10.861
	c-26.524-11.718-56.134-22.679-56.134-22.679c-11.151-3.717-19.509-6.626-23.75-6.25c-2.937,0.749-18.5,3.5,18.973,21.549
	c19.1,9.2,45.768,23.142,58.662,29.291c-0.037,1.159-0.069,2.67-0.072,4.455c-44.163-13.181-90.386-20.531-90.386-20.531
	c-5.927-1.014-9.67-0.004-11.093,1.319c-3.583,3.333-0.917,10.417,12.594,14.051l1.247,0.331c9.592,3.003,20.743,5.536,20.743,5.536
	l-0.02-0.041l67.796,17.975c0.264,1.79,0.576,3.674,0.942,5.618l-77.032-13.173c0,0-27.002-4.39-29.104-0.255
	c-3.875,7.625,8.911,14.034,31.33,18.267l79.892,13.272c0.655,1.609,1.368,3.163,2.141,4.644L618.5,327
	c0,0-27.369,1.361-21.333,8.667c6.333,7.667,23.983,6.202,23.983,6.202l95.6-4.119l-3.047-1.539
	c9.57-0.117,18.346-0.725,20.771-2.444c0.433-0.306,0.863-0.704,1.288-1.183c0.453-0.511,0.9-1.122,1.339-1.809
	C740.631,305.846,738.913,289.115,730,283.833z"/>
<path opacity="0.6" fill="#EB8F63" enable-background="new    " d="M673.667,267.167c0,0,0.667,56.667,46,66
	C719.667,333.167,659,349.167,673.667,267.167z"/>
<path opacity="0.6" fill="#EB8F63" enable-background="new    " d="M672,283.5c0,0-95.5-23.5-97.5-21.5s98.5,29.5,98.5,29.5"/>
<path opacity="0.6" fill="#EB8F63" enable-background="new    " d="M676.5,307.5c0,0-97-21.5-98.5-17.5s103.5,23.5,103.5,23.5"/>
<path opacity="0.6" fill="#EB8F63" enable-background="new    " d="M685,325.5c0,0-49,2.5-44.5,6.5s59.5-2,59.5-2"/>
</svg>
