<?xml version="1.0" encoding="utf-8"?>
<!-- Generator: Adobe Illustrator 17.0.0, SVG Export Plug-In . SVG Version: 6.00 Build 0)  -->
<!DOCTYPE svg PUBLIC "-//W3C//DTD SVG 1.1//EN" "http://www.w3.org/Graphics/SVG/1.1/DTD/svg11.dtd">
<svg version="1.1" id="Layer_1" xmlns="http://www.w3.org/2000/svg" xmlns:xlink="http://www.w3.org/1999/xlink" x="0px" y="0px"
	 width="985px" height="720px" viewBox="0 0 985 720" enable-background="new 0 0 985 720" xml:space="preserve">
<path opacity="0.4" fill="#142551" enable-background="new    " d="M782.14,331.025c-1.165-28.341-17.477-52.123-39.691-60.615
	c-1.242-5.634-2.191-9.088-2.363-9.7c-0.269-1.104-0.54-2.194-0.813-3.267c8.48,3.654,14.067,8.042,14.614,8.482
	c1.261,1.01,2.774,1.502,4.279,1.502c1.998,0,3.976-0.87,5.327-2.545c2.363-2.935,1.911-7.224-1.019-9.594
	c-6.052-4.897-15.916-10.59-27.657-13.812c-5.459-17.91-10.325-28.655-10.325-28.655s-52.739-103.023-81.014-135.889
	c35.539-15.519,53.999-28.858,53.999-28.858C510.645,9.934,384.572,71.022,372.421,95.326
	c-10.075,20.15-11.797,146.804-12.091,189.501l2.767,2.767l56.997,151.492c0,0-3.006,9.291-6.801,20.407
	c22.073,64.966,53.184,103.247,82.373,125.784v18.839c19.218,5.779,50.332,13.837,78.667,15.396v-2.035
	c1.758,0.096,2.708,0.079,2.708,0.079c1.94,0.085,3.852,0.139,5.752,0.18c0.231,0.005,0.461,0.008,0.692,0.013
	c1.551,0.029,3.089,0.044,4.613,0.044c0.439,0,0.88,0.004,1.317,0.002c1.379-0.007,2.746-0.027,4.104-0.057
	c5.538-0.116,10.901-0.42,16.099-0.895c1.076-0.287,2.138-0.589,3.17-0.924c3.652-1.183,7.308-1.415,10.945-0.855
	c93.922-15.115,127.664-89.318,135.583-123.966c8.086-35.378-10.73-83.305-15.076-93.663c21.299-9.058,36.769-32.332,37.902-59.909
	c0.047-1.077,0.071-2.16,0.071-3.25S782.187,332.102,782.14,331.025z"/>
<g>
	<path fill="#142551" d="M501.833,682.333c26.786,0,63.5,3.93,63.5,10.833s-32.881,14.667-59.667,14.667s-53-8.096-53-15
		S475.048,682.333,501.833,682.333z"/>
</g>
<path fill="#FAB56E" d="M469.667,514.5v182c0,0,36.667,10,78.667,0v-182H469.667z"/>
<path fill="#F5C79F" d="M-1011.8-1344.207l13.466-27.909l-15.452-9.319l-15.461,32.707
	C-1024.656-1347.094-1018.407-1345.208-1011.8-1344.207z"/>
<path opacity="0.2" fill="#B76E55" enable-background="new    " d="M-1019.186-1370.009c0,0,7.159,8.094,15.589,8.802l1.43-2.459
	l-13.167-11.833L-1019.186-1370.009z"/>
<g>
	<path fill="#F5C79F" d="M-943.453-1417.408c0,0,6.63,14.767,4.219,25.316c-2.411,10.548-13.864,34.96-48.221,33.453
		c0,0-31.645,0.603-45.207-47.919c0,0-6.028,1.507-9.946-3.315c-3.918-4.822-15.973-18.083-12.356-32.247c0,0,2.11-11.452,11.452,0
		c0,0,1.507-47.015,5.123-53.043s60.477-14.916,67.71-7.381c7.233,7.534,22.232,36.834,22.232,36.834
		S-937.726-1442.053-943.453-1417.408z"/>
	<path fill="#CD8667" d="M-951.272-1401.204c0.32-1.415-1.831-5.486-3.348-8.116l-2.488-4.365c-0.525-1.05-0.995-2.125-1.425-3.212
		l-0.009-0.013v-0.009c-5.741-14.546-3.392-31.676-3.362-31.884c0.048-0.331,0.364-0.567,0.683-0.51
		c0.33,0.047,0.558,0.353,0.511,0.682c-0.027,0.191-2.054,14.971,2.263,28.485c0.095,0.197,4.345,8.926,7.22,12.875
		c0.187,0.231,0.377,0.475,0.567,0.737c0.004,0.005,0.009,0.012,0.013,0.017h-0.002c0.603,0.832,1.189,1.797,1.548,2.792
		c0,0,0.631,2.102,0.106,3.884c-0.635,2.081-2.859,5.601-10.64,4.319c-0.049-0.001-0.097,0-0.147-0.002
		c-0.333-0.008-0.597-0.284-0.589-0.617c0.004-0.172,0.074-0.321,0.189-0.427C-951.508-1396.849-951.272-1401.204-951.272-1401.204z
		"/>
	<path fill="#00050C" d="M-989.582-1438.747c0-1.039-0.559-1.94-1.387-2.442c0.7-0.54,1.566-0.873,2.518-0.873
		c2.289,0,4.144,1.855,4.144,4.144s-1.855,4.144-4.144,4.144c-1.561,0-2.904-0.873-3.611-2.148
		C-990.664-1436.111-989.582-1437.297-989.582-1438.747z"/>
	<path fill="#00050C" d="M-950.18-1434.409c0-1.039-0.559-1.94-1.387-2.442c0.699-0.54,1.566-0.873,2.517-0.873
		c2.289,0,4.144,1.855,4.144,4.144c0,2.289-1.855,4.144-4.144,4.144c-1.561,0-2.904-0.873-3.611-2.148
		C-951.262-1431.773-950.18-1432.959-950.18-1434.409z"/>
	<g>
		<path fill="#FFFFFF" d="M-1004.81-1407.582c0,0,3.277,22.175,28.624,29.743c1.233,0.737,2.504,1.443,3.814,2.108l-8.405,6.472
			C-980.777-1369.259-1006.93-1385.663-1004.81-1407.582z"/>
		<path fill="#CD8667" d="M-1006.406-1408.676c-0.002-0.075-0.003-0.127-0.003-0.137c0-0.333,0.27-0.603,0.603-0.603
			s0.603,0.27,0.603,0.603c0,0.007,0,0.04,0.001,0.089c11.777,35.554,42.019,32.485,42.322,32.452
			c0.341-0.049,0.63,0.199,0.667,0.529c0.039,0.33-0.198,0.629-0.529,0.668c-0.047,0.006-0.823,0.086-2.145,0.086
			c-6.915,0-28.777-2.214-39.753-28.781c1.43,8.041,6.494,23.839,24.43,33.447c0.293,0.157,0.404,0.523,0.247,0.816
			c-0.109,0.203-0.317,0.318-0.532,0.318c-0.096,0-0.194-0.023-0.284-0.071c-24.371-13.056-25.572-37.333-25.628-39.402
			C-1006.405-1408.666-1006.406-1408.671-1006.406-1408.676z"/>
	</g>
	<path opacity="0.4" fill="#CC6447" enable-background="new    " d="M-960.709-1448.631c0,0,5.961-9.16,16.38-4.439
		c0,0,5.061,17.748,0.909,33.637c0,0-9.175,5.843-16.408-4.605C-959.828-1424.039-962.795-1440.073-960.709-1448.631z"/>
	<g>
		<path fill="#080714" d="M-939.538-1451.265c0.529,0,1.052-0.23,1.409-0.673c0.625-0.776,0.506-1.911-0.27-2.538
			c-3.754-3.038-13.042-7.245-21.315-1.424c-0.816,0.574-1.013,1.702-0.438,2.519s1.701,1.014,2.519,0.438
			c8.087-5.69,16.605,0.994,16.963,1.281C-940.336-1451.395-939.936-1451.265-939.538-1451.265z"/>
	</g>
	<path opacity="0.2" fill="#CD8667" enable-background="new    " d="M-1054.964-1442.12c0,0,2.11-11.452,11.452,0
		c0,0,1.507-47.015,5.123-53.043c0.892-1.487,5.072-2.919,10.966-4.119c-1.89,17.068-4.575,52.401,1.356,80.358h-0.004
		c0,0,0.869,10.031,7.81,22.27c0.132,0.237,0.265,0.471,0.4,0.704c0.426,0.732,0.881,1.473,1.352,2.217
		c0.007,0.011,0.014,0.024,0.021,0.035l0.007,0.01c7.617,12.025,21.2,25.507,45.36,33.559c-4.767,1.172-10.168,1.762-16.335,1.491
		c0,0-31.645,0.603-45.207-47.919c0,0-6.028,1.507-9.946-3.315C-1046.525-1414.694-1058.58-1427.955-1054.964-1442.12z"/>
	<path fill="#CC6447" d="M-1041.642-1417.083c-1.901,0.699-4.682-0.786-5.57-3.448c-1.609-4.826,2.011-7.105,2.011-7.105
		c0.938-2.011-5.764-7.105-5.764-7.105c5.192,1.154,8.134,5.178,9.745,8.651C-1041.22-1426.089-1037.613-1418.566-1041.642-1417.083
		z"/>
	<path opacity="0.5" fill="#CD8667" enable-background="new    " d="M-965.787-1496.117c0,0-23.902,14.527-58.259,10.007
		c0,0,6.842,17.929-6.078,31.688l-4.771-39.524l59.89-11.49L-965.787-1496.117z"/>
	<path fill="#6B3316" d="M-955.593-1509.295c0,0-26.12,18.886-73.938,20.114c0,0,10.448,29.356-11.251,51.457l-4.018-5.224
		c0,0,0-47.417,3.215-53.846C-1038.372-1503.224-1005.019-1519.385-955.593-1509.295z"/>
	<path opacity="0.5" fill="#CC6447" enable-background="new    " d="M-1009.341-1450.156c10.787-15.118,30.05-6.883,31.858-5.042
		c1.808,1.841,3.471,9.668,3.471,9.668l-0.531,0.209c-1.496-2.112-6.057-7.829-12.386-9.102c-7.801-1.57-21.444,3.102-21.143,19.682
		c0.016,0.898,0.094,1.747,0.208,2.563l-0.438,0.173C-1014.711-1442.232-1009.341-1450.156-1009.341-1450.156z"/>
	<g>
		<g>
			<ellipse opacity="0.6" fill="#84CEEE" enable-background="new    " cx="-947.241" cy="-1433.58" rx="14.064" ry="16.576"/>
			<g>
				<path fill="#080714" d="M-963.716-1433.58c0-9.805,6.849-17.781,15.269-17.781s15.27,7.977,15.27,17.781
					c0,9.805-6.851,17.781-15.27,17.781C-956.867-1415.798-963.716-1423.775-963.716-1433.58z M-961.305-1433.58
					c0,8.475,5.769,15.37,12.858,15.37c7.091,0,12.859-6.895,12.859-15.37s-5.768-15.37-12.859-15.37
					C-955.536-1448.95-961.305-1442.055-961.305-1433.58z"/>
			</g>
			<path fill="#74C9E6" d="M-948.949-1448.029c0.581,0,1.148,0.064,1.708,0.156c-5.96,0.982-10.552,6.998-10.552,14.293
				c0,7.295,4.592,13.311,10.552,14.293c-0.56,0.092-1.127,0.156-1.708,0.156c-6.771,0-12.26-6.469-12.26-14.449
				C-961.208-1441.56-955.72-1448.029-948.949-1448.029z"/>
		</g>
		<g>
			<g>
				<circle opacity="0.6" fill="#84CEEE" enable-background="new    " cx="-992.062" cy="-1437.918" r="17.279"/>
				<path fill="#74C9E6" d="M-991.778-1453.071c0.689,0,1.362,0.062,2.026,0.151c-7.408,0.993-13.126,7.322-13.126,15.001
					s5.718,14.009,13.126,15.001c-0.665,0.089-1.338,0.151-2.026,0.151c-8.368,0-15.152-6.784-15.152-15.152
					S-1000.146-1453.071-991.778-1453.071z"/>
			</g>
			<g>
				<path fill="#080714" d="M-1009.341-1437.918c0-10.193,8.291-18.485,18.484-18.485s18.485,8.292,18.485,18.485
					c0,10.192-8.293,18.484-18.485,18.484C-1001.05-1419.434-1009.341-1427.726-1009.341-1437.918z M-1006.93-1437.918
					c0,8.863,7.211,16.073,16.073,16.073c8.864,0,16.074-7.21,16.074-16.073s-7.211-16.074-16.074-16.074
					S-1006.93-1446.781-1006.93-1437.918z"/>
			</g>
		</g>
		<g>
			<path fill="#080714" d="M-962.493-1438.068l2.038-1.709c-0.171-0.141-4.287-3.44-14.55-1.837l0.533,2.37
				C-965.831-1440.599-962.526-1438.094-962.493-1438.068z"/>
		</g>
	</g>
	<g>
		<path fill="#080714" d="M-1009.342-1449.553c0.511,0,1.019-0.216,1.377-0.635c14.221-16.681,30.053-4.149,30.72-3.608
			c0.775,0.63,1.912,0.511,2.543-0.26c0.63-0.773,0.517-1.909-0.256-2.541c-0.189-0.155-19.218-15.343-35.76,4.063
			c-0.647,0.76-0.557,1.901,0.203,2.549C-1010.175-1449.695-1009.757-1449.553-1009.342-1449.553z"/>
	</g>
</g>
<path fill="none" stroke="#263872" stroke-miterlimit="10" d="M739,806.5"/>
<path fill="#FAB56E" d="M717.366,399.402c0,0,25.063,55.821,15.949,95.694c-9.114,39.872-52.404,132.148-182.274,126.452
	c0,0-119.617,2.279-170.882-181.135c0,0-22.784,5.696-37.594-12.531c-14.81-18.227-60.378-68.353-46.708-121.896
	c0,0,7.974-43.29,43.29,0c0,0,5.696-177.717,19.366-200.501s228.602-56.381,255.943-27.9
	c27.341,28.48,84.035,139.233,84.035,139.233S739.015,306.247,717.366,399.402z"/>
<path fill="#A64C25" d="M678.793,464.977c1.211-5.349-6.922-20.736-12.654-30.678l-9.404-16.501
	c-1.984-3.97-3.761-8.031-5.386-12.142l-0.033-0.05l0.001-0.033c-21.701-54.984-12.821-119.737-12.707-120.522
	c0.182-1.25,1.375-2.143,2.581-1.929c1.246,0.178,2.109,1.333,1.931,2.579c-0.104,0.72-7.765,56.59,8.555,107.675
	c0.361,0.743,16.423,33.742,27.293,48.667c0.707,0.874,1.425,1.796,2.144,2.785c0.016,0.019,0.034,0.045,0.05,0.065h-0.006
	c2.281,3.146,4.494,6.791,5.853,10.554c0,0,2.386,7.947,0.399,14.68c-2.402,7.867-10.807,21.172-40.218,16.327
	c-0.186-0.003-0.369-0.002-0.555-0.006c-1.259-0.031-2.256-1.075-2.225-2.332c0.016-0.648,0.279-1.214,0.713-1.613
	C677.902,481.439,678.793,464.977,678.793,464.977z"/>
<path fill="#00050C" d="M543,318.743c0-3.928-2.113-7.334-5.244-9.231c2.645-2.039,5.918-3.301,9.516-3.301
	c8.651,0,15.664,7.013,15.664,15.664s-7.013,15.664-15.664,15.664c-5.901,0-10.977-3.301-13.648-8.121
	C538.91,328.706,543,324.224,543,318.743z"/>
<path fill="#00050C" d="M691.939,335.141c0-3.928-2.113-7.334-5.244-9.231c2.644-2.039,5.918-3.3,9.516-3.3
	c8.651,0,15.664,7.013,15.664,15.664s-7.013,15.664-15.664,15.664c-5.901,0-10.977-3.301-13.648-8.121
	C687.849,345.105,691.939,340.623,691.939,335.141z"/>
<g>
	<path fill="#FFFFFF" d="M485.438,436.547c0,0,12.387,83.823,108.198,112.427c4.662,2.786,9.467,5.452,14.417,7.967l-31.771,24.465
		C576.283,581.406,477.423,519.399,485.438,436.547z"/>
	<path fill="#A64C25" d="M479.407,432.411c-0.008-0.283-0.011-0.482-0.011-0.517c0-1.259,1.021-2.278,2.279-2.278
		c1.259,0,2.279,1.021,2.279,2.278c0,0.028,0.001,0.152,0.005,0.338C528.475,566.625,642.79,555.027,643.937,554.9
		c1.291-0.185,2.381,0.752,2.523,2c0.147,1.249-0.748,2.379-1.998,2.525c-0.178,0.022-3.111,0.325-8.108,0.325
		c-26.139,0-108.778-8.367-150.265-108.793c5.407,30.394,24.548,90.11,92.347,126.431c1.108,0.594,1.526,1.976,0.933,3.086
		c-0.412,0.765-1.199,1.201-2.011,1.201c-0.363,0-0.732-0.087-1.075-0.269c-92.123-49.352-96.661-141.119-96.874-148.94
		C479.41,432.448,479.405,432.429,479.407,432.411z"/>
</g>
<path opacity="0.4" fill="#CC6447" enable-background="new    " d="M652.141,281.379c0,0,22.531-34.623,61.916-16.78
	c0,0,19.133,67.089,3.436,127.147c0,0-34.683,22.085-62.024-17.408C655.469,374.339,644.255,313.732,652.141,281.379z"/>
<g>
	<path fill="#080714" d="M732.167,271.425c1.998,0,3.976-0.87,5.327-2.545c2.363-2.935,1.911-7.224-1.019-9.594
		c-14.191-11.484-49.3-27.388-80.573-5.385c-3.086,2.172-3.829,6.435-1.655,9.523c2.174,3.088,6.43,3.831,9.523,1.656
		c30.567-21.507,62.766,3.756,64.119,4.844C729.15,270.933,730.663,271.425,732.167,271.425z"/>
</g>
<path opacity="0.5" fill="#EB8F63" enable-background="new    " d="M295.858,305.993c0,0,7.974-43.29,43.29,0
	c0,0,5.696-177.717,19.366-200.501c3.373-5.621,19.171-11.033,41.45-15.571c-7.143,64.516-17.293,198.074,5.124,303.753
	l-0.017-0.002c0,0,3.284,37.916,29.523,84.179c0.498,0.894,1.002,1.781,1.51,2.662c1.611,2.767,3.332,5.566,5.112,8.382
	c0.028,0.042,0.052,0.089,0.08,0.132l0.026,0.037c28.793,45.455,80.138,96.415,171.462,126.855
	c-18.021,4.43-38.434,6.66-61.744,5.637c0,0-119.617,2.279-170.882-181.135c0,0-22.784,5.696-37.594-12.531
	C327.756,409.662,282.187,359.536,295.858,305.993z"/>
<path fill="#A64C25" d="M346.214,400.633c-7.184,2.643-17.699-2.97-21.053-13.034c-6.081-18.242,7.601-26.856,7.601-26.856
	c3.547-7.601-21.789-26.856-21.789-26.856c19.627,4.362,30.748,19.575,36.835,32.702
	C347.807,366.589,361.443,395.028,346.214,400.633z"/>
<path opacity="0.5" fill="#EB8F63" enable-background="new    " d="M632.943,101.883c0,0-90.348,54.914-220.218,37.826
	c0,0,25.862,67.773-22.976,119.782L371.713,110.09l226.384-43.433L632.943,101.883z"/>
<path fill="#51210C" d="M671.477,52.072c0,0-98.732,71.391-279.486,76.03c0,0,39.492,110.966-42.531,194.508l-15.19-19.746
	c0,0,0-179.236,12.152-203.539C358.574,75.021,484.646,13.933,671.477,52.072z"/>
<path opacity="0.5" fill="#CC6447" enable-background="new    " d="M468.309,275.618c40.774-57.145,113.588-26.017,120.424-19.057
	c6.835,6.96,13.119,36.544,13.119,36.544l-2.008,0.792c-5.656-7.985-22.896-29.592-46.821-34.406
	c-29.489-5.933-81.06,11.725-79.921,74.397c0.062,3.395,0.354,6.603,0.787,9.689l-1.655,0.653
	C448.014,305.568,468.309,275.618,468.309,275.618z"/>
<g>
	<g>
		<ellipse opacity="0.6" fill="#84CEEE" enable-background="new    " cx="703.049" cy="338.274" rx="53.163" ry="62.657"/>
		<g>
			<path fill="#080714" d="M640.774,338.274c0-37.062,25.89-67.213,57.717-67.213c31.827,0,57.722,30.151,57.722,67.213
				s-25.895,67.214-57.722,67.214C666.664,405.488,640.774,375.336,640.774,338.274z M649.887,338.274
				c0,32.036,21.805,58.1,48.603,58.1c26.803,0,48.608-26.064,48.608-58.1s-21.805-58.1-48.608-58.1
				C671.693,280.174,649.887,306.238,649.887,338.274z"/>
		</g>
		<path fill="#74C9E6" d="M696.594,283.657c2.196,0,4.339,0.242,6.455,0.591c-22.53,3.71-39.887,26.451-39.887,54.026
			c0,27.576,17.357,50.316,39.887,54.026c-2.115,0.348-4.259,0.591-6.455,0.591c-25.594,0-46.342-24.453-46.342-54.617
			C650.252,308.11,671,283.657,696.594,283.657z"/>
	</g>
	<g>
		<g>
			<circle opacity="0.6" fill="#84CEEE" enable-background="new    " cx="533.624" cy="321.876" r="65.315"/>
			<path fill="#74C9E6" d="M534.699,264.599c2.604,0,5.148,0.234,7.659,0.571c-28.002,3.752-49.617,27.676-49.617,56.705
				s21.615,52.954,49.617,56.706c-2.512,0.336-5.056,0.571-7.659,0.571c-31.633,0-57.276-25.644-57.276-57.276
				C477.423,290.243,503.066,264.599,534.699,264.599z"/>
		</g>
		<g>
			<path fill="#080714" d="M468.309,321.877c0-38.528,31.341-69.872,69.87-69.872c38.528,0,69.874,31.344,69.874,69.872
				c0,38.527-31.346,69.87-69.874,69.87S468.309,360.403,468.309,321.877z M477.423,321.877c0,33.502,27.256,60.757,60.757,60.757
				c33.504,0,60.761-27.255,60.761-60.757s-27.257-60.759-60.761-60.759C504.679,261.118,477.423,288.374,477.423,321.877z"/>
		</g>
	</g>
	<g>
		<path fill="#080714" d="M645.395,321.308l7.702-6.461c-0.645-0.534-16.205-13.002-54.999-6.944l2.016,8.957
			C632.78,311.741,645.272,321.211,645.395,321.308z"/>
	</g>
</g>
<g>
	<path fill="#080714" d="M468.306,277.896c1.931,0,3.851-0.815,5.204-2.401c53.757-63.055,113.601-15.684,116.122-13.637
		c2.93,2.381,7.229,1.933,9.612-0.984c2.381-2.921,1.953-7.218-0.966-9.605c-0.716-0.587-72.643-57.995-135.172,15.357
		c-2.448,2.872-2.105,7.187,0.768,9.636C465.16,277.359,466.738,277.896,468.306,277.896z"/>
</g>
<path fill="#33150B" d="M379.596,94.104c0,0,95.995-55.497,224.989-38.998l-91.495,25.499l6,14.999
	C519.089,95.604,435.093,103.103,379.596,94.104z"/>
</svg>
