<?xml version="1.0" encoding="utf-8"?>
<!-- Generator: Adobe Illustrator 17.0.0, SVG Export Plug-In . SVG Version: 6.00 Build 0)  -->
<!DOCTYPE svg PUBLIC "-//W3C//DTD SVG 1.1//EN" "http://www.w3.org/Graphics/SVG/1.1/DTD/svg11.dtd">
<svg version="1.1" id="Layer_1" xmlns="http://www.w3.org/2000/svg" xmlns:xlink="http://www.w3.org/1999/xlink" x="0px" y="0px"
	 width="985px" height="720px" viewBox="0 0 985 720" enable-background="new 0 0 985 720" xml:space="preserve">
<path fill="#FAB56E" d="M795.196,284.952c-13.75-72.594,14.783-135.35,14.783-135.35c-43.263,1.375-33.512,38.052-33.512,38.052
	c-6.219,19.51-0.717,69.879,2.156,87.61c-15.849-6.725-32.764-8.496-32.764-8.496c-13.653,11.903-20.437,24.329-23.184,36.061
	c0.069,2.741,0.463,11.398,2.708,21.678c0-0.001,7.147,26.334,25.162,42.359c0.484,0.484,0.953,1.019,1.414,1.579
	c-9.011,16.452-33.645,57.487-63.657,74.662c-72.288,40.029-150.735,4.393-150.735,4.393l-27,28
	c10.735,4.334,21.225,7.509,31.443,9.691l0.057,0.809c87.732,21.604,142.285-3.713,174.266-32.502
	c16.332-14.002,62.962-94.892,62.962-94.892c8.788-20.654,20.319-45.718,22.415-59.539
	C802.537,293.605,799.807,288.926,795.196,284.952z"/>
<path fill="#FAB56E" d="M722.932,301.223l32.829-60.759c0,0,9.306,14.577,1.415,27.649c-7.891,13.071-24.751,36.324-24.751,36.324"
	/>
<polygon fill="#EB8F63" points="757.926,322.648 769.809,306.866 764.666,302.089 754.256,315.045 "/>
<path fill="#EB8F63" d="M738.536,315.908c0,0,11.445,24.858,9.96,42.304c0,0-14.111-43.686-19.304-54.274
	C724,293.35,736.359,308.058,738.536,315.908z"/>
<path opacity="0.3" fill="#EB8F63" enable-background="new    " d="M778.622,275.263c-1.79-0.76-3.593-1.453-5.385-2.091
	l3.694,2.747l10.311,3.113c0,0-4.707-13.642-6.35-49.635c-1.267-27.742,10.507-63.178,15.972-77.971
	c-27.99,7.644-20.398,36.226-20.398,36.226C770.246,207.163,775.749,257.531,778.622,275.263z"/>
<path fill="#D77B48" d="M796.885,285.85c-11.27-14.745-49.285-19.863-50.897-20.074l-0.291-0.038l-0.265,0.127
	c-0.315,0.149-7.802,3.812-14.691,17.759c-4.651,9.417-1.228,16.573,1.727,20.422c-0.015,0.133-0.035,0.272-0.042,0.392
	c-0.316,6.195,2.964,10.371,5.115,11.558l9.266,25.464l0.9-0.263c0.131-0.038,13.078-4.005,10.22-18.548l-2.824-6.219
	c2.049-1.49,7.8-6.184,9.242-12.842l4.055,3.403c0.424,0.355,1.053,0.3,1.409-0.123c0.355-0.424,0.3-1.053-0.123-1.409l-6.888-5.78
	l-0.167,1.914c-0.702,7.997-9.242,13.598-9.328,13.654l-0.729,0.47l3.412,7.434c2.037,10.662-5.339,14.718-7.964,15.806
	l-9.422-25.893l14.869-29.4l39.07,7.419c0.535,0.1,1.065-0.253,1.169-0.796c0.102-0.542-0.254-1.066-0.796-1.169l-40.55-7.699
	l-15.699,31.043c-1.198-1.591-2.432-4.21-2.243-7.921c0.235-4.625,9.653-22.335,13.72-29.6l33.921,7.679
	c0.541,0.12,1.074-0.216,1.196-0.754c0.123-0.538-0.215-1.074-0.754-1.196l-35.375-8.009l-0.366,0.648
	c-0.503,0.893-10.986,19.522-13.703,28.206c-2.324-3.608-4.261-9.447-0.528-17.004c5.863-11.873,12.207-15.962,13.51-16.706
	c3.72,0.527,39.002,5.852,49.252,19.262c0.336,0.438,0.961,0.522,1.403,0.187C797.136,286.917,797.221,286.289,796.885,285.85z"/>
<g opacity="0.4">
	<path fill="#EB8F63" d="M774.791,195.387l17.939,24.007c4.19-41.063,17.248-69.793,17.248-69.793
		c-43.263,1.375-33.512,38.052-33.512,38.052C775.762,189.861,775.216,192.481,774.791,195.387z"/>
	<path fill="#EB8F63" d="M800.333,303.833c-2.667,10-29.333,55.333-29.333,55.333l-31.333,58C680.333,513.167,539,472.5,539,472.5
		l-0.337-24.526c-0.714-0.301-1.098-0.474-1.098-0.474l-27,28c10.735,4.334,21.225,7.509,31.443,9.691l0.057,0.809
		c87.732,21.604,142.285-3.713,174.266-32.502c16.332-14.002,62.962-94.892,62.962-94.892c8.788-20.654,20.319-45.718,22.415-59.539
		c0.147-0.97,0.177-1.914,0.109-2.835C801.263,299.585,800.756,302.247,800.333,303.833z"/>
</g>
<ellipse fill="#142551" cx="386.864" cy="555.928" rx="177.707" ry="163.072"/>
<radialGradient id="SVGID_1_" cx="-491.1842" cy="297.237" r="562.3298" gradientTransform="matrix(1 0 0 1 772 436)" gradientUnits="userSpaceOnUse">
	<stop  offset="0.5128" style="stop-color:#405684"/>
	<stop  offset="0.8325" style="stop-color:#5A7ABA"/>
</radialGradient>
<path fill="url(#SVGID_1_)" d="M443,389.125c-13.625-8.5-25.355-10.577-25.355-10.577c-15.598-4.099-29.638-5.408-42.164-4.819
	C292.463,371.837,271.8,494.493,271.8,494.493c7.804,15.394,23.35,43.068,39.406,54.54L319,518.621l1,40l2.599,150.007
	c9.082,2.954,43.932,13.301,76.068,9.571c2.836-0.329,5.401-0.53,7.726-0.622c28.76-3.868,61.543-14.09,93.32-36.602l1.173-21.228
	l0.056-1.129l-5.852-161.035l0,0c10.153,5.352,41.369,12.814,66.189,18.919c-0.123-20.978,3.373-54.756,4.71-66.873
	c-14.722-2.073-46.392-18.116-74.229-33.546C491.76,416.083,456.625,397.625,443,389.125z"/>
<path fill="none" stroke="#080B14" stroke-miterlimit="10" d="M539.5,451.5"/>
<radialGradient id="SVGID_2_" cx="-378.463" cy="283.325" r="0" gradientTransform="matrix(1 0 0 1 772 436)" gradientUnits="userSpaceOnUse">
	<stop  offset="0.5074" style="stop-color:#0F727E"/>
	<stop  offset="0.8325" style="stop-color:#00B4DE"/>
</radialGradient>
<path fill="url(#SVGID_2_)" d="M393.537,719.325"/>
<radialGradient id="SVGID_3_" cx="-456.433" cy="271.302" r="0" gradientTransform="matrix(1 0 0 1 772 436)" gradientUnits="userSpaceOnUse">
	<stop  offset="0.5074" style="stop-color:#0F727E"/>
	<stop  offset="0.8325" style="stop-color:#00B4DE"/>
</radialGradient>
<path fill="url(#SVGID_3_)" d="M315.567,707.302"/>
<path fill="none" stroke="#263872" stroke-miterlimit="10" d="M739,806.5"/>
<g>
	<g opacity="0.4">
		<polygon fill="#142551" points="385.734,553.765 370.899,576.904 370.223,625.823 399.384,625.94 399.459,575.783 		"/>
		<path fill="#142551" d="M355.837,557.531c0.532-0.023,0.963-0.449,0.97-0.988c0.005-0.38-0.2-0.714-0.508-0.891
			c-0.106-0.061-0.227-0.095-0.353-0.115c0.329-0.163,0.564-0.491,0.57-0.884c0.005-0.38-0.2-0.714-0.507-0.891
			c-0.058-0.033-0.121-0.056-0.185-0.078c0.329-0.163,0.563-0.491,0.569-0.883c0.005-0.38-0.2-0.714-0.507-0.891
			c-0.145-0.083-0.312-0.132-0.491-0.135l-1.117-0.015l-0.088-1.363c-1.052-4.097-4.829-7.057-9.229-6.903l-3.516,0.122
			c-6.056,0.034-7.381,2.856-8.515,6.516l0.04,1.336l-1.672-0.023c-0.559-0.008-1.018,0.439-1.026,0.998
			c-0.006,0.454,0.293,0.828,0.703,0.962c-0.335,0.161-0.574,0.493-0.579,0.89c-0.007,0.514,0.377,0.927,0.872,0.999
			c-0.336,0.161-0.576,0.493-0.582,0.891c-0.007,0.559,0.439,1.018,0.998,1.026l0.713,15.877l3.042,73.54l15.843-8.197l0.077-0.04
			l0.019,0.48l7.404-3.603l-0.037-0.724l0.281-0.489L355.837,557.531z"/>
	</g>
	<g>
		<g>
			<path fill="#F2CA79" d="M373.921,581.895c0.061-0.124-1.022-4.991-1.022-4.991l14.835-23.139l13.725,22.018l-22.382,6.837
				L373.921,581.895z"/>
			<polygon opacity="0.09" fill="#881A22" enable-background="new    " points="387.693,554.055 392.005,572.006 394.515,577.41 
				396.712,577.718 401.459,575.783 387.734,553.765 			"/>
			<path opacity="0.21" fill="#881A22" enable-background="new    " d="M380.569,573.836l7.165-20.071l-14.835,23.139
				c0,0,1.697,2.08,1.913,2.11c0.217,0.03,2.247,0.051,2.822-0.267c0.575-0.317,1.834-2.04,1.989-2.195
				C379.776,576.398,380.569,573.836,380.569,573.836z"/>
			
				<linearGradient id="SVGID_4_" gradientUnits="userSpaceOnUse" x1="27.037" y1="891.6234" x2="68.6949" y2="891.6234" gradientTransform="matrix(0.9557 0.2944 0.2944 -0.9557 79.1709 1438.5789)">
				<stop  offset="0" style="stop-color:#F48220"/>
				<stop  offset="1" style="stop-color:#F05F22"/>
			</linearGradient>
			<path fill="url(#SVGID_4_)" d="M392.005,572.006c-0.698,1.081-2.634,4.371-5.474,4.767c-2.842,0.396-5.885-3.083-5.885-3.083
				s-1.359,2.727-3.894,4.094s-3.854-0.88-3.854-0.88l-0.676,48.919l29.161,0.117l0.076-50.157
				C395.242,577.433,392.005,572.006,392.005,572.006z"/>
		</g>
		<path fill="#0F1810" d="M390.471,558.157l-2.737-4.392l-2.863,4.474C386.303,558.02,388.435,557.829,390.471,558.157z"/>
	</g>
	<g>
		
			<linearGradient id="SVGID_5_" gradientUnits="userSpaceOnUse" x1="6921.2119" y1="-736.9826" x2="6944.7285" y2="-736.9826" gradientTransform="matrix(-0.8666 -0.499 -0.499 0.8666 5987.02 4650.9106)">
			<stop  offset="0.0112" style="stop-color:#6B281C"/>
			<stop  offset="1" style="stop-color:#AF1F23"/>
		</linearGradient>
		<path fill="url(#SVGID_5_)" d="M334.93,550.132l0.206,6.894l6.598,3.041l2.313,0.748l12.666-2.327l-0.524-8.091
			c-1.052-4.097-4.829-7.057-9.229-6.903l-3.516,0.122C337.389,543.65,336.064,546.473,334.93,550.132z"/>
		<polyline fill="#FFC519" points="361.027,634.055 357.795,556.53 333.699,556.199 337.439,646.628 353.282,638.432 
			360.724,634.582 		"/>
		<path fill="#FFC519" d="M354.357,639.556"/>
		<polygon fill="#FDBE1C" points="353.379,638.871 360.783,635.268 356.713,555.906 350.08,557.691 		"/>
		<polygon fill="#F49720" points="345.728,641.239 353.133,637.635 349.992,555.049 342.909,556.02 		"/>
		<polygon fill="#E47E26" points="337.647,645.46 345.051,641.856 342.164,557.313 333.684,557.211 		"/>
		<g>
			<line fill="none" x1="357.505" y1="554.64" x2="333.408" y2="554.309"/>
			<path fill="#B97B2B" d="M358.009,553.763c0.307,0.177,0.513,0.511,0.507,0.891c-0.008,0.558-0.467,1.005-1.026,0.998
				l-24.097-0.331c-0.559-0.008-1.006-0.467-0.998-1.026c0.008-0.558,0.467-1.005,1.026-0.998l24.097,0.331
				C357.697,553.631,357.865,553.679,358.009,553.763L358.009,553.763z"/>
		</g>
		<g>
			<line fill="none" x1="357.381" y1="552.788" x2="333.284" y2="552.457"/>
			<path fill="#B97B2B" d="M357.886,551.911c0.307,0.177,0.513,0.511,0.507,0.891c-0.008,0.558-0.467,1.005-1.026,0.998
				l-24.097-0.331c-0.559-0.008-1.006-0.467-0.998-1.026c0.008-0.558,0.467-1.005,1.026-0.998l24.097,0.331
				C357.574,551.779,357.741,551.827,357.886,551.911L357.886,551.911z"/>
		</g>
		<g>
			<line fill="none" x1="357.795" y1="556.53" x2="333.699" y2="556.199"/>
			<path fill="#B97B2B" d="M358.299,555.652c0.308,0.178,0.513,0.511,0.508,0.891c-0.008,0.559-0.467,1.006-1.026,0.998
				l-24.097-0.331c-0.559-0.008-1.005-0.467-0.998-1.026c0.008-0.559,0.467-1.005,1.026-0.998l24.097,0.331
				C357.988,555.52,358.155,555.569,358.299,555.652L358.299,555.652z"/>
		</g>
	</g>
	
		<radialGradient id="SVGID_6_" cx="-191.9746" cy="309.8384" r="187.0201" gradientTransform="matrix(1 0 0 -1 482.5 993)" gradientUnits="userSpaceOnUse">
		<stop  offset="0.5128" style="stop-color:#405684"/>
		<stop  offset="1" style="stop-color:#5A7ABA"/>
	</radialGradient>
	<path fill="url(#SVGID_6_)" d="M331.525,622.178c0,0,66,3,74,0s6,78-37,80S329.525,644.178,331.525,622.178z"/>
</g>
<path fill="#EFEDED" d="M545.707,624.349L547.5,328.5l-333,6l5.848,269.824c4.204,11.244,14.283,34.316,31.878,53.274l268.637,1.211
	C525.345,653.465,537.024,639.083,545.707,624.349z"/>
<path fill="#CEC4C4" d="M212.457,332.536l5.892,271.833l0.007,0.339l0.119,0.317c4.476,11.974,14.623,34.903,32.286,53.934
	l0.59,0.635l269.504,1.215l0.938,0.004l0.604-0.719c4.621-5.512,16.313-19.93,25.034-34.73l0.272-0.464l1.797-296.388l0.012-2.048
	L212.457,332.536z M253.106,655.602c-16.711-18.266-26.423-40.116-30.766-51.661l-5.797-267.477l328.945-5.928l-1.777,293.259
	c-8.244,13.881-19.146,27.444-23.779,33.01L253.106,655.602z"/>
<polygon fill="#51609E" points="513.09,609.078 256.282,609.078 245.077,370.974 240.083,371.208 251.277,609.078 240.603,609.078 
	240.603,614.078 251.512,614.078 252.129,627.193 257.123,626.959 256.517,614.078 513.09,614.078 "/>
<path fill="#EB8F63" d="M725.068,526.811c-0.054-0.09-0.085-0.142-0.085-0.142l-0.038,0.205L725.068,526.811z"/>
<path opacity="0.3" fill="#CEC6C6" enable-background="new    " d="M325.311,332.503C385.07,388,483.324,502.635,486.602,658.656
	l34.26,0.154c4.482-5.345,16.162-19.728,24.844-34.461L547.5,328.5L325.311,332.503z"/>
<rect x="277.6" y="453.6" fill="#51609E" width="40.6" height="130.2"/>
<rect x="337.8" y="406.7" fill="#51609E" width="39.9" height="177.1"/>
<rect x="395.8" y="463.4" fill="#51609E" width="37.8" height="120.4"/>
<rect x="451.2" y="503.3" fill="#51609E" width="35.7" height="80.5"/>
<g>
	<path fill="#FAB56E" d="M148.679,603.993c0.439,0.687,0.886,1.298,1.339,1.809c0.425,0.479,0.855,0.877,1.288,1.183
		c2.425,1.719,11.201,2.327,20.771,2.444l-3.047,1.539l95.6,4.119c0,0,17.65,1.465,23.983-6.202
		c6.036-7.306-21.333-8.667-21.333-8.667l-57.112-5.192c0.773-1.481,1.486-3.035,2.141-4.644l79.892-13.272
		c22.419-4.233,35.205-10.642,31.33-18.267c-2.102-4.135-29.104,0.255-29.104,0.255l-77.032,13.173
		c0.366-1.944,0.678-3.828,0.942-5.618l67.796-17.975l-0.02,0.041c0,0,11.151-2.533,20.743-5.536l1.247-0.331
		c13.511-3.634,16.177-10.718,12.594-14.051c-1.423-1.323-5.166-2.333-11.093-1.319c0,0-46.223,7.35-90.386,20.531
		c-0.003-1.785-0.035-3.296-0.072-4.455c12.894-6.149,39.562-20.091,58.662-29.291c37.473-18.049,21.91-20.8,18.973-21.549
		c-4.241-0.376-12.599,2.533-23.75,6.25c0,0-29.61,10.961-56.134,22.679l2.056-10.861c0,0-17.506,1.932-25.506,8.932
		s-28.667,32-37.667,37.333C146.867,562.333,145.149,579.064,148.679,603.993z"/>
	<path opacity="0.6" fill="#EB8F63" enable-background="new    " d="M166.113,606.385c45.333-9.333,46-66,46-66
		C226.78,622.385,166.113,606.385,166.113,606.385z"/>
	<path opacity="0.6" fill="#EB8F63" enable-background="new    " d="M212.78,564.718c0,0,100.5-27.5,98.5-29.5s-97.5,21.5-97.5,21.5
		"/>
	<path opacity="0.6" fill="#EB8F63" enable-background="new    " d="M204.28,586.718c0,0,105-19.5,103.5-23.5s-98.5,17.5-98.5,17.5"
		/>
	<path opacity="0.6" fill="#EB8F63" enable-background="new    " d="M185.78,603.218c0,0,55,6,59.5,2s-44.5-6.5-44.5-6.5"/>
</g>
<g opacity="0.3">
	<path fill="#BCB3B3" d="M542.155,343.929c-0.093-0.177-0.182-0.331-0.273-0.496l-242.12-6.606c-0.083,0.25-0.171,0.494-0.244,0.756
		c-0.066,0.236-0.129,0.475-0.185,0.721c-0.036,0.154-0.066,0.314-0.098,0.472c-0.039,0.193-0.075,0.388-0.108,0.587
		c-0.028,0.165-0.055,0.331-0.078,0.501c-0.033,0.235-0.059,0.477-0.084,0.72c-0.02,0.195-0.038,0.39-0.053,0.59
		c-0.022,0.303-0.039,0.611-0.048,0.927c-0.005,0.174-0.005,0.352-0.007,0.53c-0.002,0.248,0,0.5,0.006,0.756
		c0.004,0.184,0.009,0.368,0.017,0.556c0.014,0.315,0.036,0.637,0.063,0.963c0.015,0.185,0.03,0.369,0.048,0.558
		c0.038,0.383,0.084,0.774,0.139,1.173c0.026,0.189,0.057,0.383,0.087,0.576c0.049,0.314,0.103,0.632,0.162,0.956
		c0.037,0.199,0.073,0.397,0.113,0.599c0.084,0.417,0.177,0.842,0.279,1.275c0.036,0.154,0.072,0.308,0.111,0.465
		c0.117,0.473,0.245,0.957,0.384,1.448c0.058,0.206,0.121,0.416,0.183,0.625c0.114,0.384,0.234,0.773,0.362,1.168
		c0.069,0.214,0.137,0.427,0.21,0.644c0.177,0.528,0.366,1.064,0.567,1.612c0.025,0.068,0.045,0.132,0.071,0.2
		c9.229,24.772,40.732,33.52,59.744,33.39c1.967-0.013,3.8-0.122,5.461-0.317c3.168-0.126,6.562-0.484,10.127-1.036l89.988,55.162
		c6.894-16.626,12.102-44.493,15.337-65.668c1.302,0.085,2.638,0.118,4.005,0.097c21.7-0.332,50.539-13.166,50.539-13.166
		c10.119-5.432,8.378-14.046,5.985-19.326C542.619,344.838,542.385,344.365,542.155,343.929z M308.597,340.931l15.128,10.561
		C311.403,350.995,308.706,345.461,308.597,340.931z"/>
</g>
<g>
	<path fill="#FAB56E" d="M446.22,301.189c42.55,6.684,167.301,34.215,167.301,34.215c-20.709-67.111-86.887-91.186-123.516-99.507
		c3.566-4.129,16.078-18.633,20.011-23.441c-0.002,0.002,15.827-23.342-1.342-42.465c-14.47-16.116-34.479-28.814-53.171-38.22
		c-91.231-56.033-154.09-38.615-154.09-38.615c-33.947,7.988-50.16,30.435-56.308,41.592c-18.486,26.73-28.751,67.476-28.751,67.476
		s-50.853-0.38-40.413,22.66s40.68,46.8,68.76,63c0,0-0.72,24.48,10.08,21.96c10.8-2.52,24.501-15.361,24.501-15.361l92.089,64.292
		l105.17,64.469c11.389-27.468,18.18-85.627,19.069-93.581c0.833-3.082,1.46-5.414,1.451-5.419l-50.4-14.22
		C446.66,310.024,446.142,306.565,446.22,301.189z"/>
	<path fill="#7C2117" d="M525.12,184.45"/>
	<path fill="#551413" d="M433.51,199.348l-2.597-8.722c0,0,18.33-23.707,37.693-20.141c19.363,3.567,32.815,21.861,32.815,21.861
		l6.637-3.153l-4.122,10.513C503.933,199.707,466.309,177.462,433.51,199.348z"/>
	
		<ellipse transform="matrix(0.9848 0.1736 -0.1736 0.9848 56.8004 -75.2949)" fill="#070707" cx="458.827" cy="287.054" rx="32.662" ry="7.83"/>
	<path fill="#EB8F63" d="M315.96,266.771c4.479,8.398,23.979,34.59,40.521,34.073c11.261-0.352,18.849-11.479,22.772-19.19
		C356.184,284.32,326.827,271.88,315.96,266.771z"/>
	<g>
		<path fill="#7C2117" d="M320.251,310.971"/>
		<path fill="#7C2117" d="M323.728,309.041c0.043-0.001,0.084-0.006,0.127-0.006C323.855,309.034,323.803,309.037,323.728,309.041z"
			/>
	</g>
	<path fill="#7C2117" d="M294.47,324.154"/>
	<path fill="#7C2117" d="M315.711,318.529"/>
	<path fill="#D77B48" d="M244.212,256.702c4.218,6.26,7.854,13.908,10.263,23.257l3.965-1.017
		c-11.789-45.773-51.706-53.281-52.108-53.352l-0.706,4.034c0.269,0.048,19.67,3.701,34.682,21.847
		c-12.417,7.976,0.46,27.297,0.46,27.297C232.465,263.264,240.784,258.098,244.212,256.702z"/>
	<path opacity="0.3" fill="#EB8F63" enable-background="new    " d="M452.5,383.364c-13.455,5.382-67.762-16.891-74.833-19.839
		l99.313,60.879c11.389-27.468,18.18-85.627,19.069-93.581c0.833-3.082,1.46-5.414,1.451-5.419
		C497.5,325.404,466.901,377.604,452.5,383.364z"/>
	<path fill="#7C2117" d="M550.161,321.724l-20.679-4.344h-0.001l-18.589-3.905l-7.261-1.65l-0.182,0.031l-81.988-18.391
		c0,0-60.84,38.7-85.14,39.06c-15.474,0.229-17.951-6.546-17.713-11.499c0.824,0.404,1.748,0.637,2.728,0.637
		c3.43,0,6.21-2.78,6.21-6.21c0-3.153-2.35-5.758-5.395-6.157l-0.247-0.03c-6.239-0.591-18.61,5.482-10.244,27.939
		c10.184,27.335,47.488,35.158,65.204,33.073c40.745-1.622,118.846-41.533,118.846-41.533s-2.377,24.658-3.622,29.98
		c21.961,1.544,54.772-13.058,54.772-13.058C562.281,337.389,550.161,321.724,550.161,321.724z"/>
	<path opacity="0.53" fill="#551413" enable-background="new    " d="M550.161,321.724l-20.679-4.344h-0.001l-18.589-3.905
		l-7.261-1.65l-0.182,0.031l-26.383-5.918c-5.79,6.167-33.35,32.695-90.615,46.477c-62.344,15.004-75.859-30.213-76.882-34.028
		c-1.263,4.323-1.034,10.426,2.092,18.818c10.184,27.335,47.488,35.158,65.204,33.073c40.745-1.622,118.846-41.533,118.846-41.533
		s-2.377,24.658-3.622,29.98c21.961,1.544,54.772-13.058,54.772-13.058C562.281,337.389,550.161,321.724,550.161,321.724z"/>
	<path fill="#7C2117" d="M283.419,259.636c0,0-1.717-11.313-0.995-24.456c3.691-67.227-32.08-91.691-32.08-91.691
		c-42.531-6.233-45.857,48.113-44.353,56.006c0.102,0.537,0.424,1.201,0.921,1.966c5.221,0.784,32.103,5.763,44.101,26.516
		c13.32,23.04,29.52,66.24,29.52,66.24s-0.137,0.33-0.369,0.888l21.519,15.132C304.922,279.996,283.419,259.636,283.419,259.636z"/>
	<path fill="#551413" d="M219.035,166.158c0,0,10.025-17.124,19.212-16.288s29.233,20.045,24.64,65.569
		C262.887,215.438,249.522,167.41,219.035,166.158z"/>
	<path opacity="0.5" fill="#EB8F63" enable-background="new    " d="M280.892,160.116l-9.18-15.66c0,0,47.52-41.58,93.96-17.28
		s98.82,29.16,119.34,27.54c0,0-21.06,15.66-58.32,4.86s-64.8-30.24-85.32-27.54C320.853,134.736,303.573,141.216,280.892,160.116z"
		/>
	<path opacity="0.5" fill="#EB8F63" enable-background="new    " d="M364.592,116.916c0,0,79.92,26.46,99.36,22.14l12.96,9.72
		C476.913,148.776,426.693,156.876,364.592,116.916z"/>
	<path fill="#3B3B3B" d="M451.313,116.071c0,0,15.333-36-34-55.333S299.979,34.071,276.646,43.404s-64.666,48.667-19.333,73.333
		c0,0,3,3.667,8.5-4.167s90.833-39.167,182.833,4.833"/>
	<path opacity="0.5" fill="#1A1A18" enable-background="new    " d="M271.313,88.404c-18.892-9.677-9.38-25.469-2.527-41.096
		c-23.227,13.565-52.026,47.364-11.473,69.429c0,0,3,3.667,8.5-4.167s90.833-39.167,182.833,4.833l2.667-1.332
		c0,0,1.265-2.977,1.899-7.673C366.646,59.404,271.313,88.404,271.313,88.404z"/>
	<path fill="#1A1A1A" d="M263.313,99.071l2.5,13.5c0,0,102-27,182,15.5l5.399-19.673C453.211,108.398,395.313,68.737,263.313,99.071
		z"/>
	<polyline fill="#3B3B3B" points="365.313,48.071 385.313,39.404 389.313,42.737 370.646,49.404 	"/>
	<g>
		<path fill="#F59964" d="M427.698,232.185c0,0,8.851-30.856,39.491-29.589c0,0,27.745-0.792,25.022,29.751L427.698,232.185z"/>
		<path fill="#F9F7F5" d="M447.637,215.734c0,0,27.678-3.825,44.511,18.008c0,0-23.169,21.466-61.553,1.921"/>
		<path fill="#13100E" d="M447.637,215.734c0,0,11.726-0.957,13.219,18.144l-30.261,1.785
			C430.595,235.663,428.197,224.028,447.637,215.734z"/>
		<circle fill="#F9F7F5" cx="449.451" cy="222.214" r="1.426"/>
	</g>
	<g>
		<path fill="#551413" d="M317.507,194.088l4.677-18.709l11.361,3.342c0,0,38.755-24.055,52.12-19.378
			c13.365,4.675,14.701,26.728,16.038,32.74C401.703,192.083,360.272,166.691,317.507,194.088z"/>
		<path fill="#F59964" d="M324.358,222.323c0,0,8.686-32.575,38.756-31.24c0,0,27.229-0.833,24.558,31.407L324.358,222.323z"/>
		<path fill="#F9F7F5" d="M348.781,204.532c0,0,23.747-3.212,38.89,17.958c0,0-17.711,32.539-51.284,19.542"/>
		<path fill="#13100E" d="M348.781,204.532c-23.328,5.184-22.291,23.155-22.291,23.155l0.469-0.051
			c0.416,3.715,2.212,10.272,9.428,14.396c0,0,14.534-1.502,22.218-17.874C363.073,206.806,348.781,204.532,348.781,204.532z"/>
		<circle fill="#F9F7F5" cx="343.315" cy="217.984" r="1.426"/>
	</g>
	<path fill="#FAB56E" d="M419.66,233.164c0,0,105.84-13.68,161.28,49.68l-22.32,10.08l-111.6-14.4c0,0-31.68-9.36-34.56-10.08"/>
	<g>
		<path fill="#EB8F63" d="M509.253,312.807L614.6,335.944c-3.751-14.762-10.544-27.539-18.819-38.489l0.279-0.031
			c-30.24-40.32-75.42-53.82-75.42-53.82s0.583,0.472,1.617,1.331c10.662,6.669,57.299,36.975,56.343,56.269
			C577.75,318.359,529.894,315.191,509.253,312.807z"/>
		<path fill="#EB8F63" d="M499.041,310.564l0.627,0.138c-0.005-0.019-0.009-0.039-0.014-0.058
			C499.26,310.594,499.041,310.564,499.041,310.564z"/>
	</g>
	<path fill="#EB8F63" d="M411.56,286.264c0,0,0-21.6,31.32-17.28C442.88,268.984,401.841,256.024,411.56,286.264z"/>
	<g>
		<path fill="#551413" d="M451.646,267.708c-12.958,0-23.5-10.542-23.5-23.5s10.542-23.5,23.5-23.5s23.5,10.542,23.5,23.5
			S464.603,267.708,451.646,267.708z M451.646,223.708c-11.304,0-20.5,9.196-20.5,20.5s9.196,20.5,20.5,20.5
			c11.303,0,20.5-9.196,20.5-20.5S462.949,223.708,451.646,223.708z"/>
	</g>
	<g>
		
			<rect x="281.806" y="238.199" transform="matrix(0.9979 0.0653 -0.0653 0.9979 16.4112 -22.7225)" fill="#551413" width="148.023" height="3"/>
	</g>
	<path fill="#551413" d="M511.753,241.351c2.19-8.962,10.265-15.643,19.892-15.643c11.303,0,20.5,9.196,20.5,20.5
		c0,3.485-0.879,6.767-2.42,9.643c0.866,0.574,1.691,1.16,2.457,1.762c1.885-3.38,2.963-7.268,2.963-11.405
		c0-12.958-10.542-23.5-23.5-23.5c-10.986,0-20.211,7.587-22.771,17.79L511.753,241.351z"/>
	<g>
		<path fill="#551413" d="M509.542,239.441c-15.636-5.542-34.785-0.649-34.976-0.599l-0.506-1.935
			c0.808-0.212,19.942-5.099,36.149,0.648L509.542,239.441z"/>
	</g>
</g>
</svg>
