<?xml version="1.0" encoding="utf-8"?>
<!-- Generator: Adobe Illustrator 17.0.0, SVG Export Plug-In . SVG Version: 6.00 Build 0)  -->
<!DOCTYPE svg PUBLIC "-//W3C//DTD SVG 1.1//EN" "http://www.w3.org/Graphics/SVG/1.1/DTD/svg11.dtd">
<svg version="1.1" id="Layer_1" xmlns="http://www.w3.org/2000/svg" xmlns:xlink="http://www.w3.org/1999/xlink" x="0px" y="0px"
	 width="985px" height="720px" viewBox="0 0 985 720" enable-background="new 0 0 985 720" xml:space="preserve">
<path opacity="0.4" fill="#142551" enable-background="new    " d="M717.69,309.042c0,0-7.232-39.253-38.418-5.619
	c-0.055-21.716-0.842-178.432-12.148-201.042c-11.231-22.463-89.945-57.19-249.309-32.214l-2.366-0.454l-0.979,0.99
	c-12.039,1.936-24.516,4.199-37.47,6.843c0,0,5.084,3.901,16.441,9.604c-28.787,35.835-78.385,132.724-78.385,132.724
	s-4.865,10.745-10.322,28.654c-11.744,3.222-21.61,8.916-27.663,13.814c-2.93,2.37-3.382,6.659-1.019,9.594
	c1.351,1.675,3.329,2.545,5.327,2.545c1.504,0,3.017-0.492,4.278-1.501c0.51-0.41,5.412-4.261,12.959-7.744l-2.592,18.147
	c-1.277,6.493-2.434,13.35-3.393,20.505c-5.785,6.505-9.297,15.009-9.297,24.324c0,7.719,2.409,14.883,6.525,20.814
	c0.004,0.269,0.005,0.536,0.009,0.804c-1.265,2.694-11.51,24.743-18.98,47.795c-0.001,0-30.527,81.497,30.46,150.208
	c7.14,11.352,16.232,22.859,27.67,33.398c2.054,2.031,4.147,3.947,6.275,5.746c14.556,12.691,56.609,42.739,125.681,39.602
	l82.906-7.124v-26.348c5.377-4.389,10.535-9.122,15.481-14.149c19.285-18.544,38.571-44.616,54.802-81.277
	c8.587-17.793,15.904-36.026,22.104-53.708c6.588,0.846,23.102,1.265,34.716-13.029c11.085-13.645,39.406-45.166,47.212-82.614
	C720.817,335.752,721.127,322.505,717.69,309.042z"/>
<path fill="#FAB56E" d="M319.347,545.788c7.14,11.352,16.232,22.859,27.67,33.398c5.208,5.149,10.66,9.596,16.333,13.129
	c27.558,19.269,65.503,32.508,117.156,30.243c0,0,119.617,2.279,170.882-181.135c0,0,22.784,5.696,37.594-12.531
	c14.81-18.227,60.378-68.353,46.708-121.896c0,0-7.974-43.29-43.29,0c0,0-5.696-177.717-19.366-200.501
	c-13.67-22.784-228.602-56.381-255.943-27.9c-27.341,28.48-84.035,139.233-84.035,139.233s-26.453,58.393-25.189,129.957
	c-1.265,2.694-11.51,24.743-18.98,47.795C288.886,395.58,258.36,477.077,319.347,545.788z"/>
<g>
	<ellipse fill="#142551" cx="521.213" cy="694" rx="48.5" ry="12.5"/>
</g>
<path fill="#F5C79F" d="M-1011.8-1344.207l13.466-27.909l-15.452-9.319l-15.461,32.707
	C-1024.656-1347.094-1018.407-1345.208-1011.8-1344.207z"/>
<path opacity="0.2" fill="#B76E55" enable-background="new    " d="M-1019.186-1370.009c0,0,7.159,8.094,15.589,8.802l1.43-2.459
	l-13.167-11.833L-1019.186-1370.009z"/>
<g>
	<path fill="#F5C79F" d="M-943.453-1417.408c0,0,6.63,14.767,4.219,25.316c-2.411,10.548-13.864,34.96-48.221,33.453
		c0,0-31.645,0.603-45.207-47.919c0,0-6.028,1.507-9.946-3.315c-3.918-4.822-15.973-18.083-12.356-32.247c0,0,2.11-11.452,11.452,0
		c0,0,1.507-47.015,5.123-53.043s60.477-14.916,67.71-7.381c7.233,7.534,22.232,36.834,22.232,36.834
		S-937.726-1442.053-943.453-1417.408z"/>
	<path fill="#CD8667" d="M-951.272-1401.204c0.32-1.415-1.831-5.486-3.348-8.116l-2.488-4.365c-0.525-1.05-0.995-2.125-1.425-3.212
		l-0.009-0.013v-0.009c-5.741-14.546-3.392-31.676-3.362-31.884c0.048-0.331,0.364-0.567,0.683-0.51
		c0.33,0.047,0.558,0.353,0.511,0.682c-0.027,0.191-2.054,14.971,2.263,28.485c0.095,0.197,4.345,8.926,7.22,12.875
		c0.187,0.231,0.377,0.475,0.567,0.737c0.004,0.005,0.009,0.012,0.013,0.017h-0.002c0.603,0.832,1.189,1.797,1.548,2.792
		c0,0,0.631,2.102,0.106,3.884c-0.635,2.081-2.859,5.601-10.64,4.319c-0.049-0.001-0.097,0-0.147-0.002
		c-0.333-0.008-0.597-0.284-0.589-0.617c0.004-0.172,0.074-0.321,0.189-0.427C-951.508-1396.849-951.272-1401.204-951.272-1401.204z
		"/>
	<path fill="#00050C" d="M-989.582-1438.747c0-1.039-0.559-1.94-1.387-2.442c0.7-0.54,1.566-0.873,2.518-0.873
		c2.289,0,4.144,1.855,4.144,4.144s-1.855,4.144-4.144,4.144c-1.561,0-2.904-0.873-3.611-2.148
		C-990.664-1436.111-989.582-1437.297-989.582-1438.747z"/>
	<path fill="#00050C" d="M-950.18-1434.409c0-1.039-0.559-1.94-1.387-2.442c0.699-0.54,1.566-0.873,2.517-0.873
		c2.289,0,4.144,1.855,4.144,4.144c0,2.289-1.855,4.144-4.144,4.144c-1.561,0-2.904-0.873-3.611-2.148
		C-951.262-1431.773-950.18-1432.959-950.18-1434.409z"/>
	<g>
		<path fill="#FFFFFF" d="M-1004.81-1407.582c0,0,3.277,22.175,28.624,29.743c1.233,0.737,2.504,1.443,3.814,2.108l-8.405,6.472
			C-980.777-1369.259-1006.93-1385.663-1004.81-1407.582z"/>
		<path fill="#CD8667" d="M-1006.406-1408.676c-0.002-0.075-0.003-0.127-0.003-0.137c0-0.333,0.27-0.603,0.603-0.603
			s0.603,0.27,0.603,0.603c0,0.007,0,0.04,0.001,0.089c11.777,35.554,42.019,32.485,42.322,32.452
			c0.341-0.049,0.63,0.199,0.667,0.529c0.039,0.33-0.198,0.629-0.529,0.668c-0.047,0.006-0.823,0.086-2.145,0.086
			c-6.915,0-28.777-2.214-39.753-28.781c1.43,8.041,6.494,23.839,24.43,33.447c0.293,0.157,0.404,0.523,0.247,0.816
			c-0.109,0.203-0.317,0.318-0.532,0.318c-0.096,0-0.194-0.023-0.284-0.071c-24.371-13.056-25.572-37.333-25.628-39.402
			C-1006.405-1408.666-1006.406-1408.671-1006.406-1408.676z"/>
	</g>
	<path opacity="0.4" fill="#CC6447" enable-background="new    " d="M-960.709-1448.631c0,0,5.961-9.16,16.38-4.439
		c0,0,5.061,17.748,0.909,33.637c0,0-9.175,5.843-16.408-4.605C-959.828-1424.039-962.795-1440.073-960.709-1448.631z"/>
	<g>
		<path fill="#080714" d="M-939.538-1451.265c0.529,0,1.052-0.23,1.409-0.673c0.625-0.776,0.506-1.911-0.27-2.538
			c-3.754-3.038-13.042-7.245-21.315-1.424c-0.816,0.574-1.013,1.702-0.438,2.519s1.701,1.014,2.519,0.438
			c8.087-5.69,16.605,0.994,16.963,1.281C-940.336-1451.395-939.936-1451.265-939.538-1451.265z"/>
	</g>
	<path opacity="0.2" fill="#CD8667" enable-background="new    " d="M-1054.964-1442.12c0,0,2.11-11.452,11.452,0
		c0,0,1.507-47.015,5.123-53.043c0.892-1.487,5.072-2.919,10.966-4.119c-1.89,17.068-4.575,52.401,1.356,80.358h-0.004
		c0,0,0.869,10.031,7.81,22.27c0.132,0.237,0.265,0.471,0.4,0.704c0.426,0.732,0.881,1.473,1.352,2.217
		c0.007,0.011,0.014,0.024,0.021,0.035l0.007,0.01c7.617,12.025,21.2,25.507,45.36,33.559c-4.767,1.172-10.168,1.762-16.335,1.491
		c0,0-31.645,0.603-45.207-47.919c0,0-6.028,1.507-9.946-3.315C-1046.525-1414.694-1058.58-1427.955-1054.964-1442.12z"/>
	<path fill="#CC6447" d="M-1041.642-1417.083c-1.901,0.699-4.682-0.786-5.57-3.448c-1.609-4.826,2.011-7.105,2.011-7.105
		c0.938-2.011-5.764-7.105-5.764-7.105c5.192,1.154,8.134,5.178,9.745,8.651C-1041.22-1426.089-1037.613-1418.566-1041.642-1417.083
		z"/>
	<path opacity="0.5" fill="#CD8667" enable-background="new    " d="M-965.787-1496.117c0,0-23.902,14.527-58.259,10.007
		c0,0,6.842,17.929-6.078,31.688l-4.771-39.524l59.89-11.49L-965.787-1496.117z"/>
	<path fill="#6B3316" d="M-955.593-1509.295c0,0-26.12,18.886-73.938,20.114c0,0,10.448,29.356-11.251,51.457l-4.018-5.224
		c0,0,0-47.417,3.215-53.846C-1038.372-1503.224-1005.019-1519.385-955.593-1509.295z"/>
	<path opacity="0.5" fill="#CC6447" enable-background="new    " d="M-1009.341-1450.156c10.787-15.118,30.05-6.883,31.858-5.042
		c1.808,1.841,3.471,9.668,3.471,9.668l-0.531,0.209c-1.496-2.112-6.057-7.829-12.386-9.102c-7.801-1.57-21.444,3.102-21.143,19.682
		c0.016,0.898,0.094,1.747,0.208,2.563l-0.438,0.173C-1014.711-1442.232-1009.341-1450.156-1009.341-1450.156z"/>
	<g>
		<g>
			<ellipse opacity="0.6" fill="#84CEEE" enable-background="new    " cx="-947.241" cy="-1433.58" rx="14.064" ry="16.576"/>
			<g>
				<path fill="#080714" d="M-963.716-1433.58c0-9.805,6.849-17.781,15.269-17.781s15.27,7.977,15.27,17.781
					c0,9.805-6.851,17.781-15.27,17.781C-956.867-1415.798-963.716-1423.775-963.716-1433.58z M-961.305-1433.58
					c0,8.475,5.769,15.37,12.858,15.37c7.091,0,12.859-6.895,12.859-15.37s-5.768-15.37-12.859-15.37
					C-955.536-1448.95-961.305-1442.055-961.305-1433.58z"/>
			</g>
			<path fill="#74C9E6" d="M-948.949-1448.029c0.581,0,1.148,0.064,1.708,0.156c-5.96,0.982-10.552,6.998-10.552,14.293
				c0,7.295,4.592,13.311,10.552,14.293c-0.56,0.092-1.127,0.156-1.708,0.156c-6.771,0-12.26-6.469-12.26-14.449
				C-961.208-1441.56-955.72-1448.029-948.949-1448.029z"/>
		</g>
		<g>
			<g>
				<circle opacity="0.6" fill="#84CEEE" enable-background="new    " cx="-992.062" cy="-1437.918" r="17.279"/>
				<path fill="#74C9E6" d="M-991.778-1453.071c0.689,0,1.362,0.062,2.026,0.151c-7.408,0.993-13.126,7.322-13.126,15.001
					s5.718,14.009,13.126,15.001c-0.665,0.089-1.338,0.151-2.026,0.151c-8.368,0-15.152-6.784-15.152-15.152
					S-1000.146-1453.071-991.778-1453.071z"/>
			</g>
			<g>
				<path fill="#080714" d="M-1009.341-1437.918c0-10.193,8.291-18.485,18.484-18.485s18.485,8.292,18.485,18.485
					c0,10.192-8.293,18.484-18.485,18.484C-1001.05-1419.434-1009.341-1427.726-1009.341-1437.918z M-1006.93-1437.918
					c0,8.863,7.211,16.073,16.073,16.073c8.864,0,16.074-7.21,16.074-16.073s-7.211-16.074-16.074-16.074
					S-1006.93-1446.781-1006.93-1437.918z"/>
			</g>
		</g>
		<g>
			<path fill="#080714" d="M-962.493-1438.068l2.038-1.709c-0.171-0.141-4.287-3.44-14.55-1.837l0.533,2.37
				C-965.831-1440.599-962.526-1438.094-962.493-1438.068z"/>
		</g>
	</g>
	<g>
		<path fill="#080714" d="M-1009.342-1449.553c0.511,0,1.019-0.216,1.377-0.635c14.221-16.681,30.053-4.149,30.72-3.608
			c0.775,0.63,1.912,0.511,2.543-0.26c0.63-0.773,0.517-1.909-0.256-2.541c-0.189-0.155-19.218-15.343-35.76,4.063
			c-0.647,0.76-0.557,1.901,0.203,2.549C-1010.175-1449.695-1009.757-1449.553-1009.342-1449.553z"/>
	</g>
</g>
<path fill="none" stroke="#263872" stroke-miterlimit="10" d="M739,806.5"/>
<g>
	<path fill="#142551" d="M578.879,693.843c0,6.904-26.214,15-53,15s-59.667-7.763-59.667-14.667s36.714-10.833,63.5-10.833
		C556.498,683.343,578.879,686.94,578.879,693.843z"/>
</g>
<path fill="#FAB56E" d="M483.212,515.51v182c42,10,78.667,0,78.667,0v-182H483.212z"/>
<path opacity="0.5" fill="#EB8F63" enable-background="new    " d="M688.982,428.9c-14.81,18.227-37.594,12.531-37.594,12.531
	c-51.265,183.414-170.882,181.135-170.882,181.135c-23.31,1.023-43.723-1.207-61.744-5.637
	c170.905-30.429,142.669-81.4,171.462-126.855l0.026-0.037c0.028-0.043,0.052-0.09,0.08-0.132c1.78-2.816,3.501-5.615,5.112-8.382
	c0.508-0.881,1.012-1.768,1.51-2.662c26.239-46.263,59.381-91.694,59.381-91.694l14-12c22.417-105.679-31.608-219.72-38.751-284.236
	c22.279,4.538,38.077,9.95,41.45,15.571c13.67,22.784,19.366,200.501,19.366,200.501c35.316-43.29,43.29,0,43.29,0
	C749.359,360.546,703.79,410.672,688.982,428.9z"/>
<path fill="#A64C25" d="M683.738,367.599c6.087-13.127,17.208-28.34,36.835-32.702c0,0-25.336,19.255-21.789,26.856
	c0,0,13.682,8.614,7.601,26.856c-3.354,10.064-13.869,15.677-21.053,13.034C670.103,396.038,683.739,367.599,683.738,367.599z"/>
<path opacity="0.5" fill="#EB8F63" enable-background="new    " d="M433.449,67.667L659.833,111.1l-18.036,149.401
	c-48.838-52.009-22.976-119.782-22.976-119.782c-129.87,17.088-220.218-37.826-220.218-37.826L433.449,67.667z"/>
<path fill="#51210C" d="M685.124,100.335c12.152,24.303,12.152,203.539,12.152,203.539l-15.19,19.746
	c-82.023-83.542-42.531-194.508-42.531-194.508C458.801,124.473,395,75.5,395,75.5C581.831,37.361,672.972,76.031,685.124,100.335z"
	/>
<path fill="#A64C25" d="M362.299,489.816c-5.798-0.305-13.826-1.37-20.312-4.654c-22.888-9.963-4.828-40.395-4.828-40.395
	c7.228-13.81,19.32-28.573,28.841-41.268c24-32,21-118,21-118c17,103-20,127-41,157C346,442.5,321.598,481.257,362.299,489.816z"/>
<path fill="#51210C" d="M478.973,624.534c166.729-9.796,205.861-305.784,205.861-305.784l-12.667-7.333
	c-12.056,79.57-85.704,98.639-99.703,101.562C382.76,435.207,347.516,579.437,347.516,579.437S391.667,628.5,478.973,624.534z
	 M521.5,585.417c-42,20-184.667,30-138-37.333c0,0,78-86.667,119.333-91.333C544.167,452.083,563.5,565.417,521.5,585.417z"/>
<g>
	<path fill="#A64C25" d="M409.668,581.501c-1.161,0-2.266-0.679-2.756-1.813c-0.656-1.521,0.045-3.286,1.566-3.943
		c0.712-0.308,71.403-31.373,82.926-83.229c0.36-1.618,1.968-2.638,3.579-2.278c1.618,0.359,2.638,1.962,2.278,3.579
		c-12.192,54.866-83.383,86.133-86.407,87.438C410.467,581.422,410.064,581.501,409.668,581.501z"/>
</g>
<path fill="#51210C" d="M446.333,572.5c0,0,28-20.667,36.667-36c0,0,10,28.667,0,32.667S446.333,572.5,446.333,572.5z"/>
<path opacity="0.5" fill="#EB8F63" enable-background="new    " d="M457,320.833l-20-61.667c0,0,74-52.667,124,12.667
	c0,0-0.667,70.667-50.667,82"/>
<g>
	<ellipse fill="#FFFFFF" cx="494.667" cy="320.833" rx="37.667" ry="37"/>
	<path fill="#00050C" d="M497.922,330.428c-2.671,4.82-7.747,8.121-13.648,8.121c-8.651,0-15.664-7.013-15.664-15.664
		s7.013-15.664,15.664-15.664c3.598,0,6.871,1.262,9.516,3.301c-3.131,1.897-5.244,5.303-5.244,9.231
		C488.546,325.234,492.636,329.716,497.922,330.428z"/>
</g>
<g>
	<path fill="#080714" d="M567.672,277.272c2.873-2.449,3.216-6.764,0.768-9.636c-62.529-73.352-134.456-15.944-135.172-15.357
		c-2.919,2.387-3.347,6.684-0.966,9.605c2.383,2.917,6.682,3.365,9.612,0.984c2.521-2.047,62.365-49.418,116.122,13.637
		c1.353,1.586,3.273,2.401,5.204,2.401C564.808,278.906,566.386,278.369,567.672,277.272z"/>
</g>
<path opacity="0.5" fill="#EB8F63" enable-background="new    " d="M311.667,297.833L317,260.5c0,0,47.333-17.333,56.667,5.333
	C383,288.5,385,316.5,373,338.5"/>
<g>
	<path fill="#080714" d="M303.657,270.934c1.353-1.088,33.552-26.351,64.119-4.844c3.093,2.175,7.349,1.432,9.523-1.656
		s1.431-7.351-1.655-9.523c-31.273-22.003-66.382-6.099-80.573,5.385c-2.93,2.37-3.382,6.659-1.019,9.594
		c1.351,1.675,3.329,2.545,5.327,2.545C300.883,272.435,302.396,271.943,303.657,270.934z"/>
</g>
<g>
	<ellipse fill="#FFFFFF" cx="339" cy="326.167" rx="37.667" ry="37"/>
	<path fill="#00050C" d="M342.255,335.761c-2.671,4.82-7.747,8.121-13.648,8.121c-8.651,0-15.664-7.013-15.664-15.664
		s7.013-15.664,15.664-15.664c3.598,0,6.871,1.262,9.516,3.301c-3.131,1.897-5.244,5.303-5.244,9.231
		C332.879,330.567,336.969,335.049,342.255,335.761z"/>
</g>
<path fill="#33150B" d="M549.088,577.08c0,0,32.998-43.498,16.499-119.994c0,0,50.997-16.499,79.496-64.497
	C645.083,392.589,628.584,530.582,549.088,577.08z"/>
<path fill="#33150B" d="M475.591,80.604c0,0,101.995-32.998,190.49,16.499C666.082,97.104,558.087,106.103,475.591,80.604z"/>
</svg>
