<?xml version="1.0" encoding="utf-8"?>
<!-- Generator: Adobe Illustrator 17.0.0, SVG Export Plug-In . SVG Version: 6.00 Build 0)  -->
<!DOCTYPE svg PUBLIC "-//W3C//DTD SVG 1.1//EN" "http://www.w3.org/Graphics/SVG/1.1/DTD/svg11.dtd">
<svg version="1.1" id="Layer_1" xmlns="http://www.w3.org/2000/svg" xmlns:xlink="http://www.w3.org/1999/xlink" x="0px" y="0px"
	 width="985px" height="720px" viewBox="0 0 985 720" enable-background="new 0 0 985 720" xml:space="preserve">
<ellipse fill="#142551" cx="386.864" cy="555.928" rx="177.707" ry="163.072"/>
<path fill="none" stroke="#080B14" stroke-miterlimit="10" d="M539.5,451.5"/>
<radialGradient id="SVGID_1_" cx="-185.463" cy="392.325" r="0" gradientTransform="matrix(1 0 0 1 579 327)" gradientUnits="userSpaceOnUse">
	<stop  offset="0.5074" style="stop-color:#0F727E"/>
	<stop  offset="0.8325" style="stop-color:#00B4DE"/>
</radialGradient>
<path fill="url(#SVGID_1_)" d="M393.537,719.325"/>
<radialGradient id="SVGID_2_" cx="-263.433" cy="380.302" r="0" gradientTransform="matrix(1 0 0 1 579 327)" gradientUnits="userSpaceOnUse">
	<stop  offset="0.5074" style="stop-color:#0F727E"/>
	<stop  offset="0.8325" style="stop-color:#00B4DE"/>
</radialGradient>
<path fill="url(#SVGID_2_)" d="M315.567,707.302"/>
<path opacity="0.6" fill="#1A2642" d="M383.51,658.125c71.02-8.717,135.109-11.304,135.109-11.304l-1.437-14.014
	c-4.173-1.066-8.593-1.998-13.217-2.811c5.325,0.636,9.793,1.558,13.217,2.811l2.724-184.975
	c-32.556-33.717-80.09-54.977-133.042-54.977c-64.339,0-120.69,31.377-151.878,78.364l19.288,175.543
	c-1.149,7.395,0.389,14.52,2.545,20.285c4.108,4.047,8.435,7.903,12.968,11.549c0.004-0.001,0.007-0.002,0.011-0.003
	c0.108-0.029,0.216-0.058,0.324-0.087c1.971-0.528,3.967-1.048,5.985-1.559c0.122-0.031,0.244-0.062,0.367-0.093
	c2.046-0.517,4.115-1.026,6.206-1.526c0.044-0.011,0.089-0.021,0.133-0.032c4.307-1.029,8.704-2.023,13.177-2.983
	c0.029-0.006,0.058-0.013,0.087-0.019c2.244-0.481,4.506-0.954,6.785-1.419c0.004-0.001,0.009-0.002,0.013-0.003
	c4.586-0.935,9.239-1.836,13.942-2.704c0,0,0,0,0-0.001c17.974-3.318,36.67-6.156,55.111-8.575l1.857,58.963
	c3.219,0.215,6.462,0.347,9.726,0.402V658.125z"/>
<path fill="#3D4E84" d="M393.989,718.898V598.579l-12.936-4.312l3.929,124.732C387.57,719.005,391.083,718.991,393.989,718.898z"/>
<g>
	<path fill="#405289" d="M210.846,147.296l53.361,485.639c0,0,217.756-38.808,261.954-22.638l5.929-402.633L210.846,147.296z"/>
	<g>
		<g>
			<polygon fill="#405289" points="391.95,76.148 391.411,61.595 381.729,60.192 382.787,5 356.915,6.617 361.281,57.228 
				354.22,56.205 354.759,58.9 354.759,73.453 362.731,74.031 368.773,144.062 380.092,145.679 381.438,75.386 			"/>
			<g>
				<path fill="#51609E" d="M210.846,123.58c0,0,267.344,25.872,334.18,65.758c0,0-2.156,18.326-12.936,18.326l-321.244-60.368
					C210.846,147.296,197.91,132.204,210.846,123.58z"/>
				<path opacity="0.5" fill="#FFFFFF" d="M217.853,132.743c0,0,205.359,14.553,319.627,61.446
					C537.48,194.189,359.071,144.062,217.853,132.743z"/>
			</g>
			<path opacity="0.6" fill="#3D4E84" d="M511.608,195.267c-106.278-5.639-216.725-49.324-255.802-66.167
				c-27.625-3.25-45.499-4.981-45.499-4.981c-12.936,8.624,0,23.716,0,23.716l321.244,60.368c6.749,0,10.117-7.183,11.693-12.555
				C533.507,195.964,522.996,195.871,511.608,195.267z"/>
		</g>
		<g>
			
				<rect x="326.462" y="52.812" transform="matrix(0.7386 0.6741 -0.6741 0.7386 152.2094 -194.9828)" fill="#3D4E84" width="2.155" height="91.948"/>
		</g>
		<g>
			
				<rect x="364.475" y="115.225" transform="matrix(0.5536 0.8328 -0.8328 0.5536 285.4034 -299.848)" fill="#3D4E84" width="115.856" height="2.157"/>
		</g>
	</g>
	<path fill="#FEFEFE" d="M528.154,209.107c-56.226-12.479-251.722-55.121-305.989-56.96l49.588,468.93
		c0,0,160.269-27.198,249.018-14.014L528.154,209.107z"/>
	<path fill="#BDBEC1" d="M241.569,173.707c0,0,44.198,340.648,49.588,413.952c0,0,154.154-23.716,216.678,3.234
		c0,0-168.168-15.092-225.302,8.624L241.569,173.707z"/>
	<path fill="#405289" d="M272.831,657.729c0,0-14.373-18.685-8.624-37.73c0,0,178.948-30.903,261.954-9.702l1.437,14.014
		C527.598,624.311,367.336,630.779,272.831,657.729z"/>
	<path opacity="0.5" fill="#FFFFFF" d="M283.611,630.779c0,0,163.856-28.028,227.458-15.092
		C511.069,615.687,381.709,618.921,283.611,630.779z"/>
	<path opacity="0.6" fill="#3D4E84" d="M324.065,611.478c-35.22,4.268-59.858,8.521-59.858,8.521
		c-5.749,19.045,8.624,37.73,8.624,37.73c16.116-4.596,34.145-8.595,52.964-12.069C317.235,634.502,319.76,621.391,324.065,611.478z
		"/>
</g>
<ellipse transform="matrix(0.9563 -0.2924 0.2924 0.9563 -87.9841 130.6178)" fill="#142551" cx="393" cy="359.667" rx="6.333" ry="21.167"/>
<g>
	<g>
		<path fill="#FAB56E" d="M397.039,375.784c60.365-9.129,129.293-45.016,129.293-45.016l-43.628-23.384
			c-23.361,18.54-63.964,31.329-96.7,39.22C387.412,354.948,390.486,365.575,397.039,375.784z"/>
		<path opacity="0.5" fill="#EB8F63" enable-background="new    " d="M508.838,321.392c-16.004,8.92-67.377,35.646-118.282,41.661
			c1.651,4.188,3.764,8.495,6.484,12.732c60.365-9.129,129.292-45.016,129.292-45.016L508.838,321.392z"/>
		<path opacity="0.5" fill="#EB8F63" enable-background="new    " d="M446.723,326.979c0,0,2.601,8.323,7.803,9.624
			s30.952-18.207,30.952-18.207l-7.023-7.543C478.455,310.853,450.625,326.979,446.723,326.979z"/>
	</g>
	<g>
		<path fill="#FAB56E" d="M655.67,322.365c44.269,6.954,174.06,35.597,174.06,35.597c-21.546-69.822-90.397-94.87-128.506-103.527
			c3.71-4.296,16.728-19.386,20.819-24.388c-0.002,0.002,16.466-24.285-1.396-44.181c-15.055-16.767-35.872-29.978-55.319-39.764
			c-94.917-58.297-160.315-40.175-160.315-40.175c-35.318,8.311-52.186,31.665-58.583,43.272
			c-19.233,27.81-29.913,70.202-29.913,70.202s-52.907-0.395-42.046,23.575c10.862,23.971,42.323,48.691,71.538,65.545
			c0,0-0.749,25.469,10.487,22.847s25.491-15.982,25.491-15.982l95.809,66.889l109.419,67.074
			c11.849-28.578,18.914-89.086,19.839-97.362c0.867-3.207,1.519-5.633,1.51-5.638l-52.436-14.794
			C656.128,331.557,655.589,327.958,655.67,322.365z"/>
		<path fill="#7C2117" d="M737.758,200.91"/>
		<path fill="#551413" d="M642.447,216.41l-2.702-9.074c0,0,19.07-24.665,39.216-20.955c20.145,3.711,34.141,22.744,34.141,22.744
			l6.905-3.28l-4.289,10.938C715.715,216.783,676.571,193.64,642.447,216.41z"/>
		
			<ellipse transform="matrix(-0.9848 -0.1736 0.1736 -0.9848 1273.9802 726.7512)" fill="#070707" cx="668.773" cy="307.661" rx="33.984" ry="8.146"/>
		<path fill="#EB8F63" d="M520.148,286.557c4.66,8.737,24.948,35.987,42.158,35.45c11.716-0.366,19.61-11.943,23.692-19.965
			C561.997,304.815,531.454,291.872,520.148,286.557z"/>
		<g>
			<path fill="#7C2117" d="M524.612,332.542"/>
			<path fill="#7C2117" d="M528.229,330.534c0.045-0.001,0.087-0.006,0.132-0.006C528.362,330.527,528.307,330.53,528.229,330.534z"
				/>
		</g>
		<path fill="#7C2117" d="M497.789,346.258"/>
		<path fill="#7C2117" d="M519.888,340.406"/>
		<path fill="#D77B48" d="M445.501,276.081c4.388,6.513,8.171,14.47,10.678,24.197l4.125-1.058
			c-12.265-47.622-53.795-55.434-54.213-55.507l-0.735,4.197c0.28,0.05,20.465,3.851,36.083,22.73
			c-12.919,8.298,0.479,28.4,0.479,28.4C433.279,282.908,441.934,277.533,445.501,276.081z"/>
		<path opacity="0.3" fill="#EB8F63" enable-background="new    " d="M662.204,407.86c-13.999,5.599-70.5-17.573-77.856-20.64
			l103.325,63.339c11.849-28.578,18.914-89.086,19.839-97.362c0.867-3.207,1.519-5.633,1.51-5.638
			C709.022,347.558,677.187,401.867,662.204,407.86z"/>
		<path fill="#7C2117" d="M763.81,343.73l-21.514-4.52h-0.001l-19.34-4.063l-7.554-1.717l-0.189,0.032l-85.3-19.134
			c0,0-63.298,40.263-88.58,40.638c-16.099,0.238-18.676-6.81-18.429-11.964c0.857,0.42,1.819,0.663,2.838,0.663
			c3.569,0,6.461-2.892,6.461-6.461c0-3.28-2.445-5.991-5.613-6.406l-0.257-0.031c-6.491-0.615-19.362,5.703-10.658,29.068
			c10.595,28.439,49.406,36.578,67.838,34.409c42.391-1.688,123.647-43.211,123.647-43.211s-2.473,25.654-3.768,31.191
			c22.848,1.606,56.985-13.586,56.985-13.586C776.42,360.028,763.81,343.73,763.81,343.73z"/>
		<path opacity="0.53" fill="#551413" enable-background="new    " d="M763.81,343.73l-21.514-4.52h-0.001l-19.34-4.063
			l-7.554-1.717l-0.189,0.032l-27.449-6.157c-6.024,6.416-34.697,34.016-94.276,48.355c-64.863,15.61-78.924-31.434-79.988-35.403
			c-1.314,4.498-1.076,10.847,2.177,19.578c10.595,28.439,49.406,36.578,67.838,34.409c42.391-1.688,123.647-43.211,123.647-43.211
			s-2.473,25.654-3.768,31.191c22.848,1.606,56.985-13.586,56.985-13.586C776.42,360.028,763.81,343.73,763.81,343.73z"/>
		<path fill="#7C2117" d="M486.292,279.133c0,0-1.786-11.77-1.035-25.444c3.84-69.943-33.376-95.395-33.376-95.395
			c-44.249-6.485-47.71,50.057-46.145,58.269c0.106,0.559,0.441,1.25,0.958,2.045c5.432,0.816,33.4,5.996,45.883,27.587
			c13.858,23.971,30.713,68.916,30.713,68.916s-0.143,0.343-0.384,0.924l22.388,15.743
			C508.664,300.316,486.292,279.133,486.292,279.133z"/>
		<path fill="#551413" d="M419.307,181.879c0,0,10.43-17.816,19.988-16.946c9.558,0.87,30.414,20.855,25.635,68.218
			C464.93,233.15,451.025,183.182,419.307,181.879z"/>
		<path opacity="0.5" fill="#EB8F63" enable-background="new    " d="M483.663,175.593l-9.551-16.293c0,0,49.44-43.26,97.756-17.978
			s102.812,30.338,124.161,28.653c0,0-21.911,16.293-60.676,5.056s-67.418-31.462-88.767-28.653
			C525.238,149.188,507.26,155.929,483.663,175.593z"/>
		<path opacity="0.5" fill="#EB8F63" enable-background="new    " d="M570.744,130.648c0,0,83.149,27.529,103.374,23.034
			l13.484,10.113C687.603,163.795,635.354,172.222,570.744,130.648z"/>
		<path fill="#3B3B3B" d="M660.969,129.768c0,0,15.952-37.454-35.374-57.568s-122.074-27.744-146.35-18.034
			c-24.276,9.71-67.279,50.633-20.114,76.296c0,0,3.121,3.815,8.843-4.335s94.503-40.749,190.219,5.028"/>
		<path opacity="0.5" fill="#1A1A18" enable-background="new    " d="M473.697,100.984c-19.655-10.068-9.759-26.498-2.629-42.756
			c-24.165,14.113-54.128,49.278-11.936,72.234c0,0,3.121,3.815,8.843-4.335s94.503-40.749,190.219,5.028l2.775-1.386
			c0,0,1.316-3.097,1.976-7.983C572.881,70.812,473.697,100.984,473.697,100.984z"/>
		<path fill="#1A1A1A" d="M465.374,112.082l2.601,14.045c0,0,106.121-28.091,189.353,16.126l5.617-20.468
			C662.943,121.785,602.706,80.522,465.374,112.082z"/>
		<polyline fill="#3B3B3B" points="571.494,59.021 592.302,50.004 596.464,53.472 577.043,60.408 		"/>
		<g>
			<path fill="#F59964" d="M636.4,250.573c0,0,9.209-32.103,41.086-30.784c0,0,28.866-0.824,26.033,30.953L636.4,250.573z"/>
			<path fill="#F9F7F5" d="M657.144,233.458c0,0,28.796-3.98,46.309,18.736c0,0-24.105,22.333-64.04,1.999"/>
			<path fill="#13100E" d="M657.144,233.458c0,0,12.2-0.996,13.753,18.877l-31.484,1.857
				C639.414,254.192,636.919,242.087,657.144,233.458z"/>
			<circle fill="#F9F7F5" cx="659.032" cy="240.2" r="1.484"/>
		</g>
		<g>
			<path fill="#551413" d="M521.757,210.937l4.866-19.465l11.82,3.477c0,0,40.321-25.027,54.226-20.161
				c13.905,4.864,15.295,27.808,16.686,34.063C609.355,208.851,566.25,182.433,521.757,210.937z"/>
			<path fill="#F59964" d="M528.885,240.313c0,0,9.037-33.891,40.322-32.502c0,0,28.329-0.867,25.55,32.676L528.885,240.313z"/>
			<path fill="#F9F7F5" d="M554.294,221.803c0,0,24.706-3.342,40.461,18.684c0,0-18.427,33.854-53.356,20.331"/>
			<path fill="#13100E" d="M554.294,221.803c-24.27,5.393-23.192,24.09-23.192,24.09l0.488-0.053
				c0.433,3.865,2.301,10.687,9.809,14.978c0,0,15.121-1.563,23.116-18.596C569.164,224.169,554.294,221.803,554.294,221.803z"/>
			<circle fill="#F9F7F5" cx="548.608" cy="235.799" r="1.484"/>
		</g>
		<path fill="#FAB56E" d="M628.037,251.592c0,0,110.116-14.233,167.796,51.687l-23.222,10.487l-116.109-14.982
			c0,0-32.96-9.738-35.956-10.487"/>
		<g>
			<path fill="#EB8F63" d="M721.25,334.453l109.603,24.072c-3.903-15.358-10.97-28.652-19.579-40.044l0.29-0.032
				c-31.462-41.949-78.467-55.994-78.467-55.994s0.607,0.491,1.682,1.385c11.093,6.938,59.614,38.469,58.619,58.542
				C792.514,340.229,742.724,336.933,721.25,334.453z"/>
			<path fill="#EB8F63" d="M710.625,332.119l0.652,0.144c-0.005-0.02-0.009-0.041-0.015-0.06
				C710.853,332.15,710.625,332.119,710.625,332.119z"/>
		</g>
		<path fill="#EB8F63" d="M619.61,306.837c0,0,0-22.473,32.585-17.978C652.195,288.859,609.498,275.376,619.61,306.837z"/>
		<g>
			<path fill="#551413" d="M661.315,287.532c-13.482,0-24.449-10.968-24.449-24.449c0-13.481,10.968-24.449,24.449-24.449
				s24.449,10.968,24.449,24.449C685.765,276.564,674.796,287.532,661.315,287.532z M661.315,241.754
				c-11.761,0-21.328,9.568-21.328,21.328c0,11.761,9.568,21.328,21.328,21.328c11.76,0,21.328-9.568,21.328-21.328
				C682.643,251.321,673.075,241.754,661.315,241.754z"/>
		</g>
		<g>
			
				<rect x="484.618" y="256.83" transform="matrix(0.9979 0.0653 -0.0653 0.9979 18.0709 -36.1207)" fill="#551413" width="153.993" height="3.121"/>
		</g>
		<path fill="#551413" d="M723.851,260.11c2.278-9.324,10.68-16.275,20.696-16.275c11.76,0,21.328,9.568,21.328,21.328
			c0,3.626-0.915,7.04-2.518,10.033c0.901,0.597,1.759,1.207,2.556,1.833c1.961-3.517,3.083-7.562,3.083-11.866
			c0-13.481-10.968-24.449-24.449-24.449c-11.43,0-21.028,7.894-23.691,18.509L723.851,260.11z"/>
		<g>
			<path fill="#551413" d="M721.55,258.123c-16.268-5.766-36.19-0.675-36.389-0.623l-0.526-2.013
				c0.841-0.221,20.748-5.305,37.609,0.674L721.55,258.123z"/>
		</g>
	</g>
</g>
<ellipse fill="#142551" cx="443.5" cy="434.25" rx="10.8" ry="25.425"/>
<g>
	<path fill="#FAB56E" d="M441.5,453.333c0,0-14-19.333,0.667-40c0,0,115.928,98.09,224.836,59.047
		c9.663-4.99,20.95-11.707,25.673-17.898c0,0,8.558-26.572,13.249-33.345c4.691-6.774,22.447-16.656,26.289-30.038l1.873-6.472
		c0,0,11.237,15.758-3.797,25.777c0,0-9.395,6.025-10.779,12.967c0,0,2.492,15.228,17.67,25.417c5.294,4.173,10.849,7.1,16.29,9.132
		c4.256,2.022,10.162,3.333,16.72,3.873c11.584,1.213,20.093-0.68,20.094-0.68c5.92-0.883,11.593-2.38,16.369-4.541
		c16.109-7.288,51.809,11.242,51.809,11.242c-3.066,8.986-11.072,12.246-11.072,12.246l-1.03,0.02
		c1.573,1.208,3.098,2.507,4.55,3.929c0,0-47.908,19.809-75.588,14.22c-23.44-4.733-61.244-20.499-72.274-25.218
		c-4.735,2.417-17.797,8.851-35.228,15.522C667.821,488.534,543,537.167,441.5,453.333z"/>
	<path opacity="0.5" fill="#EB8F63" enable-background="new    " d="M793.806,481.608c-17.047-0.152-33.095,14.49-62.236-21.855
		c0,0-13.658-24.404-31.823-10.264c-1.291,3.24-2.203,6.88-2.071,10.527C565.485,543.554,441.5,438,441.5,438c-5,4,0.5,13,0.5,13
		c120.5,94.5,247.477,27.286,262.026,18.423c12.32,5.24,48.432,20.141,71.107,24.72c13.072,2.639,30.651-0.387,45.57-4.315
		C815.335,486.621,805.271,481.711,793.806,481.608z"/>
	<path fill="#A64C25" d="M714.92,447.367c4.18,0.513,7.774,3.249,10.991,8.364c1.669,2.654,7.508,10.844,14.818,18.221
		c6.588-3.59,9.039-14.326,9.065-14.444l2.627,0.575c-0.071,0.323-1.054,4.665-3.51,8.972c14.906,9.995,39.124,7.565,52.266,6.243
		l2.604-0.259c13.393-1.29,33.85,10.3,34.715,10.794c0.645,0.368,0.869,1.19,0.5,1.835c-0.369,0.644-1.191,0.87-1.834,0.5
		c-0.205-0.116-20.574-11.658-33.123-10.452l-2.593,0.257c-9.606,0.967-24.977,2.514-38.706-0.486
		c-5.521-1.206-10.767-3.162-15.275-6.172c-1.276,1.774-2.839,3.408-4.73,4.597c3.06,2.908,6.316,5.596,9.605,7.626
		c8.011,4.945,17.932,3.164,28.436,1.279c4.307-0.773,8.76-1.572,13.056-1.859c14.794-0.984,26.168,8.267,26.644,8.661l-1.713,2.073
		c-0.109-0.09-11.048-8.967-24.753-8.051c-4.147,0.277-8.525,1.062-12.76,1.822c-7.81,1.401-15.817,2.838-23.057,1.256
		c-2.53-0.553-4.966-1.473-7.267-2.894c-3.636-2.244-7.313-5.321-10.769-8.674c-0.155,0.054-0.307,0.112-0.466,0.16l-0.267-0.888
		c-7.108-7.041-13.176-15.106-15.789-19.263c-2.797-4.448-5.664-6.71-9.041-7.127c-4.348-0.532-9.6,2.13-15.612,7.914l-1.864-1.937
		C703.74,449.64,709.73,446.732,714.92,447.367z"/>
	<path fill="#A64C25" d="M751.636,463.226l0.117,0.061c0.492,0.289,1.028,0.57,1.597,0.835c13.212,6.161,42.616,4.273,55.365,1.485
		c5.881-1.286,13.86,0.393,23.715,4.989c7.86,3.665,14.041,7.874,14.72,8.342c0.305,0.21,0.509,0.528,0.576,0.892
		c0.067,0.365-0.012,0.734-0.223,1.039c-0.386,0.559-1.116,0.753-1.737,0.463c-0.063-0.029-0.125-0.063-0.196-0.111
		c-0.061-0.042-6.448-4.408-14.359-8.097c-9.164-4.273-16.738-5.935-21.904-4.806c-13.074,2.858-43.379,4.723-57.23-1.736
		c-0.614-0.286-1.194-0.589-1.727-0.9c-0.659-0.388-0.882-1.239-0.497-1.899C750.218,463.162,750.984,462.922,751.636,463.226z"/>
</g>
</svg>
