<?xml version="1.0" encoding="utf-8"?>
<!-- Generator: Adobe Illustrator 17.0.0, SVG Export Plug-In . SVG Version: 6.00 Build 0)  -->
<!DOCTYPE svg PUBLIC "-//W3C//DTD SVG 1.1//EN" "http://www.w3.org/Graphics/SVG/1.1/DTD/svg11.dtd">
<svg version="1.1" id="Layer_1" xmlns="http://www.w3.org/2000/svg" xmlns:xlink="http://www.w3.org/1999/xlink" x="0px" y="0px"
	 width="985px" height="720px" viewBox="0 0 985 720" enable-background="new 0 0 985 720" xml:space="preserve">
<ellipse fill="#142551" cx="386.864" cy="555.928" rx="177.707" ry="163.072"/>
<g>
	<g>
		<path fill="#FAB56E" d="M880.471,345.949c-27.388,9.292-45.974,18.585-65.537,12.227c0,0,0.978-9.291,0.978-12.227
			c0-2.936,40.103-12.231,45.486-39.621c5.382-27.39-31.301-58.691-25.922-75.808c0,0-17.12,1.464-15.651,16.143
			c1.47,14.671,31.791,35.211,24.944,56.243c-6.844,21.032-32.279,35.215-53.8,31.302c-15.664-2.851-27.133-10.111-29.973-18.941
			c0.459-3.649,3.745-22.904,22.484-29.463c20.736-7.258,16.589-30.586,6.998-41.99c0,0-5.966,20.004-28.603,38.556
			c-4.297,2.418-6.561,7.322-6.561,7.322l0.019,0.021c-4.896,7.815-9.789,16.536-11.643,23.953
			c-3.916,15.658-5.056,37.171-7.5,42.059c-2.446,4.897-21.522,46.47-21.522,46.47l13.697,7.335c0,0,13.207-27.388,22.008-26.901
			c8.805,0.489,101.244,20.052,120.812,11.741c0,0,70.43-21.034,87.547-43.045C958.729,351.326,907.865,336.652,880.471,345.949z"/>
		<path fill="#A64C25" d="M832.879,384.918c-24.349,0.002-40.366-16.743-51.749-28.64c-3.256-3.404-6.069-6.342-8.586-8.379
			c-2.493-2.019-5.143-2.746-8.11-2.191c-10.378,1.908-20.242,18.693-20.339,18.861l-1.794-1.041
			c0.421-0.725,10.451-17.782,21.759-19.859c3.538-0.654,6.838,0.229,9.789,2.618c2.618,2.12,5.474,5.103,8.78,8.558
			c13.906,14.533,34.919,36.493,69.794,24.521c44.588-15.301,56.092-11.765,64.788-6.417l-1.085,1.766
			c-7.93-4.88-19.329-8.388-63.03,6.612C845.781,383.839,839.06,384.918,832.879,384.918z"/>
		<path fill="#A64C25" d="M836.081,370.306c-12.932,0-24.083-3.748-24.746-3.975l0.672-1.96c0.223,0.075,22.708,7.62,40.403,1.308
			c29.968-10.704,69.854-20.149,89.683-4.398l-1.288,1.624c-14.896-11.826-46.038-10.147-87.699,4.726
			C847.567,369.609,841.658,370.306,836.081,370.306z"/>
		<path fill="#A64C25" d="M806.558,375.842l-1.511-1.422c9.999-10.625,8.865-25.134,8.853-25.28l2.066-0.178
			C816.021,349.592,817.188,364.547,806.558,375.842z"/>
		<path opacity="0.8" fill="#EB8F63" d="M790.889,244.329c0.992,6.637,1.943,18.572-2.918,23.676
			c-6.912,7.258-46.656,42.855-23.155,54.95c0.939,0.484,1.831,0.93,2.701,1.361c-3.213-2.703-5.466-5.767-6.522-9.05
			c0.459-3.649,3.745-22.904,22.484-29.463C803.912,278.652,800.179,255.904,790.889,244.329z"/>
		<path fill="#EB8F63" d="M825.295,233.697c0.043-0.043,0.074-0.072,0.074-0.072S825.338,233.652,825.295,233.697z"/>
		<path opacity="0.8" fill="#EB8F63" d="M845.298,285.675c-0.245-0.8-0.542-1.555-0.82-2.326
			c-1.608-6.511-4.555-14.604-9.981-23.644c-12.656-21.092-9.72-25.465-9.202-26.008c-0.972,0.962-12.146,12.51-0.994,23.629
			c2.556,2.925,23.438,27.346,21.126,41.827c0,0,0.498-0.392,0.901-1.521c-0.019,1.198-0.091,1.853-0.091,1.853
			c0.31-0.867,0.404-1.899,0.398-3.004C847.013,294.482,846.967,291.129,845.298,285.675z"/>
	</g>
	<path fill="#FAB56E" d="M663.032,449.679c-72.288,40.029-150.735,4.393-150.735,4.393l-27,28
		c10.735,4.334,21.225,7.509,31.443,9.691l0.057,0.809c87.732,21.604,142.285-3.713,174.266-32.502
		c16.332-14.002,65.669-78.998,65.669-78.998l-29.465-7.114C718.762,389.647,693.699,432.129,663.032,449.679z"/>
	<path opacity="0.6" fill="#EB8F63" enable-background="new    " d="M741.065,393.072
		c-92.666,137.333-211.333,90.667-211.333,90.667l-15.789-28.964c-1.072-0.443-1.646-0.702-1.646-0.702l-27,28
		c10.735,4.334,21.225,7.509,31.443,9.691l0.057,0.809c87.732,21.604,142.285-3.713,174.266-32.502
		c16.331-14.002,52.725-66.639,52.725-66.639l-2.721-0.361C741.066,393.071,741.066,393.071,741.065,393.072z"/>
</g>
<radialGradient id="SVGID_1_" cx="262.4254" cy="359.7383" r="564.5007" gradientUnits="userSpaceOnUse">
	<stop  offset="0.5128" style="stop-color:#405684"/>
	<stop  offset="0.8325" style="stop-color:#5A7ABA"/>
</radialGradient>
<path fill="url(#SVGID_1_)" d="M549.667,529.833c-0.253-22.499-4.562-76.197-3.333-87.333c-14.722-2.073-23.283-9.987-51.12-25.417
	c-5.575-3.478-18.995-10.393-32.907-17.351c-1.127-0.736-2.329-1.479-3.64-2.232c-13.265-7.62-24.643-12.796-34.145-16.303
	c-2.173-1.049-3.423-1.649-3.423-1.649c-1.859-0.489-3.695-0.935-5.511-1.346c-18.193-5.456-27.254-4.036-27.254-4.036l-0.323,0.478
	c-3.108-0.082-6.136-0.053-9.076,0.085c-3.394-0.077-6.684,0.053-9.872,0.376C337.123,381.71,282,403.5,258,439.5
	s52.6,88.082,52.6,88.082l0,0l15.452,182.046c9.082,2.954,43.932,13.301,76.068,9.571c2.836-0.329,5.401-0.53,7.726-0.622
	c28.76-3.868,66.404-17.327,94.404-40.327l0.089-17.503l0.056-1.129L499,509.833c1.328,0.7-4.979-2.58,0,0
	C509.178,515.107,524.229,527.191,549.667,529.833z M495.65,417.356c0.063,0.039,0.131,0.082,0.205,0.128
	C495.788,417.442,495.72,417.399,495.65,417.356z M496.298,417.76c0.3,0.187,0.644,0.401,1.009,0.629
	C496.991,418.193,496.657,417.984,496.298,417.76z M501.132,420.776C501.294,420.877,501.317,420.891,501.132,420.776
	L501.132,420.776z M500.158,420.168c0.073,0.046,0.146,0.091,0.214,0.133C500.305,420.259,500.233,420.215,500.158,420.168z"/>
<path fill="none" stroke="#080B14" stroke-miterlimit="10" d="M539.5,451.5"/>
<radialGradient id="SVGID_2_" cx="104.037" cy="164.675" r="0" gradientTransform="matrix(1 0 0 -1 289.5 884)" gradientUnits="userSpaceOnUse">
	<stop  offset="0.5074" style="stop-color:#0F727E"/>
	<stop  offset="0.8325" style="stop-color:#00B4DE"/>
</radialGradient>
<path fill="url(#SVGID_2_)" d="M393.537,719.325"/>
<radialGradient id="SVGID_3_" cx="26.067" cy="176.698" r="0" gradientTransform="matrix(1 0 0 -1 289.5 884)" gradientUnits="userSpaceOnUse">
	<stop  offset="0.5074" style="stop-color:#0F727E"/>
	<stop  offset="0.8325" style="stop-color:#00B4DE"/>
</radialGradient>
<path fill="url(#SVGID_3_)" d="M315.567,707.302"/>
<path fill="#142551" d="M496.271,486.04l0.027,0.039C496.313,485.739,496.318,485.404,496.271,486.04z"/>
<path fill="none" stroke="#263872" stroke-miterlimit="10" d="M379,578.815"/>
<g>
	<g opacity="0.4">
		<polygon fill="#142551" points="383.687,560.765 368.851,583.904 368.176,632.823 397.336,632.94 397.412,582.783 		"/>
		<path fill="#142551" d="M353.79,564.531c0.532-0.023,0.963-0.449,0.97-0.988c0.005-0.38-0.2-0.714-0.508-0.891
			c-0.106-0.061-0.227-0.095-0.353-0.115c0.329-0.163,0.564-0.491,0.57-0.884c0.005-0.38-0.2-0.714-0.507-0.891
			c-0.058-0.033-0.121-0.056-0.185-0.078c0.329-0.163,0.563-0.491,0.569-0.883c0.005-0.38-0.2-0.714-0.507-0.891
			c-0.145-0.083-0.312-0.132-0.491-0.135l-1.117-0.015l-0.088-1.363c-1.052-4.097-4.829-7.057-9.229-6.903l-3.516,0.122
			c-6.056,0.034-7.381,2.856-8.515,6.516l0.04,1.336l-1.672-0.023c-0.559-0.008-1.018,0.439-1.026,0.998
			c-0.006,0.454,0.293,0.828,0.703,0.962c-0.335,0.161-0.574,0.493-0.579,0.89c-0.007,0.514,0.377,0.927,0.872,0.999
			c-0.336,0.161-0.576,0.493-0.582,0.891c-0.007,0.559,0.439,1.018,0.998,1.026l0.713,15.877l3.042,73.54l15.843-8.197l0.077-0.04
			l0.019,0.48l7.404-3.603l-0.037-0.724l0.281-0.489L353.79,564.531z"/>
	</g>
	<g>
		<g>
			<path fill="#F2CA79" d="M371.873,588.895c0.061-0.124-1.022-4.991-1.022-4.991l14.835-23.139l13.725,22.018l-22.382,6.837
				L371.873,588.895z"/>
			<polygon opacity="0.09" fill="#881A22" points="385.646,561.055 389.958,579.006 392.468,584.41 394.665,584.719 
				399.412,582.783 385.687,560.765 			"/>
			<path opacity="0.21" fill="#881A22" d="M378.522,580.837l7.165-20.071l-14.835,23.139c0,0,1.697,2.08,1.913,2.11
				c0.217,0.03,2.247,0.051,2.822-0.267c0.575-0.317,1.834-2.04,1.989-2.195C377.729,583.398,378.522,580.837,378.522,580.837z"/>
			
				<linearGradient id="SVGID_4_" gradientUnits="userSpaceOnUse" x1="568.4729" y1="-45.4551" x2="610.1308" y2="-45.4551" gradientTransform="matrix(0.9557 0.2944 -0.2944 0.9557 -191.2139 477.4972)">
				<stop  offset="0" style="stop-color:#F48220"/>
				<stop  offset="1" style="stop-color:#F05F22"/>
			</linearGradient>
			<path fill="url(#SVGID_4_)" d="M389.958,579.006c-0.698,1.081-2.633,4.371-5.474,4.767c-2.842,0.396-5.885-3.083-5.885-3.083
				s-1.359,2.727-3.894,4.094c-2.535,1.367-3.854-0.88-3.854-0.88l-0.676,48.919l29.161,0.117l0.076-50.157
				C393.195,584.433,389.958,579.006,389.958,579.006z"/>
		</g>
		<path fill="#0F1810" d="M388.424,565.157l-2.737-4.392l-2.863,4.474C384.256,565.02,386.387,564.83,388.424,565.157z"/>
	</g>
	<g>
		
			<linearGradient id="SVGID_5_" gradientUnits="userSpaceOnUse" x1="6365.3799" y1="1455.14" x2="6388.8965" y2="1455.14" gradientTransform="matrix(-0.8666 -0.499 0.499 -0.8666 5144.9907 5002.7959)">
			<stop  offset="0.0112" style="stop-color:#6B281C"/>
			<stop  offset="1" style="stop-color:#AF1F23"/>
		</linearGradient>
		<path fill="url(#SVGID_5_)" d="M332.883,557.132l0.206,6.894l6.598,3.041l2.313,0.748l12.666-2.326l-0.524-8.091
			c-1.052-4.097-4.829-7.057-9.229-6.903l-3.516,0.122C335.342,550.65,334.017,553.473,332.883,557.132z"/>
		<polyline fill="#FFC519" points="358.98,641.055 355.748,563.53 331.652,563.199 335.392,653.629 351.235,645.432 
			358.677,641.582 		"/>
		<path fill="#FFC519" d="M352.31,646.556"/>
		<polygon fill="#FDBE1C" points="351.332,645.872 358.736,642.268 354.666,562.906 348.033,564.692 		"/>
		<polygon fill="#F49720" points="343.681,648.239 351.085,644.635 347.945,562.049 340.862,563.02 		"/>
		<polygon fill="#E47E26" points="335.599,652.46 343.004,648.856 340.117,564.314 331.637,564.211 		"/>
		<g>
			<line fill="#B97B2B" x1="355.457" y1="561.64" x2="331.361" y2="561.309"/>
			<path fill="#B97B2B" d="M355.962,560.763c0.307,0.177,0.513,0.511,0.507,0.891c-0.008,0.558-0.467,1.005-1.026,0.998
				l-24.097-0.331c-0.559-0.008-1.006-0.467-0.998-1.026c0.008-0.558,0.467-1.005,1.026-0.998l24.097,0.331
				C355.65,560.631,355.817,560.68,355.962,560.763L355.962,560.763z"/>
		</g>
		<g>
			<line fill="#B97B2B" x1="355.334" y1="559.788" x2="331.237" y2="559.457"/>
			<path fill="#B97B2B" d="M355.839,558.911c0.307,0.177,0.513,0.511,0.507,0.891c-0.008,0.558-0.467,1.005-1.026,0.998
				l-24.097-0.331c-0.559-0.008-1.006-0.467-0.998-1.026c0.008-0.558,0.467-1.005,1.026-0.998l24.097,0.331
				C355.526,558.779,355.694,558.827,355.839,558.911L355.839,558.911z"/>
		</g>
		<g>
			<line fill="#B97B2B" x1="355.748" y1="563.53" x2="331.652" y2="563.199"/>
			<path fill="#B97B2B" d="M356.252,562.652c0.308,0.178,0.513,0.511,0.508,0.891c-0.008,0.559-0.467,1.006-1.026,0.998
				l-24.097-0.331c-0.559-0.008-1.005-0.467-0.998-1.026c0.008-0.559,0.467-1.005,1.026-0.998l24.097,0.331
				C355.941,562.521,356.108,562.569,356.252,562.652L356.252,562.652z"/>
		</g>
	</g>
	<radialGradient id="SVGID_6_" cx="301.4783" cy="682.1618" r="187.0201" gradientUnits="userSpaceOnUse">
		<stop  offset="0.5128" style="stop-color:#405684"/>
		<stop  offset="0.8325" style="stop-color:#5A7ABA"/>
	</radialGradient>
	<path fill="url(#SVGID_6_)" d="M329.478,629.178c0,0,66,3,74,0s6,78-37,80S327.478,651.178,329.478,629.178z"/>
</g>
<path fill="#FAB56E" d="M356.793,387.875c0,0,21.833,3.333,32.667,1.25l0.167,2.333c0,0-24.167,2.917-31.917-1s-0.5-0.167-0.5-0.167
	l-0.417-2"/>
<polyline fill="#3B3B3B" points="389.48,15.904 409.48,7.237 413.48,10.57 394.813,17.237 "/>
<g>
	<path fill="#222222" d="M680.991,256.941c0,0,6.398,6.38,16.027,6.655c0,0-30.465,85.351-49.639,109.794
		c0,0-6.9,4.223-12.458-3.645C634.922,369.745,662.758,286.861,680.991,256.941z"/>
	<g>
		<path fill="#191819" d="M696.009,260.526c0,0,27.102-22.742,37.349-43.952c0.118-0.245,0.234-0.489,0.348-0.733
			c9.965-21.416,10.571-31.584,8.576-46.097l1.226-1.028l6.002,2.796l2.818,22.96c0,0-19.406,46.569-30.081,55.005
			c-10.675,8.436-16.374,11.912-17.501,11.813S696.009,260.526,696.009,260.526z"/>
		<g>
			
				<ellipse transform="matrix(0.5 -0.866 0.866 0.5 173.5322 730.3204)" opacity="0.5" fill="#425399" cx="719.242" cy="214.877" rx="51.21" ry="21.42"/>
			<path fill="#222222" d="M748.127,165.496l-12.186-7.664l-0.077,0.15c-11.591-5.366-32.897,11.204-48.244,37.785
				c-15.022,26.019-18.88,52.184-9.243,60.178c-0.001,0.036-0.002,0.057-0.002,0.057l0.265,0.166
				c0.364,0.282,0.741,0.545,1.141,0.776c0.158,0.091,0.325,0.161,0.486,0.243l10.959,6.863
				c11.383,6.572,33.349-10.162,49.061-37.377C756.001,199.458,759.51,172.068,748.127,165.496z M737.792,225.587
				c-14.141,24.493-33.91,39.554-44.155,33.639c-10.245-5.915-7.086-30.566,7.055-55.059c14.141-24.493,33.91-39.554,44.155-33.639
				C755.092,176.443,751.934,201.094,737.792,225.587z"/>
			<circle fill="#FFFFFF" cx="722.958" cy="187.786" r="3.6"/>
		</g>
	</g>
</g>
<g>
	<path fill="#FAB56E" d="M447.387,268.022c42.55,6.684,167.301,34.215,167.301,34.215c-20.709-67.111-86.887-91.186-123.516-99.507
		c3.566-4.129,16.078-18.633,20.011-23.441c-0.002,0.002,15.827-23.342-1.342-42.465c-14.47-16.116-34.479-28.814-53.171-38.22
		c-91.231-56.033-154.09-38.615-154.09-38.615c-33.947,7.988-50.16,30.435-56.308,41.592c-18.486,26.73-28.751,67.476-28.751,67.476
		s-50.853-0.38-40.413,22.66s40.68,46.8,68.76,63c0,0-0.72,24.48,10.08,21.96c10.8-2.52,24.501-15.361,24.501-15.361l92.089,64.292
		l105.17,64.469c11.389-27.468,18.18-85.627,19.069-93.581c0.833-3.082,1.46-5.414,1.451-5.419l-50.4-14.22
		C447.827,276.857,447.309,273.398,447.387,268.022z"/>
	<polygon fill="#FAB56E" points="344.555,279.76 357.313,390.404 389.48,392.737 385.482,302.272 	"/>
	<polygon fill="#EE9062" points="372.23,392.291 361.258,289.992 385.815,302.272 390.063,392.125 	"/>
	<path fill="#7C2117" d="M526.287,151.283"/>
	<path fill="#551413" d="M431.01,173.181l-2.597-8.722c0,0,18.33-23.707,37.693-20.141c19.363,3.567,32.815,21.861,32.815,21.861
		l6.637-3.153l-4.122,10.513C501.433,173.54,463.809,151.295,431.01,173.181z"/>
	
		<ellipse transform="matrix(-0.1736 0.9848 -0.9848 -0.1736 789.8808 -155.0317)" fill="#070707" cx="459.987" cy="253.894" rx="7.83" ry="32.667"/>
	<path fill="#EB8F63" d="M317.127,233.604c4.479,8.398,23.979,34.59,40.521,34.073c11.261-0.352,18.849-11.479,22.772-19.19
		C357.351,251.153,327.994,238.713,317.127,233.604z"/>
	<g>
		<path fill="#7C2117" d="M321.418,277.804"/>
		<path fill="#7C2117" d="M324.895,275.874c0.043-0.001,0.084-0.006,0.127-0.006C325.022,275.867,324.97,275.87,324.895,275.874z"/>
	</g>
	<path fill="#7C2117" d="M295.637,290.987"/>
	<path fill="#7C2117" d="M316.878,285.362"/>
	<path fill="#D77B48" d="M245.379,223.535c4.218,6.26,7.854,13.908,10.263,23.257l3.965-1.017
		c-11.789-45.773-51.706-53.281-52.108-53.352l-0.706,4.034c0.269,0.048,19.67,3.701,34.682,21.847
		c-12.417,7.976,0.46,27.297,0.46,27.297C233.632,230.097,241.951,224.931,245.379,223.535z"/>
	<path opacity="0.3" fill="#EB8F63" enable-background="new    " d="M453.667,350.197c-13.455,5.382-67.762-16.891-74.833-19.839
		l99.313,60.879c11.389-27.468,18.18-85.627,19.069-93.581c0.833-3.082,1.46-5.414,1.451-5.419
		C498.667,292.237,468.068,344.437,453.667,350.197z"/>
	<path fill="#7C2117" d="M551.328,288.557l-20.679-4.344h-0.001l-18.589-3.905l-7.261-1.65l-0.182,0.031l-81.988-18.391
		c0,0-60.84,38.7-85.14,39.06c-15.474,0.229-17.951-6.546-17.713-11.499c0.824,0.404,1.748,0.637,2.728,0.637
		c3.43,0,6.21-2.78,6.21-6.21c0-3.153-2.35-5.758-5.395-6.157l-0.247-0.03c-6.239-0.591-18.61,5.482-10.244,27.939
		c10.184,27.335,47.488,35.158,65.204,33.073c40.745-1.622,118.846-41.533,118.846-41.533s-2.377,24.658-3.622,29.98
		c21.961,1.544,54.772-13.058,54.772-13.058C563.448,304.222,551.328,288.557,551.328,288.557z"/>
	<path opacity="0.53" fill="#551413" enable-background="new    " d="M551.328,288.557l-20.679-4.344h-0.001l-18.589-3.905
		l-7.261-1.65l-0.182,0.031l-26.383-5.918c-5.79,6.167-33.35,32.695-90.615,46.477c-62.344,15.004-75.859-30.213-76.882-34.028
		c-1.263,4.323-1.034,10.426,2.092,18.818c10.184,27.335,47.488,35.158,65.204,33.073c40.745-1.622,118.846-41.533,118.846-41.533
		s-2.377,24.658-3.622,29.98c21.961,1.544,54.772-13.058,54.772-13.058C563.448,304.222,551.328,288.557,551.328,288.557z"/>
	<path fill="#7C2117" d="M284.586,226.469c0,0-1.717-11.313-0.995-24.456c3.691-67.227-32.08-91.691-32.08-91.691
		c-42.531-6.233-45.857,48.113-44.353,56.006c0.102,0.537,0.424,1.201,0.921,1.966c5.221,0.784,32.103,5.763,44.101,26.516
		c13.32,23.04,29.52,66.24,29.52,66.24s-0.137,0.33-0.369,0.888l21.519,15.132C306.089,246.829,284.586,226.469,284.586,226.469z"/>
	<path fill="#551413" d="M220.202,132.991c0,0,10.025-17.124,19.212-16.288s29.233,20.045,24.64,65.569
		C264.054,182.271,250.689,134.243,220.202,132.991z"/>
	<path opacity="0.5" fill="#EB8F63" enable-background="new    " d="M282.059,126.949l-9.18-15.66c0,0,47.52-41.58,93.96-17.28
		s98.82,29.16,119.34,27.54c0,0-21.06,15.66-58.32,4.86c-37.26-10.8-64.8-30.24-85.32-27.54
		C322.02,101.569,304.74,108.049,282.059,126.949z"/>
	<path opacity="0.5" fill="#EB8F63" enable-background="new    " d="M365.759,83.749c0,0,79.92,26.46,99.36,22.14l12.96,9.72
		C478.08,115.609,427.86,123.709,365.759,83.749z"/>
	<path fill="#3B3B3B" d="M452.48,82.904c0,0,15.333-36-34-55.333S301.146,0.904,277.813,10.237S213.147,58.904,258.48,83.57
		c0,0,3,3.667,8.5-4.167s90.833-39.167,182.833,4.833"/>
	<path opacity="0.5" fill="#1A1A18" enable-background="new    " d="M272.48,55.237c-18.892-9.677-9.38-25.469-2.527-41.096
		c-23.227,13.565-52.026,47.364-11.473,69.429c0,0,3,3.667,8.5-4.167s90.833-39.167,182.833,4.833l2.667-1.332
		c0,0,1.265-2.977,1.899-7.673C367.813,26.237,272.48,55.237,272.48,55.237z"/>
	<path fill="#1A1A1A" d="M264.48,65.904l2.5,13.5c0,0,102-27,182,15.5l5.399-19.673C454.378,75.231,396.48,35.57,264.48,65.904z"/>
	<path fill="#F59964" d="M428.865,199.018c0,0,6.469-23.852,40.135-26.185c0,0,27.101-4.196,24.378,26.347L428.865,199.018z"/>
	<path fill="#F9F7F5" d="M448.804,182.567c0,0,27.678-3.825,44.511,18.008c0,0-23.169,21.466-61.553,1.921"/>
	<path fill="#13100E" d="M448.804,182.567c0,0,11.726-0.957,13.219,18.144l-30.261,1.785
		C431.762,202.496,429.364,190.861,448.804,182.567z"/>
	<circle fill="#F9F7F5" cx="450.618" cy="189.047" r="1.426"/>
	<path fill="#551413" d="M318.674,160.921l4.677-18.709l11.361,3.342c0,0,38.755-24.055,52.12-19.378
		c13.365,4.675,14.701,26.728,16.038,32.74C402.87,158.916,361.439,133.524,318.674,160.921z"/>
	<path fill="#FAB56E" d="M420.827,199.997c0,0,105.84-13.68,161.28,49.68l-22.32,10.08l-111.6-14.4c0,0-31.68-9.36-34.56-10.08"/>
	<g>
		<path fill="#EB8F63" d="M510.42,279.64l105.347,23.137c-3.751-14.762-10.544-27.539-18.819-38.489l0.279-0.031
			c-30.24-40.32-75.42-53.82-75.42-53.82s0.583,0.472,1.617,1.331c10.662,6.669,57.299,36.975,56.343,56.269
			C578.917,285.192,531.061,282.024,510.42,279.64z"/>
		<path fill="#EB8F63" d="M500.208,277.397l0.627,0.138c-0.005-0.019-0.009-0.039-0.014-0.058
			C500.427,277.427,500.208,277.397,500.208,277.397z"/>
	</g>
	<path fill="#EB8F63" d="M412.727,253.097c0,0,0-21.6,31.32-17.28C444.047,235.817,403.008,222.857,412.727,253.097z"/>
	<g>
		<g>
			<path fill="#414242" d="M356.636,384.536c-1.734,0.853-2.822,1.837-2.822,2.881c0,1.153,1.676,2.348,3.76,3.26L356.636,384.536z"
				/>
			<path fill="#414242" d="M389.685,382.822l0.461,8.886l0.029,0.187c4.578-1.092,7.471-2.693,7.471-4.479
				C397.646,385.567,394.547,383.915,389.685,382.822z"/>
		</g>
		
			<radialGradient id="SVGID_7_" cx="84.4792" cy="491.1581" r="43.8859" gradientTransform="matrix(1 0 0 -1 289.5 884)" gradientUnits="userSpaceOnUse">
			<stop  offset="0.5128" style="stop-color:#405684"/>
			<stop  offset="0.8325" style="stop-color:#5A7ABA"/>
		</radialGradient>
		<path fill="url(#SVGID_7_)" d="M389.62,382.417l0.047,1.056c4.786,1.076,7.645,2.639,7.645,4.11c0,2.582-8.795,5.459-21.417,5.459
			s-21.416-2.877-21.416-5.459c0-0.78,0.815-1.586,2.283-2.332l-0.158-1.074c-1.972,0.937-3.125,2.061-3.125,3.406
			c0,4.195,11.549,6.459,22.417,6.459s22.417-2.264,22.417-6.459C398.313,385.238,394.701,383.497,389.62,382.417z"/>
	</g>
	<path fill="#F9F7F5" d="M382.698,173.615c0,0-20.948-16.615-53.698,9.885c0,0-1.25,32.5,41.25,28.5
		C370.25,212,384.395,181.731,382.698,173.615z"/>
	<g>
		<g>
			<path fill="#13100E" d="M380.231,169.947c-22.073,9.156-17.932,26.674-17.932,26.674l0,0c1.055,3.586,4.415,9.6,12.238,12.408
				c0,0,14.052-4.003,18.777-21.461C394.7,169.705,380.231,169.947,380.231,169.947z"/>
			<circle fill="#F9F7F5" cx="377.184" cy="184.144" r="1.426"/>
		</g>
		<path fill="#F59964" d="M327.172,191.709c0,0,42.987-26.873,67.738-5.513c0,0-2.409-34.777-33.807-28.563
			C329.706,163.846,327.172,191.709,327.172,191.709z"/>
		<g>
			<path fill="#13100E" d="M395.085,187.181c-0.248,0.044-0.513-0.006-0.737-0.159c-30.583-20.857-66.222,5.222-66.577,5.489
				c-0.442,0.33-1.069,0.239-1.399-0.203c-0.33-0.443-0.24-1.069,0.203-1.399c0.367-0.275,37.129-27.205,68.9-5.538
				c0.456,0.311,0.574,0.934,0.263,1.39C395.579,186.991,395.341,187.136,395.085,187.181z"/>
		</g>
		<path fill="#F59964" d="M329.219,193.718c0,0,51.034,7.248,57.928,6.033c0,0-12.979,18.535-35.666,12.72
			C328.792,206.655,329.219,193.718,329.219,193.718z"/>
	</g>
	<path fill="#F59964" d="M430.552,197.596c-0.2,0.411-1.524,1.008-1.687,1.422l8.135-0.185l19,0.667l18.667,1.667l20,2.667
		c0,0-1.817-7.918-7.02-14.794C462.614,179.393,438.939,192.164,430.552,197.596z"/>
</g>
<path fill="#F59964" d="M428.865,199.018l-0.031,1.148c0,0,48.5-1.167,65,3.5l-17.5-7l-24,0.333L442,195.833l-7.5,0.333l-1,0.333"/>
<g>
	<g>
		<polyline fill="#71CCDB" points="802.479,275.976 821.464,267.646 826.449,242.251 811.081,226.467 792.154,235.188 
			787.212,260.337 803.072,276.207 		"/>
	</g>
	<polygon fill="#0E73B9" points="814.728,260.492 804.077,265.469 795.38,257.208 798.368,240.98 809.924,235.91 817.528,244.612 	
		"/>
	<polygon opacity="0.4" fill="#0E73B9" points="802.747,275.896 804.077,265.469 795.38,257.208 787.212,260.337 	"/>
	<polyline opacity="0.4" fill="#0E73B9" points="817.528,244.612 826.449,242.251 811.081,226.467 809.924,235.91 	"/>
</g>
<path opacity="0.3" fill="#142551" d="M544.279,437.439c-116.579,89.099-190.981,63.444-221.607,44.272
	c-4.18,6.01-9.013,15.386-13.271,29.836c6.646,4.607,15.045,9.901,24.509,14.682c8.357,4.315,16.212,7.482,23.715,9.667
	c14.075,4.281,29.056,6.063,43.375,2.604c0.371-0.09,0.741-0.188,1.112-0.279c13.397-2.388,26.712-7.222,41.173-13.151
	c10.355-3.989,20.183-8.243,29.113-12.406c27.804-12.651,52.567-27.945,72.909-42.373L544.279,437.439z"/>
<g>
	<path fill="#FAB56E" d="M560.897,411.526c-169.363,141.985-256.23,46.641-256.23,46.641c-16,12-13,30.333-13,30.333
		c75.068,59.376,110.231,42.258,168.066,17.823c83.399-34.844,142.35-96.033,142.35-96.033c56.583,9.29,90.081-34.553,90.081-34.553
		c9.703-12.386,16.366-31.292,18.417-47.131c-1.677-1.133-3.087-2.073-3.087-2.073c7.344,0,34.56-7.344,15.12-21.6
		c-5.784-4.242-14.666-5.882-24.289-6.095c-3.012-0.31-5.087-0.385-5.087-0.385l0.388-0.078
		c-12.571-0.285-31.273,2.636-40.612,6.331c-0.84,0.203-1.566,0.385-2.174,0.539c-7.355-2.789-17.464-5.979-23.073-4.96
		c-6.339,1.153-11.137,13.829-13.632,22.149c-7.53,7.008-15.303,23.834-20.954,38.127c-2.929,6.559-5.474,13.294-7.287,18.388
		C585.894,378.95,573.544,401.927,560.897,411.526z"/>
	<path opacity="0.6" fill="#EB8F63" enable-background="new    " d="M722.613,304.933c-4.477-3.283-10.814-5.003-17.911-5.714
		c5.558,2.753,13.264,7.516,11.964,12.281c-2,7.333-16,10.667-16,10.667s-2.117,32.622-23.018,58.422l-0.148-0.422
		c-27.5,31.333-75.167,24-75.167,24c-1.619,1.431-3.233,2.845-4.842,4.242l0.082,0.442C574.812,427.273,462.103,515.695,397,514.5
		c-72.667-1.333-102.333-43.667-102.333-43.667s-6.333,11.667-3,17.667c0,0,57.667,51,107.333,39s99-39,113-48
		c0,0,46.557-29.478,68.333-49.667c9.093-8.43,14.652-13.532,18.053-16.624l0.108,0.579c1.528-1.464,2.735-2.649,3.589-3.498
		c-0.004-0.004-0.007-0.009-0.011-0.013l0.012-0.006l-0.001,0.019c8.113,1.749,16.166,1.835,23.793,0.909
		c42.05-3.77,66.288-35.462,66.288-35.462c9.703-12.386,16.366-31.292,18.417-47.131c-0.062-0.042-0.112-0.075-0.166-0.111
		C718.087,328.262,741.807,319.008,722.613,304.933z M601.944,410c0.054-0.048,0.106-0.095,0.157-0.14l-0.006,0.14H601.944z"/>
</g>
<radialGradient id="SVGID_8_" cx="298" cy="479.5" r="199.5645" gradientUnits="userSpaceOnUse">
	<stop  offset="0.5128" style="stop-color:#405684"/>
	<stop  offset="0.8325" style="stop-color:#5A7ABA"/>
</radialGradient>
<path fill="url(#SVGID_8_)" d="M309,510.5c0,0,4-25,28-38s-41-46-41-46l-26,12l-2,21l3,14l15,22L309,510.5z"/>
</svg>
