<?xml version="1.0" encoding="utf-8"?>
<!-- Generator: Adobe Illustrator 17.0.0, SVG Export Plug-In . SVG Version: 6.00 Build 0)  -->
<!DOCTYPE svg PUBLIC "-//W3C//DTD SVG 1.1//EN" "http://www.w3.org/Graphics/SVG/1.1/DTD/svg11.dtd">
<svg version="1.1" id="Layer_1" xmlns="http://www.w3.org/2000/svg" xmlns:xlink="http://www.w3.org/1999/xlink" x="0px" y="0px"
	 width="985px" height="720px" viewBox="0 0 985 720" enable-background="new 0 0 985 720" xml:space="preserve">
<ellipse fill="#142551" cx="386.864" cy="555.928" rx="177.707" ry="163.072"/>
<linearGradient id="SVGID_1_" gradientUnits="userSpaceOnUse" x1="252.1092" y1="546.1588" x2="589" y2="546.1588">
	<stop  offset="0.5128" style="stop-color:#405684"/>
	<stop  offset="0.8325" style="stop-color:#5A7ABA"/>
</linearGradient>
<path fill="url(#SVGID_1_)" d="M406.393,717.577c3.629-0.488,7.375-0.819,11.213-1.071c18.798-3.123,49.756-11.896,84.432-36.37
	l-1.152-20.389l0.056-1.129l-4.053-111.542c-0.487-2.998-0.791-6.183-0.889-9.576c-0.432-14.986-2.142-29.193-4.734-42.553
	L567,581.5l22-5c0,0-46-86-74-133s-86-62-86-62l0.24,0.644c-6.898-2.763-11.595-3.596-11.595-3.596
	c-15.598-4.099-29.638-5.408-42.164-4.819c-29.887-0.681-51.691,14.781-67.361,34.849L308,408.5c0,0-63.439,69.057-55.143,237.79
	c-0.64,8.323-0.527,14.651,0.735,17.464c7.76,7.595,24.201,22.705,40.182,31.174c0.053,0.022,0.111,0.051,0.163,0.073
	C279.438,553,323,499.5,323,499.5l-0.399,208.327c8.94,3.406,35.644,12.099,72.068,10.755c1.336-0.108,2.67-0.229,3.999-0.384
	C401.503,717.87,404.068,717.669,406.393,717.577z"/>
<polyline opacity="0.2" fill="#142551" points="337.667,380.5 323,397.833 362.333,445.167 343,471.833 404.333,557.167 
	375,425.833 355,397.833 352.333,399.833 "/>
<path fill="#F0E5F0" d="M351,377l61,193.333c0,0,0.896-6.026,3.5-12.333s23.5-125.5,13-178.5C428.5,379.5,395,366.5,351,377z"/>
<path fill="none" stroke="#080B14" stroke-miterlimit="10" d="M539.5,451.5"/>
<radialGradient id="SVGID_2_" cx="104.037" cy="164.675" r="0" gradientTransform="matrix(1 0 0 -1 289.5 884)" gradientUnits="userSpaceOnUse">
	<stop  offset="0.5074" style="stop-color:#0F727E"/>
	<stop  offset="0.8325" style="stop-color:#00B4DE"/>
</radialGradient>
<path fill="url(#SVGID_2_)" d="M393.537,719.325"/>
<radialGradient id="SVGID_3_" cx="26.067" cy="176.698" r="0" gradientTransform="matrix(1 0 0 -1 289.5 884)" gradientUnits="userSpaceOnUse">
	<stop  offset="0.5074" style="stop-color:#0F727E"/>
	<stop  offset="0.8325" style="stop-color:#00B4DE"/>
</radialGradient>
<path fill="url(#SVGID_3_)" d="M315.567,707.302"/>
<path fill="none" stroke="#263872" stroke-miterlimit="10" d="M739,806.5"/>
<g>
	<path fill="#FAB56E" d="M380.23,389.479c0,0,21.833,3.333,32.667,1.25l0.167,2.333c0,0-24.167,2.917-31.917-1s-0.5-0.167-0.5-0.167
		l-0.417-2"/>
	<g>
		<g>
			<path fill="#FAB56E" d="M470.387,269.022c42.55,6.684,167.301,34.215,167.301,34.215
				c-20.709-67.111-86.887-91.186-123.516-99.507c3.566-4.129,16.078-18.633,20.011-23.441c-0.002,0.002,15.827-23.342-1.342-42.465
				c-14.47-16.116-34.479-28.814-53.171-38.22c-91.231-56.033-154.09-38.615-154.09-38.615
				c-33.947,7.988-50.16,30.435-56.308,41.592c-18.486,26.73-28.751,67.476-28.751,67.476s-50.853-0.38-40.413,22.66
				s40.68,46.8,68.76,63c0,0-0.72,24.48,10.08,21.96c10.8-2.52,24.501-15.361,24.501-15.361l92.089,64.292l105.17,64.469
				c11.389-27.468,18.18-85.627,19.069-93.581c0.833-3.082,1.46-5.414,1.451-5.419l-50.4-14.22
				C470.827,277.857,470.309,274.398,470.387,269.022z"/>
			<polygon fill="#FAB56E" points="367.555,280.76 380.313,391.404 412.48,393.737 408.482,303.272 			"/>
			<polygon fill="#EE9062" points="395.23,393.291 384.258,290.992 408.815,303.272 413.063,393.125 			"/>
			<path fill="#7C2117" d="M549.287,152.283"/>
			<path fill="#551413" d="M457.677,167.181l-2.597-8.722c0,0,18.33-23.707,37.693-20.141c19.363,3.567,32.815,21.861,32.815,21.861
				l6.637-3.153l-4.122,10.513C528.1,167.54,490.476,145.295,457.677,167.181z"/>
			
				<ellipse transform="matrix(-0.1736 0.9848 -0.9848 -0.1736 817.8585 -176.5088)" fill="#070707" cx="482.987" cy="254.894" rx="7.83" ry="32.667"/>
			<path fill="#EB8F63" d="M340.127,234.604c4.479,8.398,23.979,34.59,40.521,34.073c11.261-0.352,18.849-11.479,22.772-19.19
				C380.351,252.153,350.994,239.713,340.127,234.604z"/>
			<g>
				<path fill="#7C2117" d="M344.418,278.804"/>
				<path fill="#7C2117" d="M347.895,276.874c0.043-0.001,0.084-0.006,0.127-0.006C348.022,276.867,347.97,276.87,347.895,276.874z"
					/>
			</g>
			<path fill="#7C2117" d="M318.637,291.987"/>
			<path fill="#7C2117" d="M339.878,286.362"/>
			<path fill="#D77B48" d="M268.379,224.535c4.218,6.26,7.854,13.908,10.263,23.257l3.965-1.017
				c-11.789-45.773-51.706-53.281-52.108-53.352l-0.706,4.034c0.269,0.048,19.67,3.701,34.682,21.847
				c-12.417,7.976,0.46,27.297,0.46,27.297C256.632,231.097,264.951,225.931,268.379,224.535z"/>
			<path opacity="0.3" fill="#EB8F63" enable-background="new    " d="M476.667,351.197c-13.455,5.382-67.762-16.891-74.833-19.839
				l99.313,60.879c11.389-27.468,18.18-85.627,19.069-93.581c0.833-3.082,1.46-5.414,1.451-5.419
				C521.667,293.237,491.068,345.437,476.667,351.197z"/>
			<path fill="#7C2117" d="M574.328,289.557l-20.679-4.344h-0.001l-18.589-3.905l-7.261-1.65l-0.182,0.031l-81.988-18.391
				c0,0-60.84,38.7-85.14,39.06c-15.474,0.229-17.951-6.546-17.713-11.499c0.824,0.404,1.748,0.637,2.728,0.637
				c3.43,0,6.21-2.78,6.21-6.21c0-3.153-2.35-5.758-5.395-6.157l-0.247-0.03c-6.239-0.591-18.61,5.482-10.244,27.939
				c10.184,27.335,47.488,35.158,65.204,33.073c40.745-1.622,118.846-41.533,118.846-41.533s-2.377,24.658-3.622,29.98
				c21.961,1.544,54.772-13.058,54.772-13.058C586.448,305.222,574.328,289.557,574.328,289.557z"/>
			<path opacity="0.53" fill="#551413" enable-background="new    " d="M574.328,289.557l-20.679-4.344h-0.001l-18.589-3.905
				l-7.261-1.65l-0.182,0.031l-26.383-5.918c-5.79,6.167-33.35,32.695-90.615,46.477c-62.344,15.004-75.859-30.213-76.882-34.028
				c-1.263,4.323-1.034,10.426,2.092,18.818c10.184,27.335,47.488,35.158,65.204,33.073c40.745-1.622,118.846-41.533,118.846-41.533
				s-2.377,24.658-3.622,29.98c21.961,1.544,54.772-13.058,54.772-13.058C586.448,305.222,574.328,289.557,574.328,289.557z"/>
			<path fill="#7C2117" d="M307.586,227.469c0,0-1.717-11.313-0.995-24.456c3.691-67.227-32.08-91.691-32.08-91.691
				c-42.531-6.233-45.857,48.113-44.353,56.006c0.102,0.537,0.424,1.201,0.921,1.966c5.221,0.784,32.103,5.763,44.101,26.516
				c13.32,23.04,29.52,66.24,29.52,66.24s-0.137,0.33-0.369,0.888l21.519,15.132C329.089,247.829,307.586,227.469,307.586,227.469z"
				/>
			<path fill="#551413" d="M243.202,133.991c0,0,10.025-17.124,19.212-16.288c9.187,0.836,29.233,20.045,24.64,65.569
				C287.054,183.271,273.689,135.243,243.202,133.991z"/>
			<path opacity="0.5" fill="#EB8F63" enable-background="new    " d="M305.059,127.949l-9.18-15.66c0,0,47.52-41.58,93.96-17.28
				s98.82,29.16,119.34,27.54c0,0-21.06,15.66-58.32,4.86c-37.26-10.8-64.8-30.24-85.32-27.54
				C345.02,102.569,327.74,109.049,305.059,127.949z"/>
			<path opacity="0.5" fill="#EB8F63" enable-background="new    " d="M388.759,84.749c0,0,79.92,26.46,99.36,22.14l12.96,9.72
				C501.08,116.609,450.86,124.709,388.759,84.749z"/>
			<path fill="#3B3B3B" d="M475.48,83.904c0,0,15.333-36-34-55.333S324.146,1.904,300.813,11.237S236.147,59.904,281.48,84.57
				c0,0,3,3.667,8.5-4.167s90.833-39.167,182.833,4.833"/>
			<path opacity="0.5" fill="#1A1A18" enable-background="new    " d="M295.48,56.237c-18.892-9.677-9.38-25.469-2.527-41.096
				c-23.227,13.565-52.026,47.364-11.473,69.429c0,0,3,3.667,8.5-4.167s90.833-39.167,182.833,4.833l2.667-1.332
				c0,0,1.265-2.977,1.899-7.673C390.813,27.237,295.48,56.237,295.48,56.237z"/>
			<path fill="#1A1A1A" d="M287.48,66.904l2.5,13.5c0,0,102-27,182,15.5l5.399-19.673C477.378,76.231,419.48,36.57,287.48,66.904z"
				/>
			<polyline fill="#3B3B3B" points="389.48,15.904 409.48,7.237 413.48,10.57 394.813,17.237 			"/>
			<g>
				<path fill="#F59964" d="M451.865,200.018c0,0,8.851-30.856,39.491-29.589c0,0,27.745-0.792,25.022,29.751L451.865,200.018z"/>
				<path fill="#F9F7F5" d="M471.804,183.567c0,0,27.678-3.825,44.511,18.008c0,0-23.169,21.466-61.553,1.921"/>
				<path fill="#13100E" d="M471.804,183.567c0,0,11.726-0.957,13.219,18.144l-30.261,1.785
					C454.762,203.496,452.364,191.861,471.804,183.567z"/>
				<circle fill="#F9F7F5" cx="473.618" cy="190.047" r="1.426"/>
			</g>
			<g>
				<path fill="#551413" d="M341.674,161.921l4.677-18.709l11.361,3.342c0,0,38.755-24.055,52.12-19.378
					c13.365,4.675,14.701,26.728,16.038,32.74C425.87,159.916,384.439,134.524,341.674,161.921z"/>
				<path fill="#F59964" d="M348.525,190.156c0,0,8.686-32.575,38.756-31.24c0,0,27.229-0.833,24.558,31.407L348.525,190.156z"/>
				<path fill="#F9F7F5" d="M372.948,172.365c0,0,23.747-3.212,38.89,17.958c0,0-17.711,32.539-51.284,19.542"/>
				<path fill="#13100E" d="M372.948,172.365c-23.328,5.184-22.291,23.155-22.291,23.155l0.469-0.051
					c0.416,3.715,2.212,10.272,9.428,14.396c0,0,14.534-1.502,22.218-17.874C387.24,174.639,372.948,172.365,372.948,172.365z"/>
				<circle fill="#F9F7F5" cx="367.482" cy="185.817" r="1.426"/>
			</g>
			<path fill="#FAB56E" d="M443.827,200.997c0,0,105.84-13.68,161.28,49.68l-22.32,10.08l-111.6-14.4c0,0-31.68-9.36-34.56-10.08"/>
			<g>
				<path fill="#EB8F63" d="M533.42,280.64l105.347,23.137c-3.751-14.762-10.544-27.539-18.819-38.489l0.279-0.031
					c-30.24-40.32-75.42-53.82-75.42-53.82s0.583,0.472,1.617,1.331c10.662,6.669,57.299,36.975,56.343,56.269
					C601.917,286.192,554.061,283.024,533.42,280.64z"/>
				<path fill="#EB8F63" d="M523.208,278.397l0.627,0.138c-0.005-0.019-0.009-0.039-0.014-0.058
					C523.427,278.427,523.208,278.397,523.208,278.397z"/>
			</g>
			<path fill="#EB8F63" d="M435.727,254.097c0,0,0-21.6,31.32-17.28C467.047,236.817,426.008,223.857,435.727,254.097z"/>
		</g>
		<g>
			<g>
				<path fill="#414242" d="M379.636,385.536c-1.734,0.853-2.822,1.837-2.822,2.881c0,1.153,1.676,2.348,3.76,3.26L379.636,385.536z
					"/>
				<path fill="#414242" d="M412.685,383.822l0.461,8.886l0.029,0.187c4.578-1.092,7.471-2.693,7.471-4.479
					C420.646,386.567,417.547,384.915,412.685,383.822z"/>
			</g>
			
				<radialGradient id="SVGID_4_" cx="107.4792" cy="490.1581" r="43.8859" gradientTransform="matrix(1 0 0 -1 289.5 884)" gradientUnits="userSpaceOnUse">
				<stop  offset="0.5128" style="stop-color:#405684"/>
				<stop  offset="0.8325" style="stop-color:#5A7ABA"/>
			</radialGradient>
			<path fill="url(#SVGID_4_)" d="M412.62,383.417l0.047,1.056c4.786,1.076,7.645,2.639,7.645,4.11
				c0,2.582-8.795,5.459-21.417,5.459s-21.416-2.877-21.416-5.459c0-0.78,0.815-1.586,2.283-2.332l-0.158-1.074
				c-1.972,0.937-3.125,2.061-3.125,3.406c0,4.195,11.549,6.459,22.417,6.459s22.417-2.264,22.417-6.459
				C421.313,386.238,417.701,384.497,412.62,383.417z"/>
		</g>
	</g>
</g>
<g>
	<path fill="#9B979B" d="M412.334,569.5c-0.019,0-0.037,0-0.055-0.002c-0.551-0.029-0.974-0.501-0.944-1.052
		c2.301-42.414-15.149-169.035-15.326-170.309c-0.076-0.548,0.307-1.053,0.854-1.128c0.541-0.08,1.052,0.306,1.128,0.853
		c0.177,1.276,17.653,128.089,15.341,170.691C413.303,569.087,412.862,569.5,412.334,569.5z"/>
</g>
<linearGradient id="SVGID_5_" gradientUnits="userSpaceOnUse" x1="208.8687" y1="422.0866" x2="337.4103" y2="457.6745">
	<stop  offset="0.5128" style="stop-color:#405684"/>
	<stop  offset="0.8325" style="stop-color:#5A7ABA"/>
</linearGradient>
<path fill="url(#SVGID_5_)" d="M364.5,372.5c0,0,42.5,110,47.5,198.5l-56-100l11.5-26.5l-38.5-61C329,383.5,344.5,368,364.5,372.5z"
	/>
<linearGradient id="SVGID_6_" gradientUnits="userSpaceOnUse" x1="346.3956" y1="454.3" x2="401.4088" y2="469.5309">
	<stop  offset="0.5128" style="stop-color:#405684"/>
	<stop  offset="0.8325" style="stop-color:#5A7ABA"/>
</linearGradient>
<path fill="url(#SVGID_6_)" d="M441.621,487.971c4.093-13.682,5.648-26.001,6.916-32.464c0.625-3.187,0.963-5.007,0.963-5.007
	l-13.5-17l6-48.5c-17-11-27.5-7.5-27.5-7.5c17.797,81.684,0.129,178.473-2.5,193.5C412,571,428.241,532.692,441.621,487.971z"/>
<path fill="#142551" d="M496.271,486.04l0.027,0.039C496.313,485.739,496.318,485.404,496.271,486.04z"/>
<path opacity="0.2" fill="#142551" d="M570.731,567.239c-25.115-32.779-58.499-69.761-58.499-69.761l-3.156,2.793l-4.427-7.357
	l-2.231,1.797l-6.119-8.633c-0.015,0.358-0.041,0.72-0.027-0.039l-49.79-92.156l-51.822-11.237c0,0-2.397,4.184,5.882,10.247
	c2.659,1.948,7.448,4.003,12.713,5.901l-0.02,0.095l-27.852-6.04c0,0-2.397,4.184,5.882,10.247
	c8.279,6.063,37.122,13.203,37.122,13.203l12.008,21.288l-20.24-20.568c0,0-4.412-1.509-9.481,5.71
	c-0.271,0.761-4.995,14.121-4.161,18.846c0.015,0.083,0.025,0.174,0.039,0.259l3.887,6.995c0.377,4.234,0.877,10.498,0.877,10.498
	s0.39,1.033,1.025,2.432l-0.119,0.29c1.205,2.605,3.193,6.276,5.197,7.234c0,0,0.085-0.001,0.226-0.015
	c0.008,0.004,0.016,0.011,0.024,0.015c0,0,4.805-0.011,4.174-5.96c-0.292-2.75-0.649-4.094-0.95-4.753l9.953,6.969
	c0,0,8.204,14.597,17.556,26.087c0,0,11.282,13.185,26.888,12.909c1.602-0.014,3.251-0.17,4.938-0.495l4.06,5.074l0.148-0.128
	l0.102,0.128l-4.286,3.453l5.348,8.477l-1.266,1.121c20.238,40.783,44.422,66.888,65.293,81.708
	C554.118,595.976,563.494,579.545,570.731,567.239z M410.065,445.131c0.023,0.129,0.056,0.413,0.095,0.776L410.065,445.131z
	 M416.861,441.007l1.181-3.97l10.74,10.463L416.861,441.007z"/>
<path fill="#142551" d="M396.5,388l-45-13.5c0,0-9,22,7,46.5l38.5-23l48,13.5c0,0,3.5-25.5-9.5-40L396.5,388z"/>
<g>
	<g>
		<path fill="#FAB56E" d="M451.318,479.961 M483.114,492.338l27.638,34.543l6.4,1.017l5.39,4.267l0.499-0.499l-0.393-0.536
			l9.67-9.667l-33.38-47.089c0.096-1.305-0.026,1.479,0,0l-49.79-92.156l0,0l-51.822-11.237c0,0-2.397,4.184,5.882,10.247
			c2.774,2.032,7.86,4.183,13.393,6.147l-28.551-6.191c0,0-2.397,4.184,5.882,10.247c8.279,6.063,37.122,13.202,37.122,13.202
			l12.008,21.288l-20.24-20.568c0,0-4.412-1.509-9.481,5.71c-0.271,0.761-4.995,14.121-4.161,18.846
			c0.015,0.083,0.025,0.174,0.039,0.259l3.887,6.995c0.377,4.234,0.877,10.498,0.877,10.498s3.158,8.429,6.353,9.956
			c0,0,4.805-0.011,4.174-5.96c-0.339-3.197-0.767-4.5-1.092-5.028l10.345,7.244c0,0,8.204,14.597,17.556,26.087
			C451.318,479.961,465.021,495.978,483.114,492.338z M412.827,434.24l-0.095-0.776C412.755,433.593,412.788,433.877,412.827,434.24
			z M419.528,429.34l1.181-3.97l10.74,10.463L419.528,429.34z"/>
		<polygon fill="#F0E5F0" points="482.918,500.902 507.316,481.247 515.359,494.613 490.021,512.16 		"/>
	</g>
	<path opacity="0.6" fill="#EB8F63" enable-background="new    " d="M482.864,492.338l4.09,5.112l8.296-7.2l-7.5-7.75
		c-37,1-50-33-50-33l-18-11l-4.862,11.885c1.205,2.605,3.193,6.276,5.197,7.234c0,0,4.805-0.011,4.174-5.96
		c-0.339-3.197-0.767-4.5-1.092-5.028l10.345,7.244c0,0,8.204,14.597,17.556,26.087
		C451.068,479.961,464.771,495.978,482.864,492.338z"/>
	<g>
		<polygon fill="#A64C25" points="457.824,421.012 440.187,392.278 415.898,387.239 416.102,386.261 440.813,391.388 
			440.926,391.571 458.676,420.488 		"/>
	</g>
	<g>
		<path fill="#A64C25" d="M441.5,437.833c-0.088,0-0.178-0.023-0.259-0.072c-0.236-0.144-0.312-0.451-0.168-0.687
			c0.073-0.12,7.377-12.038,17.381-17.033c0.248-0.124,0.547-0.021,0.67,0.224c0.124,0.247,0.023,0.548-0.224,0.671
			c-9.748,4.867-16.901,16.539-16.972,16.656C441.833,437.747,441.668,437.833,441.5,437.833z"/>
	</g>
</g>
<polygon fill="#D8CAD8" points="495.167,491.167 500.333,498.167 489.5,507.667 485.167,499.167 "/>
<linearGradient id="SVGID_7_" gradientUnits="userSpaceOnUse" x1="540.2257" y1="397.1871" x2="546.933" y2="588.3461">
	<stop  offset="0.5128" style="stop-color:#405684"/>
	<stop  offset="0.8325" style="stop-color:#5A7ABA"/>
</linearGradient>
<path fill="url(#SVGID_7_)" d="M538.786,513.13c-13.52-15.834-23.887-27.318-23.887-27.318L487,510.5
	c15.821,31.882,34.055,54.799,51.232,70.364c19.561,20.416,42.252,36.455,63.435,32.969
	C601.667,613.833,625.92,603.599,538.786,513.13z"/>
<g>
	<circle fill="#142551" cx="411" cy="592.5" r="11.333"/>
	<circle opacity="0.2" fill="#142551" cx="413" cy="594.833" r="11.333"/>
	<circle fill="#F0E5F0" cx="408.333" cy="588.5" r="3.333"/>
</g>
<g>
	<circle fill="#142551" cx="411" cy="636.833" r="11.333"/>
	<circle opacity="0.2" fill="#142551" cx="413" cy="639.167" r="11.333"/>
	<circle fill="#F0E5F0" cx="408.333" cy="632.833" r="3.333"/>
</g>
<g>
	<circle fill="#142551" cx="411" cy="679.833" r="11.333"/>
	<circle opacity="0.2" fill="#142551" cx="413" cy="682.167" r="11.333"/>
	<circle fill="#F0E5F0" cx="408.333" cy="675.833" r="3.333"/>
</g>
<linearGradient id="SVGID_8_" gradientUnits="userSpaceOnUse" x1="384.1918" y1="653.1783" x2="356.8585" y2="512.5117">
	<stop  offset="0.5128" style="stop-color:#405684"/>
	<stop  offset="0.8325" style="stop-color:#5A7ABA"/>
</linearGradient>
<rect x="342.333" y="539.833" fill="url(#SVGID_8_)" width="42" height="12"/>
</svg>
