<?xml version="1.0" encoding="utf-8"?>
<!-- Generator: Adobe Illustrator 17.0.0, SVG Export Plug-In . SVG Version: 6.00 Build 0)  -->
<!DOCTYPE svg PUBLIC "-//W3C//DTD SVG 1.1//EN" "http://www.w3.org/Graphics/SVG/1.1/DTD/svg11.dtd">
<svg version="1.1" id="Layer_1" xmlns="http://www.w3.org/2000/svg" xmlns:xlink="http://www.w3.org/1999/xlink" x="0px" y="0px"
	 width="985px" height="720px" viewBox="0 0 985 720" enable-background="new 0 0 985 720" xml:space="preserve">
<g>
	<path fill="#FAB56E" d="M856.839,318.921c0.192,5.106,0.393,10.663,0.594,16.273c18.373-7.287,43.546,13.626,57.183,11.398
		c14.559-2.38,11.542-19.296,11.542-19.296C913.017,335.65,881.36,316.181,856.839,318.921z"/>
	<path opacity="0.8" fill="#EB8F63" d="M893,330.5c-7.129-3.241-22.291-5.536-35.993-7.039c0.14,3.791,0.283,7.745,0.426,11.733
		c18.373-7.286,43.546,13.626,57.183,11.398c3.553-0.581,6.053-2.03,7.812-3.885C911.053,343.269,903.847,335.431,893,330.5z"/>
	<path fill="#FAB56E" d="M778.663,377.564c-17.784,12.687-35.204,23.066-52.04,31.537
		c-101.856,41.799-187.252,17.809-187.252,17.809l5.434,14.54c-24.898-3.796-39.584-9.856-39.797-9.945l-7.811,18.411
		c1.153,0.491,24.169,10.108,62.063,13.423c7.939,0.695,16.539,1.113,25.72,1.111c30.931-0.002,62.253-4.777,93.096-14.189
		c38.406-11.721,76.156-30.701,112.202-56.415L778.663,377.564z"/>
	<path fill="#EB8F63" d="M553.847,450.763c0,0,116.041,5.734,233.653-59.263l-35.535,26.405c0,0-100.185,60.612-192.704,45.434"/>
	<ellipse fill="#142551" cx="386.864" cy="555.928" rx="177.707" ry="163.072"/>
	<radialGradient id="SVGID_1_" cx="282.9806" cy="733.237" r="543.3416" gradientUnits="userSpaceOnUse">
		<stop  offset="0.5128" style="stop-color:#405684"/>
		<stop  offset="0.8325" style="stop-color:#5A7ABA"/>
	</radialGradient>
	<path fill="url(#SVGID_1_)" d="M451,393.5c-2.363-1.387-4.756-2.668-7.168-3.862c-0.282-0.173-0.566-0.348-0.832-0.513
		c-13.625-8.5-25.355-10.577-25.355-10.577c-15.598-4.099-29.638-5.408-42.164-4.819c-8.666-0.198-16.643,0.978-23.997,3.213
		c-2.275,0.558-3.006,0.987-3.006,0.987l0,0c-10.847,3.817-20.26,10.009-28.417,17.589L320,395.5c0,0-49.5,41.5-45.5,75.5
		c3.237,27.515,24.107,65.034,44.5,73.5l1,14.121l2.599,150.007c9.082,2.954,43.932,13.301,76.068,9.571
		c2.836-0.329,5.401-0.53,7.726-0.622c28.76-3.868,61.543-14.09,93.32-36.602l-6.823-194.222C542.754,499.219,554,496,554,496
		l4.5-69C558.5,427,497,420.5,451,393.5z"/>
	<path fill="#FAB56E" d="M870,338c0,0,9,27,2.5,32.5s-52-5-52-5"/>
	<path fill="#A64C25" d="M831.826,369.27l-1.511-1.422c9.999-10.625,8.865-25.134,8.853-25.28l2.066-0.178
		C841.289,343.02,842.456,357.975,831.826,369.27z"/>
	<path fill="#EB8F63" d="M850.563,227.125c0.043-0.043,0.074-0.072,0.074-0.072S850.606,227.08,850.563,227.125z"/>
	<path fill="none" stroke="#080B14" stroke-miterlimit="10" d="M539.5,451.5"/>
	
		<radialGradient id="SVGID_2_" cx="-185.463" cy="392.325" r="0" gradientTransform="matrix(1 0 0 1 579 327)" gradientUnits="userSpaceOnUse">
		<stop  offset="0.5074" style="stop-color:#0F727E"/>
		<stop  offset="0.8325" style="stop-color:#00B4DE"/>
	</radialGradient>
	<path fill="url(#SVGID_2_)" d="M393.537,719.325"/>
	
		<radialGradient id="SVGID_3_" cx="-263.433" cy="380.302" r="0" gradientTransform="matrix(1 0 0 1 579 327)" gradientUnits="userSpaceOnUse">
		<stop  offset="0.5074" style="stop-color:#0F727E"/>
		<stop  offset="0.8325" style="stop-color:#00B4DE"/>
	</radialGradient>
	<path fill="url(#SVGID_3_)" d="M315.567,707.302"/>
	<g>
		<path fill="#FAB56E" d="M357.063,388.646c0,0,21.833,3.333,32.667,1.25l0.167,2.333c0,0-24.167,2.917-31.917-1
			s-0.5-0.167-0.5-0.167l-0.417-2"/>
		<g>
			<g>
				<path fill="#FAB56E" d="M447.22,268.189c42.55,6.684,167.301,34.215,167.301,34.215
					c-20.709-67.111-86.887-91.186-123.516-99.507c3.566-4.129,16.078-18.633,20.011-23.441
					c-0.002,0.002,15.827-23.342-1.342-42.465c-14.47-16.116-34.479-28.814-53.171-38.22
					c-91.231-56.033-154.09-38.615-154.09-38.615c-33.947,7.988-50.16,30.435-56.308,41.592
					c-18.486,26.73-28.751,67.476-28.751,67.476s-50.853-0.38-40.413,22.66s40.68,46.8,68.76,63c0,0-0.72,24.48,10.08,21.96
					c10.8-2.52,24.501-15.361,24.501-15.361l92.089,64.292l105.17,64.469c11.389-27.468,18.18-85.627,19.069-93.581
					c0.833-3.082,1.46-5.414,1.451-5.419l-50.4-14.22C447.66,277.024,447.142,273.565,447.22,268.189z"/>
				<polygon fill="#FAB56E" points="344.388,279.927 357.146,390.571 389.313,392.904 385.315,302.439 				"/>
				<polygon fill="#EE9062" points="372.063,392.458 361.091,290.159 385.648,302.439 389.896,392.292 				"/>
				<path fill="#7C2117" d="M526.12,151.45"/>
				<path fill="#551413" d="M434.51,166.348l-2.597-8.722c0,0,18.33-23.707,37.693-20.141c19.363,3.567,32.815,21.861,32.815,21.861
					l6.637-3.153l-4.122,10.513C504.933,166.707,467.309,144.462,434.51,166.348z"/>
				
					<ellipse transform="matrix(-0.9848 -0.1736 0.1736 -0.9848 868.5413 584.0789)" fill="#070707" cx="459.814" cy="254.056" rx="32.664" ry="7.83"/>
				<path fill="#EB8F63" d="M316.96,233.771c4.479,8.398,23.979,34.59,40.521,34.073c11.261-0.352,18.849-11.479,22.772-19.19
					C357.184,251.32,327.827,238.88,316.96,233.771z"/>
				<g>
					<path fill="#7C2117" d="M321.251,277.971"/>
					<path fill="#7C2117" d="M324.728,276.041c0.043-0.001,0.084-0.006,0.127-0.006
						C324.855,276.034,324.803,276.037,324.728,276.041z"/>
				</g>
				<path fill="#7C2117" d="M295.47,291.154"/>
				<path fill="#7C2117" d="M316.711,285.529"/>
				<path fill="#D77B48" d="M245.212,223.702c4.218,6.26,7.854,13.908,10.263,23.257l3.965-1.017
					c-11.789-45.773-51.706-53.281-52.108-53.352l-0.706,4.034c0.269,0.048,19.67,3.701,34.682,21.847
					c-12.417,7.976,0.46,27.297,0.46,27.297C233.465,230.264,241.784,225.098,245.212,223.702z"/>
				<path opacity="0.3" fill="#EB8F63" enable-background="new    " d="M453.5,350.364c-13.455,5.382-67.762-16.891-74.833-19.839
					l99.313,60.879c11.389-27.468,18.18-85.627,19.069-93.581c0.833-3.082,1.46-5.414,1.451-5.419
					C498.5,292.404,467.901,344.604,453.5,350.364z"/>
				<path fill="#7C2117" d="M551.161,288.724l-20.679-4.344h-0.001l-18.589-3.905l-7.261-1.65l-0.182,0.031l-81.988-18.391
					c0,0-60.84,38.7-85.14,39.06c-15.474,0.229-17.951-6.546-17.713-11.499c0.824,0.404,1.748,0.637,2.728,0.637
					c3.43,0,6.21-2.78,6.21-6.21c0-3.153-2.35-5.758-5.395-6.157l-0.247-0.03c-6.239-0.591-18.61,5.482-10.244,27.939
					c10.184,27.335,47.488,35.158,65.204,33.073c40.745-1.622,118.846-41.533,118.846-41.533s-2.377,24.658-3.622,29.98
					c21.961,1.544,54.772-13.058,54.772-13.058C563.281,304.389,551.161,288.724,551.161,288.724z"/>
				<path opacity="0.53" fill="#551413" enable-background="new    " d="M551.161,288.724l-20.679-4.344h-0.001l-18.589-3.905
					l-7.261-1.65l-0.182,0.031l-26.383-5.918c-5.79,6.167-33.35,32.695-90.615,46.477c-62.344,15.004-75.859-30.213-76.882-34.028
					c-1.263,4.323-1.034,10.426,2.092,18.818c10.184,27.335,47.488,35.158,65.204,33.073
					c40.745-1.622,118.846-41.533,118.846-41.533s-2.377,24.658-3.622,29.98c21.961,1.544,54.772-13.058,54.772-13.058
					C563.281,304.389,551.161,288.724,551.161,288.724z"/>
				<path fill="#7C2117" d="M284.419,226.636c0,0-1.717-11.313-0.995-24.456c3.691-67.227-32.08-91.691-32.08-91.691
					c-42.531-6.233-45.857,48.113-44.353,56.006c0.102,0.537,0.424,1.201,0.921,1.966c5.221,0.784,32.103,5.763,44.101,26.516
					c13.32,23.04,29.52,66.24,29.52,66.24s-0.137,0.33-0.369,0.888l21.519,15.132C305.922,246.996,284.419,226.636,284.419,226.636z
					"/>
				<path fill="#551413" d="M220.035,133.158c0,0,10.025-17.124,19.212-16.288s29.233,20.045,24.64,65.569
					C263.887,182.438,250.522,134.41,220.035,133.158z"/>
				<path opacity="0.5" fill="#EB8F63" enable-background="new    " d="M281.892,127.116l-9.18-15.66c0,0,47.52-41.58,93.96-17.28
					s98.82,29.16,119.34,27.54c0,0-21.06,15.66-58.32,4.86s-64.8-30.24-85.32-27.54
					C321.853,101.736,304.573,108.216,281.892,127.116z"/>
				<path opacity="0.5" fill="#EB8F63" enable-background="new    " d="M365.592,83.916c0,0,79.92,26.46,99.36,22.14l12.96,9.72
					C477.913,115.776,427.693,123.876,365.592,83.916z"/>
				<path fill="#3B3B3B" d="M452.313,83.071c0,0,15.333-36-34-55.333S300.979,1.071,277.646,10.404s-64.666,48.667-19.333,73.333
					c0,0,3,3.667,8.5-4.167s90.833-39.167,182.833,4.833"/>
				<path opacity="0.5" fill="#1A1A18" enable-background="new    " d="M272.313,55.404c-18.892-9.677-9.38-25.469-2.527-41.096
					c-23.227,13.565-52.026,47.364-11.473,69.429c0,0,3,3.667,8.5-4.167s90.833-39.167,182.833,4.833l2.667-1.332
					c0,0,1.265-2.977,1.899-7.673C367.646,26.404,272.313,55.404,272.313,55.404z"/>
				<path fill="#1A1A1A" d="M264.313,66.071l2.5,13.5c0,0,102-27,182,15.5l5.399-19.673
					C454.211,75.398,396.313,35.737,264.313,66.071z"/>
				<polyline fill="#3B3B3B" points="366.313,15.071 386.313,6.404 390.313,9.737 371.646,16.404 				"/>
				<g>
					<path fill="#F59964" d="M428.698,199.185c0,0,8.851-30.856,39.491-29.589c0,0,27.745-0.792,25.022,29.751L428.698,199.185z"/>
					<path fill="#F9F7F5" d="M448.637,182.734c0,0,27.678-3.825,44.511,18.008c0,0-23.169,21.466-61.553,1.921"/>
					<path fill="#13100E" d="M448.637,182.734c0,0,11.726-0.957,13.219,18.144l-30.261,1.785
						C431.595,202.663,429.197,191.028,448.637,182.734z"/>
					<circle fill="#F9F7F5" cx="450.451" cy="189.214" r="1.426"/>
				</g>
				<g>
					<path fill="#551413" d="M318.507,161.088l4.677-18.709l11.361,3.342c0,0,38.755-24.055,52.12-19.378
						c13.365,4.675,14.701,26.728,16.038,32.74C402.703,159.083,361.272,133.691,318.507,161.088z"/>
					<path fill="#F59964" d="M325.358,189.323c0,0,8.686-32.575,38.756-31.24c0,0,27.229-0.833,24.558,31.407L325.358,189.323z"/>
					<path fill="#F9F7F5" d="M349.781,171.532c0,0,23.747-3.212,38.89,17.958c0,0-17.711,32.539-51.284,19.542"/>
					<path fill="#13100E" d="M349.781,171.532c-23.328,5.184-22.291,23.155-22.291,23.155l0.469-0.051
						c0.416,3.715,2.212,10.272,9.428,14.396c0,0,14.534-1.502,22.218-17.874C364.073,173.806,349.781,171.532,349.781,171.532z"/>
					<circle fill="#F9F7F5" cx="344.315" cy="184.984" r="1.426"/>
				</g>
				<path fill="#FAB56E" d="M420.66,200.164c0,0,105.84-13.68,161.28,49.68l-22.32,10.08l-111.6-14.4c0,0-31.68-9.36-34.56-10.08"/>
				<g>
					<path fill="#EB8F63" d="M510.253,279.807L615.6,302.944c-3.751-14.762-10.544-27.539-18.819-38.489l0.279-0.031
						c-30.24-40.32-75.42-53.82-75.42-53.82s0.583,0.472,1.617,1.331c10.662,6.669,57.299,36.975,56.343,56.269
						C578.75,285.359,530.894,282.191,510.253,279.807z"/>
					<path fill="#EB8F63" d="M500.041,277.564l0.627,0.138c-0.005-0.019-0.009-0.039-0.014-0.058
						C500.26,277.594,500.041,277.564,500.041,277.564z"/>
				</g>
				<path fill="#EB8F63" d="M412.56,253.264c0,0,0-21.6,31.32-17.28C443.88,235.984,402.841,223.024,412.56,253.264z"/>
				<g>
					<path fill="#551413" d="M452.646,234.708c-12.958,0-23.5-10.542-23.5-23.5s10.542-23.5,23.5-23.5s23.5,10.542,23.5,23.5
						S465.603,234.708,452.646,234.708z M452.646,190.708c-11.304,0-20.5,9.196-20.5,20.5s9.196,20.5,20.5,20.5
						c11.303,0,20.5-9.196,20.5-20.5S463.949,190.708,452.646,190.708z"/>
				</g>
				<g>
					
						<rect x="282.811" y="205.199" transform="matrix(0.9979 0.0653 -0.0653 0.9979 14.2585 -22.8582)" fill="#551413" width="148.013" height="3"/>
				</g>
				<path fill="#551413" d="M512.753,208.351c2.19-8.962,10.265-15.643,19.892-15.643c11.303,0,20.5,9.196,20.5,20.5
					c0,3.485-0.879,6.767-2.42,9.643c0.866,0.574,1.691,1.16,2.457,1.762c1.885-3.38,2.963-7.268,2.963-11.405
					c0-12.958-10.542-23.5-23.5-23.5c-10.986,0-20.211,7.587-22.771,17.79L512.753,208.351z"/>
				<g>
					<path fill="#551413" d="M510.542,206.441c-15.636-5.542-34.785-0.649-34.976-0.599l-0.506-1.935
						c0.808-0.212,19.942-5.099,36.149,0.648L510.542,206.441z"/>
				</g>
			</g>
			<g>
				<g>
					<path fill="#414242" d="M356.469,384.703c-1.734,0.853-2.822,1.837-2.822,2.881c0,1.153,1.676,2.348,3.76,3.26L356.469,384.703
						z"/>
					<path fill="#414242" d="M389.518,382.989l0.461,8.886l0.029,0.187c4.578-1.092,7.471-2.693,7.471-4.479
						C397.479,385.734,394.38,384.082,389.518,382.989z"/>
				</g>
				
					<radialGradient id="SVGID_4_" cx="-205.1875" cy="66.0085" r="43.8859" gradientTransform="matrix(1 0 0 1 579 327)" gradientUnits="userSpaceOnUse">
					<stop  offset="0.5128" style="stop-color:#405684"/>
					<stop  offset="0.8325" style="stop-color:#5A7ABA"/>
				</radialGradient>
				<path fill="url(#SVGID_4_)" d="M389.453,382.584l0.047,1.056c4.786,1.076,7.645,2.639,7.645,4.11
					c0,2.582-8.795,5.459-21.417,5.459s-21.416-2.877-21.416-5.459c0-0.78,0.815-1.586,2.283-2.332l-0.158-1.074
					c-1.972,0.937-3.125,2.061-3.125,3.406c0,4.195,11.549,6.459,22.417,6.459s22.417-2.264,22.417-6.459
					C398.146,385.405,394.534,383.664,389.453,382.584z"/>
			</g>
		</g>
	</g>
	<g>
		<g opacity="0.4">
			<polygon fill="#142551" points="385.734,553.765 370.899,576.904 370.223,625.823 399.384,625.94 399.459,575.783 			"/>
			<path fill="#142551" d="M355.837,557.531c0.532-0.023,0.963-0.449,0.97-0.988c0.005-0.38-0.2-0.714-0.508-0.891
				c-0.106-0.061-0.227-0.095-0.353-0.115c0.329-0.163,0.564-0.491,0.57-0.884c0.005-0.38-0.2-0.714-0.507-0.891
				c-0.058-0.033-0.121-0.056-0.185-0.078c0.329-0.163,0.563-0.491,0.569-0.883c0.005-0.38-0.2-0.714-0.507-0.891
				c-0.145-0.083-0.312-0.132-0.491-0.135l-1.117-0.015l-0.088-1.363c-1.052-4.097-4.829-7.057-9.229-6.903l-3.516,0.122
				c-6.056,0.034-7.381,2.856-8.515,6.516l0.04,1.336l-1.672-0.023c-0.559-0.008-1.018,0.439-1.026,0.998
				c-0.006,0.454,0.293,0.828,0.703,0.962c-0.335,0.161-0.574,0.493-0.579,0.89c-0.007,0.514,0.377,0.927,0.872,0.999
				c-0.336,0.161-0.576,0.493-0.582,0.891c-0.007,0.559,0.439,1.018,0.998,1.026l0.713,15.877l3.042,73.54l15.843-8.197l0.077-0.04
				l0.019,0.48l7.404-3.603l-0.037-0.724l0.281-0.489L355.837,557.531z"/>
		</g>
		<g>
			<g>
				<path fill="#F2CA79" d="M373.921,581.895c0.061-0.124-1.022-4.991-1.022-4.991l14.835-23.139l13.725,22.018l-22.382,6.837
					L373.921,581.895z"/>
				<polygon opacity="0.09" fill="#881A22" enable-background="new    " points="387.693,554.055 392.005,572.006 394.515,577.41 
					396.712,577.718 401.459,575.783 387.734,553.765 				"/>
				<path opacity="0.21" fill="#881A22" enable-background="new    " d="M380.569,573.836l7.165-20.071l-14.835,23.139
					c0,0,1.697,2.08,1.913,2.11c0.217,0.03,2.247,0.051,2.822-0.267c0.575-0.317,1.834-2.04,1.989-2.195
					C379.776,576.398,380.569,573.836,380.569,573.836z"/>
				
					<linearGradient id="SVGID_5_" gradientUnits="userSpaceOnUse" x1="243.5693" y1="844.2729" x2="285.2273" y2="844.2729" gradientTransform="matrix(0.9557 0.2944 0.2944 -0.9557 -113.8291 1329.5789)">
					<stop  offset="0" style="stop-color:#F48220"/>
					<stop  offset="1" style="stop-color:#F05F22"/>
				</linearGradient>
				<path fill="url(#SVGID_5_)" d="M392.005,572.006c-0.698,1.081-2.634,4.371-5.474,4.767c-2.842,0.396-5.885-3.083-5.885-3.083
					s-1.359,2.727-3.894,4.094s-3.854-0.88-3.854-0.88l-0.676,48.919l29.161,0.117l0.076-50.157
					C395.242,577.433,392.005,572.006,392.005,572.006z"/>
			</g>
			<path fill="#0F1810" d="M390.471,558.157l-2.737-4.392l-2.863,4.474C386.303,558.02,388.435,557.829,390.471,558.157z"/>
		</g>
		<g>
			
				<linearGradient id="SVGID_6_" gradientUnits="userSpaceOnUse" x1="6699.5664" y1="-738.8302" x2="6723.083" y2="-738.8302" gradientTransform="matrix(-0.8666 -0.499 -0.499 0.8666 5794.02 4541.9106)">
				<stop  offset="0.0112" style="stop-color:#6B281C"/>
				<stop  offset="1" style="stop-color:#AF1F23"/>
			</linearGradient>
			<path fill="url(#SVGID_6_)" d="M334.93,550.132l0.206,6.894l6.598,3.041l2.313,0.748l12.666-2.327l-0.524-8.091
				c-1.052-4.097-4.829-7.057-9.229-6.903l-3.516,0.122C337.389,543.65,336.064,546.473,334.93,550.132z"/>
			<polyline fill="#FFC519" points="361.027,634.055 357.795,556.53 333.699,556.199 337.439,646.628 353.282,638.432 
				360.724,634.582 			"/>
			<path fill="#FFC519" d="M354.357,639.556"/>
			<polygon fill="#FDBE1C" points="353.379,638.871 360.783,635.268 356.713,555.906 350.08,557.691 			"/>
			<polygon fill="#F49720" points="345.728,641.239 353.133,637.635 349.992,555.049 342.909,556.02 			"/>
			<polygon fill="#E47E26" points="337.647,645.46 345.051,641.856 342.164,557.313 333.684,557.211 			"/>
			<g>
				<line fill="none" x1="357.505" y1="554.64" x2="333.408" y2="554.309"/>
				<path fill="#B97B2B" d="M358.009,553.763c0.307,0.177,0.513,0.511,0.507,0.891c-0.008,0.558-0.467,1.005-1.026,0.998
					l-24.097-0.331c-0.559-0.008-1.006-0.467-0.998-1.026c0.008-0.558,0.467-1.005,1.026-0.998l24.097,0.331
					C357.697,553.631,357.865,553.679,358.009,553.763L358.009,553.763z"/>
			</g>
			<g>
				<line fill="none" x1="357.381" y1="552.788" x2="333.284" y2="552.457"/>
				<path fill="#B97B2B" d="M357.886,551.911c0.307,0.177,0.513,0.511,0.507,0.891c-0.008,0.558-0.467,1.005-1.026,0.998
					l-24.097-0.331c-0.559-0.008-1.006-0.467-0.998-1.026c0.008-0.558,0.467-1.005,1.026-0.998l24.097,0.331
					C357.574,551.779,357.741,551.827,357.886,551.911L357.886,551.911z"/>
			</g>
			<g>
				<line fill="none" x1="357.795" y1="556.53" x2="333.699" y2="556.199"/>
				<path fill="#B97B2B" d="M358.299,555.652c0.308,0.178,0.513,0.511,0.508,0.891c-0.008,0.559-0.467,1.006-1.026,0.998
					l-24.097-0.331c-0.559-0.008-1.005-0.467-0.998-1.026c0.008-0.559,0.467-1.005,1.026-0.998l24.097,0.331
					C357.988,555.52,358.155,555.569,358.299,555.652L358.299,555.652z"/>
			</g>
		</g>
		
			<radialGradient id="SVGID_7_" cx="1.0254" cy="200.8384" r="187.0201" gradientTransform="matrix(1 0 0 -1 289.5 884)" gradientUnits="userSpaceOnUse">
			<stop  offset="0.5128" style="stop-color:#405684"/>
			<stop  offset="1" style="stop-color:#5A7ABA"/>
		</radialGradient>
		<path fill="url(#SVGID_7_)" d="M331.525,622.178c0,0,66,3,74,0s6,78-37,80S329.525,644.178,331.525,622.178z"/>
	</g>
	<path fill="#FAB56E" d="M770.375,353.25l0.04,0.052l79.085-36.427c0,0-60.667,5.667-68.333,8.667
		c-6.645,2.6-10.158,22.344-10.977,27.562L770.375,353.25z"/>
	<path opacity="0.2" fill="#142551" d="M496.775,602.172c-23.557-9.946-44.823-21.171-62.943-31.928
		c-46.171-27.41-80.179-56.386-94.145-69.013c0,0-9.255,11.417-13.35,22.454c0,0,0,0,0,0.001c-0.185,0.498-0.358,0.994-0.52,1.489
		c-0.018,0.054-0.034,0.108-0.052,0.162c-0.141,0.437-0.273,0.872-0.394,1.306c-0.027,0.096-0.052,0.191-0.078,0.286
		c-0.105,0.39-0.202,0.777-0.29,1.162c-0.028,0.124-0.056,0.248-0.083,0.372c-0.075,0.354-0.141,0.704-0.2,1.053
		c-0.024,0.143-0.049,0.286-0.071,0.429c-0.049,0.326-0.086,0.648-0.119,0.969c-0.016,0.154-0.035,0.309-0.047,0.462
		c-0.024,0.309-0.035,0.612-0.043,0.915c-0.004,0.154-0.013,0.31-0.013,0.462c0.001,0.312,0.018,0.616,0.038,0.92
		c0.008,0.133,0.009,0.269,0.021,0.401c0.04,0.429,0.098,0.851,0.18,1.262c0,0,69.155,66.616,172.874,100.882L496.775,602.172z"/>
	<g>
		<path fill="#FAB56E" d="M730,654.5c37-1.5,47.5-36,47.5-36l6-0.5c-1,45-49.5,46.5-49.5,46.5"/>
		<path fill="#FAB56E" d="M734,657.5c43,6.5,58-42,58-42l-17,1.5c-12,33.5-38.5,27.5-38.5,27.5"/>
		<g>
			<g>
				<g>
					
						<rect x="668.41" y="438.62" transform="matrix(0.9962 -0.0872 0.0872 0.9962 -43.3088 71.304)" fill="#3B3B3B" width="253" height="186"/>
					<g>
						
							<rect x="640.957" y="357.347" transform="matrix(0.9063 -0.4226 0.4226 0.9063 -88.2967 359.4137)" fill="#303030" width="251" height="43"/>
						<g>
							<defs>
								
									<rect id="SVGID_8_" x="640.051" y="357.77" transform="matrix(0.9063 -0.4226 0.4226 0.9063 -88.5602 359.0703)" width="251" height="43"/>
							</defs>
							<clipPath id="SVGID_9_">
								<use xlink:href="#SVGID_8_"  overflow="visible"/>
							</clipPath>
							<g clip-path="url(#SVGID_9_)">
								<g>
									
										<rect x="644.468" y="383.596" transform="matrix(0.8462 0.5329 -0.5329 0.8462 322.4301 -309.8763)" fill="#FFFFFF" width="107.07" height="40"/>
								</g>
								<g>
									
										<rect x="716.066" y="350.209" transform="matrix(0.8462 0.5329 -0.5329 0.8462 315.6514 -353.1651)" fill="#FFFFFF" width="107.07" height="40"/>
								</g>
								<g>
									
										<rect x="788.57" y="316.4" transform="matrix(0.8462 0.5329 -0.5329 0.8462 308.787 -397.0019)" fill="#FFFFFF" width="107.07" height="40"/>
								</g>
							</g>
						</g>
					</g>
					<g>
						
							<rect x="664.175" y="438.805" transform="matrix(0.9962 -0.0872 0.0872 0.9962 -37.1132 70.5763)" fill="#303030" width="251" height="43"/>
						<g>
							<defs>
								
									<rect id="SVGID_10_" x="663.179" y="438.892" transform="matrix(0.9962 -0.0872 0.0872 0.9962 -37.1246 70.4898)" width="251" height="43"/>
							</defs>
							<clipPath id="SVGID_11_">
								<use xlink:href="#SVGID_10_"  overflow="visible"/>
							</clipPath>
							<g clip-path="url(#SVGID_11_)">
								<g>
									
										<rect x="664.482" y="453.098" transform="matrix(0.4664 -0.8846 0.8846 0.4664 -35.3469 887.6024)" fill="#FFFFFF" width="107.07" height="40"/>
								</g>
								<g>
									
										<rect x="743.182" y="446.213" transform="matrix(0.4664 -0.8846 0.8846 0.4664 12.7393 953.5445)" fill="#FFFFFF" width="107.07" height="40"/>
								</g>
								<g>
									
										<rect x="822.877" y="439.241" transform="matrix(0.4664 -0.8846 0.8846 0.4664 61.4342 1020.3214)" fill="#FFFFFF" width="107.07" height="40"/>
								</g>
							</g>
						</g>
					</g>
				</g>
				<polygon fill="#C6C7CC" points="916.54,493.373 916.191,489.389 667.641,511.134 667.989,515.119 744.198,508.451 
					746.726,537.341 670.517,544.008 670.865,547.993 919.416,526.248 919.067,522.263 751.707,536.905 749.179,508.016 				"/>
			</g>
			<path opacity="0.3" fill="#28292B" d="M780.135,626.267c-40.923-60.683-56.861-127.637-62.305-181.26l-51.175,4.477
				l49.643-23.149c-1.13-18.05-1.126-34.065-0.664-47.136l-0.242,0.113l-70.769,33l-0.906,0.423l18.173,38.971l0.046-0.022
				l16.056,183.518L780.135,626.267z"/>
		</g>
		<path fill="#FAB56E" d="M785.071,674.32L817,676c-1.5-12-15-16.5-34-13.5s-45,1-45,1l-1.382-0.734
			c0.29-1.543,0.529-3.05,0.717-4.491c-0.384-0.19-0.769-0.377-1.152-0.58c0,0,0.929-3.239,1.781-6.452
			c0.217-4.385,0.036-4.742,0.036-4.742l9-1.333c12.495-3.12,36.554-11.331,43.944-30.464
			c10.056-26.039-20.634-63.235-12.364-79.158c0,0-17.114-1.531-18.216,13.18c-1.1,14.703,25.194,40.196,14.799,59.72
			c-10.392,19.524-37.904,29.075-58.418,21.484c-14.931-5.528-24.965-14.669-26.229-23.858c1.086-3.514,7.665-21.906,27.259-25.111
			c21.681-3.547,21.648-27.241,14.183-40.137c0,0-9.349,18.664-34.864,33.003c-4.652,1.635-7.733,6.071-7.733,6.071l0.015,0.024
			c-6.179,6.846-12.512,14.585-15.626,21.567c-3.051,6.84-5.732,15.024-8.055,22.272c-89.768,8.16-174.257-29.039-229.529-61.851
			c-46.171-27.41-80.179-56.386-94.145-69.013c0,0-17.521,21.603-15.021,34.103c0,0,115.46,111.252,271.77,120.181
			c21.367,1.792,43.261,1.448,64.329-2.365c5.503,4.003,34.586,21.453,66.512,26.241c0.648,0.17,1.282,0.322,1.889,0.444
			C741.492,673.498,765.935,674.138,785.071,674.32z"/>
		<path opacity="0.4" fill="#EB8F63" d="M783.5,625.5c-18.833,19.167-45,20-45,20l0.5,4.167C763.167,652.5,784.833,626,784.833,626
			L783.5,625.5z"/>
		<g>
			<path fill="#A64C25" d="M742.12,659.161c-1.974,0-4.005-0.15-6.093-0.479l0.311-1.977c23.658,3.737,40.048-16.621,40.211-16.826
				l1.568,1.24C777.962,641.317,763.593,659.161,742.12,659.161z"/>
		</g>
		<path fill="#EB8F63" d="M736,642.833"/>
		<g>
			<path fill="#A64C25" d="M735.896,660.61l-1.793-0.887c5.165-10.438,3.923-18.648,3.909-18.73l1.974-0.322
				C740.046,641.028,741.364,649.56,735.896,660.61z"/>
		</g>
		<g>
			<path fill="#A64C25" d="M739.155,648.155l-0.311-1.977c0.293-0.046,29.484-4.813,43.901-21.336l1.508,1.314
				C769.353,643.235,740.382,647.962,739.155,648.155z"/>
		</g>
		<path fill="#EB8F63" d="M731.5,667.25c-29.472-5.081-53.159-24.539-60.987-31.638L658,638.5
			c-141.846,8.393-286.504-90.993-329.329-123.148c-1.538,4.145-2.353,8.236-1.671,11.648c0,0,115.46,111.252,271.77,120.181
			c21.367,1.792,43.261,1.448,64.329-2.365c0,0,5.447,3.639,13.652,8.074c8.397,4.401,19.8,9.59,32.575,13.493
			c8.675,2.26,17.273,3.121,24.501,1.219C733.081,667.502,732.314,667.39,731.5,667.25z"/>
		<g>
			<path fill="#EB8F63" d="M738,664c0,0,7.5,6.25,22.75,4.5s39.5-6,51.75-0.5c0.242,0.109,0.46,0.223,0.696,0.333
				c-5.508-5.731-16.399-7.511-30.196-5.333C764,666,738,664,738,664z"/>
		</g>
		<g>
			<path fill="#EB8F63" d="M718.107,581.294c21.228-3.473,21.635-26.251,14.637-39.307c2.751,6.125,6.831,18.55-3.077,22.513
				c-13.333,5.333-48.667,23.333-41.333,40l3.061,4.285c-0.238-0.792-0.436-1.586-0.546-2.38
				C691.934,602.891,698.514,584.499,718.107,581.294z"/>
		</g>
	</g>
	<path fill="#FAB56E" d="M829.668,350.236c-11.433,2.162-20.443-2.104-26.394-6.597c-0.991-2.156-1.467-4.029-1.692-5.449
		l32.085-15.107c0,0-14.698,0.865-26.038,1.552c-9.224,0.265-19.005,0.763-23.212,1.698c-5.921,1.316-8.163,9.989-9.004,15.77
		l-1.746,9.23l5.167-2.433l12.262,4.905c3.873,2.54,8.114,4.931,12.241,7.119l-0.006,0.028c0,0,4.413,3.115,9.343,3.061
		c28.88,4.748,44.049,19.089,44.049,19.089C859.327,368.43,851.254,346.153,829.668,350.236z"/>
</g>
</svg>
